<svg width="48" height="48" viewBox="0 0 48 48" fill="none" xmlns="http://www.w3.org/2000/svg">
<g clip-path="url(#clip0_1788_40307)">
<rect y="-0.000244141" width="48" height="48" rx="24" fill="#CAC2FF"/>
<mask id="mask0_1788_40307" style="mask-type:luminance" maskUnits="userSpaceOnUse" x="1" y="32" width="45" height="24">
<path d="M1.01282 37.5145C1.01282 37.5145 2.79617 46.7655 2.97792 46.9467C3.15919 47.128 23.1424 55.2605 23.1424 55.2605C23.1424 55.2605 36.0211 53.1743 36.0211 52.9627C36.0211 52.7512 45.2716 39.0257 45.2716 39.0257C45.2716 39.0257 44.3345 37.7261 42.0068 36.1538C41.6294 35.8995 41.0231 35.6514 40.2687 35.4129C40.1042 35.3609 39.9326 35.309 39.7547 35.2581C39.7537 35.2576 39.7523 35.2576 39.7513 35.2571C39.1613 35.0874 38.5026 34.9224 37.8069 34.7638C35.9192 36.2009 27.7621 33.266 26.626 33.6353C25.6235 33.9608 24.7032 34.921 24.193 36.0851C24.1882 36.0947 24.1839 36.1048 24.1796 36.1149C24.1156 36.2634 24.0579 36.4149 24.0079 36.5688C23.9944 36.6111 23.981 36.6534 23.9685 36.6957C23.9685 36.6957 23.9531 36.6481 23.9223 36.5649C23.7103 35.9889 22.7775 33.6954 21.3043 33.5045C20.0897 33.3473 17.8611 33.2237 16.0831 32.8987C15.0902 33.1646 13.7477 33.4848 12.3399 33.8079C12.112 33.8603 11.8822 33.9127 11.6523 33.9647C11.1696 34.0748 10.6845 34.1839 10.208 34.2902C7.62405 34.8691 5.29882 35.373 5.00312 35.4888C4.30786 35.761 1.01282 37.5145 1.01282 37.5145Z" fill="white"/>
</mask>
<g mask="url(#mask0_1788_40307)">
<path d="M1.01306 37.5148C1.01306 37.5148 2.79641 46.7657 2.97816 46.947C3.15943 47.1282 23.1427 55.2608 23.1427 55.2608C23.1427 55.2608 36.0214 53.1745 36.0214 52.963C36.0214 52.7514 45.2718 39.026 45.2718 39.026C45.2718 39.026 44.3347 37.7263 42.0071 36.1541C41.6296 35.8997 41.0233 35.6516 40.2689 35.4131C40.1045 35.3612 39.9328 35.3093 39.7549 35.2583C39.754 35.2578 39.7525 35.2578 39.7515 35.2573C39.1616 35.0876 38.5029 34.9227 37.8071 34.764C35.9194 36.2012 27.7624 33.2663 26.6262 33.6355C25.6237 33.9611 24.7034 34.9212 24.1933 36.0853C24.1885 36.0949 24.1841 36.105 24.1798 36.1151C24.1159 36.2637 24.0582 36.4151 24.0081 36.569C23.9947 36.6113 23.9812 36.6536 23.9687 36.6959C23.9687 36.6959 23.9533 36.6483 23.9226 36.5652C23.7105 35.9891 22.7777 33.6956 21.3045 33.5048C20.09 33.3475 17.8614 33.224 16.0833 32.8989C15.0904 33.1648 13.748 33.485 12.3402 33.8082C12.1122 33.8606 11.8824 33.913 11.6526 33.9649C11.1698 34.075 10.6847 34.1842 10.2082 34.2904C7.6243 34.8693 5.29907 35.3732 5.00336 35.4891C4.3081 35.7612 1.01306 37.5148 1.01306 37.5148Z" fill="#4C70F5" stroke="black" stroke-width="0.427393" stroke-linecap="round" stroke-linejoin="round"/>
<path d="M32.944 44.9507L28.8729 40.9551L27.5348 45.9219L32.944 44.9507Z" fill="#F5D256" stroke="black" stroke-width="0.427393" stroke-linecap="round" stroke-linejoin="round"/>
<path d="M18.5098 45.5521L18.9367 39.8635L14.2786 42.0445L18.5098 45.5521Z" fill="#49A2A6" stroke="black" stroke-width="0.427393" stroke-linecap="round" stroke-linejoin="round"/>
<path d="M10.3005 44.9419L5.42505 47.9037L9.90867 50.4242L10.3005 44.9419Z" fill="#F5D256" stroke="black" stroke-width="0.427393" stroke-linecap="round" stroke-linejoin="round"/>
<path d="M42.1926 35.033L37.3176 37.9943L41.8012 40.5148L42.1926 35.033Z" fill="#49A2A6" stroke="black" stroke-width="0.427393" stroke-linecap="round" stroke-linejoin="round"/>
<path d="M9.98733 41.4932L11.0908 35.1584L3.37561 38.7708L9.98733 41.4932Z" fill="#BF9EF9" stroke="black" stroke-width="0.427393" stroke-linecap="round" stroke-linejoin="round"/>
<path d="M32.0885 38.8553L33.1925 32.521L25.4773 36.1334L32.0885 38.8553Z" fill="#E938B5" stroke="black" stroke-width="0.427393" stroke-linecap="round" stroke-linejoin="round"/>
<path d="M37.6046 44.1917L40.7044 49.825L44.4659 42.1814L37.6046 44.1917Z" fill="#BF9EF9" stroke="black" stroke-width="0.427393" stroke-linecap="round" stroke-linejoin="round"/>
<path d="M15.7538 37.3863L21.6116 34.7336L14.2834 30.3889L15.7538 37.3863Z" fill="#F5D256" stroke="black" stroke-width="0.427393" stroke-linecap="round" stroke-linejoin="round"/>
</g>
<path opacity="0.52" d="M24.0067 36.5684C24.0101 36.5838 24.0134 36.5987 24.0168 36.6141L24.1577 37.7724C24.1736 36.8406 25.0645 36.1184 25.9795 35.9434C26.8945 35.7684 27.8311 35.9996 28.7442 36.1857C30.3973 36.5218 32.0806 36.7117 33.7668 36.7516C36.0089 36.8045 38.3495 36.5627 40.2675 35.4126C40.103 35.3606 39.9314 35.3087 39.7535 35.2577C39.7525 35.2573 39.7511 35.2573 39.7501 35.2568C39.1602 35.087 38.5014 34.9221 37.8057 34.7635C35.918 36.2006 27.7609 33.2657 26.6248 33.635C25.6136 33.9634 24.6861 34.937 24.1784 36.1146C24.1144 36.2631 24.0567 36.4146 24.0067 36.5684Z" fill="#0B41B7"/>
<path opacity="0.52" d="M11.6509 33.9647C14.1853 35.3177 17.3168 35.0556 19.957 36.2024C20.8864 36.6058 21.7413 37.1813 22.4645 37.891C22.7116 38.1329 23.0607 38.4117 23.3602 38.2391C23.4525 38.1862 23.5179 38.0973 23.5766 38.0083C23.891 37.528 24.1935 36.7188 24.1916 36.0851C24.1867 36.0947 24.1824 36.1048 24.1781 36.1149C24.1141 36.2634 24.0564 36.4149 24.0064 36.5688C23.993 36.6111 23.9795 36.6534 23.967 36.6957C23.967 36.6957 23.9516 36.6481 23.9209 36.5649C23.7088 35.9889 22.776 33.6954 21.3028 33.5045C20.0883 33.3473 17.8597 33.2237 16.0816 32.8987C15.0887 33.1646 13.7463 33.4848 12.3384 33.8079C12.1105 33.8603 11.8807 33.9127 11.6509 33.9647Z" fill="#0B41B7"/>
<path d="M16.4337 17.6961C16.8558 18.4058 18.0531 19.176 18.9532 19.6833C19.2594 21.5368 18.8729 25.1463 18.4541 28.037C18.3738 28.5909 18.292 29.1188 18.2141 29.6026C18.0545 30.594 17.9098 31.4018 17.8194 31.8754C19.4359 32.0903 21.1577 32.1393 21.8842 32.1942C22.9314 32.273 23.4853 34.4059 23.7541 35.7094C23.8325 36.0878 23.8863 36.3965 23.9214 36.5648C23.9522 36.648 23.9676 36.6956 23.9676 36.6956C23.9777 36.2657 24.0315 35.8666 24.1191 35.4974C24.1503 35.3652 24.1864 35.2368 24.2263 35.1122C24.2734 34.9651 24.3258 34.8233 24.3835 34.6867C24.8504 33.5808 25.6404 32.8298 26.3962 32.4254C26.702 32.262 27.1559 32.224 27.7185 32.2668C27.6367 31.9249 27.6026 31.4455 27.5958 30.9214C27.5886 30.3041 27.6199 29.6247 27.6574 29.0371C27.7031 28.3298 27.7584 27.7553 27.767 27.5793C28.9354 27.9889 30.1764 28.1462 31.3568 27.7793C31.6088 27.7009 31.8578 27.599 32.103 27.4701C36.3861 25.2218 33.6301 18.5846 31.5203 14.7011C30.5784 12.9672 29.7653 11.7825 29.7653 11.7825C29.6836 11.7291 29.0797 11.608 28.2377 11.4906H28.2373C26.039 11.1839 22.2174 10.9016 21.827 11.908C21.2875 13.3 22.3415 14.0601 22.0573 14.6285C21.7731 15.1963 21.1769 16.6166 21.1769 16.6166C21.1769 16.6166 21.0817 16.4132 20.9149 16.1262C20.4721 15.3641 19.5263 14.014 18.5353 14.3443C18.0781 14.4967 17.6117 14.7895 17.2203 15.1569C17.1693 15.204 17.1198 15.253 17.0717 15.303C16.3846 16.0166 15.9928 16.9551 16.4337 17.6961Z" fill="#CC927A" stroke="black" stroke-width="0.427393" stroke-linecap="round" stroke-linejoin="round"/>
<path d="M31.0815 23.5664C30.9891 24.3834 30.842 25.2046 30.9286 26.0225C30.992 26.622 31.1791 27.2 31.357 27.7789C31.6089 27.7005 31.858 27.5986 32.1032 27.4697C36.3863 25.2214 33.6303 18.5842 31.5205 14.7007C30.5785 12.9668 29.7655 11.7821 29.7655 11.7821C29.6837 11.7287 29.0798 11.6076 28.2379 11.4902C30.5261 15.0319 31.5551 19.3752 31.0815 23.5664Z" fill="#FFC7B3"/>
<path d="M17.2207 15.1564C17.8679 15.2045 18.5093 15.3069 19.0949 15.5771C19.5358 15.781 19.9441 16.0791 20.4225 16.1637C20.5859 16.193 20.7662 16.1906 20.9153 16.1257C20.4725 15.3636 19.5267 14.0135 18.5357 14.3438C18.0785 14.4962 17.6121 14.7891 17.2207 15.1564Z" fill="#FFC7B3"/>
<path d="M23.2299 24.7617C23.2299 24.7617 23.3227 29.3338 27.5947 29.955L27.7668 27.5783C27.7668 27.5783 24.5723 26.2354 23.2299 24.7617Z" fill="#B27059"/>
<path d="M17.8192 31.8751C19.4357 32.09 21.1575 32.1391 21.884 32.1939C22.9313 32.2728 23.4852 34.4057 23.7539 35.7092C23.8564 35.6851 23.9535 35.6476 24.0386 35.5769C24.0674 35.5529 24.0944 35.5264 24.1189 35.4971C24.1924 35.4101 24.2487 35.3014 24.2901 35.1783C24.3401 35.0307 24.3689 34.8624 24.3833 34.6865C24.4242 34.1826 24.3453 33.6166 24.2905 33.2916C24.2175 32.8598 24.0607 32.4309 23.8164 32.0699C23.6333 31.7982 23.401 31.566 23.1173 31.4001C22.1725 30.8467 20.9599 31.1558 19.904 30.8668C19.2674 30.6923 18.6957 30.2918 18.314 29.7533C18.2789 29.7037 18.2457 29.6537 18.214 29.6023C18.0543 30.5937 17.9096 31.4015 17.8192 31.8751Z" fill="#B27059"/>
<path d="M24.1892 35.1577C24.1825 35.1206 24.1753 35.0841 24.169 35.0471C24.0863 34.95 24.0142 34.8442 23.9531 34.7302L24.1892 35.1577Z" fill="#B27059"/>
<path d="M23.8169 32.4222C23.891 33.3021 24.0088 34.1782 24.1694 35.0465C24.1876 35.0687 24.2064 35.0903 24.2266 35.1115C24.2473 35.1341 24.2684 35.1562 24.2905 35.1778C24.3405 35.0302 24.3694 34.8619 24.3838 34.6859C24.8507 33.5801 25.6407 32.829 26.3965 32.4246C26.7023 32.2612 27.1562 32.2232 27.7188 32.266C27.637 31.9241 27.6029 31.4447 27.5962 30.9207C27.1678 31.2087 26.8283 31.6698 26.3268 31.7957C25.694 31.9554 25.0464 31.5241 24.3968 31.588C24.2122 31.6063 24.0194 31.6736 23.9107 31.8241C23.8583 31.8967 23.8304 31.9804 23.8169 32.0688C23.7996 32.1838 23.8073 32.3059 23.8169 32.4222Z" fill="#B27059"/>
<path d="M16.4337 17.6961C16.8558 18.4058 18.0531 19.1761 18.9532 19.6834C19.2594 21.5369 18.8729 25.1464 18.4541 28.0371C18.2093 29.7267 17.9535 31.171 17.8194 31.8754C19.4359 32.0904 21.1577 32.1394 21.8842 32.1942C23.2353 32.2962 23.7652 35.8177 23.9214 36.5649C23.9522 36.648 23.9676 36.6956 23.9676 36.6956C24.021 34.4536 25.2485 33.0395 26.3962 32.4255C26.702 32.262 27.1559 32.224 27.7185 32.2668C27.5406 31.5216 27.5877 30.1233 27.6574 29.0372C27.7031 28.3299 27.7584 27.7553 27.767 27.5793C29.1849 28.0765 30.7091 28.2015 32.103 27.4702C36.3861 25.2219 33.6301 18.5847 31.5203 14.7011C30.5784 12.9673 29.7653 11.7826 29.7653 11.7826C29.4706 11.5893 22.367 10.5161 21.827 11.9081C21.2875 13.3 22.3415 14.0602 22.0573 14.6285C21.7731 15.1964 21.1769 16.6167 21.1769 16.6167C21.1769 16.6167 19.8989 13.89 18.5353 14.3444C18.0189 14.5165 17.4905 14.868 17.0717 15.3031C16.3846 16.0166 15.9928 16.9552 16.4337 17.6961Z" stroke="black" stroke-width="0.427393" stroke-linecap="round" stroke-linejoin="round"/>
<path d="M1.01196 37.5145C1.01196 37.5145 2.79531 46.7655 2.97706 46.9467C3.15833 47.128 23.1416 55.2605 23.1416 55.2605C23.1416 55.2605 36.0203 53.1743 36.0203 52.9627C36.0203 52.7512 45.2707 39.0257 45.2707 39.0257C45.2707 39.0257 44.3336 37.7261 42.006 36.1538C41.5463 35.8437 40.7467 35.5437 39.7538 35.2581C39.7529 35.2576 39.7514 35.2576 39.7505 35.2571C39.1605 35.0874 38.5018 34.9224 37.806 34.7638C35.9183 36.2009 27.7613 33.266 26.6251 33.6353C25.4514 34.0166 24.3912 35.2662 23.9676 36.6957C23.9676 36.6957 23.9522 36.6481 23.9215 36.5649C23.7094 35.9889 22.7766 33.6954 21.3034 33.5045C20.0889 33.3473 17.8603 33.2237 16.0822 32.8987C15.0893 33.1646 13.7469 33.4848 12.3391 33.8079C9.03969 34.5657 5.37875 35.3417 5.00227 35.4888C4.307 35.761 1.01196 37.5145 1.01196 37.5145Z" stroke="black" stroke-width="0.427393" stroke-linecap="round" stroke-linejoin="round"/>
<path d="M18.9535 19.6833C19.5656 20.0286 20.0411 20.2522 20.0411 20.2522" stroke="black" stroke-width="0.427393" stroke-linecap="round" stroke-linejoin="round"/>
<path d="M23.2299 24.7617C24.1766 25.5935 25.8768 26.9163 27.7669 27.5783" stroke="black" stroke-width="0.427393" stroke-linecap="round" stroke-linejoin="round"/>
<path d="M15.1915 10.3938C15.2328 10.5346 15.3598 10.6294 15.4617 10.7351C15.979 11.2751 15.8675 12.1334 15.9925 12.8709C16.0218 13.0436 16.1334 13.2594 16.3041 13.2181C16.1781 13.4229 16.1892 13.7037 16.331 13.898C16.4728 14.0927 16.7363 14.1889 16.9705 14.1321C16.9719 14.2884 16.9037 14.4437 16.7883 14.5485C16.8921 14.7644 16.8772 15.0332 16.7503 15.2361C16.8599 15.2072 16.9815 15.2346 17.0715 15.3029C17.4903 14.8678 18.0187 14.5163 18.5351 14.3442C19.8987 13.8898 21.1767 16.6165 21.1767 16.6165C21.1767 16.6165 21.7729 15.1962 22.0571 14.6283C22.3412 14.06 21.2873 13.2998 21.8267 11.9079C22.3667 10.5159 29.4703 11.5891 29.765 11.7824C29.765 11.7824 30.5781 12.9671 31.52 14.7009C31.6854 14.3725 31.8124 14.0191 31.8903 13.6571C31.9436 13.4099 31.9739 13.1585 31.9782 12.9075C31.984 12.543 31.946 12.1574 32.1134 11.8338C31.7975 11.667 31.9032 11.1996 31.8393 10.8481C31.7643 10.4337 31.3936 10.0658 31.4893 9.65523C31.2094 9.43213 31.0839 9.03353 31.1844 8.69023C30.7786 8.51714 30.5132 8.06132 30.5632 7.62282C30.2223 7.53146 29.9429 7.24057 29.8655 6.8963C29.6602 7.02756 29.3919 7.05449 29.165 6.9665C29.0578 6.92467 28.9563 6.85832 28.8419 6.85351C28.5995 6.84389 28.4144 7.1069 28.1721 7.10882C27.7749 7.11267 27.599 6.44866 27.2047 6.49722C27.022 6.51982 26.897 6.69532 26.7244 6.75927C26.432 6.86745 26.1344 6.63089 25.9118 6.4126C25.7569 6.7761 25.2809 6.96217 24.9208 6.79966C24.8073 6.74821 24.7064 6.66839 24.5876 6.63089C24.5664 6.62416 24.5448 6.61887 24.5237 6.6155C24.2481 6.56454 23.9698 6.73426 23.7072 6.85255C23.424 6.98044 23.0173 7.01266 22.8716 6.73859C22.7672 7.04055 22.3561 7.08959 22.0455 7.01602C21.7349 6.94198 21.4084 6.8011 21.1103 6.91457C20.8339 7.01987 20.5459 7.32904 20.3093 7.1521C20.2622 7.117 20.2285 7.06651 20.1799 7.03381C20.054 6.94823 19.8766 7.0141 19.765 7.11796C19.653 7.22181 19.5746 7.35933 19.4539 7.45261C19.1847 7.66032 18.7332 7.54877 18.5923 7.23912C18.3336 7.80841 17.4821 7.99016 17.0133 7.57666C16.8585 7.77572 16.8508 8.04786 16.7849 8.29115C16.719 8.53493 16.5262 8.79409 16.2762 8.76043C16.1339 8.7412 16.004 8.62772 15.8632 8.65705C15.7194 8.68638 15.6482 8.84505 15.5997 8.98353C15.4814 9.31914 15.3631 9.65475 15.2444 9.98988C15.1987 10.1202 15.152 10.2611 15.1915 10.3938Z" fill="#3D0027" stroke="black" stroke-width="0.427393" stroke-linecap="round" stroke-linejoin="round"/>
<path d="M19.9726 18.2114C19.9923 18.0061 19.9091 17.8041 19.8019 17.6277C19.5413 17.1997 19.1235 16.8694 18.6465 16.7146C18.4114 16.6386 18.1229 16.6156 17.9464 16.7886" stroke="black" stroke-width="0.427393" stroke-linecap="round" stroke-linejoin="round"/>
<path d="M19.3602 17.1729C19.2963 17.1094 19.1967 17.0926 19.1083 17.1099C19.0198 17.1272 18.94 17.1734 18.8645 17.2224C18.7467 17.2979 18.6327 17.3825 18.5433 17.4902C18.4539 17.5979 18.3894 17.7306 18.3842 17.8706" stroke="black" stroke-width="0.427393" stroke-linecap="round" stroke-linejoin="round"/>
<path d="M30.2585 17.999C30.3296 18.0466 31.5629 20.4425 30.9936 20.7743C30.4243 21.1065 29.3329 19.6838 29.3329 19.6838" stroke="black" stroke-width="0.427393" stroke-linecap="round" stroke-linejoin="round"/>
<path d="M26.926 20.7229L29.4969 23.2217C29.4969 23.2217 28.5478 24.6531 27.1597 23.5814C25.4984 22.2985 26.926 20.7229 26.926 20.7229Z" fill="white" stroke="black" stroke-width="0.427393" stroke-linecap="round" stroke-linejoin="round"/>
<path d="M24.4833 6.72032C24.4795 6.80158 24.5477 6.86649 24.6102 6.9189C24.9584 7.21027 25.3089 7.50309 25.707 7.7209C26.3022 8.0469 26.9778 8.19066 27.6077 8.44213C28.3717 8.74697 29.0645 9.20807 29.7098 9.71822C30.1911 10.0981 30.6575 10.5169 30.9642 11.0477C31.4273 11.8482 31.4855 12.8296 31.8908 13.6571C31.9442 13.4099 31.9744 13.1585 31.9788 12.9075C31.9845 12.543 31.9466 12.1574 32.1139 11.8338C31.798 11.667 31.9038 11.1996 31.8398 10.8481C31.7648 10.4337 31.3941 10.0658 31.4898 9.65523C31.2099 9.43213 31.0845 9.03353 31.1849 8.69023C30.7791 8.51714 30.5137 8.06132 30.5637 7.62282C30.2228 7.53146 29.9435 7.24057 29.8661 6.8963C29.6608 7.02756 29.3925 7.05449 29.1655 6.9665C29.0583 6.92467 28.9568 6.85832 28.8424 6.85351C28.6001 6.84389 28.415 7.1069 28.1726 7.10882C27.7755 7.11267 27.5995 6.44866 27.2052 6.49722C27.0225 6.51982 26.8975 6.69532 26.7249 6.75927C26.4325 6.86745 26.1349 6.63089 25.9123 6.4126C25.7575 6.7761 25.2815 6.96217 24.9213 6.79966C24.8079 6.74821 24.7069 6.66839 24.5881 6.63089C24.567 6.62416 24.5453 6.61887 24.5242 6.6155C24.503 6.64772 24.4852 6.68234 24.4833 6.72032Z" fill="#6D1151"/>
<path d="M23.9674 36.6956C23.914 38.9371 23.6207 49.2377 23.6207 49.2377" stroke="black" stroke-width="0.427393" stroke-linecap="round" stroke-linejoin="round"/>
<path d="M27.7186 32.267C29.2663 32.3843 31.6391 33.1132 34.0326 33.5224C36.1377 33.8826 38.2884 33.3873 36.8411 32.0564C36.7623 31.9838 36.6685 31.9112 36.5617 31.8376C36.5603 31.8372 36.5593 31.8362 36.5579 31.8352C36.5569 31.8348 36.5565 31.8343 36.5565 31.8343C34.4995 30.4346 27.6575 29.0374 27.6575 29.0374C27.5878 30.1235 27.5407 31.5217 27.7186 32.267Z" fill="#0638C4" stroke="black" stroke-width="0.427393" stroke-linecap="round" stroke-linejoin="round"/>
<path d="M14.3333 30.2633C14.3021 31.1773 15.9941 31.6317 17.8202 31.8745C17.9543 31.1701 18.2101 29.7257 18.4549 28.0361C18.4549 28.0361 16.3042 28.303 15.1098 29.1117C14.6622 29.4146 14.3492 29.7935 14.3333 30.2633Z" fill="#0638C4" stroke="black" stroke-width="0.427393" stroke-linecap="round" stroke-linejoin="round"/>
<path d="M23.9675 36.6953C24.3911 35.2659 25.4513 34.0162 26.625 33.6349C27.7612 33.2657 35.9182 36.2006 37.8059 34.7634C37.8684 34.7163 37.9242 34.6639 37.9723 34.6067C38.5906 33.871 38.0396 33.0705 37.454 32.5194C37.4525 32.518 37.4506 32.5166 37.4492 32.5151C37.0381 32.1295 36.6111 31.867 36.5616 31.8372C36.6683 31.9107 36.7621 31.9833 36.8409 32.0559C38.2882 33.3868 36.1375 33.8821 34.0325 33.5219C31.639 33.1128 29.2661 32.3838 27.7184 32.2665C27.1558 32.2237 26.7019 32.2617 26.3961 32.4252C25.2484 33.0392 24.0209 34.4533 23.9675 36.6953Z" fill="#4C70F5" stroke="black" stroke-width="0.427393" stroke-linecap="round" stroke-linejoin="round"/>
<path d="M23.9675 36.6957C23.9594 36.7241 23.9445 36.6741 23.9214 36.5649" stroke="black" stroke-width="0.427393" stroke-linecap="round" stroke-linejoin="round"/>
<path d="M13.4833 31.7801C13.7382 32.3196 14.7916 32.6624 16.0826 32.8985C17.8607 33.2235 20.0893 33.3471 21.3038 33.5043C22.777 33.6952 23.7098 35.9887 23.9219 36.5647C23.7656 35.8176 23.2357 32.296 21.8846 32.1941C21.1581 32.1393 19.4363 32.0903 17.8198 31.8753C15.9937 31.6325 14.3017 31.1781 14.3329 30.2641C14.3488 29.7943 14.6618 29.4155 15.1094 29.1125C15.0652 29.1308 13.8867 29.6246 13.4684 30.4949C13.4684 30.4949 13.4684 30.4954 13.4675 30.4963C13.2934 30.8603 13.2521 31.2907 13.4833 31.7801Z" fill="#4C70F5" stroke="black" stroke-width="0.427393" stroke-linecap="round" stroke-linejoin="round"/>
<path d="M15.1089 29.1126L15.1113 29.1118" stroke="black" stroke-width="0.427393" stroke-linecap="round" stroke-linejoin="round"/>
<path d="M12.339 33.8077C13.7468 33.4846 15.0893 33.1644 16.0822 32.8985C14.7912 32.6624 13.7377 32.3196 13.4829 31.7801C13.2516 31.2906 13.2929 30.8603 13.467 30.4963C13.4338 30.5512 12.3707 32.3215 12.339 33.8077Z" fill="#0638C4" stroke="black" stroke-width="0.427393" stroke-linecap="round" stroke-linejoin="round"/>
<path d="M13.4675 30.497L13.4691 30.4946" stroke="black" stroke-width="0.427393" stroke-linecap="round" stroke-linejoin="round"/>
<path d="M37.9731 34.6069C37.925 34.6642 37.8692 34.7166 37.8067 34.7637C38.5025 34.9224 39.1612 35.0873 39.7511 35.257C39.7521 35.2575 39.7535 35.2575 39.7545 35.258C39.1564 34.0006 37.45 32.5154 37.45 32.5154C38.0375 33.0664 38.5933 33.8694 37.9731 34.6069Z" fill="#0638C4" stroke="black" stroke-width="0.427393" stroke-linecap="round" stroke-linejoin="round"/>
<path d="M23.1419 38.8759C23.1419 39.2633 23.456 39.5774 23.8434 39.5774C24.2308 39.5774 24.5449 39.2633 24.5449 38.8759V37.7089C24.5449 37.3215 24.2308 37.0074 23.8434 37.0074C23.456 37.0074 23.1419 37.3215 23.1419 37.7089V38.8759Z" fill="#F5D256" stroke="black" stroke-width="0.427393" stroke-linecap="round" stroke-linejoin="round"/>
<path d="M15.1915 10.3938C15.2328 10.5346 15.3598 10.6294 15.4617 10.7351C15.979 11.2751 15.8675 12.1334 15.9925 12.8709C16.0218 13.0436 16.1334 13.2594 16.3041 13.2181C16.1781 13.4229 16.1892 13.7037 16.331 13.898C16.4728 14.0927 16.7363 14.1889 16.9705 14.1321C16.9719 14.2884 16.9037 14.4437 16.7883 14.5485C16.8921 14.7644 16.8772 15.0332 16.7503 15.2361C16.8599 15.2072 16.9815 15.2346 17.0715 15.3029C17.4903 14.8678 18.0187 14.5163 18.5351 14.3442C19.8987 13.8898 21.1767 16.6165 21.1767 16.6165C21.1767 16.6165 21.7729 15.1962 22.0571 14.6283C22.3412 14.06 21.2873 13.2998 21.8267 11.9079C22.3667 10.5159 29.4703 11.5891 29.765 11.7824C29.765 11.7824 30.5781 12.9671 31.52 14.7009C31.7984 14.148 31.9681 13.5258 31.9782 12.9075C31.984 12.543 31.946 12.1574 32.1134 11.8338C31.7975 11.667 31.9032 11.1996 31.8393 10.8481C31.7643 10.4337 31.3936 10.0658 31.4893 9.65523C31.2094 9.43213 31.0839 9.03353 31.1844 8.69023C30.7786 8.51714 30.5132 8.06132 30.5632 7.62282C30.2223 7.53146 29.9429 7.24057 29.8655 6.8963C29.6602 7.02756 29.3919 7.05449 29.165 6.9665C29.0578 6.92467 28.9563 6.85832 28.8419 6.85351C28.5995 6.84389 28.4144 7.1069 28.1721 7.10882C27.7749 7.11267 27.599 6.44866 27.2047 6.49722C27.022 6.51982 26.897 6.69532 26.7244 6.75927C26.432 6.86745 26.1344 6.63089 25.9118 6.4126C25.7569 6.7761 25.2809 6.96217 24.9208 6.79966C24.8073 6.74821 24.7064 6.66839 24.5876 6.63089C24.2914 6.53761 23.9904 6.72513 23.7072 6.85255C23.424 6.98044 23.0173 7.01266 22.8716 6.73859C22.7672 7.04055 22.3561 7.08959 22.0455 7.01602C21.7349 6.94198 21.4084 6.8011 21.1103 6.91457C20.8339 7.01987 20.5459 7.32904 20.3093 7.1521C20.2622 7.117 20.2285 7.06651 20.1799 7.03381C20.054 6.94823 19.8766 7.0141 19.765 7.11796C19.653 7.22181 19.5746 7.35933 19.4539 7.45261C19.1847 7.66032 18.7332 7.54877 18.5923 7.23912C18.3336 7.80841 17.4821 7.99016 17.0133 7.57666C16.8585 7.77572 16.8508 8.04786 16.7849 8.29115C16.719 8.53493 16.5262 8.79409 16.2762 8.76043C16.1339 8.7412 16.004 8.62772 15.8632 8.65705C15.7194 8.68638 15.6482 8.84505 15.5997 8.98353C15.4814 9.31914 15.3631 9.65475 15.2444 9.98988C15.1987 10.1202 15.152 10.2611 15.1915 10.3938Z" stroke="black" stroke-width="0.427393" stroke-linecap="round" stroke-linejoin="round"/>
<path opacity="0.52" d="M13.1731 48.1843C13.2183 49.909 13.5472 51.7418 12.7683 53.2809C12.501 53.8094 12.0615 54.3036 11.4787 54.4089C10.8503 54.5224 10.2435 54.1632 9.70549 53.8194C8.90013 53.3045 8.09476 52.7895 7.28939 52.2746C6.70231 51.8991 6.10129 51.5106 5.69307 50.9461C5.20649 50.2725 5.04541 49.4161 5.00983 48.5858C4.9555 47.3188 5.16129 46.0538 5.44257 44.8171C5.98253 42.4404 6.83213 40.0743 8.39046 38.2001C8.71213 37.813 9.06793 37.4447 9.50067 37.1865C10.7075 36.4667 12.8375 35.9249 13.4645 37.6044C14.204 39.5853 13.666 42.1774 13.4333 44.2098C13.2823 45.5287 13.138 46.8543 13.1731 48.1843Z" fill="#0B41B7"/>
<path d="M12.0975 37.2569L7.31481 46.0833C7.31481 46.0833 -2.07556 32.6344 -1.90342 32.669C-1.81255 32.6868 2.15131 31.4347 5.87332 30.2485C6.08151 31.4328 6.60031 33.0103 7.66051 34.3764C8.88804 35.9582 10.7781 36.8987 12.0975 37.2569Z" fill="#CC927A" stroke="black" stroke-width="0.427393" stroke-linecap="round" stroke-linejoin="round"/>
<path d="M21.0155 30.6032C20.725 31.1532 15.8443 32.3255 14.8812 32.1192L14.4985 32.826L13.4488 34.7632L12.8901 35.7936C12.8901 35.7936 11.1005 35.0517 9.59941 33.1842C8.98925 32.425 8.607 31.7297 8.36804 31.1571C7.96655 30.1974 7.96655 29.581 7.96655 29.581C8.3339 29.4636 8.6897 29.3497 9.02916 29.241C9.69798 29.0266 10.3033 28.8328 10.8077 28.6713C11.7477 28.3698 12.3377 28.1799 12.3377 28.1799C12.3377 28.1799 12.3247 25.9277 13.4647 24.9608C14.9855 23.6708 15.2351 20.8296 15.8789 20.7224C16.4261 20.631 16.9679 22.2759 16.8732 23.9246C16.8569 24.2155 16.8203 24.5069 16.7602 24.7887C16.7602 24.7887 19.8995 24.5492 20.2433 24.8242C20.587 25.0997 20.8967 25.5123 20.3808 26.1657C20.3808 26.1657 21.101 26.9913 20.6548 27.6447C20.6548 27.6447 21.3578 28.5309 20.8005 29.154C20.8005 29.154 21.3059 30.0527 21.0155 30.6032Z" fill="#CC927A" stroke="black" stroke-width="0.427393" stroke-linecap="round" stroke-linejoin="round"/>
<path d="M13.432 37.3903C13.2589 37.4423 12.9695 37.437 12.6031 37.373C12.6017 37.373 12.6002 37.3725 12.5988 37.3721C12.444 37.3446 12.2757 37.3067 12.0968 37.2581C10.7774 36.8999 8.88735 35.9594 7.65982 34.3775C6.59962 33.0115 6.08082 31.434 5.87263 30.2497C5.79185 29.7915 5.75819 29.3924 5.75675 29.0876C5.75579 28.8496 5.77502 28.6688 5.80772 28.5611C5.99091 27.9586 7.154 27.9822 7.71464 27.9562C8.27575 27.9298 9.02919 29.2414 9.02919 29.2414C8.68973 29.3501 8.33393 29.464 7.96659 29.5814C7.96659 29.5814 7.96658 30.6796 8.92149 32.2273C9.10805 32.5307 9.33163 32.8514 9.59944 33.1846C11.1006 35.0521 12.8902 35.794 12.8902 35.794L13.4489 34.7636C13.4763 34.7771 14.3509 35.2238 14.4845 35.794C14.5341 36.0061 14.2177 37.1547 13.432 37.3903Z" fill="#49A2A6" stroke="black" stroke-width="0.427393" stroke-linecap="round" stroke-linejoin="round"/>
<path d="M13.4492 34.7629H13.4484" stroke="black" stroke-width="0.427393" stroke-linecap="round" stroke-linejoin="round"/>
<path d="M13.4317 37.3904C13.4317 37.3904 12.3027 41.3692 11.8099 42.6933C11.7479 42.8607 11.656 43.1107 11.5392 43.4184C11.3873 43.8175 11.193 44.3132 10.9651 44.8503C10.5405 45.8494 9.99914 46.9918 9.39908 47.9189H9.3986C8.79181 48.8545 8.12491 49.571 7.4561 49.7003C5.82324 50.0162 2.41713 47.4414 0.0231404 44.8171C-0.461524 44.2858 -0.904837 43.7521 -1.28324 43.2405C-2.00879 42.2596 -2.6454 40.9191 -3.12766 39.5002C-4.14026 36.5225 -4.47491 33.1986 -3.53154 32.1264C-3.22093 31.774 -2.58818 31.4273 -1.79146 31.1018C-1.30488 30.9032 -0.756745 30.7123 -0.184092 30.533C2.51233 29.6858 5.75641 29.0876 5.75641 29.0876C5.75785 29.3925 5.79151 29.7916 5.87228 30.2498C6.00114 30.983 6.24924 31.8673 6.6714 32.7587C6.93056 33.3068 7.2556 33.8578 7.65948 34.3776C7.67006 34.3915 7.68064 34.405 7.6917 34.4185C8.41148 35.3315 9.35148 36.0278 10.2698 36.5192C10.918 36.8663 11.5551 37.1111 12.0965 37.2582C12.7004 37.4226 13.185 37.4645 13.4317 37.3904Z" fill="#4C70F5" stroke="black" stroke-width="0.427393" stroke-linecap="round" stroke-linejoin="round"/>
<path d="M14.4979 32.8255L13.4482 34.7627L12.8895 35.7931C12.8895 35.7931 11.0999 35.0512 9.5988 33.1837C8.98865 32.4245 8.6064 31.7293 8.36743 31.1566C8.39291 31.134 8.42224 31.1157 8.45542 31.1028C8.59149 31.0499 8.74295 31.109 8.87469 31.1715C10.1094 31.7571 11.235 32.7356 12.601 32.7866C13.0256 32.8024 13.4492 32.725 13.8738 32.738C14.0848 32.7447 14.294 32.7746 14.4979 32.8255Z" fill="#B27059"/>
<path d="M16.8739 23.9246C16.2007 24.2477 15.403 24.4396 14.9342 25.0132C14.6813 25.3224 14.5534 25.7118 14.4159 26.0869C14.089 26.9778 13.6774 27.8457 13.1047 28.603C12.8297 28.9674 12.4763 29.3266 12.0229 29.3781C11.5286 29.4338 11.0853 29.0992 10.8083 28.6713C11.7483 28.3698 12.3383 28.1799 12.3383 28.1799C12.3383 28.1799 12.3253 25.9277 13.4653 24.9608C14.9862 23.6708 15.2357 20.8296 15.8795 20.7224C16.4267 20.631 16.9686 22.2759 16.8739 23.9246Z" fill="#FFC7B3"/>
<path d="M13.4314 37.3898C13.4314 37.3898 12.3024 41.3685 11.8096 42.6927C11.7475 42.86 11.6557 43.1101 11.5389 43.4178C11.4465 43.3332 11.3586 43.2437 11.2749 43.1524C10.6493 42.4715 10.1733 41.6686 9.73772 40.8536C9.16747 39.7876 8.65732 38.6899 8.21016 37.5667C7.80964 36.5599 7.4596 35.5338 7.11005 34.5082C6.98311 34.1356 6.62731 33.3129 6.67106 32.7581C6.93022 33.3062 7.25526 33.8572 7.65914 34.377C8.88667 35.9589 10.7768 36.8993 12.0961 37.2575C12.7 37.422 13.1847 37.4638 13.4314 37.3898Z" fill="#0638C4"/>
<path d="M13.4315 37.3903C13.2584 37.4422 12.9689 37.437 12.6025 37.373C12.6011 37.373 12.5996 37.3725 12.5982 37.372C11.9553 37.2062 11.326 37.0148 10.8365 36.5806C10.6533 36.4181 10.4975 36.2267 10.3427 36.0368C10.0927 35.7296 9.84263 35.4223 9.59261 35.1151C9.282 34.7333 8.96707 34.3448 8.77762 33.8909C8.5877 33.4375 8.53722 32.9004 8.75791 32.461C8.80455 32.3672 8.85984 32.2912 8.92091 32.2273C9.10746 32.5307 9.33104 32.8514 9.59886 33.1846C11.1 35.0521 12.8896 35.794 12.8896 35.794L13.4483 34.7636C13.4757 34.7771 14.3503 35.2237 14.484 35.794C14.5335 36.006 14.2171 37.1547 13.4315 37.3903Z" fill="#2D8787"/>
<path d="M4.38833 43.0196L0.0229883 44.8174C-0.461676 44.2861 -0.904989 43.7524 -1.28339 43.2408C-2.00895 42.2599 -2.64555 40.9194 -3.12781 39.5005L4.38833 43.0196Z" fill="#BF9EF9" stroke="black" stroke-width="0.427393" stroke-linecap="round" stroke-linejoin="round"/>
<path d="M2.96883 32.4476L-1.51479 34.968L-1.79126 31.1013C-1.30467 30.9027 -0.756541 30.7118 -0.183887 30.5325L2.96883 32.4476Z" fill="#F5D256" stroke="black" stroke-width="0.427393" stroke-linecap="round" stroke-linejoin="round"/>
<path d="M11.1005 39.4824L4.83252 37.951L7.69194 34.418C8.41172 35.331 9.35172 36.0273 10.2701 36.5187L11.1005 39.4824Z" fill="#E938B5" stroke="black" stroke-width="0.427393" stroke-linecap="round" stroke-linejoin="round"/>
<path d="M10.9658 44.85C10.5412 45.8492 9.99985 46.9916 9.39979 47.9186H9.39931L7.84627 48.7918L7.41064 42.6907L10.9658 44.85Z" fill="#49A2A6" stroke="black" stroke-width="0.427393" stroke-linecap="round" stroke-linejoin="round"/>
<path d="M13.432 37.3903C13.1854 37.4644 12.7007 37.4225 12.0968 37.2581C10.7774 36.8999 8.88735 35.9594 7.65982 34.3775C6.59962 33.0115 6.08082 31.434 5.87263 30.2497C5.79185 29.7915 5.75819 29.3924 5.75675 29.0876C5.75579 28.8496 5.77502 28.6688 5.80772 28.5611C5.99091 27.9586 7.154 27.9822 7.71464 27.9562C8.27575 27.9298 9.02919 29.2414 9.02919 29.2414C8.68973 29.3501 8.33393 29.464 7.96659 29.5814C7.96659 29.5814 7.96658 31.1522 9.59944 33.1846C11.1006 35.0521 12.8902 35.794 12.8902 35.794L13.4489 34.7636C13.4763 34.7771 14.3509 35.2238 14.4845 35.794C14.5341 36.0061 14.2177 37.1547 13.432 37.3903Z" stroke="black" stroke-width="0.427393" stroke-linecap="round" stroke-linejoin="round"/>
<path d="M11.81 42.6929C11.3662 43.8858 9.41936 49.32 7.45618 49.6998C5.493 50.0797 0.965146 46.2798 -1.28316 43.24C-3.53146 40.2003 -4.92439 33.7097 -3.53146 32.1264C-2.13805 30.5436 5.75649 29.0876 5.75649 29.0876C5.75793 29.3925 5.79159 29.7916 5.87237 30.2498C6.08056 31.434 6.59936 33.0116 7.65957 34.3776C8.88709 35.9595 10.7772 36.9 12.0965 37.2582C12.7005 37.4226 13.1851 37.4645 13.4318 37.3904C13.4318 37.3904 12.3028 41.3692 11.81 42.6933V42.6929Z" stroke="black" stroke-width="0.427393" stroke-linecap="round" stroke-linejoin="round"/>
<path d="M21.0155 30.6032C20.725 31.1533 15.8443 32.3255 14.8812 32.1192L13.4488 34.7632L12.8901 35.7936C12.8901 35.7936 11.1005 35.0517 9.59941 33.1842C7.96655 31.1518 7.96655 29.581 7.96655 29.581C8.3339 29.4637 8.6897 29.3497 9.02916 29.241C10.9443 28.628 12.3377 28.1799 12.3377 28.1799C12.3377 28.1799 12.3247 25.9277 13.4647 24.9608C14.9855 23.6708 15.2351 20.8296 15.8789 20.7224C16.5227 20.6147 17.1588 22.9106 16.7602 24.7887C16.7602 24.7887 19.8995 24.5492 20.2433 24.8243C20.587 25.0998 20.8967 25.5123 20.3808 26.1657C20.3808 26.1657 21.101 26.9913 20.6548 27.6447C20.6548 27.6447 21.3578 28.5309 20.8005 29.154C20.8005 29.154 21.3059 30.0527 21.0155 30.6032Z" stroke="black" stroke-width="0.427393" stroke-linecap="round" stroke-linejoin="round"/>
</g>
<defs>
<clipPath id="clip0_1788_40307">
<rect y="-0.000244141" width="48" height="48" rx="24" fill="white"/>
</clipPath>
</defs>
</svg>
