<svg width="48" height="48" viewBox="0 0 48 48" fill="none" xmlns="http://www.w3.org/2000/svg">
<g clip-path="url(#clip0_1836_4877)">
<rect y="0.000244141" width="48" height="48" rx="24" fill="#FBDFB1"/>
<path d="M18.4736 33.8317C18.4736 33.8317 18.6054 34.1115 18.8857 35.0602C19.166 36.0088 21.5287 37.6422 22.3976 38.3966C23.2664 39.1515 24.4276 45.5459 24.4276 45.5459C24.4276 45.5459 24.7416 39.9193 25.2661 38.5173C25.7902 37.1157 27.8582 35.8848 28.3511 35.114C28.8444 34.3433 28.8752 33.2273 28.8752 33.2273C28.5367 32.709 28.2208 27.5133 28.2208 27.5133C28.979 27.6114 29.7382 27.6205 30.4253 27.4743C31.1196 27.3267 31.7394 27.0204 32.2091 26.4882C34.2593 24.1644 32.1678 19.2865 31.4456 17.8229C31.4456 17.8229 31.4456 17.8219 31.4451 17.8219C30.5854 16.4011 30.5248 14.3288 30.1618 12.8243C30.069 12.4416 29.9575 12.0959 29.8084 11.8069C28.8506 9.95189 27.2548 11.4496 27.2548 11.4496C27.2548 11.4496 26.2071 10.3534 25.4407 11.2087C24.6743 12.0641 24.7598 14.0696 25.0301 15.5501C25.2584 16.8045 25.1233 18.3273 23.9391 19.3903C23.9391 19.3903 23.9381 19.3918 23.9376 19.3923C23.9064 19.4384 23.3727 20.2154 21.9211 22.4205C20.0079 25.326 20.5931 30.2736 18.5453 33.0263C18.5169 33.4932 18.4929 33.7865 18.4746 33.8312L18.4736 33.8317Z" fill="#F3BBB0" stroke="black" stroke-width="0.427393" stroke-linecap="round" stroke-linejoin="round"/>
<path d="M27.2967 11.6565C26.814 11.3877 26.1692 11.5671 25.7898 11.9686C25.4105 12.37 25.259 12.9408 25.2369 13.4927C25.2148 14.0447 25.3071 14.5938 25.348 15.1448C25.5095 17.3369 24.8484 19.5058 24.0425 21.5508C23.2362 23.5957 22.2731 25.5949 21.7827 27.7374C21.5663 28.6832 21.4423 29.6564 21.0951 30.5622C20.748 31.4681 20.1311 32.3273 19.2315 32.6903C18.3319 33.0538 17.1366 32.7615 16.7115 31.8893C16.5293 31.5162 16.5014 31.0887 16.486 30.6738C16.2336 23.9976 18.4458 17.2561 22.6044 12.0272C23.1583 11.3305 23.7815 10.6343 24.6147 10.3213C25.448 10.0083 26.5409 10.214 26.9674 10.9954" fill="#F09E8B"/>
<path d="M23.3972 25.978C23.3972 25.978 24.4103 30.0707 28.4347 30.7617L28.3645 27.532L23.3972 25.978Z" fill="#ED7D66"/>
<path d="M30.1387 12.8965C30.3098 13.2085 30.5012 13.6138 30.8565 13.6052C31.0436 13.6009 31.2085 13.4662 31.2974 13.3013C31.3864 13.1364 31.4109 12.9455 31.4234 12.759C31.4801 11.9074 31.297 11.0155 30.7757 10.3395C30.2545 9.66345 29.3612 9.24802 28.5265 9.42641C27.7307 9.59662 26.6306 10.7338 27.6379 11.3627C28.0558 11.6237 28.5823 11.6228 29.0227 11.843C29.4872 12.0752 29.8882 12.4392 30.1387 12.8965Z" fill="#F09E8B"/>
<path d="M30.4257 27.4751C31.12 27.3275 31.7398 27.0212 32.2096 26.4889C34.2598 24.1651 32.1682 19.2872 31.446 17.8236C31.446 17.8236 31.446 17.8227 31.4455 17.8227C30.5858 16.4019 30.5253 14.3295 30.1622 12.8251L29.8401 12.3289C30.1526 15.382 30.4652 18.4357 30.7777 21.4889C30.9835 23.4978 31.1705 25.6191 30.4262 27.4756L30.4257 27.4751Z" fill="#F9DFDC"/>
<path d="M31.2212 17.3999C31.2308 17.409 31.3164 17.561 31.4457 17.823" stroke="black" stroke-width="0.427393" stroke-linecap="round" stroke-linejoin="round"/>
<path d="M26.5295 8.72751L26.7406 9.37421L26.7993 9.55452L26.8704 9.77233C26.8704 9.77233 26.9272 9.70645 27.0363 9.61846C27.1652 9.51461 27.3657 9.38046 27.6301 9.28574C27.6869 9.26506 27.7475 9.24631 27.81 9.23045C28.1509 9.1439 28.5754 9.13284 29.0721 9.31074C29.0875 9.31603 29.1029 9.32132 29.1187 9.32757C29.8837 9.61702 30.4746 10.1243 30.9021 10.9287C31.1218 11.3408 31.2983 11.8317 31.4329 12.4106C31.6219 13.2208 31.7305 14.205 31.7618 15.3926C31.8012 16.8995 32.8124 19.0838 32.8124 19.0838C32.2056 18.7982 31.77 18.3564 31.4464 17.8227C31.5897 18.1131 31.7863 18.5372 31.9945 19.0487C32.8355 21.1191 33.8543 24.6248 32.2099 26.4875C31.2752 27.5472 29.7462 27.7107 28.222 27.5131C28.222 27.5131 28.3725 29.9869 28.5773 31.6904C28.6692 32.4559 28.7716 33.066 28.8764 33.2271C29.2144 33.7449 40.7896 34.6686 42.121 35.1907C39.6111 33.792 39.1193 31.762 39.2885 29.5536C39.3058 29.3224 39.3308 29.0892 39.3616 28.8545C39.7059 26.2192 38.7755 23.5516 36.1993 21.8663C35.8252 21.6216 35.4939 21.3413 35.2001 21.034C33.4711 19.2252 33.0629 16.4951 33.1254 14.7767C33.1667 13.6419 32.9432 11.949 32.383 10.5041C31.9512 9.3896 31.3194 8.42267 30.4545 7.97503C29.5717 7.51777 28.698 7.6149 28.0004 7.8654C27.1277 8.17794 26.5295 8.72703 26.5295 8.72703V8.72751Z" fill="#BF9EF9" stroke="black" stroke-width="0.427393" stroke-linecap="round" stroke-linejoin="round"/>
<path d="M42.1221 35.1921C42.3 35.2921 42.4885 35.3878 42.6875 35.4806" stroke="black" stroke-width="0.427393" stroke-linecap="round" stroke-linejoin="round"/>
<path d="M10.8665 36.3602C13.008 35.6914 15.2472 34.988 16.7372 34.4899C17.5075 34.1418 18.0912 33.6383 18.5451 33.0272C20.5924 30.2745 20.0078 25.3269 21.9209 22.4213C23.3725 20.2163 23.9062 19.4393 23.9375 19.3932C23.724 19.584 23.4769 19.7605 23.1917 19.9177C23.1917 19.9177 24.2337 17.8464 23.7543 16.0019C23.6927 15.7663 23.6302 15.4644 23.5754 15.1196C23.3264 13.5479 23.2374 11.088 24.1812 10.0086C24.462 9.68689 24.7558 9.50033 25.041 9.40465C26.0002 9.08058 26.87 9.77248 26.87 9.77248L26.5286 8.72766C26.5286 8.72766 25.4525 7.79151 24.0226 7.69342C22.9071 7.61649 21.5752 8.05019 20.3713 9.83883C19.5164 11.1096 19.1197 12.1395 18.9317 13.0526C18.5292 15.0076 19.0836 16.4275 18.1427 18.5267C18.096 18.6306 18.0484 18.732 17.9999 18.8316C16.8416 21.2222 15.2342 22.431 15.0962 25.7774C15.0808 26.1506 15.0832 26.5492 15.1073 26.98C15.44 33.0037 11.7689 35.5443 10.8665 36.3612V36.3602Z" fill="#BF9EF9" stroke="black" stroke-width="0.427393" stroke-linecap="round" stroke-linejoin="round"/>
<path d="M5.38477 38.071C6.41516 37.734 8.46729 37.0978 10.6454 36.4175C10.7045 36.3992 10.7637 36.3809 10.8228 36.3622C11.7099 35.5597 15.2713 33.0917 15.0776 27.2887C15.0737 27.1872 15.0694 27.0848 15.0636 26.981C14.9333 24.6226 15.43 23.1984 16.1185 21.9531C16.7297 20.8462 17.4922 19.8812 18.099 18.5277C19.1876 16.0991 18.2745 14.5802 19.1578 12.0886C19.3347 11.5895 19.5843 11.0505 19.9362 10.4572C19.9612 10.4149 19.9867 10.3726 20.0136 10.3293C20.1108 10.1701 20.2151 10.0071 20.3276 9.83982C23.074 5.76056 26.4854 8.72865 26.4854 8.72865C26.4023 8.53344 24.9579 6.73085 22.286 7.06262C21.7922 7.12368 21.2561 7.25735 20.6796 7.48862C17.5543 8.73874 15.3713 12.141 14.7727 14.9384C14.6544 15.488 14.5977 16.0145 14.6073 16.4967C14.665 19.4331 15.3699 22.5045 13.0601 25.013C12.9951 25.0837 12.9293 25.1539 12.8639 25.2231C10.6218 27.5921 8.40382 28.8836 7.13831 31.867C7.13686 31.8704 7.13542 31.8738 7.13398 31.8776C6.01896 34.5163 5.50785 37.3238 5.38525 38.071H5.38477Z" fill="#BF9EF9" stroke="black" stroke-width="0.427393" stroke-linecap="round" stroke-linejoin="round"/>
<path d="M15.1444 25.1157C15.1444 25.1157 15.03 27.301 13.3832 28.7536C11.7359 30.2061 7.8004 31.7116 8.25044 37.1761" stroke="black" stroke-width="0.427393" stroke-linecap="round" stroke-linejoin="round"/>
<path d="M36.29 34.3431C35.9607 34.3047 33.7802 32.0405 34.5413 29.4427C34.748 28.7363 34.8259 28.0978 34.8163 27.5256" stroke="black" stroke-width="0.427393" stroke-linecap="round" stroke-linejoin="round"/>
<path d="M20.5656 20.1128C19.3799 20.733 18.7231 22.6241 18.6332 23.9593C18.5432 25.2941 18.7808 26.6399 18.6346 27.9698C18.4783 29.3926 17.886 30.7403 17.1138 31.9452C16.3411 33.1506 15.3098 34.1873 14.3621 35.26" stroke="black" stroke-width="0.427393" stroke-linecap="round" stroke-linejoin="round"/>
<path d="M2.15732 41.5358C2.14578 41.5449 2.42898 41.8257 2.95884 42.294C3.84259 43.0763 5.41053 44.3808 7.4391 45.8218C7.4391 45.8218 7.4391 45.8218 7.43958 45.8218C9.52489 47.3036 12.0968 48.9293 14.912 50.2785C14.9139 50.2799 14.9163 50.2804 14.9187 50.2818C19.3432 52.4022 24.3677 53.8394 29.0466 52.9638C32.5839 52.3013 36.4862 49.1846 39.6366 45.9319C40.6492 44.8866 41.5839 43.8278 42.4027 42.8311C43.7687 41.1713 44.8159 39.687 45.3722 38.7331C45.7223 38.133 45.878 37.7431 45.7963 37.6527C45.6179 37.4541 45.2943 37.1699 44.8924 36.8593C44.1005 36.2482 43.0047 35.5371 42.1214 35.1909C42.1209 35.1909 42.1205 35.1909 42.12 35.1909C41.7565 35.0481 40.6294 34.876 39.1759 34.6899C38.208 34.5658 37.0954 34.436 35.9674 34.3047C33.9922 34.0759 31.9699 33.8427 30.5909 33.6321C30.6558 33.9196 30.9554 35.4948 29.9683 36.2622C28.922 37.0747 26.7805 38.1672 26.3944 39.4173C26.378 39.4687 26.365 39.5202 26.3554 39.5721C26.2953 39.8899 26.2371 40.565 26.1631 41.4088C26.0664 42.5214 25.9424 43.9278 25.7549 45.1933C25.6467 45.9203 25.5174 46.6012 25.3596 47.1536C25.1399 47.9249 24.8649 48.4461 24.5144 48.4942C24.1773 48.5403 23.8446 48.0417 23.5273 47.2556C23.3128 46.7252 23.1046 46.0641 22.9065 45.3515C22.5699 44.1404 22.2608 42.7806 21.9934 41.6608C21.792 40.8165 21.6155 40.1092 21.4689 39.7058C21.4059 39.5322 21.3482 39.4149 21.2972 39.3673C20.3731 38.5061 18.0935 37.6859 17.7757 36.9026C17.4839 36.1843 17.1189 34.6288 17.0612 34.3793C16.9578 34.4144 16.8497 34.4504 16.7371 34.4884C15.4207 34.9284 13.5195 35.5289 11.6174 36.1242C11.3669 36.2025 11.1159 36.2809 10.8664 36.3588C10.0783 36.605 9.30227 36.8468 8.58248 37.0709C7.25399 37.4854 6.11445 37.8426 5.42832 38.0671C5.03694 38.1946 4.79364 38.2797 4.74604 38.3076C4.52294 38.4379 3.7118 39.486 3.05597 40.3529C2.58333 40.9775 2.19194 41.5079 2.15732 41.5343V41.5358Z" fill="#4C70F5" stroke="black" stroke-width="0.427393" stroke-linecap="round" stroke-linejoin="round"/>
<path d="M26.3561 39.5747C26.296 39.8926 26.2379 40.5676 26.1638 41.4115C29.0516 40.7672 31.6403 39.2454 33.8963 37.8178C34.1478 37.6592 34.3988 37.4995 34.6502 37.3389C36.1158 36.4052 37.6106 35.4517 39.1767 34.6925C38.2088 34.5685 37.0962 34.4386 35.9682 34.3074C35.1787 34.7781 34.4069 35.2705 33.6425 35.7575C33.3924 35.9172 33.1429 36.0758 32.8938 36.2335C30.9542 37.4611 28.7578 38.7626 26.3951 39.4199C26.3787 39.4714 26.3658 39.5228 26.3561 39.5747Z" fill="#F5D256" stroke="black" stroke-width="0.427393" stroke-linecap="round" stroke-linejoin="round"/>
<path d="M8.58228 37.0739C10.332 37.561 11.9595 38.2798 13.6809 39.04C14.3992 39.3573 15.1421 39.6857 15.8873 39.9915C17.5774 40.6858 19.6901 41.4397 21.9937 41.6633C21.7923 40.819 21.6158 40.1117 21.4691 39.7083C19.6637 39.4362 17.9813 38.8236 16.5999 38.2562C15.8772 37.9596 15.1459 37.6365 14.4386 37.3244C13.5183 36.9176 12.5808 36.5037 11.6177 36.1262C11.3672 36.2046 11.1162 36.283 10.8666 36.3609C10.0786 36.607 9.30254 36.8489 8.58276 37.073L8.58228 37.0739Z" fill="#F5D256" stroke="black" stroke-width="0.427393" stroke-linecap="round" stroke-linejoin="round"/>
<path d="M25.7544 45.1951C25.6462 45.9221 25.5168 46.6029 25.3591 47.1554C28.7402 46.7198 31.7391 44.973 34.3076 43.3473C34.5591 43.1882 34.8101 43.0285 35.0615 42.8684C37.531 41.2942 40.0842 39.6671 42.9181 39.0002C43.6951 38.8175 44.5336 38.7247 45.3717 38.7343C45.7218 38.1343 45.8775 37.7443 45.7958 37.6539C45.6174 37.4554 45.2938 37.1712 44.8919 36.8606C44.086 36.8846 43.2753 36.9895 42.4883 37.1746C39.3442 37.9141 36.6545 39.6287 34.0533 41.2865C33.8032 41.4462 33.5537 41.6048 33.3046 41.7621C31.0799 43.1699 28.5181 44.6753 25.7539 45.1941L25.7544 45.1951Z" fill="#F5D256" stroke="black" stroke-width="0.427393" stroke-linecap="round" stroke-linejoin="round"/>
<path d="M2.15708 41.5369C2.14554 41.5461 2.42874 41.8269 2.9586 42.2952C4.70781 41.8995 6.76571 41.9932 8.914 42.5813C10.695 43.0688 12.3456 43.7982 14.0934 44.5704C14.8117 44.8877 15.5546 45.2161 16.2998 45.5219C18.2611 46.3268 20.7907 47.2135 23.5275 47.2577C23.313 46.7273 23.1048 46.0662 22.9068 45.3536C20.7166 45.1964 18.652 44.4603 17.0124 43.7867C16.2897 43.49 15.5584 43.1669 14.8507 42.8544C13.1173 42.0889 11.3243 41.297 9.40925 40.7724C7.70667 40.306 5.39923 39.9353 3.05573 40.3551C2.58308 40.9797 2.1917 41.51 2.15708 41.5364V41.5369Z" fill="#F5D256" stroke="black" stroke-width="0.427393" stroke-linecap="round" stroke-linejoin="round"/>
<path d="M7.43945 45.8239C9.52476 47.3058 12.0967 48.9315 14.9118 50.2806C14.9138 50.2821 14.9162 50.2826 14.9186 50.284C15.5071 50.5427 16.1086 50.8052 16.712 51.0528C18.9435 51.9688 21.9106 52.9905 25.0811 52.7578L25.0936 52.7568C28.7536 52.4842 31.9818 50.6129 34.7206 48.8795C34.972 48.7204 35.223 48.5608 35.4745 48.4002C36.826 47.539 38.2026 46.6615 39.6364 45.934C40.649 44.8887 41.5837 43.83 42.4026 42.8333C39.471 43.629 36.9289 45.2494 34.4667 46.8187C34.2167 46.9779 33.9671 47.1371 33.7181 47.2943C31.1712 48.906 28.1824 50.6456 24.9542 50.8865L24.9436 50.8874C22.164 51.0918 19.4652 50.1561 17.4246 49.3185C16.7019 49.0219 15.9706 48.6987 15.2628 48.3862C13.5295 47.6208 11.7365 46.8288 9.82142 46.3038C9.11751 46.1115 8.30973 45.935 7.43945 45.8239Z" fill="#F5D256" stroke="black" stroke-width="0.427393" stroke-linecap="round" stroke-linejoin="round"/>
<path d="M2.15732 41.5368C2.07606 41.6002 16.7554 55.2665 29.0465 52.9653C36.8069 51.5123 46.3266 38.2436 45.7968 37.6546C45.2669 37.0656 43.4533 35.715 42.1219 35.1928C42.1214 35.1928 42.1209 35.1928 42.1205 35.1928C41.0915 34.7894 33.9403 34.1456 30.5914 33.6345C30.6563 33.9221 30.9559 35.4972 29.9688 36.2646C28.8797 37.1108 26.6035 38.26 26.3559 39.5745C26.1083 40.8896 25.8837 48.3086 24.5148 48.4971C23.1464 48.6856 21.8569 39.8909 21.2972 39.3697C20.3731 38.5086 18.0935 37.6883 17.7757 36.905C17.4839 36.1867 17.1189 34.6313 17.0612 34.3817C16.9578 34.4168 16.8497 34.4529 16.7371 34.4909C15.2471 34.989 13.0079 35.6929 10.8664 36.3612C8.62287 37.0618 6.48612 37.7234 5.42832 38.0701C5.03693 38.1975 4.79364 38.2826 4.74604 38.3105C4.36283 38.535 2.2381 41.4742 2.15732 41.5372V41.5368Z" stroke="black" stroke-width="0.427393" stroke-linecap="round" stroke-linejoin="round"/>
<path d="M17.0608 34.3803C17.1185 34.6303 17.4839 36.1853 17.7753 36.9036C18.0931 37.6864 20.3727 38.5072 21.2968 39.3683C21.8565 39.8895 23.146 48.6841 24.5144 48.4957C25.8833 48.3072 26.1079 40.8882 26.3555 39.5731C26.6031 38.2586 28.8793 37.1099 29.9683 36.2632C30.9555 35.4958 30.6559 33.9202 30.591 33.6331C29.6077 33.4836 28.9524 33.3451 28.8754 33.2278C28.8754 33.2278 28.8442 34.3438 28.3513 35.1145C27.8585 35.8853 25.791 37.1157 25.2664 38.5177C24.7418 39.9198 24.4279 45.5463 24.4279 45.5463C24.4279 45.5463 23.2667 39.1519 22.3979 38.3971C21.529 37.6427 19.1663 36.0093 18.886 35.0607C18.6057 34.112 18.4739 33.8322 18.4739 33.8322C18.4499 33.8908 17.9118 34.0928 17.0608 34.3813V34.3803Z" fill="#F5D256" stroke="black" stroke-width="0.427393" stroke-linecap="round" stroke-linejoin="round"/>
<path d="M17.0532 34.3459C17.0532 34.3459 17.0561 34.358 17.0609 34.3801" stroke="black" stroke-width="0.427393" stroke-linecap="round" stroke-linejoin="round"/>
<path d="M28.2213 27.5147C25.8032 27.2012 23.3972 25.978 23.3972 25.978" stroke="black" stroke-width="0.427393" stroke-linecap="round" stroke-linejoin="round"/>
<path d="M28.9499 19.4883C28.9499 19.4883 29.5148 20.5879 29.0513 20.8495C28.5878 21.111 28.2205 20.3715 28.2205 20.3715" stroke="black" stroke-width="0.427393" stroke-linecap="round" stroke-linejoin="round"/>
<path d="M28.6341 23.6359C28.6341 23.6359 25.9862 24.3163 25.8857 21.8237" stroke="black" stroke-width="0.427393" stroke-linecap="round" stroke-linejoin="round"/>
<path d="M23.1914 19.9179C23.4765 19.7607 23.7237 19.5842 23.9372 19.3933C23.9372 19.3928 23.9381 19.3924 23.9386 19.3919C25.1228 18.3283 25.2584 16.8056 25.0296 15.5511C24.7594 14.0702 24.6738 12.0652 25.4402 11.2098C26.2066 10.3544 27.2543 11.4507 27.2543 11.4507L26.8692 9.77312C26.8692 9.77312 26.2095 9.24806 25.4056 9.32692C25.0118 9.36538 24.5829 9.54857 24.1804 10.0092C23.5472 10.7333 23.3784 12.0786 23.4121 13.36C23.4385 14.4087 23.6011 15.4145 23.754 16.0026C24.2333 17.8465 23.1914 19.9184 23.1914 19.9184V19.9179Z" fill="#BF9EF9" stroke="black" stroke-width="0.427393" stroke-linecap="round" stroke-linejoin="round"/>
<path d="M14.8167 14.9366C15.246 15.0736 15.6994 14.7356 15.9956 14.3827C17.2722 12.8614 17.6915 10.6304 19.3253 9.50143C19.772 9.19274 20.2816 8.99032 20.7677 8.74654C21.2534 8.50229 21.7308 8.20322 22.0429 7.75846C22.1871 7.55316 22.289 7.30938 22.3304 7.06128C21.8366 7.12234 21.3005 7.25601 20.724 7.48728C17.5987 8.73741 15.4157 12.1397 14.8171 14.9371L14.8167 14.9366Z" fill="#DCCCFF"/>
<path d="M7.14306 31.9391C7.85419 31.8761 8.43838 31.3208 8.83506 30.7207C9.24375 30.1029 9.53272 29.4018 10.0284 28.8518C10.4804 28.3498 11.0761 28.0051 11.6185 27.6026C12.1614 27.1997 12.6787 26.6982 12.8561 26.0462C12.922 25.8053 12.9239 25.5423 12.8682 25.2957C10.6261 27.6646 8.40809 28.9561 7.14258 31.9396L7.14306 31.9391Z" fill="#DCCCFF"/>
<path d="M18.9307 13.0526C19.0826 13.131 19.2894 13.0569 19.4038 12.9228C19.5288 12.7757 19.5745 12.5795 19.6269 12.3929C20.0341 10.9529 21.116 9.71911 22.4911 9.12722C22.8311 8.98105 23.1912 8.86998 23.4965 8.65986C23.8013 8.45023 24.0504 8.10981 24.0273 7.74054C24.0264 7.72467 24.0244 7.70881 24.022 7.69342C22.9065 7.61649 21.5747 8.05019 20.3707 9.83883C19.5158 11.1096 19.1191 12.1395 18.9311 13.0526H18.9307Z" fill="#DCCCFF"/>
<path d="M23.412 13.3588C23.4664 13.3338 23.5072 13.2761 23.5231 13.216C23.5443 13.1357 23.5318 13.0515 23.5279 12.9688C23.5048 12.4212 23.8779 11.936 24.2948 11.5807C24.7122 11.2259 25.1963 10.9407 25.5368 10.5114C25.7286 10.2695 25.8709 9.93873 25.7474 9.65552C25.6829 9.50743 25.5531 9.39684 25.4065 9.32568C25.0127 9.36415 24.5838 9.54734 24.1813 10.008C23.5481 10.7321 23.3793 12.0774 23.413 13.3588H23.412Z" fill="#DCCCFF"/>
<path d="M31.8001 10.7292L31.854 10.6479C31.8713 10.6503 31.8881 10.6527 31.9054 10.6541C32.0771 10.6676 32.243 10.607 32.3829 10.5041C31.9511 9.3896 31.3193 8.42267 30.4543 7.97503C29.5716 7.51777 28.6979 7.6149 28.0002 7.8654C28.0772 7.94185 28.1623 8.00917 28.2512 8.06446C28.6421 8.30872 29.1061 8.40296 29.5297 8.58471C30.0995 8.8304 30.5967 9.24295 30.9438 9.75742C31.0856 9.96802 31.2039 10.2027 31.3862 10.3839C31.5097 10.5065 31.6972 10.5844 31.8001 10.7287V10.7292Z" fill="#DCCCFF"/>
<path d="M35.3521 23.4373C35.53 23.8191 35.8002 24.148 36.0411 24.4932C37.0672 25.9645 37.5783 27.7724 38.7544 29.1273C38.901 29.2966 39.0866 29.4653 39.2881 29.5548C39.3054 29.3235 39.3304 29.0903 39.3611 28.8557C39.7054 26.2203 38.775 23.5527 36.1988 21.8675C35.8247 21.6227 35.4935 21.3424 35.1997 21.0352C35.142 21.2371 35.1131 21.4482 35.0968 21.6583C35.0487 22.2622 35.0958 22.8887 35.3521 23.4383V23.4373Z" fill="#DCCCFF"/>
<path d="M15.0962 25.7767C15.1481 25.832 15.2063 25.8815 15.2722 25.92C15.4332 26.0147 15.6472 26.0349 15.8035 25.9325C16.0953 25.7411 16.0213 25.3065 15.9708 24.9612C15.8429 24.0837 16.1199 23.1548 16.7074 22.4903C17.0906 22.0566 17.595 21.7335 17.9277 21.2604C18.3311 20.6868 18.4052 19.9175 18.1826 19.2602C18.1378 19.1284 18.0753 18.9823 17.9998 18.8313C16.8416 21.2219 15.2342 22.4307 15.0962 25.7772V25.7767Z" fill="#DCCCFF"/>
<path d="M10.6455 36.4193C10.7046 36.4011 10.7638 36.3828 10.8229 36.364C11.71 35.5616 15.2715 33.0935 15.0777 27.2905C15.0599 27.3146 15.0421 27.3386 15.0243 27.3626L14.7103 27.8459C14.53 29.2951 13.828 30.625 13.0554 31.865C12.2827 33.1046 11.422 34.3028 10.8657 35.6529C10.7643 35.8996 10.6715 36.1549 10.6455 36.4188V36.4193Z" fill="#936FE2"/>
<path d="M23.2197 14.8472C23.2866 14.9958 23.4149 15.1713 23.5703 15.1213C23.5717 15.1208 23.5736 15.1198 23.5751 15.1194C23.326 13.5476 23.237 11.0877 24.1809 10.0083C24.4617 9.68659 24.7555 9.50004 25.0406 9.40435C25.0569 9.30242 25.0617 9.19952 25.0223 9.10576C24.9694 8.98075 24.8011 8.89613 24.6925 8.97787C24.5415 8.96392 24.3872 9.13798 24.2496 9.20097C23.2827 9.64524 22.6918 10.6978 22.5831 11.756C22.474 12.8148 22.7822 13.8764 23.2197 14.8467V14.8472Z" fill="#936FE2"/>
<path d="M26.7481 9.48735C26.7601 9.51331 26.7779 9.53591 26.799 9.55466C26.8563 9.60563 26.9409 9.62823 27.0197 9.62102C27.0255 9.62102 27.0308 9.61957 27.0366 9.61861C27.1366 9.60467 27.2284 9.55226 27.314 9.49745C27.4203 9.42917 27.5241 9.35416 27.6304 9.28589C27.766 9.1979 27.9064 9.12049 28.0626 9.08154C28.4079 8.99595 28.7713 9.1152 29.0723 9.31089C29.0877 9.31618 29.1031 9.32147 29.119 9.32772C29.884 9.61717 30.4749 10.1244 30.9023 10.9288C31.0177 11 31.1413 11.062 31.2803 11.1125C31.2129 10.5721 31.0605 10.023 30.6441 9.67246C30.2277 9.32147 29.719 9.09741 29.1993 8.93489C28.7983 8.8094 28.3752 8.71804 27.9597 8.78295C27.5448 8.84786 27.1385 9.095 26.9803 9.48446L26.8789 9.24838C26.8101 9.24934 26.7577 9.30704 26.7413 9.37388C26.7317 9.41186 26.7332 9.45225 26.7495 9.48687L26.7481 9.48735Z" fill="#936FE2"/>
<path d="M28.5768 31.6917C28.5921 31.6864 28.607 31.6802 28.622 31.6734C28.9854 31.5095 29.1393 31.0762 29.184 30.6801C29.2287 30.2839 29.2061 29.8684 29.373 29.5064C29.5624 29.0948 29.9706 28.8236 30.3928 28.6597C30.815 28.4957 31.2664 28.4188 31.6944 28.2707C32.517 27.987 33.2498 27.4331 33.7148 26.6974C34.399 25.6146 34.4581 24.2284 34.159 22.9826C34.0388 22.4836 33.8657 21.9984 33.6628 21.5263C33.4796 21.1007 33.2719 20.6867 33.0556 20.2771C32.9089 20.0001 32.7815 19.6583 32.5815 19.4135C32.4305 19.2284 32.2228 19.1121 31.9934 19.0496C32.8344 21.12 33.8532 24.6256 32.2088 26.4883C31.2741 27.548 29.7451 27.7115 28.2209 27.5139C28.2209 27.5139 28.3714 29.9877 28.5763 31.6912L28.5768 31.6917Z" fill="#936FE2"/>
<path d="M19.9368 10.4588L19.8416 10.8507C19.8661 10.8334 19.8911 10.8219 19.917 10.8147H19.9175C19.9675 10.6574 20.0007 10.4959 20.0142 10.331C20.0195 10.2612 20.0214 10.1906 20.019 10.1199L19.9368 10.4588Z" fill="#936FE2"/>
<path d="M15.8637 21.529C15.908 21.692 15.9988 21.8363 16.1191 21.9541C16.7302 20.8472 17.4927 19.8822 18.0995 18.5287C19.1881 16.1001 18.275 14.5812 19.1583 12.0896C19.1155 12.1396 19.0727 12.1886 19.0294 12.2372C18.4967 12.832 17.8812 13.3767 17.5303 14.0946C16.7004 15.7914 17.5581 17.9854 16.6273 19.6293C16.4532 19.9361 16.2239 20.2082 16.0532 20.5164C15.882 20.8246 15.7709 21.1896 15.8642 21.5295L15.8637 21.529Z" fill="#936FE2"/>
<path d="M31.7623 15.3926C31.8017 16.8995 32.8129 19.0839 32.8129 19.0839C32.2061 18.7983 31.7705 18.3564 31.4469 17.8227C32.169 19.2863 34.2611 24.1637 32.2104 26.488C31.2757 27.5477 29.7467 27.7112 28.2225 27.5136C28.2225 27.5136 28.5384 32.7093 28.8769 33.2276C29.2149 33.7454 40.7901 34.6691 42.1215 35.1913C39.3491 33.6464 39.0385 31.3303 39.3621 28.8546C39.7063 26.2192 38.776 23.5516 36.1997 21.8664C33.624 20.1811 33.0523 16.7865 33.1254 14.7767C33.1985 12.7664 32.4402 9.00449 30.4545 7.97506C28.4682 6.94563 26.5295 8.72706 26.5295 8.72706L26.8709 9.77188C26.8709 9.77188 27.7176 8.79678 29.1192 9.3276C30.8242 9.97286 31.6647 11.699 31.7623 15.3931V15.3926Z" stroke="black" stroke-width="0.427393" stroke-linecap="round" stroke-linejoin="round"/>
<path d="M10.8665 36.3605C13.008 35.6917 15.2472 34.9883 16.7372 34.4901C17.5075 34.142 18.0912 33.6386 18.5451 33.0275C20.5924 30.2748 20.0078 25.3272 21.9209 22.4216C23.3725 20.2166 23.9062 19.4396 23.9375 19.3934C23.724 19.5843 23.4769 19.7608 23.1917 19.918C23.1917 19.918 24.2337 17.8467 23.7543 16.0022C23.4143 14.6949 23.0302 11.3253 24.1812 10.0088C25.4054 8.60726 26.8705 9.77276 26.8705 9.77276L26.5291 8.72794C26.5291 8.72794 23.1177 5.75938 20.3713 9.83911C17.6849 13.8304 19.5226 15.4469 18.1422 18.527C16.8526 21.4033 14.8606 22.5255 15.1073 26.9803C15.44 33.0039 11.7689 35.5446 10.8665 36.3615V36.3605Z" stroke="black" stroke-width="0.427393" stroke-linecap="round" stroke-linejoin="round"/>
<path d="M5.42798 38.0689C6.48626 37.7222 8.62301 37.0606 10.866 36.3601C11.7685 35.5437 15.4396 33.0025 15.1068 26.9789C14.8607 22.5241 16.8527 21.4019 18.1418 18.5256C19.5222 15.446 17.684 13.8295 20.3708 9.83771C23.1172 5.75845 26.5286 8.72654 26.5286 8.72654C26.4306 8.49526 24.4207 6.00703 20.7228 7.48651C16.9835 8.98281 14.5933 13.5588 14.6505 16.4946C14.7082 19.431 15.4131 22.5024 13.1033 25.0109C10.7929 27.5193 8.47876 28.7973 7.17719 31.875C6.06218 34.5137 5.55107 37.3212 5.42846 38.0684L5.42798 38.0689Z" stroke="black" stroke-width="0.427393" stroke-linecap="round" stroke-linejoin="round"/>
<path d="M23.1914 19.9182C23.4765 19.7609 23.7237 19.5845 23.9371 19.3936C23.9371 19.3931 23.9381 19.3926 23.9386 19.3922C25.1228 18.3286 25.2584 16.8058 25.0296 15.5514C24.7593 14.0705 24.6738 12.0655 25.4402 11.2101C26.2066 10.3547 27.2543 11.451 27.2543 11.451L26.8692 9.7734C26.8692 9.7734 25.4041 8.60789 24.18 10.0095C23.0289 11.3264 23.413 14.696 23.753 16.0029C24.2324 17.8468 23.1904 19.9186 23.1904 19.9186L23.1914 19.9182Z" stroke="black" stroke-width="0.427393" stroke-linecap="round" stroke-linejoin="round"/>
<path d="M25.1423 20.2585C26.4589 20.1604 27.4347 18.8506 27.3216 17.333C27.2086 15.8153 26.0496 14.6645 24.7329 14.7626C23.4162 14.8607 22.4405 16.1705 22.5536 17.6881C22.6666 19.2058 23.8256 20.3566 25.1423 20.2585Z" fill="#E938B5" stroke="black" stroke-width="0.427393" stroke-linecap="round" stroke-linejoin="round"/>
<path d="M31.5834 19.779C32.9001 19.6809 33.8758 18.3711 33.7628 16.8535C33.6497 15.3358 32.4907 14.185 31.1741 14.2831C29.8574 14.3812 28.8817 15.691 28.9947 17.2086C29.1078 18.7263 30.2668 19.8771 31.5834 19.779Z" fill="#E938B5" stroke="black" stroke-width="0.427393" stroke-linecap="round" stroke-linejoin="round"/>
<path d="M28.9955 17.2066C28.9955 17.2066 28.3373 16.0026 27.3228 17.3311" stroke="black" stroke-width="0.427393" stroke-linecap="round" stroke-linejoin="round"/>
<path d="M26.8694 9.77214L27.2545 11.4497C27.2545 11.4497 28.8504 9.95245 29.8081 11.807C30.5452 13.234 30.3673 16.0401 31.4453 17.8225C31.4453 17.8225 31.4458 17.8225 31.4458 17.8234C31.7689 18.3571 32.205 18.799 32.8118 19.0846C32.8118 19.0846 31.8006 16.9003 31.7612 15.3934C31.73 14.2058 31.6213 13.2215 31.4323 12.4113C31.0337 10.7011 30.275 9.76589 29.1182 9.32786C28.6018 9.13265 28.1609 9.14131 27.8094 9.23074C27.2074 9.38364 26.8694 9.77214 26.8694 9.77214Z" fill="#BF9EF9" stroke="black" stroke-width="0.427393" stroke-linecap="round" stroke-linejoin="round"/>
<path d="M27.8093 9.23049C27.8353 9.31607 27.881 9.39781 27.9391 9.46417C28.0906 9.63822 28.3065 9.73871 28.5099 9.84738C29.4287 10.3368 30.2096 11.0816 30.7409 11.9769C30.8096 12.0928 30.876 12.213 30.9731 12.3068C31.0702 12.401 31.2063 12.4654 31.339 12.4419C31.3717 12.4361 31.403 12.4255 31.4323 12.4106C31.0337 10.7003 30.275 9.76516 29.1181 9.32713C28.6017 9.13192 28.1608 9.14058 27.8093 9.23001V9.23049Z" fill="#DCCCFF"/>
<path d="M26.8694 9.77221L27.2545 11.4498C27.2545 11.4498 28.8504 9.95252 29.8081 11.807C30.5452 13.2341 30.3673 16.0402 31.4453 17.8225C31.4453 17.8225 31.4458 17.8225 31.4458 17.8235C31.7689 18.3572 32.205 18.7991 32.8118 19.0847C32.8118 19.0847 31.8006 16.9003 31.7612 15.3935C31.6636 11.6993 30.8227 9.9732 29.1182 9.32794C27.7166 8.7976 26.8699 9.77221 26.8699 9.77221H26.8694Z" stroke="black" stroke-width="0.427393" stroke-linecap="round" stroke-linejoin="round"/>
</g>
<defs>
<clipPath id="clip0_1836_4877">
<rect y="0.000244141" width="48" height="48" rx="24" fill="white"/>
</clipPath>
</defs>
</svg>
