<svg width="48" height="48" viewBox="0 0 48 48" fill="none" xmlns="http://www.w3.org/2000/svg">
<g clip-path="url(#clip0_1836_10256)">
<rect y="-0.000244141" width="48" height="48" rx="24" fill="#F8C9D2"/>
<path d="M26.1191 54.7719C25.0686 55.0844 24.2752 55.3104 24.0069 55.3551C22.9698 55.5282 13.8078 54.2603 13.4044 54.4906C13.001 54.7214 3.89673 38.414 3.89673 38.414C3.89673 38.414 5.33726 35.9363 6.14407 35.2132C6.32774 35.0483 7.15427 34.7814 8.32842 34.465H8.3289C10.2228 33.9549 13.0231 33.3183 15.4936 32.7812C16.4884 32.5648 17.4298 32.3648 18.2366 32.196C17.7726 33.2726 17.8044 35.6815 19.0016 39.1189C20.3508 42.9923 23.0924 47.6053 22.9183 50.5642L23.59 50.2878L24.3978 49.955C24.3978 49.955 25.4027 52.712 26.1191 54.7719Z" fill="#F5D256" stroke="black" stroke-width="0.427393" stroke-linecap="round" stroke-linejoin="round"/>
<path d="M31.5534 17.4135C31.374 18.5103 30.0445 19.3733 28.944 19.6959C28.944 19.6959 29.3291 30.2138 30.5234 31.2428C30.5398 31.2567 30.5581 31.2712 30.5778 31.2856C30.7336 31.8428 30.7908 32.7727 30.4162 34.2777C30.4162 34.2777 28.5131 36.8419 25.1296 36.8419C21.7461 36.8419 20.8345 34.7157 20.8052 34.6494C20.8052 34.6484 20.8052 34.6479 20.8052 34.6479C20.4417 33.1877 20.4849 32.2688 20.6301 31.7063C20.7148 31.6899 20.7739 31.6784 20.8052 31.6731C21.3586 31.576 20.9802 28.1223 20.847 27.0313L20.8364 26.9472C20.8355 26.9409 20.835 26.9351 20.8345 26.9289C20.8172 26.7938 20.8061 26.713 20.8052 26.7053C19.5238 27.0664 18.1145 27.1837 16.7663 26.725C16.7322 26.7135 16.698 26.7015 16.6648 26.6885C12.9462 25.3042 15.1671 19.3123 17.1529 15.2662H17.1534C17.1711 15.2061 18.3227 11.398 19.1988 10.7936C19.6594 10.4753 20.0767 10.5657 20.3705 10.7253C20.6398 10.8705 20.8052 11.0739 20.8052 11.0739C20.9076 10.9032 22.5428 9.66369 23.3997 11.0739C23.6353 11.4615 23.7747 11.875 23.8516 12.3101C23.8781 12.4572 23.8968 12.6073 23.9103 12.7597C23.9574 13.2992 23.9314 13.868 23.8915 14.4598V14.4613C23.7781 16.1437 23.5516 18.0126 24.5608 19.9171C25.4003 21.5009 26.312 22.0515 26.9293 22.2347C27.3755 22.3669 27.6679 22.3073 27.6679 22.3073C27.6679 22.3073 25.8085 20.572 26.1312 17.6299C26.2495 16.5524 26.3168 15.5157 26.3192 14.5608C26.3317 14.5901 26.8163 15.7657 27.1736 15.7657C27.2972 15.7657 27.4299 15.5364 27.6025 15.2441C27.9352 14.6796 28.416 13.879 29.2632 14.0382C29.67 14.1146 30.0657 14.3786 30.4104 14.7363C31.1562 15.509 31.6673 16.7187 31.5538 17.4135H31.5534Z" fill="#F3BBB0" stroke="black" stroke-width="0.427393" stroke-linecap="round" stroke-linejoin="round"/>
<path d="M19.192 11.448C19.192 11.522 18.2053 13.1203 17.1523 15.2657" stroke="black" stroke-width="0.427393" stroke-linecap="round" stroke-linejoin="round"/>
<path d="M40.4962 34.0365C38.2282 33.4956 35.2466 32.8253 33.1152 32.2224C33.033 31.9022 32.9195 31.6541 32.7834 31.4815C32.1309 30.6545 30.1423 30.5261 30.1423 30.5261C30.1423 30.5261 30.4139 30.7021 30.5774 31.2853C30.5577 31.2709 30.5394 31.2564 30.5231 31.2425C29.3287 30.2135 28.9436 19.6957 28.9436 19.6957C30.0442 19.373 31.3736 18.51 31.553 17.4132C31.7189 16.3973 30.5486 14.2788 29.2624 14.0379C27.9767 13.7965 27.5343 15.7655 27.1727 15.7655C26.8112 15.7655 26.3308 14.5899 26.3183 14.5605C26.3159 15.5154 26.2486 16.5521 26.1303 17.6296C25.8077 20.5717 27.667 22.307 27.667 22.307C27.667 22.307 26.0058 22.645 24.56 19.9168C22.7988 16.5939 24.7999 13.3796 23.3988 11.0736C22.542 9.6634 20.9067 10.9029 20.8043 11.0736C20.8043 11.0736 21.476 9.69321 22.0819 8.95804C22.1271 8.90323 22.1718 8.85178 22.216 8.80514C22.2915 8.72533 22.3646 8.65849 22.4343 8.60849C22.7906 8.35365 23.3055 7.92717 24.12 7.80841C24.8124 7.70696 25.7216 7.82812 26.9347 8.46713C27.7464 8.89457 28.7681 9.79274 29.7908 10.8789C30.8039 11.955 31.8184 13.2157 32.631 14.386C33.6643 15.8741 34.3711 17.2161 34.3345 17.846C34.3167 18.1494 34.2417 18.5278 34.1355 18.9518C33.6734 20.7991 32.6238 23.5148 33.1796 24.7034C33.371 25.113 33.8518 25.6583 34.4653 26.2646C36.0395 27.821 38.4869 29.7818 39.1653 30.9011C39.362 31.2257 39.5423 31.5781 39.7048 31.9325C40.0635 32.7167 40.3337 33.511 40.4962 34.0365Z" fill="#3D0027" stroke="black" stroke-width="0.427393" stroke-linecap="round" stroke-linejoin="round"/>
<path d="M40.4961 34.0359C40.612 34.41 40.673 34.647 40.673 34.647" stroke="black" stroke-width="0.427393" stroke-linecap="round" stroke-linejoin="round"/>
<path d="M22.434 8.60813C22.3994 8.63314 22.3638 8.66199 22.3273 8.69516C22.3181 8.70334 22.309 8.71199 22.2994 8.72064C22.2811 8.73795 22.2628 8.75623 22.2441 8.77546C22.2354 8.78411 22.2263 8.79373 22.2172 8.80335C22.2167 8.80383 22.2162 8.80431 22.2157 8.80479C22.1715 8.85143 22.1268 8.90287 22.0816 8.95769C22.0628 8.98077 22.0441 9.00385 22.0248 9.02837C22.0239 9.02933 22.0229 9.03077 22.022 9.03173C22.0075 9.05049 21.9926 9.06972 21.9777 9.08943C21.9604 9.11203 21.9431 9.13463 21.9263 9.15819C21.909 9.18127 21.8917 9.20483 21.8748 9.22887C21.8479 9.26589 21.8215 9.30388 21.795 9.34234C21.7763 9.36975 21.7575 9.39764 21.7388 9.42552C21.72 9.45389 21.7008 9.48274 21.6825 9.51159C21.6734 9.52553 21.6642 9.539 21.6556 9.55294C21.6272 9.59669 21.5988 9.64141 21.5714 9.68565C21.5354 9.74334 21.4998 9.80152 21.4647 9.8597C21.4642 9.86066 21.4632 9.86211 21.4628 9.86307C21.4344 9.90971 21.407 9.95635 21.3801 10.0025C21.2969 10.1448 21.2195 10.2838 21.1493 10.4112C21.1421 10.4242 21.1348 10.4376 21.1281 10.4501C21.105 10.4925 21.0829 10.5333 21.0618 10.5728C21.0507 10.5934 21.0401 10.6131 21.03 10.6324C20.9334 10.8151 20.8617 10.9569 20.8271 11.0262C20.8228 11.0343 20.8194 11.0416 20.8165 11.0478C20.8098 11.0613 20.806 11.0694 20.8045 11.0723C20.8045 11.0728 20.8045 11.0733 20.8045 11.0733C20.8045 11.0733 20.0809 10.1833 19.1981 10.793C18.3221 11.3974 17.1705 15.2054 17.1527 15.2651H17.1522C15.1487 19.3482 12.9057 25.4113 16.7657 26.7244C18.1139 27.1831 19.5231 27.0658 20.8045 26.7047C20.8132 26.7672 21.4575 31.558 20.8045 31.6725C20.7733 31.6778 20.7141 31.6893 20.6295 31.7056C20.7906 31.082 21.0781 30.8964 21.0781 30.8964C21.0781 30.8964 19.0894 31.0243 18.4365 31.8513C18.3629 31.9441 18.2961 32.0595 18.2374 32.1961C16.042 32.6562 12.8528 33.3452 10.2953 33.966C9.57888 34.1395 8.9115 34.3083 8.32971 34.4651C8.65234 32.7106 12.0065 28.3298 12.8451 26.7465C12.8518 26.7335 12.8585 26.7205 12.8648 26.7071C13.5754 25.2401 11.7796 21.6729 11.6373 19.6338C11.6171 19.3477 11.6296 19.0914 11.6863 18.8755C12.4941 15.7983 18.398 9.07357 18.9784 8.60813C19.5582 8.14318 20.0881 7.91479 20.8045 7.91479C21.2954 7.91479 21.8791 8.24079 22.1979 8.44514C22.3441 8.53938 22.4345 8.60813 22.4345 8.60813H22.434Z" fill="#3D0027" stroke="black" stroke-width="0.427393" stroke-linecap="round" stroke-linejoin="round"/>
<path d="M27.9352 19.8247C28.2049 19.8559 28.5598 19.8088 28.9425 19.6963" stroke="black" stroke-width="0.427393" stroke-linecap="round" stroke-linejoin="round"/>
<path d="M47.8554 38.0362L46.9404 46.3669C46.9404 46.3669 36.4533 52.0713 35.1854 52.1867C34.3122 52.266 29.8266 53.6589 26.7826 54.5739C26.7884 52.4156 26.8211 49.5855 26.8211 49.5855L28.3005 50.1947C28.264 49.571 28.3568 48.8734 28.539 48.1252C29.2208 45.3235 31.1527 41.8058 32.2173 38.7493C33.2852 35.6845 33.426 33.4372 33.1145 32.2227C33.7136 32.3924 34.3805 32.5669 35.0796 32.7429C36.8668 33.1925 38.8655 33.6478 40.4955 34.0368C42.0606 34.4099 43.2852 34.7215 43.6559 34.9071C44.8907 35.5249 47.8554 38.0362 47.8554 38.0362Z" fill="#F5D256" stroke="black" stroke-width="0.427393" stroke-linecap="round" stroke-linejoin="round"/>
<path d="M35.0927 33.8392C34.9239 35.2605 34.5176 36.6414 34.1128 38.0141C32.7872 42.5073 31.462 47.0011 30.1364 51.4943C30.0383 51.8285 29.8234 52.2401 29.4806 52.1804C29.2676 52.1434 29.1368 51.9314 29.0459 51.7347C28.5425 50.6433 28.43 49.4042 28.5319 48.2065C28.5343 48.1795 28.5368 48.1521 28.5392 48.1252C29.221 45.3235 31.1529 41.8058 32.2174 38.7493C33.2853 35.6845 33.4262 33.4372 33.1146 32.2227C33.7137 32.3924 34.3806 32.5669 35.0797 32.7429C35.1595 33.0944 35.136 33.4766 35.0927 33.8392Z" fill="#E0B836"/>
<path d="M18.6656 33.0862L18.7099 31.8938C18.9085 32.2775 18.9291 32.7439 18.6656 33.0862Z" fill="#E0B836"/>
<path d="M23.5899 50.2878C23.0514 50.72 22.4047 50.9768 21.7301 50.8753C20.7118 50.7219 19.9684 49.7973 19.6145 48.8304C19.2606 47.8635 19.1929 46.8163 18.9231 45.8224C18.3187 43.5962 16.7445 41.7658 15.8627 39.6343C15.1314 37.8673 14.8934 35.8993 15.1828 34.0092C15.2463 33.5928 15.3391 33.1721 15.4934 32.7812C16.4883 32.5648 17.4297 32.3648 18.2365 32.196C17.7725 33.2726 17.8043 35.6815 19.0015 39.1189C20.3507 42.9923 23.0923 47.6053 22.9182 50.5642L23.5899 50.2878Z" fill="#E0B836"/>
<path d="M30.4154 34.2769C29.6499 37.356 26.8213 46.669 26.8213 49.5846C26.8213 49.5846 26.7886 52.4147 26.7828 54.5731C26.5525 54.6424 26.3308 54.7087 26.1193 54.7717C25.4029 52.7119 24.398 49.9549 24.398 49.9549C24.398 47.0397 21.5703 37.7291 20.8043 34.6485C20.8337 34.7149 21.7982 36.8411 25.1288 36.8411C28.4594 36.8411 30.4154 34.2769 30.4154 34.2769Z" fill="#BF9EF9" stroke="black" stroke-width="0.427393" stroke-linecap="round" stroke-linejoin="round"/>
<path d="M32.2181 38.7491C30.8689 42.6221 28.1273 47.2355 28.3014 50.1944L26.8219 49.5853C26.8219 46.6696 29.6505 37.3566 30.416 34.2775C30.7906 32.7725 30.7333 31.8426 30.5776 31.2853C30.4141 30.7021 30.1424 30.5261 30.1424 30.5261C30.1424 30.5261 32.1311 30.6545 32.7836 31.4815C32.9196 31.6541 33.0331 31.9022 33.1153 32.2224C33.4269 33.437 33.286 35.6843 32.2181 38.7491Z" fill="#E86F3A" stroke="black" stroke-width="0.427393" stroke-linecap="round" stroke-linejoin="round"/>
<path d="M22.9184 50.5648C23.0924 47.6059 20.3508 42.9929 19.0016 39.1194C17.8044 35.6821 17.7727 33.2732 18.2366 32.1966C18.2953 32.0601 18.3621 31.9447 18.4357 31.8519C19.0887 31.0249 21.0773 30.897 21.0773 30.897C21.0773 30.897 20.7898 31.0826 20.6287 31.7062C20.4835 32.2687 20.4402 33.1876 20.8037 34.6478C20.8037 34.6478 20.8037 34.6483 20.8037 34.6493C21.5697 37.7299 24.3974 47.0404 24.3974 49.9556L22.9179 50.5648H22.9184Z" fill="#E86F3A" stroke="black" stroke-width="0.427393" stroke-linecap="round" stroke-linejoin="round"/>
<path d="M28.1051 17.5107C28.171 17.1415 28.3671 16.7967 28.6508 16.5515C28.9345 16.3063 29.3038 16.1616 29.6788 16.1496C29.8827 16.1428 30.112 16.189 30.2245 16.3587" stroke="black" stroke-width="0.427393" stroke-linecap="round" stroke-linejoin="round"/>
<path d="M20.3961 32.6156C19.9138 32.3786 19.2801 32.5036 18.9238 32.9065" stroke="black" stroke-width="0.427393" stroke-linecap="round" stroke-linejoin="round"/>
<path d="M20.7199 34.4121C20.1838 34.4169 19.6775 34.8256 19.5592 35.3483" stroke="black" stroke-width="0.427393" stroke-linecap="round" stroke-linejoin="round"/>
<path d="M21.2604 36.7985C20.7286 36.6985 20.1478 37.0139 19.9425 37.5149" stroke="black" stroke-width="0.427393" stroke-linecap="round" stroke-linejoin="round"/>
<path d="M21.6769 38.5726C21.1427 38.5149 20.5917 38.8678 20.4205 39.377" stroke="black" stroke-width="0.427393" stroke-linecap="round" stroke-linejoin="round"/>
<path d="M22.2892 40.3669C22.0814 40.2774 21.8309 40.2962 21.6391 40.4145C21.4468 40.5332 21.3179 40.7486 21.3044 40.9741" stroke="black" stroke-width="0.427393" stroke-linecap="round" stroke-linejoin="round"/>
<path d="M23.0274 43.1037C22.888 42.971 22.6798 42.9147 22.4927 42.959C22.3057 43.0032 22.1446 43.147 22.0797 43.3282" stroke="black" stroke-width="0.427393" stroke-linecap="round" stroke-linejoin="round"/>
<path d="M23.403 44.5628C22.9713 44.5137 22.5198 44.6902 22.2361 45.0196" stroke="black" stroke-width="0.427393" stroke-linecap="round" stroke-linejoin="round"/>
<path d="M23.8164 46.4433C23.6394 46.4087 23.4481 46.4558 23.3072 46.5688C23.1663 46.6813 23.0788 46.8577 23.074 47.0381" stroke="black" stroke-width="0.427393" stroke-linecap="round" stroke-linejoin="round"/>
<path d="M24.0195 47.9211C23.5897 47.9918 23.2348 48.3842 23.2079 48.8193" stroke="black" stroke-width="0.427393" stroke-linecap="round" stroke-linejoin="round"/>
<path d="M27.2751 46.8887C27.4776 46.8301 27.7156 46.944 27.7959 47.1392" stroke="black" stroke-width="0.427393" stroke-linecap="round" stroke-linejoin="round"/>
<path d="M27.4819 45.3872C27.5901 45.215 27.7949 45.1083 27.9978 45.1189C28.2008 45.1295 28.394 45.2569 28.4835 45.4391" stroke="black" stroke-width="0.427393" stroke-linecap="round" stroke-linejoin="round"/>
<path d="M27.9698 44.094C28.2136 43.9906 28.4954 43.9791 28.7469 44.0613" stroke="black" stroke-width="0.427393" stroke-linecap="round" stroke-linejoin="round"/>
<path d="M28.293 42.4855C28.6642 42.2345 29.1541 42.1681 29.5787 42.3109" stroke="black" stroke-width="0.427393" stroke-linecap="round" stroke-linejoin="round"/>
<path d="M28.8338 40.7908C28.831 40.6778 28.8935 40.5701 28.9795 40.4965C29.0656 40.4229 29.1728 40.3792 29.2805 40.345C29.5805 40.2508 29.9017 40.2253 30.2123 40.2705" stroke="black" stroke-width="0.427393" stroke-linecap="round" stroke-linejoin="round"/>
<path d="M29.2949 39.0012C29.4541 38.756 29.7825 38.6348 30.0628 38.718C30.3431 38.8012 30.5527 39.081 30.5527 39.3738" stroke="black" stroke-width="0.427393" stroke-linecap="round" stroke-linejoin="round"/>
<path d="M29.7955 37.2991C30.0701 37.1058 30.4023 36.9952 30.7379 36.9856C30.8288 36.9832 30.9221 36.9885 31.0048 37.0265C31.0875 37.0645 31.1562 37.1423 31.1615 37.2332" stroke="black" stroke-width="0.427393" stroke-linecap="round" stroke-linejoin="round"/>
<path d="M30.0876 35.7832C30.2987 35.5183 30.6238 35.3481 30.9618 35.3245C31.2998 35.3014 31.645 35.426 31.8902 35.6592" stroke="black" stroke-width="0.427393" stroke-linecap="round" stroke-linejoin="round"/>
<path d="M30.5128 33.815C30.9335 33.3409 31.673 33.1837 32.2505 33.4457" stroke="black" stroke-width="0.427393" stroke-linecap="round" stroke-linejoin="round"/>
<path d="M30.8033 32.1718C30.9784 31.8977 31.2904 31.7164 31.615 31.701C31.9395 31.6856 32.2679 31.8352 32.4689 32.0905" stroke="black" stroke-width="0.427393" stroke-linecap="round" stroke-linejoin="round"/>
<path d="M28.8134 16.5438C28.9927 16.5178 29.1807 16.5611 29.3307 16.6625C29.4807 16.764 29.5913 16.9226 29.6341 17.0986" stroke="black" stroke-width="0.427393" stroke-linecap="round" stroke-linejoin="round"/>
<path d="M25.4444 24.2615C25.4444 24.2615 26.0988 28.2109 21.1786 29.5957L20.8329 26.9286C20.8329 26.9286 24.6381 25.3895 25.4444 24.2615Z" fill="#ED7D66"/>
<path d="M16.9993 18.5513C16.3252 20.9025 15.6502 23.4148 16.3647 25.7539C16.4599 26.066 16.5796 26.3737 16.6633 26.6882C12.9446 25.3039 15.1655 19.3119 17.1513 15.2659H17.1518C17.1696 15.2058 18.3211 11.3977 19.1972 10.7933C19.6578 10.475 20.0751 10.5654 20.3689 10.725C18.613 12.9791 17.7874 15.8034 16.9993 18.5513Z" fill="#F9DFDC"/>
<path d="M30.4092 14.7363C29.7197 14.8997 29.0292 15.0623 28.3397 15.2257C28.0964 15.2834 27.8248 15.3363 27.6012 15.244C27.9339 14.6795 28.4147 13.879 29.2619 14.0381C29.6687 14.1146 30.0644 14.3785 30.4092 14.7363Z" fill="#F9DFDC"/>
<path d="M23.909 12.7589C23.873 12.6108 23.8306 12.4353 23.8504 12.3093C23.8768 12.4565 23.8956 12.6065 23.909 12.7589Z" fill="#F09E8B"/>
<path d="M26.9281 22.2338C26.7463 22.5882 26.2598 22.6613 25.8602 22.6103C24.7707 22.4723 23.7744 21.7453 23.3104 20.75C22.9027 19.8754 22.9022 18.8609 23.0671 17.9098C23.232 16.9593 23.5528 16.0423 23.7658 15.1014C23.8138 14.8898 23.8562 14.6759 23.8903 14.4604C23.7768 16.1428 23.5503 18.0118 24.5596 19.9163C25.3991 21.5001 26.3107 22.0506 26.9281 22.2338Z" fill="#F09E8B"/>
<path d="M22.2389 9.24137C22.1918 9.14328 22.1408 9.04712 22.0816 8.95769C21.9687 8.78652 21.8268 8.63987 21.6268 8.54659C21.2109 8.35234 20.7113 8.40763 20.2935 8.59756C19.8757 8.78748 19.5256 9.09857 19.1987 9.42071C16.1912 12.3826 14.602 16.5306 11.6859 19.5828C11.6695 19.5996 11.6532 19.6169 11.6368 19.6338C11.6167 19.3477 11.6292 19.0914 11.6859 18.8755C12.4937 15.7983 18.3976 9.07357 18.978 8.60813C19.5578 8.14318 20.0877 7.91479 20.8041 7.91479C21.295 7.91479 21.8787 8.24079 22.1975 8.44514C22.2033 8.56534 22.2095 8.68506 22.2158 8.80479C22.2235 8.95096 22.2312 9.09616 22.2389 9.24137Z" fill="#6D1151"/>
<path d="M29.7908 10.8789C28.0714 9.9793 26.0034 9.69562 24.559 8.40077C24.3748 8.23537 24.1955 8.03824 24.12 7.80841C24.8124 7.70696 25.7216 7.82812 26.9347 8.46713C27.7463 8.89457 28.7681 9.79274 29.7908 10.8789Z" fill="#6D1151"/>
<path d="M34.3339 17.846C34.3161 18.1493 34.2411 18.5278 34.1348 18.9518C33.9189 18.1888 33.566 17.4637 33.0996 16.8223C32.8289 16.4511 32.5135 16.0924 32.3933 15.6491C32.2822 15.2409 32.3582 14.7855 32.5953 14.4345C32.6063 14.4182 32.6179 14.4019 32.6304 14.386C33.6636 15.8741 34.3704 17.2161 34.3339 17.846Z" fill="#6D1151"/>
<path d="M39.705 31.9333C39.4535 31.9313 39.1939 31.8227 38.9939 31.6621C38.6919 31.4193 38.49 31.0769 38.2707 30.7577C37.4543 29.5691 36.3104 28.6074 34.9992 28.0079C34.7425 27.8901 34.467 27.7766 34.2968 27.5516C34.0131 27.1756 34.1424 26.6116 34.4655 26.2654C36.0397 27.8218 38.4871 29.7826 39.1655 30.9019C39.3622 31.2265 39.5425 31.5789 39.705 31.9333Z" fill="#6D1151"/>
<path d="M11.663 31.2306C11.1898 32.1311 10.6715 33.0264 10.2946 33.9664C9.57814 34.14 8.91077 34.3088 8.32898 34.4655C8.65161 32.711 12.0058 28.3303 12.8443 26.7469C12.8511 26.734 12.8578 26.721 12.864 26.7075C12.8669 26.7287 12.8693 26.7498 12.8717 26.7705C13.0371 28.3255 12.39 29.8463 11.663 31.2306Z" fill="#6D1151"/>
<path d="M26.1839 12.3825C26.1151 12.4469 26.03 12.4916 25.9362 12.5013C25.6304 12.5311 25.4227 12.2003 25.3246 11.9089C25.2044 11.5516 25.1285 11.1781 24.9746 10.8338C24.8203 10.49 24.5698 10.1664 24.2159 10.0351C23.9668 9.94283 23.649 9.92793 23.5163 9.69713C23.435 9.55577 23.4629 9.37931 23.5495 9.23747C25.091 9.06197 25.8901 10.3409 26.1839 12.3825Z" fill="#6D1151"/>
<path d="M23.3499 9.26728C23.4176 9.25478 23.484 9.24468 23.5489 9.23747C25.0904 9.06197 25.8895 10.3409 26.1833 12.3825C26.2776 13.0379 26.3194 13.7716 26.3175 14.5606" stroke="black" stroke-width="0.427393" stroke-linecap="round" stroke-linejoin="round"/>
<path d="M40.4962 34.0366C38.2282 33.4957 35.2466 32.8254 33.1152 32.2225C33.033 31.9023 32.9195 31.6542 32.7834 31.4816C32.1309 30.6545 30.1423 30.5262 30.1423 30.5262C30.1423 30.5262 30.4139 30.7021 30.5774 31.2854C30.5577 31.271 30.5394 31.2565 30.5231 31.2426C29.3287 30.2136 28.9436 19.6958 28.9436 19.6958C30.0442 19.3731 31.3736 18.5101 31.553 17.4133C31.7189 16.3973 30.5486 14.2789 29.2624 14.038C27.9767 13.7966 27.5343 15.7655 27.1727 15.7655C26.8112 15.7655 26.3308 14.5899 26.3183 14.5606C26.3159 15.5155 26.2486 16.5522 26.1303 17.6297C25.8077 20.5718 27.667 22.3071 27.667 22.3071C27.667 22.3071 26.0058 22.6451 24.56 19.9169C22.7988 16.594 24.7999 13.3797 23.3988 11.0737C22.542 9.66349 20.9067 10.903 20.8043 11.0737C20.8043 11.0737 21.7741 9.08026 22.4343 8.60858C23.094 8.13738 24.2955 7.07718 26.9347 8.46722C29.5744 9.85774 34.4288 16.2204 34.3345 17.846C34.2398 19.4722 32.4964 23.2423 33.1796 24.7035C33.8628 26.1647 38.2224 29.3458 39.1653 30.9012C39.7976 31.9446 40.2601 33.274 40.4962 34.0366Z" stroke="black" stroke-width="0.427393" stroke-linecap="round" stroke-linejoin="round"/>
<path d="M17.1515 15.2655C15.1479 19.3482 12.9049 25.4113 16.7649 26.7244C18.1131 27.1831 19.5224 27.0658 20.8038 26.7047C20.8124 26.7672 21.4567 31.558 20.8038 31.6725C20.7725 31.6778 20.7134 31.6893 20.6288 31.7056C20.7898 31.082 21.0774 30.8964 21.0774 30.8964C21.0774 30.8964 19.0887 31.0243 18.4358 31.8513C18.3622 31.9441 18.2954 32.0595 18.2367 32.1961C15.4258 32.7851 10.986 33.7496 8.32898 34.4651C8.65161 32.7106 12.0058 28.3298 12.8443 26.7465C13.7137 25.1045 11.2216 20.644 11.6856 18.8755C12.4933 15.7983 18.3973 9.07357 18.9776 8.60813C19.5575 8.14318 20.0874 7.91479 20.8038 7.91479C21.5202 7.91479 22.4338 8.60813 22.4338 8.60813C21.7736 9.07982 20.8038 11.0733 20.8038 11.0733C20.8038 11.0733 20.0802 10.1833 19.1974 10.793C18.3213 11.3974 17.1698 15.2054 17.152 15.2651H17.1515V15.2655Z" stroke="black" stroke-width="0.427393" stroke-linecap="round" stroke-linejoin="round"/>
<path d="M30.4999 21.899L28.9363 18.5684" stroke="black" stroke-width="0.427393" stroke-linecap="round" stroke-linejoin="round"/>
<path d="M28.9369 19.1997C29.2853 19.1997 29.5677 18.9172 29.5677 18.5688C29.5677 18.2204 29.2853 17.938 28.9369 17.938C28.5885 17.938 28.306 18.2204 28.306 18.5688C28.306 18.9172 28.5885 19.1997 28.9369 19.1997Z" fill="#E86F3A" stroke="black" stroke-width="0.427393" stroke-linecap="round" stroke-linejoin="round"/>
<path d="M30.0203 25.1774L30.3323 21.5247L33.3009 23.6374L30.0203 25.1774Z" fill="#49A2A6" stroke="black" stroke-width="0.427393" stroke-linecap="round" stroke-linejoin="round"/>
<path d="M20.8043 26.7045C23.3839 25.9775 25.4447 24.2615 25.4447 24.2615" stroke="black" stroke-width="0.427393" stroke-linecap="round" stroke-linejoin="round"/>
<path d="M31.5534 17.4135C31.374 18.5103 30.0445 19.3733 28.944 19.6959C28.944 19.6959 29.3291 30.2138 30.5234 31.2428C30.5398 31.2567 30.5581 31.2712 30.5778 31.2856C30.7336 31.8428 30.7908 32.7727 30.4162 34.2777C30.4162 34.2777 28.5131 36.8419 25.1296 36.8419C21.7461 36.8419 20.8345 34.7157 20.8052 34.6494C20.8052 34.6484 20.8052 34.6479 20.8052 34.6479C20.4417 33.1877 20.4849 32.2688 20.6301 31.7063C20.7148 31.6899 20.7739 31.6784 20.8052 31.6731C21.3586 31.576 20.9802 28.1223 20.847 27.0313L20.8364 26.9472C20.8355 26.9409 20.835 26.9351 20.8345 26.9289C20.8172 26.7938 20.8061 26.713 20.8052 26.7053C19.5238 27.0664 18.1145 27.1837 16.7663 26.725C16.7322 26.7135 16.698 26.7015 16.6648 26.6885C12.9462 25.3042 15.1671 19.3123 17.1529 15.2662H17.1534C17.1711 15.2061 18.3227 11.398 19.1988 10.7936C19.6594 10.4753 20.0767 10.5657 20.3705 10.7253C20.6398 10.8705 20.8052 11.0739 20.8052 11.0739C20.9076 10.9032 22.5428 9.66369 23.3997 11.0739C23.6353 11.4615 23.7747 11.875 23.8516 12.3101C23.8781 12.4572 23.8968 12.6073 23.9103 12.7597C23.9574 13.2992 23.9314 13.868 23.8915 14.4598V14.4613C23.7781 16.1437 23.5516 18.0126 24.5608 19.9171C25.4003 21.5009 26.312 22.0515 26.9293 22.2347C27.3755 22.3669 27.6679 22.3073 27.6679 22.3073C27.6679 22.3073 25.8085 20.572 26.1312 17.6299C26.2495 16.5524 26.3168 15.5157 26.3192 14.5608C26.3317 14.5901 26.8163 15.7657 27.1736 15.7657C27.2972 15.7657 27.4299 15.5364 27.6025 15.2441C27.9352 14.6796 28.416 13.879 29.2632 14.0382C29.67 14.1146 30.0657 14.3786 30.4105 14.7363C31.1562 15.509 31.6673 16.7187 31.5538 17.4135H31.5534Z" stroke="black" stroke-width="0.427393" stroke-linecap="round" stroke-linejoin="round"/>
<path d="M18.4662 17.731C18.4662 17.731 17.3973 20.0033 17.9594 20.2351C18.5219 20.4668 19.1917 19.2008 19.1917 19.2008" stroke="black" stroke-width="0.427393" stroke-linecap="round" stroke-linejoin="round"/>
<path d="M19.0524 22.477C19.1639 22.3934 21.8719 20.6345 21.8719 20.6345C21.8719 20.6345 22.9047 22.5241 21.3137 23.3521C19.7226 24.1801 19.0524 22.477 19.0524 22.477Z" fill="white" stroke="black" stroke-width="0.427393" stroke-linecap="round" stroke-linejoin="round"/>
<path d="M43.6142 30.517C43.6142 30.517 41.916 33.1985 38.8724 34.453C38.7911 34.4866 38.708 34.5198 38.6243 34.5511C38.5825 34.4472 38.5406 34.3429 38.4998 34.2395C38.4911 34.2179 38.4825 34.1967 38.4743 34.1751C38.2247 33.5519 37.979 32.9379 37.7502 32.3677C37.0948 30.7353 36.5765 29.465 36.5164 29.3722C36.4779 29.313 36.3515 29.2414 36.1736 29.1606C35.5375 28.8741 34.2407 28.4793 33.9142 28.1754C33.4959 27.7864 32.0602 25.4982 32.5299 24.1462C32.5473 24.0971 32.6285 24.0202 32.7574 23.9269C32.8252 23.8779 32.9059 23.824 32.9973 23.7678C33.0223 23.7524 33.0478 23.737 33.0742 23.7211C33.1007 23.7057 33.1276 23.6899 33.155 23.674C33.1555 23.6735 33.155 23.6731 33.156 23.6735C33.156 23.6731 33.1565 23.6731 33.1569 23.6731C33.1579 23.6721 33.1589 23.6716 33.1598 23.6716C33.1613 23.6702 33.1637 23.6687 33.1665 23.6673C33.1685 23.6658 33.1709 23.6644 33.1728 23.663C33.1776 23.6601 33.1829 23.6572 33.1882 23.6543C33.2065 23.6442 33.2257 23.6331 33.2449 23.6226C33.2545 23.6168 33.2642 23.6115 33.2738 23.6062C33.3132 23.5841 33.3531 23.562 33.3945 23.5399C33.4089 23.5327 33.4238 23.5245 33.4387 23.5168C33.4459 23.5125 33.4531 23.5086 33.4608 23.5048C33.4762 23.4966 33.4916 23.4884 33.507 23.4807C33.5296 23.4687 33.5526 23.4572 33.5762 23.4451C33.5839 23.4408 33.5916 23.437 33.5998 23.4331C33.6228 23.4216 33.6464 23.4096 33.6704 23.3975C33.6786 23.3932 33.6868 23.3894 33.6945 23.3855C33.7185 23.374 33.743 23.362 33.7676 23.3499C33.8003 23.3341 33.833 23.3182 33.8661 23.3028C33.883 23.2946 33.8998 23.287 33.9166 23.2793C34.0085 23.2365 34.1027 23.1942 34.1984 23.1528C34.2335 23.1379 34.2681 23.123 34.3032 23.1086C34.42 23.0595 34.5383 23.0129 34.6566 22.9691C34.7076 22.9504 34.7576 22.9321 34.8081 22.9143C34.8436 22.9023 34.8787 22.8903 34.9143 22.8783C34.9345 22.872 34.9542 22.8653 34.9744 22.859C34.9965 22.8518 35.0191 22.8446 35.0413 22.8374C35.0865 22.8234 35.1316 22.81 35.1764 22.7975C35.1821 22.7956 35.1884 22.7941 35.1942 22.7927C35.197 22.7917 35.1994 22.7908 35.2023 22.7903C35.2057 22.7888 35.2091 22.7879 35.2129 22.7869C35.2153 22.7859 35.2182 22.7855 35.2206 22.785C35.2321 22.7816 35.2437 22.7782 35.2552 22.7754C35.286 22.7667 35.3168 22.7585 35.3471 22.7513C35.3605 22.748 35.3745 22.7446 35.3879 22.7412C35.4038 22.7369 35.4201 22.7335 35.436 22.7297H35.4374C35.4461 22.7273 35.4548 22.7254 35.4634 22.7234C35.4798 22.7196 35.4961 22.7162 35.512 22.7129C35.5312 22.7085 35.5504 22.7047 35.5697 22.7013C35.575 22.6999 35.5798 22.6989 35.5851 22.698C35.599 22.6951 35.6125 22.6927 35.6264 22.6903C35.6303 22.6893 35.6346 22.6883 35.6384 22.6879C35.6524 22.6855 35.6668 22.683 35.6803 22.6806C35.6937 22.6787 35.7072 22.6763 35.7206 22.6744C35.7269 22.6734 35.7327 22.6725 35.7384 22.6715C35.7442 22.6705 35.75 22.6696 35.7557 22.6691C35.8495 22.6561 35.9389 22.6479 36.0236 22.646C36.0399 22.6455 36.0553 22.6455 36.0716 22.6451C36.1101 22.6451 36.1471 22.646 36.1827 22.6489C36.1861 22.6494 36.189 22.6494 36.1919 22.6494C36.2029 22.6504 36.214 22.6513 36.2245 22.6528C36.2409 22.6542 36.2568 22.6566 36.2721 22.659H36.2741C36.2827 22.6605 36.2909 22.6614 36.2991 22.6633C36.3217 22.6672 36.3438 22.6715 36.3645 22.6773C36.3784 22.6806 36.3914 22.684 36.4044 22.6883C36.4068 22.6883 36.4092 22.6893 36.4116 22.6903C36.4183 22.6927 36.425 22.6951 36.4318 22.6975C36.438 22.6994 36.4443 22.7013 36.45 22.7037C36.4529 22.7052 36.4558 22.7061 36.4587 22.7071C36.4592 22.7071 36.4601 22.7076 36.4606 22.7081C36.4683 22.7109 36.4755 22.7143 36.4827 22.7177H36.4832C36.4904 22.7206 36.4981 22.7244 36.5049 22.7278C36.5068 22.7287 36.5092 22.7297 36.5111 22.7311C36.5164 22.7331 36.5217 22.7359 36.5265 22.7393C36.5275 22.7393 36.5279 22.7403 36.5289 22.7407C36.5352 22.7441 36.5419 22.7475 36.5477 22.7513C36.5549 22.7552 36.5616 22.76 36.5679 22.7643C36.5712 22.7667 36.5751 22.7691 36.5779 22.7715C36.5803 22.7734 36.5828 22.7754 36.5852 22.7768C36.5861 22.7773 36.5871 22.7778 36.588 22.7787C36.5967 22.7859 36.6054 22.7927 36.614 22.8004H36.6145C36.6188 22.8047 36.6231 22.8085 36.628 22.8129C36.6328 22.8177 36.6376 22.822 36.6419 22.8273C36.6429 22.8283 36.6433 22.8292 36.6448 22.8302C36.652 22.8384 36.6597 22.847 36.6669 22.8561C36.6746 22.8658 36.6818 22.8759 36.689 22.886C36.689 22.8864 36.6895 22.8864 36.6895 22.8869L36.6933 22.9364L36.7405 23.5182C36.7491 23.5937 36.7592 23.6658 36.7698 23.7332C36.7919 23.8745 36.8179 23.9957 36.8467 24.0914C36.8506 24.1034 36.8544 24.1159 36.8587 24.1279C36.866 24.1515 36.8741 24.1731 36.8828 24.1923C36.8866 24.2024 36.891 24.212 36.8958 24.2202C36.9126 24.2553 36.9304 24.2822 36.9491 24.2996C36.9539 24.3039 36.9588 24.3082 36.9636 24.3111C36.9732 24.3173 36.9828 24.3217 36.9924 24.3231C37.0039 24.3246 37.0155 24.3265 37.027 24.3274C37.0491 24.3298 37.0713 24.3308 37.0929 24.3303C37.1049 24.3308 37.1169 24.3298 37.129 24.3289C37.1424 24.3284 37.1554 24.3265 37.1684 24.3246C37.19 24.3222 37.2102 24.3183 37.2309 24.3125C37.2357 24.3116 37.2395 24.3106 37.2444 24.3092C37.253 24.3068 37.2622 24.3044 37.2708 24.301C37.3314 24.2818 37.3891 24.2534 37.4439 24.2173C37.4602 24.2063 37.4771 24.1943 37.4934 24.1818C37.5473 24.1409 37.5982 24.0928 37.6458 24.0399C37.654 24.0317 37.6622 24.0226 37.6694 24.0135C37.7949 23.8683 37.8988 23.6904 37.9819 23.5182C37.9901 23.5014 37.9978 23.4846 38.0055 23.4687C38.0127 23.4528 38.0194 23.4375 38.0262 23.4221C38.0343 23.4033 38.042 23.385 38.0502 23.3668C38.1267 23.1879 38.1781 23.0292 38.206 22.9369C38.2089 22.9259 38.2122 22.9158 38.2142 22.9071C38.2156 22.9018 38.2175 22.8975 38.219 22.8927C38.2247 22.8706 38.2286 22.8566 38.2296 22.8533H38.2291C38.2247 22.8196 38.2204 22.7859 38.2166 22.7523C38.2137 22.7302 38.2113 22.7076 38.2094 22.685C38.207 22.6643 38.205 22.6431 38.2031 22.622C38.192 22.5023 38.1848 22.3792 38.181 22.2551C38.18 22.2378 38.1795 22.2215 38.1795 22.2042C38.1781 22.1489 38.1771 22.0926 38.1771 22.0368C38.1776 22.0099 38.1776 21.9835 38.1781 21.9565V21.945C38.1781 21.9344 38.1786 21.9234 38.1791 21.9128C38.1791 21.8859 38.1795 21.8589 38.181 21.832C38.181 21.8084 38.182 21.7844 38.1834 21.7604C38.1853 21.7075 38.1877 21.6551 38.1911 21.6027C38.193 21.57 38.1949 21.5368 38.1978 21.5041C38.1983 21.4911 38.1993 21.4786 38.2002 21.4666C38.2026 21.4358 38.205 21.405 38.2084 21.3743C38.2113 21.3377 38.2151 21.3012 38.2195 21.2651C38.2219 21.2363 38.2252 21.2079 38.2291 21.1791C38.2324 21.1444 38.2372 21.1103 38.2421 21.0762C38.2522 21.0011 38.2632 20.9276 38.2757 20.8555C38.2796 20.8319 38.2839 20.8083 38.2887 20.7848C38.2925 20.7612 38.2969 20.7377 38.3022 20.7151C38.3055 20.6978 38.3089 20.6804 38.3127 20.6636C38.3161 20.6439 38.3204 20.6251 38.3248 20.6069C38.3315 20.578 38.3377 20.5497 38.3445 20.5223C38.3445 20.5194 38.3454 20.517 38.3464 20.5146C38.3671 20.428 38.3901 20.3468 38.4147 20.2703C38.4209 20.2511 38.4272 20.2323 38.4339 20.214C38.4421 20.1881 38.4517 20.1636 38.4608 20.1395C38.4656 20.1261 38.4714 20.1121 38.4767 20.0987C38.4882 20.0698 38.5003 20.0414 38.5128 20.015C38.5171 20.0049 38.5224 19.9953 38.5272 19.9852C38.533 19.9736 38.5387 19.9621 38.5445 19.951C38.5618 19.9169 38.5806 19.8857 38.5988 19.8573C39.1195 19.0644 39.8398 19.3726 40.1773 19.6765C40.5139 19.9799 41.8083 24.1539 41.8573 24.6131C41.9573 25.5425 40.8582 27.147 40.8582 27.147L41.9193 28.4447L42.7281 29.4332L43.6142 30.517Z" fill="#F3BBB0" stroke="black" stroke-width="0.427393" stroke-linecap="round" stroke-linejoin="round"/>
<path d="M47.6956 35.5071C47.3643 40.5 40.7897 40.0038 40.7897 40.0038C40.7897 40.0038 40.4247 39.0801 39.9073 37.7776C41.2022 37.3083 42.8697 36.2962 44.015 35.3124C44.7646 34.6681 45.3863 33.9161 45.8084 33.1992L47.6956 35.5067V35.5071Z" fill="#F3BBB0" stroke="black" stroke-width="0.427393" stroke-linecap="round" stroke-linejoin="round"/>
<path d="M38.2289 22.8535C38.3174 23.493 38.5222 24.0041 38.8809 24.1113C39.8343 24.3974 39.8949 21.011 39.8949 21.011" fill="#FFD9D4"/>
<path d="M38.2289 22.8535C38.3174 23.493 38.5222 24.0041 38.8809 24.1113C39.8343 24.3974 39.8949 21.011 39.8949 21.011" stroke="black" stroke-width="0.427393" stroke-linecap="round" stroke-linejoin="round"/>
<path d="M36.7398 23.5178C36.4618 24.5477 34.6722 25.2026 34.6722 25.2026" stroke="black" stroke-width="0.427393" stroke-linecap="round" stroke-linejoin="round"/>
<path d="M36.8444 20.2469C36.8305 20.3147 36.8165 20.3858 36.804 20.4589C36.804 20.4613 36.8036 20.4637 36.8036 20.4647C36.6795 21.184 36.6507 22.1168 36.6891 22.8856V22.8865C36.6819 22.876 36.6747 22.8654 36.667 22.8558C36.6588 22.8457 36.6507 22.8361 36.642 22.8269C36.6333 22.8178 36.6242 22.8091 36.6146 22.8005H36.6141C36.605 22.7918 36.5954 22.7841 36.5853 22.7764C36.5829 22.775 36.5805 22.7731 36.578 22.7711C36.5655 22.7625 36.5526 22.7538 36.5386 22.7457C36.53 22.7404 36.5204 22.7351 36.5107 22.7308C36.5021 22.726 36.4929 22.7216 36.4833 22.7173H36.4828C36.4723 22.7125 36.4612 22.7077 36.4502 22.7034C36.4444 22.701 36.4381 22.699 36.4319 22.6971C36.4232 22.6937 36.4141 22.6909 36.4045 22.688C36.3915 22.6836 36.3785 22.6798 36.3646 22.6769C36.3583 22.675 36.3521 22.6735 36.3453 22.6721C36.3304 22.6687 36.315 22.6654 36.2992 22.663C36.2905 22.661 36.2814 22.6596 36.2722 22.6586C36.2569 22.6562 36.241 22.6538 36.2246 22.6524C36.2107 22.6509 36.1972 22.6495 36.1828 22.6485C36.14 22.6452 36.0948 22.6442 36.0477 22.6452C36.04 22.6452 36.0318 22.6452 36.0237 22.6457C36.0064 22.6457 35.9886 22.6466 35.9703 22.6476C35.9482 22.6485 35.9256 22.65 35.9025 22.6524C35.8938 22.6529 35.8852 22.6538 35.877 22.6548C35.8597 22.6562 35.8429 22.6582 35.8256 22.6601C35.8025 22.6625 35.7794 22.6654 35.7559 22.6687C35.7443 22.6707 35.7328 22.6721 35.7207 22.674C35.69 22.6788 35.6582 22.6841 35.6265 22.6899C35.6078 22.6933 35.5885 22.6966 35.5698 22.701C35.5505 22.7043 35.5313 22.7082 35.5121 22.7125C35.4962 22.7159 35.4799 22.7192 35.4635 22.7231C35.4544 22.725 35.4452 22.7274 35.4361 22.7293C35.4202 22.7332 35.4039 22.7365 35.388 22.7409C35.3746 22.7442 35.3606 22.7476 35.3472 22.751C35.3169 22.7582 35.2861 22.7663 35.2553 22.775C35.2414 22.7788 35.2269 22.7827 35.213 22.7865C35.2092 22.7875 35.2058 22.7885 35.2024 22.7899C35.1938 22.7918 35.1851 22.7942 35.1765 22.7971C35.1592 22.8019 35.1418 22.8067 35.1245 22.812C35.1067 22.8173 35.0894 22.8226 35.0721 22.8279C35.0548 22.8332 35.037 22.8385 35.0197 22.8438C34.9846 22.8548 34.9495 22.8664 34.9144 22.8779C34.7115 22.9452 34.5052 23.0236 34.3033 23.1082C34.2682 23.1226 34.2331 23.1375 34.1985 23.1524C34.1379 23.1784 34.0773 23.2053 34.0182 23.2323C33.984 23.2476 33.9499 23.263 33.9167 23.2789C33.8326 23.3178 33.7504 23.3573 33.6705 23.3972C33.647 23.4087 33.6229 23.4207 33.5999 23.4328C33.5917 23.4366 33.584 23.4404 33.5763 23.4448C33.5527 23.4563 33.5297 23.4683 33.5071 23.4804C33.4912 23.4885 33.4758 23.4967 33.4604 23.5049C33.4455 23.5121 33.4311 23.5203 33.4167 23.528C33.3676 23.5539 33.32 23.5799 33.2739 23.6058C33.2575 23.6145 33.2412 23.6236 33.2253 23.6328C33.207 23.6434 33.1888 23.6535 33.1715 23.6635C33.1378 23.6828 33.1056 23.702 33.0743 23.7208C33.0479 23.7366 33.0224 23.752 32.9974 23.7674C32.9974 23.7674 32.6666 23.037 32.2694 22.049C31.4737 20.068 30.412 17.0528 31.2208 16.821C31.4679 16.7504 31.778 16.9619 32.1088 17.3297C33.1998 18.5404 34.5235 21.4436 34.6105 21.5379C34.724 21.6619 34.135 15.4401 35.5933 15.5094C36.5867 15.5565 36.8112 19.1487 36.8444 20.2469Z" fill="#F3BBB0" stroke="black" stroke-width="0.427393" stroke-linecap="round" stroke-linejoin="round"/>
<path d="M39.9926 25.1675C39.9493 25.3434 39.8993 25.5209 39.8017 25.6733C39.7041 25.8257 39.5522 25.9526 39.3733 25.98C39.1228 26.019 38.8814 25.8598 38.7141 25.6694C38.5468 25.479 38.4223 25.2511 38.2376 25.0775C38.053 24.904 37.7741 24.7914 37.5443 24.8987C37.3717 24.9794 37.2726 25.1588 37.1452 25.3006C36.7711 25.7175 36.1557 25.8012 35.5955 25.8089C35.3787 25.8117 35.1537 25.8055 34.9585 25.7113C34.6815 25.5776 34.7628 25.4959 34.6724 25.2016C34.5248 24.7232 34.2964 23.9909 34.4526 23.5149C34.6089 23.0394 36.3346 23.2389 36.6889 22.8855C37.2515 22.3249 36.5495 21.3209 37.3279 21.1632C37.8116 21.0651 38.3083 21.0512 38.7983 21.1074C39.0964 21.1416 39.4623 21.1507 39.7291 21.3041C40.0224 21.4728 40.0816 21.8133 40.1282 22.1215C40.1994 22.5932 40.2272 23.0716 40.2123 23.5485C40.1955 24.0938 40.1219 24.6371 39.9926 25.167V25.1675Z" fill="#ED7D66"/>
<path d="M36.992 24.3223C37.8104 24.4512 38.2186 22.8919 38.2287 22.853C38.082 21.7904 38.2595 20.3724 38.5984 19.857C38.5984 19.857 38.1133 19.304 37.405 19.3151C37.1435 19.319 36.9613 19.6988 36.8439 20.2474C36.829 20.3152 36.8156 20.3859 36.8035 20.459C36.8035 20.4619 36.8035 20.4638 36.8026 20.4652C36.679 21.185 36.6502 22.1183 36.6886 22.8866C36.7228 22.9385 36.7468 22.9996 36.7593 23.0717C36.7872 23.227 36.7776 23.3766 36.7391 23.5179C36.7944 23.9867 36.8824 24.305 36.9915 24.3223H36.992Z" fill="#F3BBB0" stroke="black" stroke-width="0.427393" stroke-linecap="round" stroke-linejoin="round"/>
<path d="M39.8943 21.0101C39.8943 21.0101 39.9255 24.1955 39.0221 24.2042C38.1186 24.2129 38.0176 22.0203 38.3456 20.5144" fill="#F3BBB0"/>
<path d="M39.8943 21.0101C39.8943 21.0101 39.9255 24.1955 39.0221 24.2042C38.1186 24.2129 38.0176 22.0203 38.3456 20.5144" stroke="black" stroke-width="0.427393" stroke-linecap="round" stroke-linejoin="round"/>
<path d="M33.1547 23.6734C33.1547 23.6734 36.3944 21.8559 36.7916 23.1291C37.1892 24.4028 34.6726 25.2024 34.6726 25.2024" fill="#F3BBB0"/>
<path d="M33.1547 23.6734C33.1547 23.6734 36.3944 21.8559 36.7916 23.1291C37.1892 24.4028 34.6726 25.2024 34.6726 25.2024" stroke="black" stroke-width="0.427393" stroke-linecap="round" stroke-linejoin="round"/>
<path d="M35.6356 25.5725C36.7506 25.0484 38.1835 25.3057 39.047 26.1841" stroke="black" stroke-width="0.427393" stroke-linecap="round" stroke-linejoin="round"/>
<path d="M43.6142 30.5172L42.728 29.434C43.6185 28.9748 43.9863 28.9815 44.0902 29.1806C44.2782 29.5383 43.6137 30.5172 43.6137 30.5172H43.6142Z" fill="black" stroke="black" stroke-width="0.427393" stroke-linecap="round" stroke-linejoin="round"/>
<path d="M38.6236 34.5511C38.337 34.6588 38.0384 34.7544 37.7292 34.8328C37.0931 34.9949 36.7623 34.9386 36.6277 34.7583C36.2002 34.1856 37.7494 32.3672 37.7494 32.3672C38.024 33.0514 38.3235 33.7995 38.6236 34.5511Z" fill="black" stroke="black" stroke-width="0.427393" stroke-linecap="round" stroke-linejoin="round"/>
<path d="M36.6284 34.7595V34.7571" stroke="black" stroke-width="0.427393" stroke-linecap="round" stroke-linejoin="round"/>
<path d="M49.2205 39.9909C47.8483 41.3661 42.2948 42.8004 41.1231 42.1945C39.9508 41.5882 39.1195 38.0028 39.1195 38.0028C39.358 37.958 39.6239 37.8806 39.9076 37.7782C41.2024 37.3089 42.8699 36.2968 44.0152 35.3131C44.7648 34.6688 45.3865 33.9168 45.8086 33.1999C46.0567 32.7777 46.2356 32.3681 46.3298 31.9998C46.3298 31.9998 47.7358 32.8167 48.8888 33.6009C49.5677 34.0629 50.1586 34.5135 50.3235 34.7798C50.7678 35.4991 50.5928 38.6153 49.2205 39.9909Z" fill="#F5D256" stroke="black" stroke-width="0.427393" stroke-linecap="round" stroke-linejoin="round"/>
<path d="M48.8892 33.6011C48.5483 34.3772 47.9574 35.1941 46.9333 35.7441C44.4109 37.1 39.1195 38.0035 39.1195 38.0035C39.358 37.9588 39.6239 37.8814 39.9076 37.779C41.2024 37.3097 42.8699 36.2976 44.0152 35.3138C44.7648 34.6695 45.3865 33.9175 45.8086 33.2006C46.0567 32.7784 46.2356 32.3688 46.3298 32.0005C46.3298 32.0005 47.7358 32.8174 48.8888 33.6016L48.8892 33.6011Z" fill="#E0B836"/>
<path d="M43.6134 30.5167C43.6134 30.5167 41.9151 33.1982 38.8716 34.4526C38.8701 34.4498 38.8692 34.4469 38.8677 34.4435L38.4985 34.2392L38.3754 34.1709C38.4081 34.1752 38.4408 34.1762 38.4725 34.1752C38.7393 34.1637 38.9788 33.9689 39.1754 33.7766C40.3833 32.5895 41.2213 31.0316 41.5449 29.369C41.5882 29.1487 41.6233 28.9232 41.7214 28.7218C41.7723 28.6174 41.8387 28.5251 41.9175 28.4448L42.7263 29.4334L43.6124 30.5167H43.6134Z" fill="#F09E8B"/>
<path d="M40.8584 27.1472L42.7283 29.434L43.6144 30.5173C43.6144 30.5173 41.8234 33.3454 38.624 34.5518C38.324 33.8003 38.0249 33.0526 37.7499 32.3679C37.0945 30.7356 36.5762 29.4652 36.5161 29.3729" stroke="black" stroke-width="0.427393" stroke-linecap="round" stroke-linejoin="round"/>
<path d="M49.2205 39.9909C47.8483 41.3661 42.2948 42.8004 41.1231 42.1945C39.9508 41.5882 39.1195 38.0028 39.1195 38.0028C39.358 37.958 39.6239 37.8806 39.9076 37.7782C41.2024 37.3089 42.8699 36.2968 44.0152 35.3131C44.7648 34.6688 45.3865 33.9168 45.8086 33.1999C46.0567 32.7777 46.2356 32.3681 46.3298 31.9998C46.3298 31.9998 49.8792 34.061 50.3235 34.7798C50.7678 35.4991 50.5928 38.6153 49.2205 39.9909Z" stroke="black" stroke-width="0.427393" stroke-linecap="round" stroke-linejoin="round"/>
<path d="M46.3302 31.9997C46.236 32.368 46.0571 32.7776 45.809 33.1998C45.3869 33.9167 44.7652 34.6682 44.0156 35.313C42.8703 36.2967 41.2023 37.3089 39.908 37.7781C39.6243 37.881 39.3584 37.9585 39.1199 38.0027C38.8761 38.0484 38.6607 38.0609 38.4843 38.0335C37.3625 37.8575 36.6466 34.8341 36.6293 34.7586C36.7639 34.9389 37.0947 34.9952 37.7308 34.8331C38.04 34.7543 38.3381 34.6591 38.6251 34.5514C41.8245 33.345 43.6155 30.5168 43.6155 30.5168C43.6155 30.5168 44.2805 29.5379 44.092 29.1797C44.1358 29.2008 45.9749 30.0812 46.3355 31.0092C46.4379 31.2722 46.4307 31.6126 46.3312 31.9992L46.3302 31.9997Z" fill="#F5D256" stroke="black" stroke-width="0.427393" stroke-linecap="round" stroke-linejoin="round"/>
<path d="M36.1733 29.1609C35.5372 28.8744 34.2404 28.4796 33.914 28.1757C33.4957 27.7868 32.0599 25.4986 32.5297 24.1465C32.547 24.0975 32.6283 24.0205 32.7571 23.9272C32.872 24.0705 32.9692 24.2191 33.0423 24.3552C33.475 25.1581 33.8712 25.8731 34.4799 26.5679C35.066 27.2377 35.6872 27.9051 36.0296 28.7268C36.0877 28.8662 36.1358 29.0119 36.1733 29.1609Z" fill="#F9DFDC"/>
<path d="M32.9554 22.0601C32.8242 22.2424 32.5357 22.2323 32.3482 22.1092C32.3203 22.0909 32.2943 22.0712 32.2693 22.0496C31.4736 20.0686 30.4119 17.0534 31.2207 16.8216C31.4678 16.751 31.7779 16.9625 32.1087 17.3303C32.0414 17.439 31.9803 17.5496 31.9318 17.6631C31.663 18.2929 31.8063 19.0262 32.0731 19.657C32.34 20.2879 32.7242 20.8668 32.955 21.512C33.0189 21.6914 33.0665 21.9058 32.9554 22.0601Z" fill="#F9DFDC"/>
<path d="M41.8562 24.6126C41.9557 25.542 40.857 27.1465 40.857 27.1465L41.9182 28.4442L42.7269 29.4328L43.6131 30.5161C43.6131 30.5161 41.9148 33.1976 38.8713 34.4521C38.7895 34.4857 38.7068 34.5189 38.6227 34.5506C38.5809 34.4468 38.5395 34.3424 38.4982 34.2386C38.4895 34.2174 38.4808 34.1958 38.4727 34.1746C38.2236 33.5515 37.9774 32.9375 37.7486 32.3668C37.0932 30.7344 36.5749 29.4641 36.5148 29.3717C36.3383 29.101 34.3304 28.564 33.9121 28.175C33.4938 27.786 32.0586 25.4978 32.5278 24.1457C32.5543 24.0707 32.7298 23.9313 32.9952 23.7673" stroke="black" stroke-width="0.427393" stroke-linecap="round" stroke-linejoin="round"/>
<path d="M33.1546 23.6734C34.2076 23.0628 36.2559 22.2261 36.6891 22.8863C36.6506 22.118 36.6795 21.1847 36.8031 20.4649C36.8031 20.4635 36.8035 20.4615 36.8035 20.4587C36.816 20.3856 36.83 20.3149 36.8439 20.2471C36.8103 19.1489 36.5857 15.5567 35.5924 15.5096C34.134 15.4404 34.723 21.6617 34.6096 21.5381C34.4961 21.4145 32.2805 16.5169 31.2198 16.8213C30.0082 17.1684 32.9964 23.7676 32.9964 23.7676C33.046 23.7369 33.0984 23.7056 33.1537 23.6734" stroke="black" stroke-width="0.427393" stroke-linecap="round" stroke-linejoin="round"/>
</g>
<defs>
<clipPath id="clip0_1836_10256">
<rect y="-0.000244141" width="48" height="48" rx="24" fill="white"/>
</clipPath>
</defs>
</svg>
