<svg width="48" height="48" viewBox="0 0 48 48" fill="none" xmlns="http://www.w3.org/2000/svg">
<g clip-path="url(#clip0_1836_10148)">
<rect width="48" height="48" rx="24" fill="#DBDEE2"/>
<path d="M31.0758 18.3661C30.7946 19.7831 29.655 20.238 28.7304 20.3673C28.603 20.3856 28.4794 20.3971 28.3631 20.4043C28.365 20.5168 28.378 21.2227 28.4193 22.2521C28.5203 24.7884 28.7905 29.2893 29.4786 31.7305H29.4781C28.1472 34.2764 23.076 37.934 23.076 37.934C21.2624 37.1281 19.7492 32.0127 19.7492 32.0127C19.8122 31.5535 19.8584 30.9938 19.8916 30.4313C19.9574 29.3216 19.9747 28.2008 19.9786 27.8195V27.818C19.9795 27.731 19.98 27.6829 19.98 27.6829C18.552 28.1565 16.9985 28.3599 15.6426 27.8291C15.3651 27.7204 15.0964 27.5815 14.8382 27.4074C11.3075 25.0269 14.7107 17.9219 16.6331 14.5177C16.9177 14.0138 17.1696 13.5911 17.362 13.2767C17.6033 12.8829 17.7505 12.6588 17.7505 12.6588C17.7505 12.6588 17.8995 12.5814 18.2568 12.492C18.4837 12.4352 18.7948 12.3732 19.2045 12.3232C19.2261 12.3208 19.2477 12.3179 19.2699 12.3155C19.9137 12.2405 20.7921 12.1953 21.9591 12.2391C25.1262 12.3574 25.807 12.8608 25.5998 13.6301C25.3926 14.3999 25.3926 17.3006 25.9253 17.4785C26.4581 17.656 26.9615 15.436 27.8197 15.2288C28.002 15.185 28.2804 15.1653 28.6001 15.1903C29.6021 15.2692 31.0114 15.787 31.1441 17.3723C31.1686 17.6661 31.1494 17.9959 31.0758 18.3661Z" fill="#94624B" stroke="black" stroke-width="0.427393" stroke-linecap="round" stroke-linejoin="round"/>
<path d="M27.1958 14.8355C26.9251 15.0557 26.6847 15.3379 26.6111 15.6793C26.5381 16.0202 26.676 16.4231 26.9924 16.5698C27.242 16.6856 27.5406 16.6231 27.7882 16.5034C28.0358 16.3837 28.2546 16.2096 28.5027 16.0899C29.1176 15.7928 29.8966 15.8721 30.4389 16.2866C30.5235 15.9154 30.5596 15.5269 30.4808 15.1547C30.4014 14.7826 30.1961 14.4272 29.8759 14.2219C29.3528 13.8868 28.6493 14.0161 28.1017 14.3094C27.554 14.6027 27.0939 15.0388 26.5515 15.3422" fill="#AD8679"/>
<path d="M24.5831 25.2994C24.4816 25.2811 23.7926 29.1185 19.8912 30.4311L19.9797 27.7751L24.5831 25.2994Z" fill="#663421"/>
<path d="M15.633 27.7184C15.6363 27.755 15.6397 27.792 15.6426 27.8285C15.3651 27.7199 15.0964 27.5809 14.8382 27.4068C11.3075 25.0263 14.7107 17.9213 16.6331 14.5171C16.9177 14.0132 17.1696 13.5906 17.362 13.2761C17.6033 12.8823 17.7505 12.6582 17.7505 12.6582C17.7505 12.6582 17.8995 12.5808 18.2568 12.4914C18.4837 12.4347 18.7948 12.3726 19.2045 12.3226C19.2261 12.3202 19.2477 12.3173 19.2699 12.3149C17.0259 15.1816 15.6709 18.7348 15.4387 22.3679C15.3243 24.1507 15.4733 25.9389 15.633 27.7184Z" fill="#AD8679"/>
<path d="M28.3634 20.4033C28.3653 20.5158 28.3783 21.2216 28.4196 22.2511C28.3831 22.2232 28.348 22.1934 28.3143 22.1635C28.0003 21.8837 27.1714 21.0634 27.3233 20.5855C27.469 20.1254 28.3028 20.222 28.7307 20.3662C28.6033 20.3845 28.4797 20.3961 28.3634 20.4033Z" fill="#AD8679"/>
<path d="M31.0758 18.3661C30.7556 19.9783 29.3247 20.3451 28.3631 20.4043C28.3698 20.7952 28.5112 28.2983 29.4786 31.7304H29.4781C28.1472 34.2763 23.076 37.9339 23.076 37.9339C21.2624 37.1281 19.7492 32.0127 19.7492 32.0127C19.9651 30.4394 19.98 27.6829 19.98 27.6829C18.2601 28.2531 16.358 28.432 14.8382 27.4074C11.3075 25.0269 14.7107 17.9218 16.6331 14.5176C16.9177 14.0137 17.1696 13.5911 17.362 13.2766C17.6033 12.8828 17.7505 12.6588 17.7505 12.6588C17.7505 12.6588 17.8995 12.5814 18.2568 12.4919C18.4837 12.4352 18.7948 12.3732 19.2045 12.3232C19.8541 12.2438 20.7522 12.1938 21.9591 12.239C25.1262 12.3573 25.807 12.8607 25.5998 13.63C25.3926 14.3998 25.3926 17.3006 25.9253 17.4785C26.4581 17.6559 26.9615 15.436 27.8197 15.2288C28.002 15.185 28.2804 15.1653 28.6001 15.1903C29.6021 15.2691 31.0114 15.787 31.1441 17.3722C31.1686 17.666 31.1494 17.9959 31.0758 18.3661Z" stroke="black" stroke-width="0.427393" stroke-linecap="round" stroke-linejoin="round"/>
<path d="M27.4648 20.3789C27.4648 20.3789 27.8461 20.4356 28.363 20.4039" stroke="black" stroke-width="0.427393" stroke-linecap="round" stroke-linejoin="round"/>
<path d="M19.9799 27.6815C22.4739 26.854 24.5832 25.2029 24.5832 25.2029" stroke="black" stroke-width="0.427393" stroke-linecap="round" stroke-linejoin="round"/>
<path d="M31.9763 15.8773C31.9763 16.5082 31.6436 17.0616 31.144 17.3717C31.0113 15.7865 29.6021 15.2686 28.6 15.1898C28.2803 15.1648 28.0019 15.1845 27.8197 15.2282C26.9614 15.4355 26.458 17.6554 25.9253 17.478C25.3925 17.3001 25.3925 14.3993 25.5997 13.6295C25.807 12.8602 25.1261 12.3568 21.959 12.2385C20.7521 12.1933 19.854 12.2433 19.2044 12.3226C18.7947 12.3727 18.4836 12.4347 18.2567 12.4914C17.8994 12.5808 17.7504 12.6583 17.7504 12.6583C17.7504 12.6583 17.6033 12.8823 17.3619 13.2761C17.1696 13.5906 16.9176 14.0132 16.633 14.5171C16.4604 14.4118 16.3142 14.2671 16.207 14.0959C16.08 13.8944 16.0065 13.6555 16.0065 13.3997C16.0065 12.9314 16.2526 12.5203 16.6229 12.2895C16.6133 12.2246 16.608 12.1587 16.608 12.0914C16.608 12.0241 16.6128 11.9606 16.6224 11.8971C16.6267 11.8654 16.633 11.8341 16.6402 11.8034C16.771 11.2192 17.2927 10.7831 17.9163 10.7831H17.9172C17.9648 10.7831 18.0124 10.7855 18.0586 10.7908C17.9672 10.5802 17.9163 10.3479 17.9163 10.1037C17.9163 10.0426 17.9196 9.98203 17.9259 9.92241C18.0163 9.05309 18.7515 8.37562 19.6448 8.37562C19.8751 8.37562 20.0949 8.42082 20.2958 8.50304C20.7002 8.66699 21.0276 8.97953 21.2113 9.37331C21.2426 9.17618 21.3118 8.99203 21.4109 8.82759C21.6787 8.38283 22.1662 8.08521 22.7235 8.08521C23.1077 8.08521 23.4591 8.22705 23.7274 8.46072C23.9342 8.64055 24.0919 8.87471 24.1789 9.1406C24.2833 8.96029 24.4232 8.80355 24.5895 8.6795C24.8449 8.48861 25.1617 8.37562 25.505 8.37562C26.1344 8.37562 26.6748 8.75546 26.91 9.29831C26.9792 9.45746 27.022 9.63103 27.0331 9.81278C27.0783 9.79403 27.1244 9.7772 27.1715 9.7623C27.3398 9.70893 27.5196 9.6796 27.7057 9.6796C28.5625 9.6796 29.2761 10.2922 29.4319 11.1038C29.4525 11.2115 29.4636 11.3235 29.4636 11.4375C29.4636 11.5081 29.4593 11.5779 29.4511 11.6461C29.4573 11.6457 29.4641 11.6452 29.4703 11.6452C29.5049 11.6428 29.54 11.6418 29.5751 11.6418C30.2848 11.6418 30.8969 12.0625 31.1743 12.6688C31.2763 12.8915 31.333 13.1391 31.333 13.3997C31.333 13.7439 31.2344 14.0647 31.0633 14.3358C31.0662 14.3378 31.0695 14.3392 31.0724 14.3411C31.4484 14.5498 31.7393 14.8926 31.8807 15.3052C31.9427 15.4845 31.9763 15.6768 31.9763 15.8773Z" fill="#3D0027" stroke="black" stroke-width="0.427393" stroke-linecap="round" stroke-linejoin="round"/>
<path d="M28.3625 20.4033C28.3621 20.3927 28.3621 20.3875 28.3621 20.3875" stroke="black" stroke-width="0.427393" stroke-linecap="round" stroke-linejoin="round"/>
<path d="M18.6624 33.2904C19.0975 33.1909 19.3778 33.1106 19.449 33.0539C19.5778 32.951 19.6754 32.5505 19.7495 32.0115" stroke="black" stroke-width="0.427393" stroke-linecap="round" stroke-linejoin="round"/>
<path d="M29.4788 31.7302C29.5922 32.1331 29.7168 32.4793 29.8543 32.752C29.8543 32.752 30.1288 32.8058 30.602 32.9001" stroke="black" stroke-width="0.427393" stroke-linecap="round" stroke-linejoin="round"/>
<path d="M23.0763 37.9332C23.0763 37.9332 21.8421 41.8965 21.2223 41.6355C20.6025 41.3744 18.697 34.0775 18.6552 33.9679C18.5802 33.7712 18.5773 33.5693 18.6624 33.2909C18.7172 33.1096 18.8095 32.8956 18.9432 32.6297C19.2817 31.9556 19.7495 32.0119 19.7495 32.0119C19.7495 32.0119 21.2627 37.1273 23.0763 37.9332Z" fill="#49A2A6" stroke="black" stroke-width="0.427393" stroke-linecap="round" stroke-linejoin="round"/>
<path d="M30.6019 32.8993C30.6019 32.8993 25.6005 41.4689 24.6821 41.5434C23.7637 41.6179 23.0762 37.933 23.0762 37.933C23.0762 37.933 28.1474 34.2754 29.4783 31.7295H29.4787C29.5052 31.7256 30.3644 31.6117 30.6019 32.8993Z" fill="#49A2A6" stroke="black" stroke-width="0.427393" stroke-linecap="round" stroke-linejoin="round"/>
<path d="M16.7721 12.9916C16.5917 13.3445 16.4114 13.6974 16.2316 14.0503C16.2239 14.0657 16.2157 14.0816 16.2071 14.0965C16.0802 13.895 16.0066 13.6561 16.0066 13.4003C16.0066 12.9319 16.2528 12.5208 16.623 12.2901C16.6134 12.2251 16.6081 12.1593 16.6081 12.092C16.6081 12.0246 16.6129 11.9612 16.6225 11.8977C16.7855 11.9833 16.9139 12.128 16.9485 12.3083C16.9932 12.5439 16.8812 12.7781 16.7721 12.9916Z" fill="#6D1151"/>
<path d="M18.063 10.9897C18.0529 11.034 18.0207 11.0691 17.9899 11.1022C17.801 11.3027 17.6115 11.5032 17.4225 11.7037C17.3163 11.8167 17.2004 11.935 17.0485 11.9687C16.8965 12.0023 16.7268 11.9341 16.6403 11.8047C16.771 11.2205 17.2927 10.7844 17.9163 10.7844H17.9173C17.9476 10.7964 17.976 10.8118 18.0005 10.833C18.0457 10.8715 18.0755 10.932 18.063 10.9897Z" fill="#6D1151"/>
<path d="M20.2959 8.50266C20.2766 8.50314 20.2579 8.50314 20.2391 8.50266C20.0828 8.49689 19.9179 8.4642 19.7756 8.52959C19.5751 8.6219 19.5054 8.86424 19.4323 9.07291C19.302 9.4441 19.0943 9.78789 18.826 10.0759C18.7293 10.1798 18.6164 10.2807 18.4769 10.3052C18.2779 10.3408 18.0798 10.2052 17.9783 10.0307C17.9581 9.9956 17.9403 9.95906 17.9259 9.92203C18.0163 9.05272 18.7515 8.37524 19.6448 8.37524C19.8751 8.37524 20.0949 8.42044 20.2959 8.50266Z" fill="#6D1151"/>
<path d="M23.7272 8.46121C23.6993 8.51891 23.6589 8.56988 23.6008 8.59344C23.4709 8.64729 23.3358 8.54247 23.2027 8.49679C22.9747 8.4189 22.7252 8.52131 22.518 8.64488C22.3107 8.76845 22.1073 8.91943 21.8674 8.94828C21.7083 8.96751 21.5458 8.91895 21.4106 8.82808C21.6785 8.38332 22.166 8.08569 22.7233 8.08569C23.1074 8.08569 23.4589 8.22753 23.7272 8.46121Z" fill="#6D1151"/>
<path d="M26.9101 9.29793C26.8125 9.34025 26.7053 9.36909 26.6043 9.39217C26.238 9.47536 25.8567 9.55902 25.4903 9.47535C25.1181 9.39025 24.7921 9.1258 24.632 8.77961C24.6166 8.74692 24.6027 8.71326 24.5897 8.67912C24.845 8.48824 25.1619 8.37524 25.5052 8.37524C26.1346 8.37524 26.675 8.75509 26.9101 9.29793Z" fill="#6D1151"/>
<path d="M29.4323 11.1044C29.3481 11.0366 29.3077 10.8928 29.2544 10.7851C29.1226 10.5216 28.801 10.4091 28.5062 10.4009C28.212 10.3927 27.9187 10.4625 27.6244 10.4485C27.3768 10.437 27.0849 10.3125 27.0614 10.0653C27.0508 9.95424 27.0998 9.85135 27.172 9.76288C27.3402 9.70951 27.5201 9.68018 27.7061 9.68018C28.563 9.68018 29.2765 10.2927 29.4323 11.1044Z" fill="#6D1151"/>
<path d="M31.1739 12.6694C30.8671 12.4405 30.5046 12.2866 30.1267 12.2265C29.9161 12.1934 29.6766 12.1756 29.5415 12.0111C29.4593 11.9106 29.4396 11.7731 29.4699 11.6457C29.5045 11.6433 29.5396 11.6423 29.5747 11.6423C30.2844 11.6423 30.8964 12.063 31.1739 12.6694Z" fill="#6D1151"/>
<path d="M31.8806 15.3051C31.7965 15.27 31.709 15.2416 31.6244 15.2133C31.3916 15.1359 31.1392 15.0262 31.0435 14.8007C30.981 14.6536 31.0027 14.4868 31.0724 14.3411C31.4484 14.5497 31.7393 14.8926 31.8806 15.3051Z" fill="#6D1151"/>
<path d="M31.9763 15.8773C31.9763 16.5082 31.6436 17.0616 31.144 17.3717C31.0113 15.7865 29.6021 15.2686 28.6 15.1898C28.2803 15.1648 28.0019 15.1845 27.8197 15.2282C26.9614 15.4355 26.458 17.6554 25.9253 17.478C25.3925 17.3001 25.3925 14.3993 25.5997 13.6295C25.807 12.8602 25.1261 12.3568 21.959 12.2385C20.7521 12.1933 19.854 12.2433 19.2044 12.3226C18.7947 12.3727 18.4836 12.4347 18.2567 12.4914C17.8994 12.5808 17.7504 12.6583 17.7504 12.6583C17.7504 12.6583 17.6033 12.8823 17.3619 13.2761C17.1696 13.5906 16.9176 14.0132 16.633 14.5171C16.257 14.2868 16.0065 13.8723 16.0065 13.3997C16.0065 12.927 16.2526 12.5203 16.6229 12.2895C16.6133 12.2246 16.608 12.1587 16.608 12.0914C16.608 11.3687 17.1936 10.7831 17.9163 10.7831C17.9644 10.7831 18.012 10.7855 18.0586 10.7908C17.9672 10.5802 17.9163 10.3479 17.9163 10.1037C17.9163 9.14925 18.6904 8.37562 19.6448 8.37562C20.3382 8.37562 20.9363 8.78383 21.2113 9.37331C21.3277 8.64343 21.9604 8.08521 22.7235 8.08521C23.4029 8.08521 23.9789 8.52804 24.1789 9.1406C24.4434 8.68334 24.9381 8.37562 25.505 8.37562C26.319 8.37562 26.9845 9.01078 27.0331 9.81278C27.2403 9.7272 27.4677 9.6796 27.7057 9.6796C28.6765 9.6796 29.4636 10.4662 29.4636 11.4375C29.4636 11.5081 29.4593 11.5779 29.4511 11.6461C29.492 11.6433 29.5333 11.6418 29.5751 11.6418C30.5459 11.6418 31.333 12.4289 31.333 13.3997C31.333 13.7439 31.2344 14.0647 31.0633 14.3358C31.6076 14.6344 31.9763 15.2128 31.9763 15.8773Z" stroke="black" stroke-width="0.427393" stroke-linecap="round" stroke-linejoin="round"/>
<path d="M22.6229 43.2125C22.4902 43.3284 22.4248 43.5039 22.3907 43.6765C22.3277 43.9934 22.3599 44.3429 22.5488 44.605C22.7378 44.867 23.1047 45.0108 23.4008 44.8819C23.5951 44.7973 23.7312 44.6141 23.8192 44.4213C23.9394 44.1588 23.9855 43.8467 23.8711 43.5818C23.7119 43.2144 22.9556 42.9216 22.6229 43.2125Z" fill="#E938B5" stroke="black" stroke-width="0.427393" stroke-linecap="round" stroke-linejoin="round"/>
<path d="M23.9229 47.3426C23.6916 47.1998 23.382 47.2233 23.1469 47.3594C22.9118 47.4955 22.7454 47.7296 22.6415 47.9806C22.5377 48.2316 22.4906 48.5158 22.568 48.7759C22.6454 49.036 22.8656 49.2634 23.1353 49.2952C23.4296 49.3303 23.7037 49.1384 23.9027 48.9192C24.0787 48.7254 24.2249 48.497 24.2792 48.2412C24.3335 47.9854 24.2855 47.6998 24.1133 47.5032C23.9412 47.3065 23.6354 47.2228 23.4032 47.343" fill="#E938B5"/>
<path d="M23.9229 47.3426C23.6916 47.1998 23.382 47.2233 23.1469 47.3594C22.9118 47.4955 22.7454 47.7296 22.6415 47.9806C22.5377 48.2316 22.4906 48.5158 22.568 48.7759C22.6454 49.036 22.8656 49.2634 23.1353 49.2952C23.4296 49.3303 23.7037 49.1384 23.9027 48.9192C24.0787 48.7254 24.2249 48.497 24.2792 48.2412C24.3335 47.9854 24.2855 47.6998 24.1133 47.5032C23.9412 47.3065 23.6354 47.2228 23.4032 47.343" stroke="black" stroke-width="0.427393" stroke-linecap="round" stroke-linejoin="round"/>
<path d="M24.8523 40.1687C25.3784 40.0956 25.299 39.2724 24.7716 39.3138C24.2061 39.3585 24.2806 40.2475 24.8523 40.1687Z" fill="#E938B5" stroke="black" stroke-width="0.427393" stroke-linecap="round" stroke-linejoin="round"/>
<path d="M21.0476 39.5759C21.0264 39.6692 21.038 39.7692 21.0764 39.8563C21.1082 39.9289 21.1586 39.9928 21.2245 40.0375C21.6039 40.2952 21.8683 39.8986 21.7323 39.5601C21.589 39.2038 21.1514 39.1139 21.0471 39.5759H21.0476Z" fill="#E938B5" stroke="black" stroke-width="0.427393" stroke-linecap="round" stroke-linejoin="round"/>
<path d="M27.52 18.1686C27.8003 17.4397 28.5216 16.9011 29.3005 16.8401C29.4197 16.8309 29.5433 16.8324 29.6524 16.8809C29.7616 16.9295 29.8525 17.0343 29.8534 17.1536" stroke="black" stroke-width="0.427393" stroke-linecap="round" stroke-linejoin="round"/>
<path d="M28.3613 17.3934C28.6138 17.3909 28.8657 17.4982 29.0388 17.6818C29.2119 17.8655 29.3042 18.1232 29.2864 18.3752" stroke="black" stroke-width="0.427393" stroke-linecap="round" stroke-linejoin="round"/>
<path d="M24.2813 15.511H20.279C20.0559 15.511 19.8751 15.6918 19.8751 15.9149V18.4103C19.8751 18.6334 20.0559 18.8142 20.279 18.8142H24.2813C24.5044 18.8142 24.6852 18.6334 24.6852 18.4103V15.9149C24.6852 15.6918 24.5044 15.511 24.2813 15.511Z" stroke="black" stroke-width="0.427393" stroke-linecap="round" stroke-linejoin="round"/>
<path d="M24.2396 15.511H25.3638" stroke="black" stroke-width="0.427393" stroke-linecap="round" stroke-linejoin="round"/>
<path d="M13.6794 18.8147H17.6817C17.9047 18.8147 18.0856 18.6339 18.0856 18.4108V15.9154C18.0856 15.6923 17.9047 15.5115 17.6817 15.5115H13.6794C13.4563 15.5115 13.2755 15.6923 13.2755 15.9154V18.4108C13.2755 18.6339 13.4563 18.8147 13.6794 18.8147Z" stroke="black" stroke-width="0.427393" stroke-linecap="round" stroke-linejoin="round"/>
<path d="M13.7207 15.5125H12.597" stroke="black" stroke-width="0.427393" stroke-linecap="round" stroke-linejoin="round"/>
<path d="M18.0856 16.3377C18.0856 16.3377 18.852 15.7597 19.8742 16.3377" stroke="black" stroke-width="0.427393" stroke-linecap="round" stroke-linejoin="round"/>
<path d="M18.6765 18.813C18.6203 18.8692 17.8149 20.5925 18.152 20.8738C18.489 21.155 19.2949 20.3304 19.2949 20.3304" stroke="black" stroke-width="0.427393" stroke-linecap="round" stroke-linejoin="round"/>
<path d="M18.5502 23.3519C18.6511 23.2792 21.0971 20.8934 21.173 20.9329C21.249 20.9723 23.0453 22.3969 21.5322 23.7567C20.0191 25.1165 18.5502 23.3519 18.5502 23.3519Z" fill="white" stroke="black" stroke-width="0.427393" stroke-linecap="round" stroke-linejoin="round"/>
<mask id="mask0_1836_10148" style="mask-type:luminance" maskUnits="userSpaceOnUse" x="1" y="32" width="47" height="22">
<path d="M47.0767 38.9782C47.0767 38.9782 29.0205 53.12 22.0011 53.7672C14.9821 54.4143 1.54712 39.9542 1.54712 39.9542C1.54712 39.9542 3.66704 37.4636 5.78697 36.2524C7.6083 35.2115 16.0106 33.8979 18.6628 33.292C18.5777 33.5704 18.5806 33.7724 18.6556 33.969C18.6974 34.0786 20.6029 41.3755 21.2226 41.6366C21.8424 41.8977 23.0767 37.9343 23.0767 37.9343C23.0767 37.9343 23.7642 41.6193 24.6826 41.5448C25.601 41.4703 30.6024 32.9011 30.6024 32.9011C33.3258 33.4459 42.6233 35.3437 43.9134 36.1178C45.4279 37.0265 47.0767 38.9782 47.0767 38.9782Z" fill="white"/>
</mask>
<g mask="url(#mask0_1836_10148)">
<path d="M47.0761 38.9777C47.0761 38.9777 29.0199 53.1195 22.0005 53.7667C14.9815 54.4139 1.54651 39.9537 1.54651 39.9537C1.54651 39.9537 3.66643 37.4631 5.78636 36.2519C7.60769 35.211 16.01 33.8974 18.6622 33.2915C18.5771 33.5699 18.5799 33.7719 18.6549 33.9685C18.6968 34.0782 20.6023 41.375 21.222 41.6361C21.8418 41.8972 23.0761 37.9338 23.0761 37.9338C23.0761 37.9338 23.7636 41.6188 24.682 41.5443C25.6004 41.4698 30.6018 32.9006 30.6018 32.9006C33.3252 33.4454 42.6227 35.3432 43.9128 36.1173C45.4273 37.0261 47.0761 38.9777 47.0761 38.9777Z" fill="#F5D256" stroke="black" stroke-width="0.427393" stroke-linecap="round" stroke-linejoin="round"/>
<path d="M14.2329 35.7118C12.6606 36.2652 11.0364 36.673 9.49446 37.3062C7.24952 38.2275 5.17143 39.6276 2.78994 40.093C2.55242 40.1397 2.25142 40.1498 2.12737 39.9416C1.99948 39.7266 2.16632 39.4612 2.32835 39.2713C5.46328 35.5964 9.93729 33.0894 14.7084 32.335C15.6965 32.1788 17.7078 31.872 18.3934 32.8649C19.1363 33.941 17.0438 34.5506 16.3697 34.855C15.6701 35.1709 14.957 35.457 14.2329 35.7118Z" fill="#FFE8A9"/>
<path d="M32.5074 32.2867C32.2021 32.9416 32.4814 33.7551 33.0012 34.2566C33.521 34.7586 34.2316 35.0076 34.9307 35.1899C36.7222 35.6572 38.5873 35.7779 40.3933 36.1876C42.1992 36.5972 44.0172 37.3536 45.1793 38.795C45.4371 39.1148 45.6616 39.4667 45.9698 39.7384C46.278 40.0101 46.6997 40.1961 47.0988 40.099C47.7253 39.9466 48.0022 39.2023 48.0243 38.558C48.0893 36.6674 46.8584 34.9624 45.4246 33.7282C42.093 30.8592 37.3271 29.7485 33.0704 30.8495" fill="#FFE8A9"/>
<path d="M2.99178 28.147C2.9538 34.4899 2.81484 40.8324 2.77686 47.1753V59.4251" stroke="#9153D5" stroke-width="0.427393" stroke-linecap="round" stroke-linejoin="round"/>
<path d="M9.00765 28.147C8.96967 34.4899 8.83071 40.8324 8.79272 47.1753V59.4251" stroke="#9153D5" stroke-width="0.427393" stroke-linecap="round" stroke-linejoin="round"/>
<path d="M15.0236 28.147C14.9857 34.4899 14.8467 40.8324 14.8087 47.1753V59.4251" stroke="#9153D5" stroke-width="0.427393" stroke-linecap="round" stroke-linejoin="round"/>
<path d="M21.038 28.147C21.0001 34.4899 20.8611 40.8324 20.8231 47.1753V59.4251" stroke="#9153D5" stroke-width="0.427393" stroke-linecap="round" stroke-linejoin="round"/>
<path d="M27.0529 28.147C27.015 34.4899 26.876 40.8324 26.838 47.1753V59.4251" stroke="#9153D5" stroke-width="0.427393" stroke-linecap="round" stroke-linejoin="round"/>
<path d="M33.0697 28.147C33.0317 34.4899 32.8927 40.8324 32.8547 47.1753V59.4251" stroke="#9153D5" stroke-width="0.427393" stroke-linecap="round" stroke-linejoin="round"/>
<path d="M39.0848 28.147C39.0468 34.4899 38.9079 40.8324 38.8699 47.1753V59.4251" stroke="#9153D5" stroke-width="0.427393" stroke-linecap="round" stroke-linejoin="round"/>
<path d="M45.0998 28.147C45.0618 34.4899 44.9229 40.8324 44.8849 47.1753V59.4251" stroke="#9153D5" stroke-width="0.427393" stroke-linecap="round" stroke-linejoin="round"/>
<path d="M51.4981 34.8707C40.3206 34.8327 29.144 34.6937 17.9664 34.6558H-3.62085" stroke="#9153D5" stroke-width="0.427393" stroke-linecap="round" stroke-linejoin="round"/>
<path d="M51.4981 40.8858C40.3206 40.8478 29.144 40.7089 17.9664 40.6709H-3.62085" stroke="#9153D5" stroke-width="0.427393" stroke-linecap="round" stroke-linejoin="round"/>
<path d="M51.4981 46.901C40.3206 46.863 29.144 46.724 17.9664 46.686H-3.62085" stroke="#9153D5" stroke-width="0.427393" stroke-linecap="round" stroke-linejoin="round"/>
</g>
<path d="M47.0758 38.9774C47.0758 38.9774 29.0197 53.1192 22.0002 53.7664C14.9813 54.4136 1.54626 39.9535 1.54626 39.9535C1.54626 39.9535 3.66619 37.4629 5.78611 36.2517C7.60745 35.2107 16.0097 33.8971 18.6619 33.2913C18.5768 33.5697 18.5797 33.7716 18.6547 33.9683C18.6965 34.0779 20.602 41.3748 21.2218 41.6359C21.8416 41.897 23.0758 37.9336 23.0758 37.9336C23.0758 37.9336 23.7634 41.6186 24.6818 41.544C25.6001 41.4695 30.6016 32.9004 30.6016 32.9004C33.3249 33.4452 42.6225 35.3429 43.9125 36.1171C45.4271 37.0258 47.0758 38.9774 47.0758 38.9774Z" stroke="black" stroke-width="0.427393" stroke-linecap="round" stroke-linejoin="round"/>
<path opacity="0.3" d="M33.9674 40.0692C33.0981 42.5516 32.5749 45.2707 32.8091 47.956C32.8663 48.6119 32.9735 49.2788 33.2567 49.8399C33.5404 50.401 34.0299 50.8424 34.5694 50.8481C35.3973 50.8573 35.996 49.9211 36.4566 49.0797C37.7322 46.7497 39.0333 44.348 39.5266 41.6092C39.9483 39.2701 39.7334 36.7703 38.939 34.5826C37.9082 31.7429 36.347 34.7008 35.6267 36.1736C35.0117 37.4304 34.4391 38.7214 33.9669 40.0687L33.9674 40.0692Z" fill="black"/>
<path d="M36.4537 32.3077C36.4537 32.3077 33.6044 31.8543 33.2803 30.5594C32.9563 29.2646 31.1109 25.7027 31.6614 25.3786C32.212 25.0545 34.3862 27.5432 34.3862 27.5432C34.3862 27.5432 32.2764 20.9104 33.0861 20.5219C33.8958 20.1334 35.8061 25.4757 35.8061 25.4757C35.8061 25.4757 34.2194 20.7729 34.9642 20.5017C35.7089 20.2305 37.3928 25.0872 37.3928 25.0872C37.3928 25.0872 36.3566 21.0075 36.9071 20.781C37.4577 20.5546 39.155 24.6829 39.155 24.6829C39.155 24.6829 38.2669 21.1695 38.8819 21.2022C39.4968 21.2349 42.476 27.8077 42.3788 28.7467C42.2817 29.6858 41.6663 30.4628 41.6663 30.4628L46.75 41.9572C46.75 41.9572 36.9067 47.4294 36.9067 47.1702C36.9067 46.9111 36.4533 32.3081 36.4533 32.3081L36.4537 32.3077Z" fill="#94624B" stroke="black" stroke-width="0.427393" stroke-linecap="round" stroke-linejoin="round"/>
<path d="M37.5551 29.9367C37.3436 29.2313 37.484 28.4298 37.9225 27.8388C38.361 27.2479 39.087 26.8806 39.8236 26.8782" stroke="black" stroke-width="0.427393" stroke-linecap="round" stroke-linejoin="round"/>
<path d="M44.6432 36.8293L44.6408 36.8302C44.5023 36.9024 38.4416 40.046 36.1847 40.5926C35.676 40.7162 35.3606 40.7071 35.35 40.5018C35.2904 39.3733 36.6083 37.3067 36.6083 37.3067C38.933 36.4812 43.3816 34.3406 43.3816 34.3406C44.8812 35.8104 44.6432 36.8293 44.6432 36.8293Z" fill="#49A2A6" stroke="black" stroke-width="0.427393" stroke-linecap="round" stroke-linejoin="round"/>
<path d="M47.6395 41.9181C47.6178 42.1787 36.6629 49.0688 36.1849 48.5476C35.707 48.0259 36.1849 40.5925 36.1849 40.5925C38.4419 40.0458 44.5026 36.9022 44.6411 36.8301L44.6435 36.8291C44.6435 36.8291 47.6611 41.657 47.6395 41.9181Z" fill="#F5D256" stroke="black" stroke-width="0.427393" stroke-linecap="round" stroke-linejoin="round"/>
</g>
<defs>
<clipPath id="clip0_1836_10148">
<rect width="48" height="48" rx="24" fill="white"/>
</clipPath>
</defs>
</svg>
