<svg width="48" height="48" viewBox="0 0 48 48" fill="none" xmlns="http://www.w3.org/2000/svg">
<g clip-path="url(#clip0_1836_3145)">
<rect width="48" height="48" rx="24" fill="#C2EFFF"/>
<path d="M19.3626 10.3464C19.2275 10.6431 19.1958 10.845 19.1958 10.845C19.1958 10.845 17.5553 12.8827 16.02 15.5859C16.02 15.5859 15.8748 11.2451 18.0995 9.60933C18.1947 9.53913 18.2832 9.4872 18.3649 9.45066H18.3654C19.2054 9.07322 19.3588 10.3166 19.3626 10.3464Z" fill="#3D0027" stroke="black" stroke-width="0.427393" stroke-linecap="round" stroke-linejoin="round"/>
<path d="M20.9758 8.71436C20.0204 9.21777 19.5694 9.89236 19.3622 10.3467C19.3584 10.3169 19.205 9.07353 18.365 9.45049C18.3813 9.42837 18.9304 8.72734 20.9758 8.71436Z" fill="#3D0027" stroke="black" stroke-width="0.427393" stroke-linecap="round" stroke-linejoin="round"/>
<path d="M46.681 37.8596C45.9083 39.8266 42.5897 43.5322 37.7364 46.5556C34.2649 48.7183 30.0077 50.532 25.3356 51.1094C24.4038 51.2253 23.4556 51.2912 22.494 51.3013C18.4777 51.3431 14.9485 50.1824 12.0069 48.5856C5.77355 45.2021 2.17896 39.8607 2.17896 39.8607C2.17896 39.8607 3.60314 37.8754 5.63507 36.3551C5.64276 36.3488 5.65094 36.3426 5.65911 36.3368C7.70355 34.8145 19.449 33.3788 20.0144 33.0307C20.0144 33.0307 20.0091 33.1168 20.0053 33.2702C19.9759 34.5333 20.0755 40.3762 24.4297 40.4911C25.5313 40.5204 26.4222 40.1213 27.142 39.4857C29.6134 37.3042 30.0635 32.335 30.0635 32.335C30.1899 32.6696 33.158 33.3956 36.3329 34.0938C39.7654 34.8482 43.4398 35.5699 44.0274 35.7281C44.7284 35.9166 45.5799 36.6907 46.1257 37.2513C46.4608 37.5956 46.681 37.8596 46.681 37.8596Z" fill="#E86F3A" stroke="black" stroke-width="0.427393" stroke-linecap="round" stroke-linejoin="round"/>
<path d="M12.0076 48.5853C5.77428 45.2018 2.17969 39.8604 2.17969 39.8604C2.17969 39.8604 3.60387 37.8751 5.6358 36.3547C5.76274 36.4014 5.88727 36.4605 6.00844 36.5322C6.76524 36.9803 7.18211 37.8337 7.44704 38.6723C7.71197 39.5113 7.87305 40.3955 8.30915 41.1595C9.06932 42.4919 10.5555 43.2723 11.3753 44.569C11.8634 45.3417 12.086 46.2615 12.1196 47.1746C12.1369 47.6458 12.098 48.1199 12.0076 48.5853Z" fill="#49A2A6" stroke="black" stroke-width="0.427393" stroke-linecap="round" stroke-linejoin="round"/>
<path d="M21.0837 32.7988C19.196 33.496 17.5223 34.761 16.3361 36.3867C16.1275 36.6728 15.926 36.9954 15.938 37.3493C15.964 38.0897 16.8213 38.4446 17.468 38.8062C18.6734 39.4798 19.4797 40.6818 20.1711 41.8771C20.5707 42.5681 21.0765 43.3585 21.8727 43.4143C22.1829 43.436 22.4877 43.3359 22.782 43.2355C23.3272 43.0494 23.8715 42.859 24.4134 42.6633C25.1423 42.4008 25.901 42.1065 26.4025 41.516C27.0035 40.8088 27.1175 39.8216 27.2055 38.898C27.305 37.8522 27.3795 36.705 26.7732 35.8477C25.9876 34.737 24.3624 34.5432 23.4623 33.5229" fill="#49A2A6"/>
<path d="M21.0837 32.7988C19.196 33.496 17.5223 34.761 16.3361 36.3867C16.1275 36.6728 15.926 36.9954 15.938 37.3493C15.964 38.0897 16.8213 38.4446 17.468 38.8062C18.6734 39.4798 19.4797 40.6818 20.1711 41.8771C20.5707 42.5681 21.0765 43.3585 21.8727 43.4143C22.1829 43.436 22.4877 43.3359 22.782 43.2355C23.3272 43.0494 23.8715 42.859 24.4134 42.6633C25.1423 42.4008 25.901 42.1065 26.4025 41.516C27.0035 40.8088 27.1175 39.8216 27.2055 38.898C27.305 37.8522 27.3795 36.705 26.7732 35.8477C25.9876 34.737 24.3624 34.5432 23.4623 33.5229" stroke="black" stroke-width="0.427393" stroke-linecap="round" stroke-linejoin="round"/>
<path d="M37.7378 46.5559C34.2663 48.7187 30.0091 50.5323 25.337 51.1098C25.2673 50.2477 25.2284 49.3831 25.2211 48.5186C25.213 47.5431 25.2688 46.4949 25.8616 45.7198C26.3895 45.0293 27.256 44.6832 28.1085 44.5139C28.9609 44.3447 29.8394 44.3201 30.6837 44.1134C31.8862 43.8182 33.0243 43.1537 34.2624 43.1907C35.6799 43.233 36.969 44.2663 37.4868 45.5866C37.6099 45.8996 37.6926 46.2251 37.7378 46.5559Z" fill="#49A2A6" stroke="black" stroke-width="0.427393" stroke-linecap="round" stroke-linejoin="round"/>
<path d="M46.1257 37.2513C45.8868 37.6936 45.5468 38.0648 45.0929 38.3023C44.326 38.7038 43.411 38.6399 42.5523 38.7509C41.0243 38.9481 39.4068 39.7102 38.0273 39.0236C36.9013 38.4629 36.3978 37.1094 36.3142 35.854C36.2752 35.2689 36.3046 34.6808 36.3329 34.0938C39.7655 34.8482 43.4399 35.5699 44.0275 35.728C44.7285 35.9165 45.58 36.6906 46.1257 37.2513Z" fill="#49A2A6" stroke="black" stroke-width="0.427393" stroke-linecap="round" stroke-linejoin="round"/>
<path d="M30.0634 32.3351C30.0634 32.3351 30.0504 32.4808 30.0163 32.7327C29.9538 33.1948 29.8201 34.0146 29.5677 34.9531C28.9181 37.3688 27.4804 40.572 24.4297 40.4912C19.547 40.3623 20.0143 33.0308 20.0143 33.0308C20.5802 32.6832 20.2288 27.6702 20.2288 27.6702C18.7426 28.1539 17.1727 28.3121 15.85 27.6635C15.6139 27.5476 15.3855 27.4062 15.1672 27.236C11.852 24.6574 13.8281 19.4444 16.0197 15.5863C17.5549 12.8831 19.1955 10.8454 19.1955 10.8454C19.1955 10.8454 20.2379 10.2656 21.3741 10.6079C22.3795 10.9099 23.4589 11.933 23.9556 14.716C24.0277 15.1204 24.0873 15.5622 24.133 16.0445C24.8465 23.5924 25.1624 25.8022 28.1469 27.5817C28.1454 27.587 28.144 27.5937 28.1425 27.6014C28.1406 27.6135 28.1392 27.6279 28.1382 27.6442C28.1368 27.6678 28.1363 27.6952 28.1372 27.7274C28.1372 27.7361 28.1372 27.7452 28.1377 27.7548C28.1387 27.7822 28.1401 27.812 28.1425 27.8442C28.1425 27.8515 28.1435 27.8587 28.144 27.8664C28.1459 27.889 28.1478 27.9125 28.1502 27.9375C28.1512 27.9457 28.1522 27.9539 28.1531 27.962C28.1536 27.9669 28.1541 27.9717 28.1546 27.977C28.1574 28.0039 28.1608 28.0318 28.1647 28.0611C28.1738 28.1294 28.1853 28.2039 28.1997 28.2823C28.2022 28.2953 28.2046 28.3082 28.207 28.3217C28.2151 28.3659 28.2248 28.4116 28.2344 28.4583C28.2397 28.4813 28.2449 28.5054 28.2507 28.5294C28.2574 28.5583 28.2642 28.5871 28.2714 28.6164C28.2786 28.6458 28.2863 28.6751 28.2945 28.7049C28.2988 28.7208 28.3031 28.7366 28.3075 28.753C28.3113 28.7669 28.3151 28.7809 28.3195 28.7953C28.3714 28.9771 28.4368 29.167 28.5171 29.3559C28.5224 29.3694 28.5281 29.3829 28.5344 29.3963C28.5426 29.4151 28.5507 29.4338 28.5594 29.4526C28.5666 29.4685 28.5738 29.4838 28.581 29.4997C28.5964 29.5319 28.6118 29.5641 28.6277 29.5959C28.6508 29.642 28.6748 29.6877 28.7003 29.7334C28.7085 29.7488 28.7171 29.7642 28.7262 29.7795C28.7527 29.8252 28.7796 29.8709 28.8085 29.9156C28.8364 29.9603 28.8657 30.0046 28.8969 30.0478C28.9066 30.0623 28.9171 30.0767 28.9282 30.0911C28.9383 30.1055 28.9493 30.1195 28.9599 30.1339C28.9811 30.1623 29.0027 30.1897 29.0258 30.2171C29.0369 30.231 29.0479 30.2445 29.0599 30.258C29.0715 30.2714 29.083 30.2849 29.095 30.2983C29.0979 30.3022 29.1013 30.3056 29.1042 30.3089C29.1224 30.3296 29.1417 30.3503 29.1609 30.37C29.1816 30.3916 29.2023 30.4133 29.2239 30.4339C29.2292 30.4392 29.2345 30.4445 29.2402 30.4498C29.2575 30.4666 29.2753 30.483 29.2936 30.4988C29.2979 30.5032 29.3023 30.507 29.3066 30.5109C29.3273 30.5296 29.3489 30.5479 29.3705 30.5657C29.3715 30.5666 29.3729 30.5676 29.3744 30.5686C29.3975 30.5878 29.421 30.6065 29.4451 30.6243C29.4499 30.6282 29.4547 30.632 29.46 30.6354C29.4826 30.6522 29.5056 30.6691 29.5287 30.6849C29.5504 30.6993 29.5725 30.7143 29.5951 30.7282C29.6071 30.7359 29.6191 30.7436 29.6316 30.7503C29.6537 30.7643 29.6763 30.7777 29.6994 30.7902C29.6994 30.7902 29.7268 31.4436 30.0634 32.3351Z" fill="#94624B" stroke="black" stroke-width="0.427393" stroke-linecap="round" stroke-linejoin="round"/>
<path d="M46.681 37.8596C45.2453 41.5138 35.0226 51.171 22.494 51.3013C9.96579 51.4321 2.17896 39.8607 2.17896 39.8607C2.17896 39.8607 3.61468 37.8596 5.65911 36.3368C7.70355 34.8145 19.449 33.3788 20.0144 33.0307C20.0144 33.0307 19.547 40.3622 24.4297 40.4911C29.3129 40.6204 30.0635 32.335 30.0635 32.335C30.3265 33.0317 42.8965 35.4233 44.0274 35.7281C45.1583 36.0324 46.681 37.8596 46.681 37.8596Z" stroke="black" stroke-width="0.427393" stroke-linecap="round" stroke-linejoin="round"/>
<path d="M24.1325 25.708C23.1411 26.3638 21.727 27.1822 20.2283 27.6697" stroke="black" stroke-width="0.427393" stroke-linecap="round" stroke-linejoin="round"/>
<path d="M34.7893 23.5938C33.5324 28.4356 32.1246 27.3966 32.0876 30.0579C31.6856 28.7953 31.137 29.1256 28.1521 27.3461C27.6987 27.0754 27.3068 26.7951 26.9659 26.4878C25.133 24.8353 24.769 22.3985 24.2045 16.5037V16.5032C24.1824 16.2767 24.1608 16.0459 24.1382 15.8089C23.4251 8.26051 19.2007 10.6098 19.2007 10.6098C19.2007 10.6098 19.2324 10.4078 19.3675 10.1117C19.5748 9.65681 20.0258 8.98222 20.9812 8.47881C21.5105 8.19945 22.1957 7.97299 23.0799 7.86624C23.8862 7.76816 24.858 7.77008 26.0293 7.92154C29.131 8.32302 31.6115 10.9675 33.1766 14.125C34.7825 17.3634 35.4259 21.1421 34.7893 23.5938Z" fill="#3D0027" stroke="black" stroke-width="0.427393" stroke-linecap="round" stroke-linejoin="round"/>
<path d="M32.4268 31.7502C32.0941 30.9708 30.9368 31.4738 29.7006 30.7895C29.515 30.6867 29.3505 30.5588 29.2044 30.4126C29.1669 30.3756 29.1313 30.3376 29.0962 30.2982C28.5721 29.7067 28.3134 28.8898 28.2047 28.3032C28.136 27.9316 28.1269 27.6522 28.148 27.5811C31.1329 29.3606 31.6815 29.0302 32.0835 30.2929L32.4268 31.7502Z" fill="#3D0027" stroke="black" stroke-width="0.427393" stroke-linecap="round" stroke-linejoin="round"/>
<path d="M32.5125 32.116L32.4539 31.8669" stroke="black" stroke-width="0.427393" stroke-linecap="round" stroke-linejoin="round"/>
<path d="M34.8727 28.3257C34.8588 28.3882 34.8443 28.4498 34.8294 28.5094C34.3626 30.362 33.2855 30.9125 32.8711 31.0947C32.4989 31.2587 32.4345 31.5679 32.4479 31.8035C32.4412 31.7852 32.434 31.7674 32.4263 31.7501L32.083 30.2927C32.12 27.6314 33.5279 28.6704 34.7847 23.8286C34.8612 24.2532 34.9193 24.6532 34.9617 25.0297C35.1184 26.4217 35.0554 27.4958 34.8727 28.3257Z" fill="#3D0027" stroke="black" stroke-width="0.427393" stroke-linecap="round" stroke-linejoin="round"/>
<path d="M34.7832 31.7502C34.7332 31.8661 34.6775 31.968 34.6164 32.0589C34.2635 32.5907 33.761 32.7426 33.4653 33.0528C32.8595 33.6884 32.8003 34.2505 32.8003 34.2505L32.5128 32.1176C32.5013 31.9964 32.4792 31.8926 32.4479 31.8041C32.4344 31.568 32.4989 31.2588 32.871 31.0949C33.2855 30.9126 34.3625 30.3621 34.8294 28.5095C34.901 28.9038 34.9506 29.2582 34.9813 29.5774C35.0823 30.6246 34.9804 31.2944 34.7832 31.7502Z" fill="#3D0027" stroke="black" stroke-width="0.427393" stroke-linecap="round" stroke-linejoin="round"/>
<path d="M32.8004 34.2507C32.6384 33.2486 31.4108 33.9319 30.2747 32.9808C30.1929 32.9121 30.117 32.8399 30.0463 32.764C30.0434 32.7616 30.0405 32.7587 30.0381 32.7558C29.5669 32.2471 29.3294 31.5965 29.2111 31.0902C29.1534 30.8441 29.1241 30.632 29.1092 30.4863C29.1 30.394 29.0967 30.3286 29.0957 30.2983C29.1308 30.3378 29.1664 30.3758 29.2039 30.4128C29.3501 30.5589 29.5145 30.6868 29.7001 30.7897C30.9363 31.4739 32.0936 30.971 32.4263 31.7504L32.4537 31.8672C32.4701 32.0038 32.5076 32.1043 32.5124 32.1163C32.5124 32.1173 32.5124 32.1178 32.5124 32.1178L32.7999 34.2507H32.8004Z" fill="#3D0027" stroke="black" stroke-width="0.427393" stroke-linecap="round" stroke-linejoin="round"/>
<path d="M29.0955 30.2978C29.0955 30.2858 29.0955 30.2791 29.0959 30.2791" stroke="black" stroke-width="0.427393" stroke-linecap="round" stroke-linejoin="round"/>
<path d="M32.4538 31.8672C32.4514 31.847 32.4494 31.8258 32.448 31.8042" stroke="black" stroke-width="0.427393" stroke-linecap="round" stroke-linejoin="round"/>
<path d="M34.6618 34.1389C34.6392 34.1885 34.6156 34.2365 34.5901 34.2827C34.3079 34.8106 33.8915 35.1188 33.5674 35.3424C32.9256 35.7853 32.9948 36.3618 32.9996 36.3973C32.9885 36.3541 32.976 36.3132 32.9621 36.2747L32.801 34.25C32.801 34.25 32.8602 33.6879 33.466 33.0523C33.7617 32.7422 34.2642 32.5902 34.6171 32.0584C34.6781 31.9676 34.7339 31.8656 34.7839 31.7498C34.7988 31.82 34.8123 31.8887 34.8243 31.956C34.8652 32.1801 34.8907 32.3892 34.9027 32.5845C34.9455 33.2432 34.8402 33.7466 34.6618 34.1389Z" fill="#3D0027" stroke="black" stroke-width="0.427393" stroke-linecap="round" stroke-linejoin="round"/>
<path d="M32.9615 36.2754C32.6369 35.3667 31.6099 35.6004 30.9483 34.9633C30.9151 34.9311 30.8824 34.8969 30.8511 34.8609C30.5074 34.4656 30.2939 33.854 30.1727 33.392C30.0915 33.0838 30.0516 32.8419 30.041 32.7746C30.0391 32.7626 30.0381 32.7559 30.0381 32.7559C30.0405 32.7587 30.0434 32.7616 30.0463 32.764C30.1169 32.84 30.1929 32.9121 30.2747 32.9809C31.4108 33.9319 32.6383 33.2487 32.8004 34.2507L32.9615 36.2754Z" fill="#3D0027" stroke="black" stroke-width="0.427393" stroke-linecap="round" stroke-linejoin="round"/>
<path d="M33.311 38.2413C33.1817 37.5677 32.6686 37.8351 31.9402 37.5567C31.796 37.5014 31.6714 37.4264 31.5647 37.3355C31.5647 37.3355 31.5644 37.3352 31.5637 37.3345C31.5156 37.2941 31.4714 37.2509 31.431 37.2047C31.0541 36.785 30.9449 36.1546 30.9238 35.6695C30.906 35.266 30.9488 34.9631 30.9488 34.9631C31.6104 35.6002 32.6374 35.3665 32.9619 36.2753C32.9759 36.3138 32.9884 36.3546 32.9995 36.3979C32.9995 36.3984 32.9999 36.3993 32.9999 36.3998L33.311 38.2413Z" fill="#3D0027" stroke="black" stroke-width="0.427393" stroke-linecap="round" stroke-linejoin="round"/>
<path d="M34.8038 36.3988C34.7466 36.5392 34.6788 36.669 34.6047 36.7863C34.3711 37.1614 34.0763 37.4128 33.8571 37.4941C33.2762 37.7095 33.3171 38.2749 33.3171 38.2749C33.3152 38.2639 33.3133 38.2528 33.3113 38.2422L33.0003 36.4007C33.0003 36.4007 32.9998 36.3993 32.9998 36.3988C32.995 36.3632 32.9257 35.7867 33.5676 35.3439C33.8917 35.1203 34.3081 34.8121 34.5903 34.2841C34.6158 34.238 34.6394 34.1899 34.662 34.1404C34.673 34.1615 34.6831 34.1827 34.6932 34.2034C34.7836 34.388 34.8514 34.5693 34.8985 34.7453C35.0697 35.3751 34.9899 35.943 34.8038 36.3988Z" fill="#3D0027" stroke="black" stroke-width="0.427393" stroke-linecap="round" stroke-linejoin="round"/>
<path d="M33.5932 40.3987C33.5028 40.0737 33.5841 39.8054 32.4474 39.1991C32.3936 39.1702 32.3426 39.1404 32.295 39.1087C32.2104 39.0534 32.1349 38.9943 32.0681 38.9322C31.6046 38.5034 31.5507 37.9495 31.556 37.6191C31.5584 37.4576 31.5752 37.3499 31.5651 37.3354C31.6719 37.4263 31.7964 37.5013 31.9406 37.5566C32.6691 37.835 33.1821 37.5677 33.3115 38.2413C33.3134 38.2519 33.3153 38.2629 33.3172 38.274L33.5788 40.2809C33.5817 40.3377 33.5894 40.38 33.5932 40.3987Z" fill="#3D0027" stroke="black" stroke-width="0.427393" stroke-linecap="round" stroke-linejoin="round"/>
<path d="M34.8338 38.5987C34.8338 38.5987 34.8338 38.5986 34.8338 38.5996C34.6414 39.1655 34.2842 39.4579 33.9943 39.592C33.6125 39.7685 33.5702 40.0988 33.5788 40.281L33.3173 38.2741C33.3173 38.2741 33.2764 37.7087 33.8572 37.4933C34.0765 37.412 34.3712 37.1605 34.6049 36.7855C34.6789 36.6682 34.7467 36.5383 34.804 36.3979C34.8222 36.473 34.8386 36.546 34.8535 36.6177C34.8867 36.7764 34.9121 36.9268 34.9309 37.0696C35.0174 37.7236 34.9622 38.2217 34.8343 38.5987H34.8338Z" fill="#3D0027" stroke="black" stroke-width="0.427393" stroke-linecap="round" stroke-linejoin="round"/>
<path d="M33.5938 40.4058C33.5938 40.4058 33.5946 40.4098 33.5954 40.4122" stroke="black" stroke-width="0.427393" stroke-linecap="round" stroke-linejoin="round"/>
<path d="M31.5656 37.3353L31.564 37.3337" stroke="black" stroke-width="0.427393" stroke-linecap="round" stroke-linejoin="round"/>
<path d="M33.994 42.2182L33.9546 42.0388" stroke="black" stroke-width="0.427393" stroke-linecap="round" stroke-linejoin="round"/>
<path d="M34.6239 40.9462C34.5681 41.0405 34.5056 41.1121 34.4359 41.153C34.044 41.3838 33.9979 41.9699 33.9935 42.1579C33.9892 42.1281 33.9786 42.0877 33.9541 42.0377L33.5949 40.4087L33.5781 40.2808C33.5695 40.0986 33.6118 39.7682 33.9935 39.5918C34.2835 39.4576 34.6407 39.1653 34.8331 38.5994C34.8927 38.7523 34.9263 38.9773 34.9355 39.2307C34.9576 39.8197 34.848 40.5669 34.6239 40.9462Z" fill="#3D0027" stroke="black" stroke-width="0.427393" stroke-linecap="round" stroke-linejoin="round"/>
<path d="M33.9936 42.1584C33.9989 42.1969 33.9936 42.2171 33.9936 42.2171C33.9936 42.2171 33.9926 42.1955 33.9936 42.1584Z" fill="#3D0027" stroke="black" stroke-width="0.427393" stroke-linecap="round" stroke-linejoin="round"/>
<path d="M33.9546 42.038C33.8772 41.8827 33.6627 41.6351 33.0814 41.3331C32.9531 41.2663 32.841 41.1773 32.7429 41.073C32.4203 40.7311 32.252 40.2238 32.164 39.7892C32.1405 39.6724 32.1227 39.5608 32.1092 39.4594C32.0693 39.1593 32.0679 38.9444 32.0679 38.9324C32.1347 38.9944 32.2102 39.0535 32.2948 39.1088C32.3424 39.1406 32.3934 39.1704 32.4472 39.1992C33.5839 39.8055 33.5026 40.0738 33.593 40.3989C33.5892 40.3801 33.5815 40.3378 33.5786 40.2811L33.5954 40.409L33.9546 42.038Z" fill="#3D0027" stroke="black" stroke-width="0.427393" stroke-linecap="round" stroke-linejoin="round"/>
<path d="M33.9939 42.1582C33.9939 42.1582 32.8856 43.0982 33.0111 43.7146C33.1366 44.331 35.47 43.6646 35.67 43.2977C35.8701 42.9309 33.9939 42.1577 33.9939 42.1577V42.1582Z" fill="#3D0027" stroke="black" stroke-width="0.427393" stroke-linecap="round" stroke-linejoin="round"/>
<path d="M30.0627 32.3349C30.0627 32.3349 30.0497 32.4806 30.0155 32.7325C29.953 33.1946 29.8194 34.0144 29.5669 34.953C29.2477 34.6212 28.9717 34.2476 28.7495 33.8442C27.8004 32.1209 27.7783 29.8294 26.2719 28.5643C25.9531 28.2965 25.5843 28.0936 25.2723 27.8186C24.6688 27.2882 24.315 26.5194 24.1452 25.7342C23.9755 24.9491 23.9741 24.1384 23.9736 23.335C23.9712 20.9501 23.9693 18.5652 23.9673 16.1809C23.9673 15.6924 23.9664 15.2039 23.9548 14.7158C24.027 15.1202 24.0866 15.5621 24.1323 16.0443C24.8458 23.5922 25.1617 25.802 28.1461 27.5815C28.1447 27.5868 28.1432 27.5936 28.1418 27.6012C28.1399 27.6133 28.1384 27.6277 28.1375 27.644C28.136 27.6676 28.1355 27.695 28.1365 27.7272C28.1365 27.7359 28.1365 27.745 28.137 27.7546C28.1379 27.782 28.1394 27.8118 28.1418 27.8441C28.1418 27.8513 28.1428 27.8585 28.1432 27.8662C28.1452 27.8888 28.1471 27.9123 28.1495 27.9373C28.1504 27.9455 28.1514 27.9537 28.1524 27.9619C28.1529 27.9667 28.1533 27.9715 28.1538 27.9768C28.1567 28.0037 28.1601 28.0316 28.1639 28.0609C28.173 28.1292 28.1846 28.2037 28.199 28.2821C28.2014 28.2951 28.2038 28.3081 28.2062 28.3215C28.2144 28.3658 28.224 28.4114 28.2336 28.4581C28.2389 28.4811 28.2442 28.5052 28.25 28.5292C28.2567 28.5581 28.2634 28.5869 28.2706 28.6163C28.2779 28.6456 28.2856 28.6749 28.2937 28.7047C28.2981 28.7206 28.3024 28.7365 28.3067 28.7528C28.3106 28.7668 28.3144 28.7807 28.3187 28.7951C28.3707 28.9769 28.4361 29.1668 28.5163 29.3558C28.5216 29.3692 28.5274 29.3827 28.5337 29.3961C28.5418 29.4149 28.55 29.4336 28.5587 29.4524C28.5659 29.4683 28.5731 29.4837 28.5803 29.4995C28.5957 29.5317 28.6111 29.5639 28.6269 29.5957C28.65 29.6418 28.6741 29.6875 28.6995 29.7332C28.7077 29.7486 28.7164 29.764 28.7255 29.7794C28.7519 29.825 28.7789 29.8707 28.8077 29.9154C28.8356 29.9601 28.8649 30.0044 28.8962 30.0476C28.9058 30.0621 28.9164 30.0765 28.9274 30.0909C28.9375 30.1053 28.9486 30.1193 28.9592 30.1337C28.9803 30.1621 29.002 30.1895 29.0251 30.2169C29.0361 30.2308 29.0472 30.2443 29.0592 30.2578C29.0707 30.2712 29.0823 30.2847 29.0943 30.2982C29.0972 30.302 29.1005 30.3054 29.1034 30.3087C29.1217 30.3294 29.1409 30.3501 29.1602 30.3698C29.1808 30.3914 29.2015 30.4131 29.2231 30.4337C29.2284 30.439 29.2337 30.4443 29.2395 30.4496C29.2568 30.4664 29.2746 30.4828 29.2929 30.4987C29.2972 30.503 29.3015 30.5068 29.3059 30.5107C29.3265 30.5294 29.3482 30.5477 29.3698 30.5655C29.3708 30.5665 29.3722 30.5674 29.3736 30.5684C29.3967 30.5876 29.4203 30.6064 29.4443 30.6241C29.4491 30.628 29.4539 30.6318 29.4592 30.6352C29.4818 30.652 29.5049 30.6689 29.528 30.6847C29.5496 30.6992 29.5717 30.7141 29.5943 30.728C29.6064 30.7357 29.6184 30.7434 29.6309 30.7501C29.653 30.7641 29.6756 30.7775 29.6987 30.79C29.6987 30.79 29.7261 31.4435 30.0627 32.3349Z" fill="#894B38"/>
<path d="M24.1455 25.7341C24.1455 25.7341 23.2166 29.2725 20.3326 30.174L20.2283 27.6699" fill="#663421"/>
<path d="M21.2409 11.156C20.4297 12.7528 19.6811 14.2828 19.1219 15.9945C18.8055 16.9624 18.5195 17.9394 18.2228 18.9131C17.3405 21.8052 16.3438 24.6901 15.85 27.6635C15.6139 27.5476 15.3855 27.4062 15.1672 27.236C11.852 24.6574 13.8281 19.4444 16.0197 15.5863C17.5549 12.8831 19.1955 10.8454 19.1955 10.8454C19.1955 10.8454 20.2379 10.2656 21.3741 10.6079C21.3875 10.7646 21.3471 10.9464 21.2409 11.156Z" fill="#AD8679"/>
<path d="M30.0634 32.3352C30.0634 32.3352 30.0504 32.4809 30.0163 32.7329C29.9538 33.1949 29.8201 34.0147 29.5677 34.9533C28.9181 37.3689 27.4804 40.5721 24.4297 40.4913C19.547 40.3625 20.0143 33.031 20.0143 33.031C20.5802 32.6833 20.2288 27.6703 20.2288 27.6703C18.4771 28.2406 16.6096 28.3584 15.1672 27.2362C11.852 24.6575 13.8281 19.4445 16.0197 15.5864C17.5549 12.8833 19.1955 10.8456 19.1955 10.8456C19.1955 10.8456 22.8973 8.78672 23.9556 14.7162C24.0277 15.1205 24.0873 15.5624 24.133 16.0447C24.8465 23.5925 25.1624 25.8024 28.1469 27.5819C28.1454 27.5872 28.144 27.5939 28.1425 27.6016C28.1406 27.6136 28.1392 27.628 28.1382 27.6444C28.1368 27.6679 28.1363 27.6953 28.1372 27.7276C28.1372 27.7362 28.1372 27.7454 28.1377 27.755C28.1387 27.7824 28.1401 27.8122 28.1425 27.8444C28.1425 27.8516 28.1435 27.8588 28.144 27.8665C28.1459 27.8891 28.1478 27.9127 28.1502 27.9377C28.1512 27.9459 28.1521 27.954 28.1531 27.9622C28.1536 27.967 28.1541 27.9718 28.1546 27.9771C28.1574 28.004 28.1608 28.0319 28.1647 28.0613C28.1738 28.1295 28.1853 28.2041 28.1997 28.2824C28.2022 28.2954 28.2046 28.3084 28.207 28.3219C28.2151 28.3661 28.2248 28.4118 28.2344 28.4584C28.2397 28.4815 28.2449 28.5055 28.2507 28.5296C28.2574 28.5584 28.2642 28.5873 28.2714 28.6166C28.2786 28.6459 28.2863 28.6753 28.2945 28.7051C28.2988 28.7209 28.3031 28.7368 28.3075 28.7531C28.3113 28.7671 28.3151 28.781 28.3195 28.7955C28.3714 28.9772 28.4368 29.1671 28.5171 29.3561C28.5224 29.3696 28.5281 29.383 28.5344 29.3965C28.5426 29.4152 28.5507 29.434 28.5594 29.4527C28.5666 29.4686 28.5738 29.484 28.581 29.4999C28.5964 29.5321 28.6118 29.5643 28.6277 29.596C28.6508 29.6422 28.6748 29.6879 28.7003 29.7335C28.7085 29.7489 28.7171 29.7643 28.7262 29.7797C28.7527 29.8254 28.7796 29.871 28.8085 29.9158C28.8364 29.9605 28.8657 30.0047 28.8969 30.048C28.9066 30.0624 28.9171 30.0768 28.9282 30.0913C28.9383 30.1057 28.9493 30.1196 28.9599 30.1341C28.9811 30.1624 29.0027 30.1898 29.0258 30.2172C29.0369 30.2312 29.0479 30.2446 29.0599 30.2581C29.0715 30.2716 29.083 30.285 29.095 30.2985C29.0979 30.3023 29.1013 30.3057 29.1042 30.3091C29.1224 30.3297 29.1417 30.3504 29.1609 30.3701C29.1816 30.3918 29.2023 30.4134 29.2239 30.4341C29.2292 30.4394 29.2345 30.4447 29.2402 30.45C29.2575 30.4668 29.2753 30.4831 29.2936 30.499C29.2979 30.5033 29.3023 30.5072 29.3066 30.511C29.3273 30.5298 29.3489 30.548 29.3705 30.5658C29.3715 30.5668 29.3729 30.5678 29.3744 30.5687C29.3975 30.5879 29.421 30.6067 29.4451 30.6245C29.4499 30.6283 29.4547 30.6322 29.46 30.6355C29.4826 30.6524 29.5057 30.6692 29.5287 30.6851C29.5504 30.6995 29.5725 30.7144 29.5951 30.7283C29.6071 30.736 29.6191 30.7437 29.6316 30.7505C29.6537 30.7644 29.6763 30.7779 29.6994 30.7904C29.6994 30.7904 29.7268 31.4438 30.0634 32.3352Z" stroke="black" stroke-width="0.427393" stroke-linecap="round" stroke-linejoin="round"/>
<path d="M34.7825 31.75C34.7974 31.8202 34.8108 31.8889 34.8228 31.9562C34.7594 32.0019 34.6906 32.0385 34.6156 32.0587C34.6132 32.0591 34.6108 32.0601 34.6084 32.0606C34.4555 32.0995 34.2689 32.0481 34.1997 31.9067C34.1617 31.8298 34.1632 31.7403 34.1694 31.6548C34.2136 31.0634 34.456 30.5263 34.7425 30.0157C34.7853 29.9397 34.8714 29.769 34.9806 29.5771C35.0815 30.6244 34.9796 31.2941 34.7825 31.75Z" fill="#6D1151"/>
<path d="M33.1712 14.3599C33.0876 14.5825 32.9828 14.7979 32.8568 15.0018C32.5207 14.019 32.1351 12.9953 31.3441 12.3222C30.7676 11.8313 30.033 11.5779 29.3454 11.261C27.7202 10.5119 26.2431 9.34979 24.479 9.04784C23.9852 8.96369 23.3967 8.89734 23.1592 8.45643C23.0986 8.34392 23.0726 8.22275 23.0746 8.10111C23.8809 8.00302 24.8526 8.00494 26.0239 8.1564C29.1256 8.55788 31.6062 11.2024 33.1712 14.3599Z" fill="#6D1151"/>
<path d="M34.8714 28.3263C34.7959 28.3816 34.7127 28.4224 34.6199 28.434C34.4367 28.4571 34.2535 28.3546 34.1439 28.2066C34.0343 28.0585 33.9891 27.8714 33.9756 27.6873C33.9352 27.1305 34.1622 26.5915 34.4117 26.0924C34.5839 25.7477 34.7574 25.3717 34.9603 25.0303C35.1171 26.4222 35.0541 27.4964 34.8714 28.3263Z" fill="#6D1151"/>
<path d="M34.6604 34.139C34.6715 34.1601 34.6816 34.1813 34.6917 34.2019C34.6576 34.2289 34.6229 34.2558 34.5888 34.2827C34.5864 34.2846 34.5845 34.2861 34.5821 34.288C34.5287 34.3298 34.4643 34.3746 34.3979 34.3577C34.3599 34.3486 34.3292 34.3193 34.3061 34.287C34.2046 34.1452 34.2315 33.95 34.284 33.7836C34.3681 33.5149 34.5071 33.2672 34.6446 33.0215C34.7273 32.8744 34.81 32.7263 34.9013 32.5845C34.9441 33.2432 34.8388 33.7466 34.6604 34.139Z" fill="#6D1151"/>
<path d="M34.8024 36.3974C34.8207 36.4724 34.837 36.5455 34.8519 36.6172C34.7904 36.6787 34.7255 36.7393 34.6447 36.772C34.6312 36.7773 34.6173 36.7821 34.6034 36.785C34.5293 36.8037 34.4466 36.7936 34.3904 36.7431C34.3086 36.6696 34.3096 36.5426 34.3216 36.4335C34.3572 36.1113 34.4346 35.7935 34.5495 35.4901C34.624 35.2935 34.7409 35.0031 34.8971 34.7439C35.0683 35.3738 34.9885 35.9416 34.8024 36.3974Z" fill="#6D1151"/>
<path d="M34.8316 38.5986C34.7768 38.6447 34.7176 38.6846 34.6517 38.714C34.6061 38.7342 34.5537 38.7491 34.5056 38.7347C34.396 38.701 34.383 38.5519 34.3964 38.438C34.4537 37.9504 34.6085 37.4509 34.9282 37.0696C35.0148 37.7235 34.9595 38.2216 34.8316 38.5986Z" fill="#6D1151"/>
<path d="M34.6225 40.9463C34.5576 41.0025 34.4816 41.0376 34.408 41.0035C34.3119 40.9583 34.2998 40.8275 34.308 40.7217C34.3378 40.3534 34.4503 39.9933 34.6326 39.6721C34.7133 39.5288 34.8143 39.3673 34.934 39.2307C34.9562 39.8197 34.8465 40.5669 34.6225 40.9463Z" fill="#6D1151"/>
<path d="M27.1264 26.3239C27.0865 26.4576 27.0322 26.5966 26.9606 26.7221C25.1277 25.0695 24.7637 22.6327 24.1992 16.7379V16.7374C24.2521 16.6576 24.3079 16.5797 24.3665 16.5028C24.4584 16.3821 24.5863 16.2547 24.7358 16.2782C24.9051 16.3047 24.9815 16.5013 25.0171 16.6687C25.2758 17.8861 25.0666 19.2098 25.5873 20.3397C25.8277 20.8619 26.209 21.3047 26.5134 21.7922C27.3452 23.1246 27.5746 24.818 27.1264 26.3239Z" fill="#6D1151"/>
<path d="M29.2828 30.2772C29.2621 30.3253 29.2367 30.3729 29.2035 30.4123C29.1838 30.4354 29.1612 30.4561 29.1352 30.4719C29.1265 30.4772 29.1179 30.482 29.1088 30.4859C29.0996 30.3936 29.0963 30.3282 29.0953 30.2979C28.5712 29.7065 28.3125 28.8896 28.2039 28.303C28.4087 28.3164 28.6029 28.4203 28.7655 28.5487C29.0193 28.7497 29.2208 29.0204 29.3198 29.3286C29.4194 29.6363 29.4126 29.981 29.2828 30.2772Z" fill="#6D1151"/>
<path d="M30.1757 32.3574C30.1468 32.4968 30.1098 32.6377 30.0459 32.7637C30.0439 32.7675 30.042 32.7709 30.0406 32.7742C30.0387 32.7622 30.0377 32.7555 30.0377 32.7555C29.5665 32.2468 29.329 31.5962 29.2107 31.0899C29.5973 31.0577 30.0031 31.3078 30.1642 31.7015C30.2478 31.9073 30.2209 32.14 30.1757 32.3574Z" fill="#6D1151"/>
<path d="M30.9054 34.6456C30.8905 34.7172 30.8732 34.7898 30.851 34.8605C30.5073 34.4653 30.2938 33.8537 30.1726 33.3916C30.4798 33.4522 30.765 33.6748 30.8934 33.9902C30.9775 34.1955 30.9506 34.4282 30.9054 34.6456Z" fill="#6D1151"/>
<path d="M32.3515 38.8832C32.3356 38.9587 32.3178 39.0347 32.2938 39.1082C32.2601 39.215 32.2149 39.3174 32.1495 39.4078C32.1366 39.4251 32.1231 39.4424 32.1082 39.4587C32.0683 39.1587 32.0668 38.9438 32.0668 38.9318C31.6033 38.5029 31.5495 37.949 31.5548 37.6187C31.8856 37.6586 32.2019 37.8908 32.3399 38.2274C32.4236 38.4327 32.3967 38.6659 32.3515 38.8832Z" fill="#6D1151"/>
<path d="M31.5215 36.8869C31.4989 36.9946 31.4715 37.1032 31.4306 37.2052C31.0536 36.7854 30.9445 36.1551 30.9233 35.6699C31.1767 35.7608 31.4003 35.9627 31.5099 36.231C31.5936 36.4363 31.5667 36.6695 31.5215 36.8869Z" fill="#6D1151"/>
<path d="M32.7564 41.0041C32.7516 41.0272 32.7468 41.0498 32.741 41.0728C32.4184 40.731 32.2501 40.2237 32.1621 39.7891C32.4141 39.8804 32.6357 40.0814 32.7449 40.3487C32.8285 40.554 32.8016 40.7868 32.7564 41.0041Z" fill="#6D1151"/>
<path d="M17.742 18.0444C17.742 18.0444 16.8068 20.2807 17.1319 20.6062C17.4569 20.9317 18.1892 19.7523 18.1892 19.7523" stroke="black" stroke-width="0.427393" stroke-linecap="round" stroke-linejoin="round"/>
<path d="M19.8535 24.2255C18.9025 24.8198 17.9053 23.798 17.9053 23.798C17.9053 23.798 18.7328 23.8024 19.4973 23.3023C20.2618 22.8023 20.5113 22.2532 20.5113 22.2532C20.5113 22.2532 20.8041 23.6317 19.8535 24.2255Z" fill="#E938B5" stroke="black" stroke-width="0.427393" stroke-linecap="round" stroke-linejoin="round"/>
<path d="M20.5113 22.2522C20.5113 22.2522 20.2618 22.8013 19.4973 23.3013C18.7328 23.8014 17.9053 23.797 17.9053 23.797C17.9053 23.797 18.3467 22.7445 18.601 22.7955C18.8558 22.8464 18.9914 22.9955 19.0934 22.7936C19.1953 22.5921 19.0765 22.3882 19.3309 22.2522C19.5857 22.1166 20.5113 22.2522 20.5113 22.2522Z" fill="#E938B5" stroke="black" stroke-width="0.427393" stroke-linecap="round" stroke-linejoin="round"/>
<path d="M20.7625 21.5239L20.511 22.2533" stroke="black" stroke-width="0.427393" stroke-linecap="round" stroke-linejoin="round"/>
<path d="M20.2759 21.3959C20.4086 21.3531 20.5562 21.38 20.6822 21.4406C20.8081 21.5012 20.9158 21.593 21.0211 21.6844C21.0827 21.7378 21.1481 21.7988 21.1606 21.8791" stroke="black" stroke-width="0.427393" stroke-linecap="round" stroke-linejoin="round"/>
<path d="M24.1325 25.708C23.1411 26.3638 21.727 27.1822 20.2283 27.6697" stroke="black" stroke-width="0.427393" stroke-linecap="round" stroke-linejoin="round"/>
<path d="M34.7839 23.8289C33.527 28.6707 32.1192 27.6317 32.0822 30.293C31.6802 29.0304 31.1316 29.3607 28.1467 27.5812C25.1623 25.8017 24.8464 23.5919 24.1328 16.044C23.4198 8.49564 19.1953 10.8449 19.1953 10.8449C19.1953 10.8449 19.227 10.643 19.3622 10.3468C19.5694 9.89193 20.0204 9.21734 20.9758 8.71393C21.9884 8.18022 23.5674 7.83884 26.0239 8.15666C32.3072 8.96972 36.0407 18.9866 34.7839 23.8289Z" stroke="black" stroke-width="0.427393" stroke-linecap="round" stroke-linejoin="round"/>
<path d="M32.4257 31.7502C32.0929 30.9708 30.9356 31.4738 29.6994 30.7895C29.4667 30.6607 29.2667 30.4914 29.095 30.2982C28.2387 29.3332 28.0921 27.7647 28.1469 27.5811C31.1318 29.3606 31.6804 29.0302 32.0824 30.2929L32.4257 31.7502Z" stroke="black" stroke-width="0.427393" stroke-linecap="round" stroke-linejoin="round"/>
<path d="M32.5113 32.1167L32.4526 31.8677" stroke="black" stroke-width="0.427393" stroke-linecap="round" stroke-linejoin="round"/>
<path d="M34.8289 28.5094C34.3621 30.362 33.285 30.9125 32.8706 31.0947C32.4984 31.2587 32.434 31.5679 32.4475 31.8035C32.4407 31.7852 32.4335 31.7674 32.4258 31.7501L32.0825 30.2927C32.1195 27.6314 33.5274 28.6704 34.7842 23.8286C35.1646 25.9408 35.0982 27.4415 34.8289 28.5094Z" stroke="black" stroke-width="0.427393" stroke-linecap="round" stroke-linejoin="round"/>
<path d="M34.7827 31.751C34.4404 32.5443 33.811 32.6905 33.4648 33.0535C32.859 33.6891 32.7999 34.2512 32.7999 34.2512L32.5123 32.1183C32.5008 31.9971 32.4787 31.8933 32.4474 31.8048C32.434 31.5687 32.4984 31.2596 32.8705 31.0956C33.285 30.9134 34.362 30.3628 34.8289 28.5103C35.1352 30.197 35.04 31.1562 34.7827 31.751Z" stroke="black" stroke-width="0.427393" stroke-linecap="round" stroke-linejoin="round"/>
<path d="M32.7999 34.2504C32.6379 33.2484 31.4104 33.9316 30.2742 32.9806C30.1896 32.9094 30.1107 32.8344 30.0376 32.7556C29.1919 31.843 29.0995 30.4731 29.0952 30.2981C29.2669 30.4914 29.4669 30.6606 29.6996 30.7895C30.9358 31.4737 32.0931 30.9708 32.4258 31.7502L32.4532 31.867C32.4696 32.0036 32.5071 32.104 32.5119 32.1161C32.5119 32.117 32.5119 32.1175 32.5119 32.1175L32.7994 34.2504H32.7999Z" stroke="black" stroke-width="0.427393" stroke-linecap="round" stroke-linejoin="round"/>
<path d="M29.0957 30.2798C29.0957 30.2798 29.0952 30.2865 29.0952 30.2981" stroke="black" stroke-width="0.427393" stroke-linecap="round" stroke-linejoin="round"/>
<path d="M32.4525 31.8669C32.4501 31.8468 32.4482 31.8256 32.4468 31.804" stroke="black" stroke-width="0.427393" stroke-linecap="round" stroke-linejoin="round"/>
<path d="M34.6598 34.1397C34.3795 34.757 33.9179 35.0999 33.5655 35.3432C32.9236 35.786 32.9928 36.3625 32.9977 36.3981C32.9866 36.3548 32.9741 36.3139 32.9601 36.2755L32.7991 34.2507C32.7991 34.2507 32.8582 33.6887 33.464 33.053C33.8102 32.69 34.4396 32.5438 34.782 31.7505C35.0137 32.8391 34.907 33.5959 34.6598 34.1397Z" stroke="black" stroke-width="0.427393" stroke-linecap="round" stroke-linejoin="round"/>
<path d="M32.961 36.2752C32.6364 35.3665 31.6094 35.6001 30.9478 34.963C30.2569 34.299 30.0376 32.7556 30.0376 32.7556C30.1107 32.8345 30.1895 32.9095 30.2742 32.9806C31.4103 33.9317 32.6379 33.2485 32.7999 34.2505L32.961 36.2752Z" stroke="black" stroke-width="0.427393" stroke-linecap="round" stroke-linejoin="round"/>
<path d="M33.3097 38.2413C33.1803 37.5677 32.6673 37.8351 31.9389 37.5567C31.7946 37.5014 31.6701 37.4264 31.5633 37.3355C30.7147 36.62 30.9474 34.9631 30.9474 34.9631C31.609 35.6002 32.636 35.3665 32.9606 36.2753C32.9745 36.3138 32.987 36.3546 32.9981 36.3979C32.9981 36.3984 32.9986 36.3993 32.9986 36.3998L33.3097 38.2413Z" stroke="black" stroke-width="0.427393" stroke-linecap="round" stroke-linejoin="round"/>
<path d="M34.8018 36.3985C34.5614 36.9861 34.1431 37.3871 33.8551 37.4938C33.2743 37.7092 33.3152 38.2747 33.3152 38.2747C33.3132 38.2636 33.3113 38.2526 33.3094 38.242L32.9983 36.4005C32.9983 36.4005 32.9978 36.399 32.9978 36.3985C32.993 36.363 32.9238 35.7865 33.5657 35.3436C33.9181 35.1003 34.3797 34.7575 34.66 34.1401C35.1072 35.0104 35.0461 35.8009 34.8018 36.3985Z" stroke="black" stroke-width="0.427393" stroke-linecap="round" stroke-linejoin="round"/>
<path d="M33.5921 40.3985C33.5017 40.0735 33.583 39.8052 32.4463 39.1989C32.2963 39.119 32.1713 39.0286 32.0669 38.932C31.3775 38.294 31.5943 37.3785 31.564 37.3352C31.6708 37.4261 31.7953 37.5011 31.9395 37.5564C32.668 37.8348 33.181 37.5674 33.3103 38.2411C33.3123 38.2516 33.3142 38.2627 33.3161 38.2738L33.5777 40.2807C33.5806 40.3374 33.5883 40.3797 33.5921 40.3985Z" stroke="black" stroke-width="0.427393" stroke-linecap="round" stroke-linejoin="round"/>
<path d="M34.8318 38.5994C34.6395 39.1653 34.2822 39.4576 33.9923 39.5918C33.6105 39.7682 33.5682 40.0986 33.5769 40.2808L33.3153 38.2739C33.3153 38.2739 33.2744 37.7084 33.8553 37.493C34.1433 37.3863 34.5616 36.9853 34.802 36.3977C35.0434 37.3944 35.0011 38.1027 34.8318 38.5994Z" stroke="black" stroke-width="0.427393" stroke-linecap="round" stroke-linejoin="round"/>
<path d="M33.5935 40.4048C33.5935 40.4048 33.5943 40.4088 33.5951 40.4112" stroke="black" stroke-width="0.427393" stroke-linecap="round" stroke-linejoin="round"/>
<path d="M31.5636 37.3361L31.562 37.3345" stroke="black" stroke-width="0.427393" stroke-linecap="round" stroke-linejoin="round"/>
<path d="M33.9921 42.2172L33.9526 42.0378" stroke="black" stroke-width="0.427393" stroke-linecap="round" stroke-linejoin="round"/>
<path d="M34.4354 41.1537C34.0435 41.3845 33.9974 41.9706 33.9931 42.1586C33.9887 42.1288 33.9781 42.0884 33.9536 42.0384L33.5945 40.4094L33.5776 40.2815C33.569 40.0993 33.6113 39.769 33.9931 39.5925C34.283 39.4584 34.6402 39.166 34.8326 38.6001C35.0643 39.1978 34.9052 40.8772 34.4354 41.1537Z" stroke="black" stroke-width="0.427393" stroke-linecap="round" stroke-linejoin="round"/>
<path d="M33.9921 42.1584C33.9974 42.1969 33.9921 42.2171 33.9921 42.2171C33.9921 42.2171 33.9912 42.1955 33.9921 42.1584Z" stroke="black" stroke-width="0.427393" stroke-linecap="round" stroke-linejoin="round"/>
<path d="M33.9526 42.0387C33.8752 41.8834 33.6608 41.6358 33.0795 41.3338C32.0803 40.8131 32.0659 38.9687 32.0659 38.9331C32.1703 39.0297 32.2953 39.1201 32.4453 39.2C33.5819 39.8063 33.5007 40.0746 33.5911 40.3996C33.5872 40.3808 33.5795 40.3385 33.5766 40.2818L33.5935 40.4097L33.9526 42.0387Z" stroke="black" stroke-width="0.427393" stroke-linecap="round" stroke-linejoin="round"/>
<path d="M33.9927 42.158C33.9927 42.158 32.8844 43.098 33.0099 43.7144C33.1354 44.3308 35.4688 43.6644 35.6688 43.2975C35.8688 42.9306 33.9927 42.1575 33.9927 42.1575V42.158Z" stroke="black" stroke-width="0.427393" stroke-linecap="round" stroke-linejoin="round"/>
<path d="M19.1963 10.8459C19.1963 10.8459 20.5551 10.091 21.3773 11.6181C22.1995 13.1447 20.3075 18.2096 22.6611 21.6869C22.6611 21.6869 21.9937 18.7361 22.6611 16.91C23.3284 15.0838 23.6804 12.4835 22.3716 11.181C22.3716 11.181 21.3869 9.83473 19.1963 10.8459Z" fill="#3D0027" stroke="black" stroke-width="0.427393" stroke-linecap="round" stroke-linejoin="round"/>
<path d="M10.3484 47.0783C10.3484 47.0783 13.2789 48.2967 16.4908 47.5745C16.5769 47.5553 16.6639 47.5346 16.7504 47.512C16.725 47.4029 16.6995 47.2937 16.6735 47.1856C16.6682 47.163 16.6629 47.1404 16.6572 47.1182C16.5033 46.4648 16.3514 45.821 16.211 45.2229C15.809 43.5102 15.5032 42.173 15.4993 42.0624C15.4969 41.9918 15.559 41.8605 15.6585 41.6922C16.0143 41.0922 16.849 40.0238 16.9413 39.5877C17.0601 39.029 16.9202 36.3311 15.7585 35.4945C15.7162 35.4642 15.6056 35.4478 15.4465 35.4459C15.3628 35.445 15.2657 35.4469 15.1584 35.4536C15.1291 35.4555 15.0993 35.4575 15.0685 35.4599C15.0382 35.4623 15.007 35.4651 14.9753 35.4676C14.9748 35.4676 14.9748 35.4666 14.9743 35.4676C14.9743 35.4676 14.9738 35.4676 14.9733 35.4676C14.9719 35.4676 14.9709 35.4676 14.97 35.4676C14.968 35.4676 14.9652 35.4676 14.9618 35.4676C14.9594 35.4676 14.9565 35.4676 14.9541 35.4676C14.9483 35.4676 14.9426 35.4685 14.9363 35.4695C14.9156 35.4719 14.8935 35.4738 14.8714 35.4762C14.8603 35.4772 14.8493 35.4781 14.8382 35.4796C14.793 35.4839 14.7478 35.4892 14.7012 35.4945C14.6853 35.4969 14.6685 35.4988 14.6517 35.5012C14.6435 35.5017 14.6353 35.5026 14.6267 35.5041C14.6094 35.506 14.592 35.5084 14.5752 35.5108C14.5497 35.5142 14.5243 35.5176 14.4983 35.5214C14.4896 35.5224 14.481 35.5233 14.4723 35.5252C14.4468 35.5291 14.4204 35.5329 14.3939 35.5368C14.3848 35.5378 14.3757 35.5397 14.3675 35.5406C14.3411 35.545 14.3141 35.5493 14.2872 35.5536C14.2511 35.5594 14.2156 35.5652 14.1795 35.5719C14.1612 35.5748 14.143 35.5781 14.1247 35.5815C14.0252 35.5993 13.9237 35.619 13.8213 35.6402C13.7838 35.6483 13.7473 35.656 13.7102 35.6642C13.5867 35.6911 13.4626 35.7209 13.341 35.7532C13.2886 35.7671 13.2371 35.781 13.1857 35.7955C13.1496 35.806 13.114 35.8166 13.078 35.8272C13.0578 35.8335 13.038 35.8397 13.0179 35.846C12.9957 35.8527 12.9731 35.8599 12.9505 35.8666C12.9053 35.8811 12.8606 35.896 12.8169 35.9118C12.8111 35.9137 12.8053 35.9162 12.7996 35.9181C12.7967 35.919 12.7943 35.9195 12.7914 35.921C12.788 35.9219 12.7847 35.9229 12.7808 35.9243C12.7784 35.9248 12.7755 35.9263 12.7736 35.9272C12.7621 35.9311 12.751 35.9349 12.7399 35.9392C12.7096 35.9498 12.6798 35.9609 12.651 35.9724C12.638 35.9772 12.6245 35.9825 12.6116 35.9878C12.5962 35.9936 12.5808 35.9998 12.5654 36.0061H12.564C12.5558 36.0099 12.5476 36.0133 12.5394 36.0166C12.5241 36.0229 12.5087 36.0296 12.4938 36.0359C12.4755 36.0436 12.4577 36.0513 12.4399 36.0594C12.4346 36.0614 12.4303 36.0633 12.4255 36.0657C12.4125 36.0715 12.4 36.0772 12.387 36.083C12.3832 36.0844 12.3793 36.0864 12.376 36.0878C12.363 36.0941 12.35 36.1003 12.3375 36.1061C12.3255 36.1123 12.313 36.1181 12.301 36.1243C12.2952 36.1272 12.2899 36.1296 12.2846 36.132C12.2793 36.1344 12.274 36.1373 12.2692 36.1402C12.1851 36.1835 12.1072 36.2282 12.037 36.2753C12.0235 36.2845 12.0105 36.2931 11.9971 36.3022C11.9658 36.3244 11.936 36.3465 11.9086 36.3691C11.9062 36.3715 11.9038 36.3729 11.9014 36.3749C11.8927 36.3821 11.8846 36.3893 11.8764 36.3965C11.8639 36.4071 11.8523 36.4181 11.8408 36.4292L11.8394 36.4301C11.8331 36.4364 11.8269 36.4417 11.8216 36.4479C11.8052 36.4643 11.7898 36.4802 11.7759 36.497C11.7663 36.5076 11.7576 36.5181 11.7495 36.5292C11.7475 36.5311 11.7461 36.5326 11.7446 36.535C11.7403 36.5407 11.7365 36.5465 11.7321 36.5523C11.7283 36.5576 11.724 36.5624 11.7206 36.5677C11.7192 36.5705 11.7172 36.5729 11.7153 36.5754C11.7153 36.5754 11.7144 36.5768 11.7144 36.5773C11.7095 36.584 11.7057 36.5907 11.7019 36.598C11.6975 36.6047 11.6937 36.6124 11.6898 36.6191C11.6889 36.621 11.6874 36.623 11.6865 36.6254C11.6831 36.6302 11.6807 36.6355 11.6788 36.6407C11.6783 36.6417 11.6783 36.6422 11.6778 36.6431C11.6744 36.6494 11.6711 36.6561 11.6687 36.6624C11.6648 36.6696 11.6624 36.6773 11.6595 36.6845C11.6581 36.6883 11.6562 36.6927 11.6552 36.696C11.6543 36.6989 11.6533 36.7018 11.6523 36.7047C11.6518 36.7057 11.6514 36.7066 11.6509 36.7081C11.648 36.7191 11.6446 36.7292 11.6422 36.7408C11.6408 36.747 11.6393 36.7528 11.6379 36.759C11.6369 36.7658 11.6355 36.772 11.635 36.7787C11.635 36.7802 11.635 36.7811 11.6345 36.7826C11.6336 36.7936 11.6321 36.8047 11.6312 36.8167C11.6302 36.8292 11.6302 36.8412 11.6302 36.8537C11.6302 36.8537 11.6302 36.8542 11.6302 36.8547L11.6557 36.8975L11.9514 37.4009C11.9875 37.4677 12.0211 37.5327 12.0509 37.5937C12.1139 37.7221 12.1625 37.8361 12.1937 37.9313C12.1976 37.9433 12.2014 37.9558 12.2048 37.9683C12.2125 37.9918 12.2183 38.014 12.2221 38.0346C12.225 38.0452 12.2269 38.0553 12.2274 38.0649C12.2336 38.1034 12.2346 38.1356 12.2293 38.1606C12.2279 38.1669 12.2264 38.1731 12.224 38.1784C12.2197 38.189 12.2144 38.1981 12.2072 38.2048C12.1985 38.2125 12.1904 38.2207 12.1812 38.2284C12.1644 38.2433 12.1471 38.2568 12.1288 38.2688C12.1192 38.276 12.1091 38.2823 12.0985 38.2885C12.0875 38.2957 12.0754 38.302 12.0639 38.3077C12.0447 38.3183 12.0259 38.3265 12.0057 38.3337C12.0014 38.3356 11.9976 38.3371 11.9927 38.3385C11.9841 38.3414 11.9754 38.3448 11.9663 38.3472C11.9057 38.3664 11.8423 38.376 11.7764 38.3779C11.7567 38.3779 11.736 38.3779 11.7153 38.3775C11.6475 38.3751 11.5783 38.365 11.509 38.3491C11.4975 38.3472 11.4855 38.3443 11.4744 38.3409C11.2884 38.2943 11.1008 38.2082 10.934 38.1154C10.9176 38.1063 10.9018 38.0971 10.8864 38.0885C10.8715 38.0798 10.8571 38.0707 10.8426 38.062C10.8253 38.0515 10.8085 38.0409 10.7912 38.0308C10.6258 37.9284 10.4926 37.8279 10.4166 37.7687C10.408 37.7615 10.3993 37.7548 10.3926 37.749C10.3883 37.7457 10.3844 37.7433 10.3806 37.7399C10.3633 37.725 10.3522 37.7159 10.3493 37.7139C10.3339 37.6836 10.3181 37.6538 10.3017 37.624C10.2911 37.6043 10.2806 37.5846 10.269 37.5649C10.2589 37.5466 10.2483 37.5283 10.2378 37.5096C10.1781 37.4052 10.1132 37.3004 10.045 37.1966C10.0358 37.1817 10.0267 37.1682 10.0171 37.1543C9.9863 37.1081 9.95504 37.0615 9.92283 37.0158C9.90696 36.9941 9.89158 36.9725 9.87571 36.9504L9.86898 36.9408C9.86273 36.9321 9.856 36.9235 9.84975 36.9148C9.83436 36.8927 9.81849 36.8711 9.80166 36.8499C9.7882 36.8307 9.77329 36.8114 9.75839 36.7927C9.72666 36.7504 9.69444 36.709 9.66127 36.6682C9.64107 36.6427 9.6204 36.6162 9.59924 36.5912C9.59155 36.5806 9.58337 36.571 9.57568 36.5619C9.55597 36.5378 9.53625 36.5143 9.51606 36.4912C9.4925 36.4628 9.46846 36.4354 9.44442 36.408C9.42566 36.3859 9.40691 36.3648 9.3872 36.3431C9.3646 36.3167 9.34104 36.2917 9.31748 36.2662C9.26603 36.2104 9.21459 36.1566 9.16314 36.1051C9.14631 36.0883 9.12948 36.0715 9.11169 36.0546C9.09486 36.0378 9.07803 36.021 9.06072 36.0051C9.04822 35.9931 9.03524 35.9806 9.02274 35.969C9.0088 35.9546 8.99437 35.9421 8.98043 35.9296C8.95831 35.9099 8.93715 35.8902 8.91552 35.8719C8.91359 35.87 8.91167 35.8681 8.90975 35.8666C8.84291 35.8075 8.77752 35.7546 8.71357 35.706C8.69723 35.694 8.68136 35.682 8.66549 35.6709C8.64386 35.6546 8.62174 35.6397 8.60058 35.6253C8.58904 35.6171 8.57606 35.6089 8.56404 35.6007C8.53808 35.5839 8.51211 35.5676 8.48663 35.5531C8.47749 35.5474 8.4674 35.5426 8.45778 35.5368C8.44624 35.5305 8.43518 35.5248 8.42412 35.519C8.39046 35.5012 8.35681 35.4863 8.32555 35.4733C7.44374 35.1238 7.03119 35.7897 6.92974 36.2325C6.82877 36.6744 8.16785 40.834 8.39191 41.2378C8.84436 42.0557 10.6657 42.7375 10.6657 42.7375L10.5431 44.4093L10.4493 45.683L10.3469 47.0793L10.3484 47.0783Z" fill="#94624B" stroke="black" stroke-width="0.427393" stroke-linecap="round" stroke-linejoin="round"/>
<path d="M10.352 37.7122C10.6473 38.2863 10.7728 38.8224 10.5415 39.1161C9.92556 39.898 7.92969 37.1616 7.92969 37.1616" fill="#FFD9D4"/>
<path d="M10.352 37.7122C10.6473 38.2863 10.7728 38.8224 10.5415 39.1161C9.92556 39.898 7.92969 37.1616 7.92969 37.1616" stroke="black" stroke-width="0.427393" stroke-linecap="round" stroke-linejoin="round"/>
<path d="M11.9517 37.3999C12.771 38.0831 14.6115 37.5903 14.6115 37.5903" stroke="black" stroke-width="0.427393" stroke-linecap="round" stroke-linejoin="round"/>
<path d="M9.98676 34.7831C10.0372 34.8307 10.0897 34.8807 10.1416 34.9336C10.143 34.9356 10.1449 34.9375 10.1454 34.938C10.6604 35.4553 11.2201 36.202 11.6302 36.8535V36.8545C11.6302 36.8415 11.6302 36.829 11.6312 36.8165C11.6321 36.8035 11.6331 36.791 11.635 36.7785C11.6369 36.766 11.6393 36.7535 11.6422 36.741C11.6451 36.7285 11.6485 36.7165 11.6523 36.7045C11.6533 36.7021 11.6542 36.6992 11.6552 36.6958C11.6605 36.6814 11.6663 36.667 11.673 36.6526C11.6768 36.6434 11.6816 36.6333 11.6874 36.6242C11.6917 36.615 11.6965 36.6064 11.7023 36.5973C11.7081 36.5872 11.7143 36.5766 11.7211 36.567C11.7244 36.5617 11.7283 36.5564 11.7326 36.5516C11.7379 36.5439 11.7437 36.5362 11.7499 36.5285C11.7581 36.5174 11.7663 36.5069 11.7764 36.4963C11.7802 36.491 11.7845 36.4862 11.7893 36.4814C11.7994 36.4698 11.8105 36.4583 11.822 36.4472C11.8278 36.4405 11.8345 36.4343 11.8418 36.428C11.8528 36.4174 11.8644 36.4059 11.8773 36.3953C11.8879 36.3862 11.898 36.377 11.9095 36.3679C11.9427 36.3405 11.9793 36.3136 12.0182 36.2876C12.0245 36.2833 12.0312 36.2785 12.0379 36.2741C12.0519 36.2641 12.0673 36.2549 12.0826 36.2448C12.1014 36.2328 12.1206 36.2213 12.1408 36.2097C12.148 36.2049 12.1557 36.2011 12.1629 36.1972C12.1778 36.1886 12.1928 36.1804 12.2081 36.1722C12.2283 36.1612 12.249 36.1501 12.2702 36.139C12.2807 36.1337 12.2908 36.1285 12.3019 36.1232C12.3298 36.1092 12.3586 36.0953 12.388 36.0818C12.4053 36.0736 12.4231 36.0655 12.4409 36.0583C12.4586 36.0501 12.4764 36.0419 12.4947 36.0347C12.5096 36.0285 12.525 36.0217 12.5404 36.0155C12.549 36.0116 12.5577 36.0087 12.5663 36.0049C12.5817 35.9991 12.5966 35.9924 12.6125 35.9866C12.6255 35.9818 12.6389 35.9765 12.6519 35.9712C12.6808 35.9597 12.7106 35.9486 12.7409 35.9381C12.7543 35.9332 12.7683 35.928 12.7822 35.9232C12.7861 35.9217 12.7894 35.9207 12.7928 35.9198C12.801 35.9164 12.8096 35.9135 12.8183 35.9106C12.8351 35.9044 12.852 35.8986 12.8693 35.8929C12.8871 35.8871 12.9039 35.8813 12.9212 35.8756C12.9385 35.8698 12.9558 35.864 12.9731 35.8582C13.0082 35.8472 13.0433 35.8366 13.0789 35.8255C13.2837 35.764 13.4977 35.7097 13.7112 35.663C13.7482 35.6549 13.7857 35.6467 13.8222 35.639C13.8867 35.6255 13.9516 35.6125 14.0155 35.6005C14.0521 35.5933 14.0891 35.5866 14.1252 35.5803C14.2165 35.564 14.3064 35.5491 14.3944 35.5356C14.4204 35.5313 14.4468 35.5274 14.4728 35.5241C14.4819 35.5226 14.4901 35.5212 14.4988 35.5202C14.5247 35.5159 14.5507 35.5125 14.5757 35.5096C14.5935 35.5072 14.6108 35.5048 14.6281 35.5029C14.6444 35.5 14.6608 35.4986 14.6771 35.4967C14.7319 35.4899 14.7863 35.4837 14.8387 35.4784C14.857 35.476 14.8757 35.4741 14.894 35.4726C14.9151 35.4707 14.9358 35.4688 14.9555 35.4669C14.994 35.4635 15.0315 35.4606 15.068 35.4577C15.0988 35.4553 15.1286 35.4534 15.158 35.4515C15.158 35.4515 15.0089 34.6639 14.7661 33.6268C14.279 31.5482 13.415 28.4705 12.6202 28.7455C12.3774 28.8296 12.2452 29.1811 12.1855 29.672C11.9884 31.29 12.5736 34.4264 12.5562 34.5538C12.5346 34.7206 9.44103 29.2903 8.28755 30.1851C7.5019 30.7943 9.38237 33.8633 9.98628 34.7812L9.98676 34.7831Z" fill="#94624B" stroke="black" stroke-width="0.427393" stroke-linecap="round" stroke-linejoin="round"/>
<path d="M10.238 40.6197C10.3741 40.7389 10.5174 40.8548 10.6852 40.924C10.8525 40.9928 11.0496 41.0091 11.2121 40.9293C11.4396 40.8173 11.5453 40.5485 11.5732 40.2961C11.6011 40.0441 11.5718 39.7859 11.6232 39.5378C11.6747 39.2892 11.8382 39.0373 12.0877 38.9931C12.2752 38.9599 12.4599 39.0498 12.6455 39.0926C13.1912 39.2186 13.7432 38.9334 14.2057 38.618C14.3851 38.4959 14.5654 38.3618 14.6711 38.1723C14.8212 37.9035 14.7072 37.8833 14.6125 37.5905C14.4581 37.114 14.2245 36.3837 13.823 36.0841C13.4215 35.7846 12.1247 36.94 11.6309 36.8544C10.8482 36.7188 10.8462 35.4942 10.1183 35.812C9.66631 36.0096 9.25137 36.2837 8.88306 36.6111C8.65852 36.8106 8.36474 37.028 8.23444 37.3068C8.09115 37.6136 8.23828 37.9261 8.37772 38.205C8.59072 38.632 8.84267 39.0397 9.12924 39.4215C9.45619 39.8576 9.82883 40.2605 10.239 40.6192L10.238 40.6197Z" fill="#663421"/>
<path d="M12.2088 38.2036C11.6131 38.7792 10.3827 37.7377 10.3524 37.7118H10.3519C9.86145 36.7578 8.90174 35.7 8.32812 35.4726C8.32812 35.4726 8.40746 34.7413 8.9931 34.3432C9.20946 34.196 9.57681 34.4018 9.98791 34.7836C10.0389 34.8307 10.0908 34.8807 10.1427 34.9336C10.1447 34.936 10.1456 34.9374 10.1471 34.9384C10.662 35.4562 11.2217 36.2034 11.6318 36.8545C11.6337 36.9165 11.6491 36.9804 11.6804 37.0468C11.7467 37.1901 11.8405 37.3064 11.9535 37.4002C12.1775 37.8156 12.2886 38.1267 12.2093 38.2036H12.2088Z" fill="#94624B" stroke="black" stroke-width="0.427393" stroke-linecap="round" stroke-linejoin="round"/>
<path d="M7.92871 37.1615C7.92871 37.1615 9.7337 39.7863 10.478 39.2742C11.2223 38.7617 10.0453 36.9101 8.91102 35.8657" fill="#94624B"/>
<path d="M7.92871 37.1615C7.92871 37.1615 9.7337 39.7863 10.478 39.2742C11.2223 38.7617 10.0453 36.9101 8.91102 35.8657" stroke="black" stroke-width="0.427393" stroke-linecap="round" stroke-linejoin="round"/>
<path d="M14.9758 35.4666C14.9758 35.4666 11.2798 35.8406 11.6865 37.1114C12.0933 38.3822 14.6123 37.5903 14.6123 37.5903" fill="#94624B"/>
<path d="M14.9758 35.4666C14.9758 35.4666 11.2798 35.8406 11.6865 37.1114C12.0933 38.3822 14.6123 37.5903 14.6123 37.5903" stroke="black" stroke-width="0.427393" stroke-linecap="round" stroke-linejoin="round"/>
<path d="M14.0359 38.4465C12.8223 38.6581 11.7972 39.6923 11.5957 40.9074" stroke="black" stroke-width="0.427393" stroke-linecap="round" stroke-linejoin="round"/>
<path d="M10.6674 42.7356L10.451 45.6816L10.3486 47.0774C10.3486 47.0774 13.4393 48.3627 16.7507 47.5116C16.5642 46.724 16.3795 45.9403 16.2112 45.2224C15.8093 43.5098 15.5035 42.1726 15.4996 42.0625" stroke="black" stroke-width="0.427393" stroke-linecap="round" stroke-linejoin="round"/>
<path d="M15.6581 41.6928C16.0139 41.0928 16.8486 40.0244 16.941 39.5883C17.0597 39.0296 16.9198 36.3317 15.7582 35.4951C15.7158 35.4648 15.6053 35.4485 15.4461 35.4465C15.4346 35.6297 15.4403 35.8071 15.4586 35.9605C15.5658 36.8664 15.6524 37.679 15.5538 38.5973C15.4591 39.4825 15.3341 40.3855 15.5264 41.2548C15.5591 41.4024 15.6033 41.5491 15.6581 41.6928Z" fill="#AD8679"/>
<path d="M14.2112 34.0324C14.4233 34.1059 14.6536 33.9319 14.7363 33.7237C14.7488 33.6929 14.7584 33.6617 14.7666 33.6294C14.2795 31.5509 13.4155 28.4732 12.6207 28.7482C12.3779 28.8323 12.2457 29.1838 12.186 29.6747C12.3034 29.7252 12.4173 29.7805 12.5221 29.8454C13.1039 30.2065 13.4083 30.8888 13.5525 31.5586C13.6968 32.2283 13.715 32.9226 13.8968 33.5833C13.9477 33.767 14.0319 33.9699 14.2112 34.0324Z" fill="#AD8679"/>
<path d="M8.39331 41.2373C8.84576 42.0551 10.6671 42.7369 10.6671 42.7369L10.5445 44.4087L10.4507 45.6824L10.3483 47.0782C10.3483 47.0782 13.2794 48.2971 16.4908 47.5745C16.5768 47.5552 16.6639 47.535 16.7504 47.5124C16.7244 47.4033 16.699 47.2941 16.673 47.1855C16.6677 47.1629 16.6624 47.1408 16.6571 47.1182C16.5028 46.4647 16.3513 45.8209 16.2109 45.2228C15.809 43.5101 15.5032 42.1729 15.4993 42.0628C15.4883 41.7402 16.823 40.1463 16.9413 39.5876C17.0605 39.0289 16.9201 36.3315 15.759 35.4944C15.694 35.4482 15.4705 35.4352 15.1589 35.4535" stroke="black" stroke-width="0.427393" stroke-linecap="round" stroke-linejoin="round"/>
<path d="M14.9755 35.4669C13.7628 35.5722 11.6059 36.0645 11.6309 36.854C11.2208 36.203 10.6611 35.4558 10.1456 34.938C10.1447 34.937 10.1432 34.9356 10.1418 34.9332C10.0894 34.8808 10.0375 34.8303 9.98698 34.7832C9.38307 33.8653 7.5026 30.7962 8.28873 30.187C9.44221 29.2922 12.5358 34.7221 12.5574 34.5562C12.5795 34.3899 11.578 29.1086 12.6209 28.7479C13.8119 28.3359 15.1587 35.4539 15.1587 35.4539C15.1005 35.4573 15.0394 35.4616 14.9759 35.4674" stroke="black" stroke-width="0.427393" stroke-linecap="round" stroke-linejoin="round"/>
</g>
<defs>
<clipPath id="clip0_1836_3145">
<rect width="48" height="48" rx="24" fill="white"/>
</clipPath>
</defs>
</svg>
