<svg width="48" height="48" viewBox="0 0 48 48" fill="none" xmlns="http://www.w3.org/2000/svg">
<g clip-path="url(#clip0_1836_7263)">
<rect width="48" height="48" rx="24" fill="#C2EFFF"/>
<path d="M7.94946 36.3467C8.01485 36.3559 8.08073 36.365 8.1466 36.3751C13.5822 37.1983 18.7025 41.2472 23.4529 41.4963C23.7198 41.5102 23.9857 41.5126 24.2506 41.5011C25.1945 41.4607 25.9984 41.3742 26.7066 41.2458C30.3007 40.5933 31.4042 38.8648 35.6287 36.6997C38.8261 35.061 41.3581 34.497 43.028 34.3441C42.964 34.2951 42.9001 34.2499 42.8366 34.2071C42.2091 33.7854 39.7752 33.4013 37.0726 33.0565C33.139 32.5536 28.6361 32.1329 28.3015 31.7992C27.7889 31.2866 27.8096 27.6858 27.8178 27.0352C29.1891 27.2857 30.6339 27.2593 31.8764 26.6111C32.124 26.4818 32.363 26.3284 32.5918 26.1481C35.6325 23.7508 32.8015 18.3459 30.1935 14.5657C29.9733 13.743 29.2146 11.3745 27.9818 10.6817C27.3658 10.3359 26.9942 10.4566 26.7701 10.7043C26.4778 11.0283 26.4383 11.5688 26.4383 11.5688C26.4383 11.5688 25.4426 10.624 24.5833 10.7254C23.7241 10.8264 22.5538 12.2097 22.8303 14.3892C23.1072 16.5688 23.6707 19.9903 20.7209 21.9794C21.8566 20.6899 21.4749 17.9776 21.1724 15.5019C21.1724 15.5019 20.844 16.6029 20.5776 16.5524C20.3103 16.502 18.9607 15.0605 17.8831 15.4264C16.8052 15.7923 15.6425 17.3121 16.121 18.5425C16.384 19.2191 16.9331 19.7975 17.6355 20.2273C18.0418 20.4759 18.4991 20.675 18.9818 20.8149C18.9818 20.8149 19.3371 25.3101 20.5959 28.0565C21.8547 30.8029 21.6427 33.7628 19.9838 35.6346C18.3245 37.5065 14.4275 34.2033 14.4275 34.2033C14.4275 34.2033 14.1347 34.2917 13.6544 34.4413C13.2072 34.5802 12.598 34.7721 11.9104 34.9942C11.8965 34.999 11.8825 35.0033 11.8681 35.0081C10.6459 35.4029 9.1842 35.8909 7.94946 36.3467Z" fill="#F3BBB0" stroke="black" stroke-width="0.427393" stroke-linecap="round" stroke-linejoin="round"/>
<path d="M3.07532 40.2172C3.07532 40.2172 11.6829 50.5884 25.4396 50.7552C39.1967 50.9226 46.1503 38.1578 46.1503 38.1578C46.1503 38.1578 44.5199 35.4768 43.0274 34.3425C41.3575 34.4959 38.8255 35.0594 35.6281 36.6981C30.5713 39.2897 29.9867 41.2557 24.25 41.4995C19.2192 41.7135 13.7644 37.1404 7.94936 36.3451C6.71943 36.8005 5.715 37.2236 5.39815 37.4924C4.38699 38.3501 3.07532 40.2162 3.07532 40.2162V40.2172Z" fill="#E86F3A" stroke="black" stroke-width="0.427393" stroke-linecap="round" stroke-linejoin="round"/>
<path d="M13.6545 34.4413C13.9223 35.3092 14.3185 36.127 14.9023 36.8194C15.7716 37.8503 17.0515 38.546 18.3968 38.6268C19.7426 38.7081 21.1303 38.146 21.9765 37.0964C23.0002 35.8265 23.1401 34.0331 22.8093 32.4358C22.4785 30.8385 21.7371 29.3615 21.1418 27.843C20.2744 25.6308 19.7124 23.2988 19.4743 20.9337C19.308 20.901 19.1435 20.8606 18.9815 20.814C18.9815 20.814 19.3368 25.3091 20.5956 28.0556C21.8544 30.802 21.6424 33.7619 19.9835 35.6337C18.3242 37.5055 14.4272 34.2023 14.4272 34.2023C14.4272 34.2023 14.1344 34.2908 13.6541 34.4403L13.6545 34.4413Z" fill="#F09E8B"/>
<path d="M28.3018 31.7979C28.3018 31.7979 28.0278 37.3263 24.5077 38.0898C20.9876 38.8534 19.2312 32.1854 19.2312 32.1854" stroke="black" stroke-width="0.427393" stroke-linecap="round" stroke-linejoin="round"/>
<path d="M24.2547 40.8563C24.9913 40.8563 25.5885 40.2591 25.5885 39.5225C25.5885 38.7859 24.9913 38.1887 24.2547 38.1887C23.5181 38.1887 22.9209 38.7859 22.9209 39.5225C22.9209 40.2591 23.5181 40.8563 24.2547 40.8563Z" fill="#49A2A6" stroke="black" stroke-width="0.427393" stroke-linecap="round" stroke-linejoin="round"/>
<path d="M9.20478 29.865C9.21295 29.9573 9.22594 30.0491 9.24421 30.1395C9.43605 31.0776 10.1554 32.3652 10.8655 33.4696C11.243 34.0558 11.6175 34.5909 11.9099 34.9938C13.3369 34.5332 14.4269 34.2024 14.4269 34.2024C14.4269 34.2024 14.4471 34.2192 14.4846 34.2505C14.8145 34.5193 16.5065 35.8502 18.0451 36.1483C18.7822 36.2911 19.4837 36.1964 19.9833 35.6338C21.6426 33.762 21.8541 30.8026 20.5953 28.0556C19.3366 25.3092 18.9812 20.814 18.9812 20.814C18.8908 20.7881 18.8009 20.7592 18.7129 20.7294C17.5123 20.3193 16.5079 19.5365 16.1209 18.5417C15.6424 17.3113 16.8051 15.7909 17.8831 15.4255C18.2821 15.2899 18.7182 15.4024 19.1236 15.6001C19.8126 15.9366 20.4097 16.5194 20.578 16.5516C20.8449 16.6021 21.1728 15.501 21.1728 15.501C21.2848 16.417 21.4074 17.3656 21.4599 18.2623C21.5498 19.7894 21.4368 21.166 20.7213 21.9786C23.6716 19.9899 23.1081 16.5679 22.8307 14.3884C22.5542 12.2089 23.7245 10.826 24.5837 10.7246C25.4429 10.6231 26.4387 11.5679 26.4387 11.5679C26.4387 11.5679 26.5022 10.6943 27.0686 10.5029C27.2883 10.4284 27.5845 10.4572 27.9821 10.6803C29.215 11.3732 29.9737 13.7417 30.1939 14.5644C32.1225 17.3594 34.1727 21.0434 33.8813 23.7422C33.7784 24.6938 33.3846 25.5222 32.5922 26.1468C31.2113 27.2358 29.4621 27.3344 27.8177 27.0339C27.8095 27.6845 27.7889 31.2858 28.3014 31.7978C28.4533 31.9493 29.4655 32.119 30.8935 32.3056C32.609 32.5306 34.9256 32.7802 37.0725 33.0552C37.3941 32.3041 37.8274 31.1704 38.1668 29.8385C38.5947 28.1614 38.8736 26.1694 38.5933 24.2307C38.4048 22.9316 37.4966 21.6161 36.4186 20.4106C34.9078 18.7201 33.0658 17.2459 32.4158 16.3357C31.3709 14.8726 31.6373 12.2757 31.257 10.7534C31.2325 10.6524 31.2041 10.5563 31.1728 10.4654C30.6733 9.022 28.0668 8.11133 27.272 8.0594C27.2619 8.0594 27.2527 8.05844 27.2431 8.05796C26.4849 8.0267 25.354 9.26048 25.354 9.26048C25.354 9.26048 24.5818 8.71139 23.7183 8.38059C23.4125 8.26375 23.0951 8.17383 22.7965 8.14595C21.6555 8.03872 18.8173 9.45714 16.9277 11.5097C16.4512 12.0276 16.0728 12.6219 15.7703 13.2517C14.8751 15.1178 14.65 17.2911 14.5231 18.6696C14.4216 19.7635 14.3664 20.852 13.998 21.8988C13.7461 22.6162 13.347 23.3133 12.6854 23.9788C11.1333 25.541 9.03361 27.9085 9.20574 29.8645L9.20478 29.865Z" fill="#9153D5" stroke="black" stroke-width="0.427393" stroke-linecap="round" stroke-linejoin="round"/>
<path d="M15.7698 13.2516C16.1563 13.4401 16.6372 13.3391 17.0059 13.1136C17.3844 12.8814 17.6767 12.5362 17.9854 12.2164C19.0523 11.1144 20.3923 10.2773 21.8516 9.80273C22.2416 9.67579 22.6455 9.57193 22.9993 9.3647C23.3532 9.15651 23.66 8.8209 23.7138 8.41412C23.7153 8.40307 23.7167 8.39153 23.7172 8.38047C23.4114 8.26363 23.0941 8.17372 22.7955 8.14583C21.6545 8.03861 18.8162 9.45702 16.9266 11.5096C16.4501 12.0275 16.0717 12.6218 15.7693 13.2516H15.7698Z" fill="#B37DF9"/>
<path d="M9.20501 29.8654C9.61755 29.9942 10.0787 29.9572 10.4248 29.7043C10.8629 29.3841 11.0302 28.821 11.1985 28.3051C11.7043 26.7598 12.4597 25.2976 13.4275 23.9912C13.7232 23.5917 14.0483 23.1858 14.1387 22.6978C14.1882 22.4305 14.1358 22.1305 13.9973 21.8997C13.7454 22.617 13.3463 23.3142 12.6847 23.9797C11.1326 25.5419 9.03288 27.9094 9.20501 29.8654Z" fill="#B37DF9"/>
<path d="M27.2712 8.0603C27.4987 8.20935 27.7117 8.3834 27.9102 8.56563C28.4117 9.02482 28.8599 9.54891 29.4181 9.93741C29.971 10.3225 30.6072 10.5586 31.2563 10.7538C31.2317 10.6529 31.2034 10.5567 31.1721 10.4658C30.6725 9.02241 28.066 8.11174 27.2712 8.05981V8.0603Z" fill="#B37DF9"/>
<path d="M37.0233 29.1675C37.3426 29.4705 37.745 29.7306 38.1657 29.8392C38.5936 28.1622 38.8725 26.1701 38.5922 24.2315C38.4037 22.9323 37.4955 21.6168 36.4175 20.4114C36.7011 22.2356 35.5876 24.0387 35.6034 25.8989C35.6145 27.1197 36.1386 28.3271 37.0238 29.1675H37.0233Z" fill="#B37DF9"/>
<path d="M17.8185 35.6024C17.8786 35.788 17.9532 35.9731 18.045 36.1476C18.7821 36.2904 19.4836 36.1957 19.9832 35.6331C21.6425 33.7613 21.854 30.8019 20.5953 28.055C19.3365 25.3085 18.9812 20.8134 18.9812 20.8134C18.8908 20.7874 18.8008 20.7586 18.7129 20.7288C18.5994 20.7821 18.5176 20.8841 18.4989 21.0533C18.4369 21.5995 18.7451 22.364 18.8105 22.9222C18.9634 24.2219 18.9754 25.5379 18.847 26.8404C18.7773 27.5496 18.6653 28.255 18.5124 28.9507C18.2691 30.0542 17.9224 31.1356 17.7219 32.2477C17.5214 33.3598 17.4719 34.5273 17.819 35.6029L17.8185 35.6024Z" fill="#6F33BC"/>
<path d="M10.865 33.4696C11.2424 34.0557 11.617 34.5908 11.9093 34.9938C13.3364 34.5331 14.4264 34.2023 14.4264 34.2023C14.4264 34.2023 14.4466 34.2192 14.4841 34.2504C14.5024 33.547 14.4706 32.8421 14.3894 32.143C14.3413 31.7276 14.273 31.3049 14.0812 30.9328C13.9461 30.6707 13.5633 30.1212 13.2119 30.2851C13.2119 30.2851 13.2115 30.2853 13.2109 30.2856C12.8988 30.4318 12.6306 30.9924 12.4575 31.2751C12.0161 31.9959 11.6401 32.7844 10.9987 33.3561C10.9549 33.395 10.9102 33.4326 10.865 33.4696Z" fill="#6F33BC"/>
<path d="M28.1153 31.8161C28.2672 31.9676 29.2794 32.1373 30.7074 32.3239C30.7579 32.0565 30.8021 31.7873 30.8632 31.5219C31.1041 30.4708 31.6137 29.4827 32.3316 28.6773C32.8552 28.0893 33.4952 27.5868 33.8712 26.8954C34.3404 26.0338 34.3587 24.626 33.7375 23.811C33.724 23.7932 33.7101 23.7768 33.6957 23.7605C33.5928 24.712 33.199 25.5405 32.4066 26.1651C31.0257 27.2541 29.2765 27.3527 27.6321 27.0522C27.6239 27.7027 27.6032 31.304 28.1158 31.8161H28.1153Z" fill="#6F33BC"/>
<path d="M22.6541 24.9434C22.6541 24.9434 22.9142 29.8818 27.7498 29.9299L27.8171 27.0335C27.8171 27.0335 24.5466 26.3411 22.6545 24.9434H22.6541Z" fill="#ED7D66"/>
<path d="M27.8173 27.0342C25.0925 26.537 22.6548 24.9441 22.6548 24.9441" stroke="black" stroke-width="0.427393" stroke-linecap="round" stroke-linejoin="round"/>
<path d="M27.0679 10.5037C27.4179 10.9105 28.7993 12.5448 30.1932 14.5657C29.973 13.743 29.2142 11.3745 27.9814 10.6816C27.5838 10.458 27.2876 10.4297 27.0679 10.5042V10.5037Z" fill="black" stroke="black" stroke-width="0.427393" stroke-linecap="round" stroke-linejoin="round"/>
<path d="M14.4273 34.203C14.4273 34.203 13.1334 31.633 13.2103 30.3064C13.2873 28.9798 14.7605 26.4224 14.7605 26.4224" stroke="black" stroke-width="0.427393" stroke-linecap="round" stroke-linejoin="round"/>
<path d="M20.0448 18.6646C19.7169 17.8414 18.8226 17.2822 17.9393 17.3472C17.7148 17.3635 17.4585 17.4448 17.3806 17.6563" stroke="black" stroke-width="0.427393" stroke-linecap="round" stroke-linejoin="round"/>
<path d="M19.1233 15.5993C19.8123 15.9359 20.4095 16.5187 20.5778 16.5509C20.8446 16.6014 21.1725 15.5003 21.1725 15.5003C20.9691 13.8381 20.8023 12.2817 21.1538 11.335C21.3663 10.7628 21.6471 10.3594 21.9505 10.0771C21.3288 10.2642 20.7999 10.7445 20.4513 11.3042C20.0282 11.9836 19.8287 12.7741 19.6344 13.5506C19.4642 14.2338 19.2935 14.9161 19.1233 15.5993Z" fill="#6F33BC"/>
<path d="M26.7695 10.7033C26.9748 11.1716 27.3821 11.6101 27.6379 12.0092C28.0336 12.628 28.4029 13.2627 28.7462 13.9118C30.1266 16.5245 31.0757 19.3652 31.5421 22.2833C31.7705 23.7132 31.8835 25.1615 31.8753 26.6102C32.1229 26.4808 32.3619 26.3274 32.5908 26.1471C35.6315 23.7498 32.8004 18.3449 30.1925 14.5647C29.9722 13.742 29.2135 11.3735 27.9807 10.6807C27.3648 10.335 26.9931 10.4557 26.769 10.7033H26.7695Z" fill="#F9DFDC"/>
<path d="M8.14672 36.3755C13.5824 37.1987 18.7026 41.2477 23.4531 41.4967C22.2279 41.2193 20.51 40.7067 18.5612 39.7682C15.973 38.5209 13.3737 36.6068 10.547 35.5764C9.80073 35.8173 8.96507 36.0928 8.14624 36.3751L8.14672 36.3755Z" fill="#ED7D66"/>
<path d="M7.94909 36.3467C13.7641 37.142 19.2194 41.7155 24.2498 41.5011C25.1936 41.4607 25.9975 41.3742 26.7058 41.2458C30.2999 40.5933 31.4034 38.8648 35.6278 36.6997C38.8253 35.061 41.3572 34.497 43.0271 34.3441C42.9632 34.2951 42.8992 34.2499 42.8358 34.2071C42.2083 33.7854 39.7744 33.4013 37.0717 33.0565C33.1381 32.5536 28.6353 32.1329 28.3006 31.7992C27.7881 31.2866 27.8088 27.6858 27.8169 27.0352C29.1882 27.2857 30.6331 27.2593 31.8755 26.6111C32.1231 26.4818 32.3621 26.3284 32.591 26.1481C35.6317 23.7508 32.8006 18.3459 30.1927 14.5657C29.9724 13.743 29.2137 11.3745 27.9809 10.6817C27.365 10.3359 26.9933 10.4566 26.7692 10.7043C26.4769 11.0283 26.4375 11.5688 26.4375 11.5688C26.4375 11.5688 25.4417 10.624 24.5825 10.7254C23.7233 10.8264 22.553 12.2097 22.8294 14.3892C23.1064 16.5688 23.6699 19.9903 20.7201 21.9794C21.8558 20.6899 21.474 17.9776 21.1716 15.5019C21.1716 15.5019 20.8432 16.6029 20.5768 16.5524C20.3095 16.502 18.9598 15.0605 17.8823 15.4264C16.8043 15.7923 15.6417 17.3121 16.1201 18.5425C16.3831 19.2191 16.9322 19.7975 17.6347 20.2273C18.041 20.4759 18.4982 20.675 18.981 20.8149C18.981 20.8149 19.3363 25.3101 20.5951 28.0565C21.8538 30.8029 21.6418 33.7628 19.983 35.6346C18.3237 37.5065 14.4267 34.2033 14.4267 34.2033C14.4267 34.2033 14.1338 34.2917 13.6535 34.4413C13.2063 34.5802 12.5972 34.7721 11.9096 34.9942C11.8956 34.999 11.8817 35.0033 11.8673 35.0081C10.645 35.4029 9.18335 35.8909 7.94861 36.3467H7.94909Z" stroke="black" stroke-width="0.427393" stroke-linecap="round" stroke-linejoin="round"/>
<path d="M19.594 20.9563C19.5536 20.9491 19.5137 20.9419 19.4738 20.9337C19.3074 20.901 19.143 20.8606 18.981 20.814" stroke="black" stroke-width="0.427393" stroke-linecap="round" stroke-linejoin="round"/>
<path d="M9.24442 30.1395C9.5382 31.5757 11.0672 33.8307 11.9101 34.9938C13.3371 34.5332 14.4272 34.2024 14.4272 34.2024C14.4272 34.2024 18.3242 37.5052 19.9835 35.6338C21.6428 33.762 21.8543 30.8026 20.5956 28.0556C19.3368 25.3092 18.9815 20.814 18.9815 20.814C17.6635 20.4332 16.536 19.6096 16.1206 18.5417C15.6422 17.3113 16.8048 15.7909 17.8828 15.4255C18.9603 15.0601 20.3104 16.5011 20.5773 16.5516C20.8441 16.6021 21.1721 15.501 21.1721 15.501C21.4745 17.9767 21.8558 20.689 20.7206 21.9786C23.6709 19.9899 23.1073 16.5679 22.8299 14.3884C22.5534 12.2089 23.7238 10.826 24.583 10.7246C25.4422 10.6231 26.438 11.5679 26.438 11.5679C26.438 11.5679 26.5014 10.6943 27.0678 10.5029C27.2876 10.4284 27.5838 10.4572 27.9814 10.6803C29.2142 11.3732 29.9729 13.7417 30.1932 14.5644C32.8011 18.3446 35.6322 23.749 32.5915 26.1468C31.2106 27.2358 29.4614 27.3344 27.817 27.0339C27.8088 27.6845 27.7881 31.2858 28.3007 31.7978C28.6353 32.1311 33.1382 32.5518 37.0717 33.0552C37.7982 31.3579 39.0955 27.708 38.5926 24.2307C38.1406 21.1093 33.5286 17.895 32.415 16.3357C31.301 14.7759 31.6779 11.9271 31.1721 10.4654C30.6668 9.00373 28.0006 8.08873 27.2419 8.05796C26.4836 8.0267 25.3528 9.26048 25.3528 9.26048C25.3528 9.26048 23.9363 8.25317 22.7953 8.14547C21.6543 8.03824 18.8161 9.45666 16.9264 11.5093C15.0363 13.5619 14.6921 16.8261 14.5219 18.6691C14.3512 20.5126 14.3103 22.343 12.6842 23.9783C11.0585 25.6141 8.83284 28.134 9.24394 30.1385L9.24442 30.1395Z" stroke="black" stroke-width="0.427393" stroke-linecap="round" stroke-linejoin="round"/>
<path d="M21.1727 15.5011C20.9693 13.8389 20.8025 12.2825 21.154 11.3358C21.3665 10.7636 21.6473 10.3602 21.9507 10.078C22.8974 9.19613 24.0634 9.48943 24.0634 9.48943" stroke="black" stroke-width="0.427393" stroke-linecap="round" stroke-linejoin="round"/>
<path d="M29.0957 17.9429C29.1101 18.0948 30.654 19.7873 30.1751 20.232C29.6962 20.6773 28.7485 19.756 28.7485 19.756" stroke="black" stroke-width="0.427393" stroke-linecap="round" stroke-linejoin="round"/>
<path d="M28.9541 23.4785C28.7873 23.341 26.6308 21.3398 26.5429 21.3787C26.4549 21.4177 25.9625 22.9996 26.6438 23.7011C27.3251 24.4026 28.9541 23.4785 28.9541 23.4785Z" fill="white" stroke="black" stroke-width="0.427393" stroke-linecap="round" stroke-linejoin="round"/>
<path d="M31.2309 18.2983C32.3543 18.1902 33.1601 17.0137 33.0308 15.6707C32.9015 14.3276 31.886 13.3266 30.7626 13.4348C29.6392 13.5429 28.8334 14.7194 28.9627 16.0624C29.092 17.4054 30.1075 18.4065 31.2309 18.2983Z" fill="#F5D256" stroke="black" stroke-width="0.427393" stroke-linecap="round" stroke-linejoin="round"/>
<path d="M26.0295 18.7988C27.1529 18.6907 27.9587 17.5142 27.8294 16.1712C27.7001 14.8281 26.6846 13.8271 25.5612 13.9352C24.4378 14.0434 23.6319 15.2199 23.7613 16.5629C23.8906 17.9059 24.9061 18.907 26.0295 18.7988Z" fill="#F5D256" stroke="black" stroke-width="0.427393" stroke-linecap="round" stroke-linejoin="round"/>
<path d="M28.9636 16.0609C28.9636 16.0609 28.6203 15.4739 27.8303 16.1701" stroke="black" stroke-width="0.427393" stroke-linecap="round" stroke-linejoin="round"/>
</g>
<defs>
<clipPath id="clip0_1836_7263">
<rect width="48" height="48" rx="24" fill="white"/>
</clipPath>
</defs>
</svg>
