<svg width="48" height="48" viewBox="0 0 48 48" fill="none" xmlns="http://www.w3.org/2000/svg">
<g clip-path="url(#clip0_1836_4491)">
<rect width="48" height="48" rx="24" fill="#DBDEE2"/>
<path d="M16.5326 17.8022C16.658 18.1186 16.8634 18.4085 17.1148 18.672C17.7106 19.2952 18.5669 19.7668 19.2444 20.0741C19.2429 20.1082 19.241 20.1515 19.2386 20.2044C19.2194 20.6775 19.1665 21.88 19.0766 23.3653C18.9116 26.0949 18.6222 29.7784 18.1875 31.6406C18.2024 31.6363 18.213 31.6329 18.2183 31.631H18.2188C18.2188 31.631 18.2207 31.63 18.2217 31.63C18.2221 31.63 18.2221 31.6296 18.2221 31.6296L18.2414 32.2118C18.2414 32.2118 22.6115 38.8019 22.5057 39.2601C22.4731 39.401 22.135 39.8376 21.6643 40.3804C23.338 40.9704 24.7882 40.6199 24.7882 40.6199C24.2107 39.9689 23.7737 39.4212 23.7366 39.2601C23.6309 38.8019 28.001 32.2118 28.001 32.2118L28.0202 31.6296L28.1448 27.833C29.2742 28.2124 30.4498 28.4033 31.5081 28.1773C31.95 28.0831 32.3712 27.9157 32.7601 27.6595C38.4347 23.9206 29.6036 11.5564 29.6036 11.5564C29.6036 11.5564 29.5949 12.2137 28.9314 12.6354C28.6737 12.7988 28.3174 12.9267 27.8246 12.9666C26.0614 13.1094 23.5361 11.942 22.0831 11.7992C20.6301 11.6564 20.5584 11.9661 20.5584 11.9661C20.5584 11.9661 21.5831 15.325 21.4398 15.9679C21.297 16.6112 21.0114 17.2781 21.0114 17.2781C21.0114 17.2781 20.5108 14.6817 19.2958 14.6577C18.0808 14.6341 15.8416 16.0636 16.5326 17.8022Z" fill="#F3BBB0" stroke="black" stroke-width="0.427393" stroke-linecap="round" stroke-linejoin="round"/>
<path d="M17.1109 51.6714H28.4255V40.9347H17.1109V51.6714Z" fill="#BF9EF9" stroke="black" stroke-width="0.427393" stroke-linecap="round" stroke-linejoin="round"/>
<path d="M7.24796 49.2929C8.1091 49.8411 11.8292 49.2646 13.7727 48.9136C12.9947 48.0817 12.4216 47.4129 12.2287 47.0672C11.357 45.5046 9.91505 42.6798 9.91505 42.6798L12.8899 40.757L10.3055 38.5332C10.3055 38.5332 13.2649 34.4972 14.4174 33.3105C14.3713 33.323 13.2452 33.6284 11.7104 34.0707C8.53367 34.9857 3.60625 36.4849 2.88839 37.1787C2.60278 37.4547 2.33497 37.7841 2.0936 38.1221C1.42911 39.0525 0.966082 40.0492 0.887228 40.1805C0.780005 40.3593 6.06852 48.5424 7.24796 49.2929Z" fill="#4C70F5" stroke="black" stroke-width="0.427393" stroke-linecap="round" stroke-linejoin="round"/>
<path d="M10.0111 38.5806C10.0111 38.5806 11.1891 40.9044 11.9194 41.7035C12.6498 42.5022 9.80866 42.8637 9.7048 43.3022C9.60143 43.7407 11.1256 51.0761 12.745 52.1555C14.3644 53.235 17.5647 50.6948 17.8575 50.2501C18.1504 49.8053 18.1431 42.5656 17.8575 42.2478C17.5719 41.9305 14.9678 37.9926 14.7457 37.9608C14.5236 37.9291 10.0111 38.5801 10.0111 38.5801V38.5806Z" fill="#2253DD"/>
<path d="M2.09351 38.1212C2.59067 38.4039 3.19458 38.5222 3.77108 38.4881C4.66203 38.4356 5.50346 38.0712 6.29633 37.6625C7.0892 37.2533 7.86235 36.7913 8.711 36.5162C9.18124 36.3633 9.66927 36.27 10.1371 36.1109C10.6049 35.9517 11.0632 35.7171 11.3815 35.3392C11.6743 34.9911 11.8277 34.5035 11.7103 34.0698C8.53358 34.9848 3.60616 36.484 2.8883 37.1778C2.60269 37.4538 2.33488 37.7832 2.09351 38.1212Z" fill="#80A1FF"/>
<path d="M12.2287 47.0672C12.4216 47.4129 12.9947 48.0817 13.7727 48.9136C11.8292 49.2646 8.1091 49.8411 7.24796 49.2929C6.06852 48.5424 0.780005 40.3593 0.887228 40.1805C0.99445 40.0016 1.81617 38.2149 2.88839 37.1787C3.95292 36.1498 14.2756 33.349 14.4174 33.3105C13.2649 34.4972 10.3055 38.5332 10.3055 38.5332L12.8899 40.757L9.91505 42.6798C9.91505 42.6798 11.357 45.5046 12.2287 47.0672Z" stroke="black" stroke-width="0.427393" stroke-linecap="round" stroke-linejoin="round"/>
<path d="M17.1136 18.6713C16.8622 18.4078 16.6569 18.1179 16.5314 17.8015C15.8404 16.0629 18.0796 14.6334 19.2946 14.6569C20.5096 14.681 21.0102 17.2774 21.0102 17.2774C21.0102 17.2774 21.2958 16.6105 21.4386 15.9672C21.5819 15.3243 20.5572 11.9653 20.5572 11.9653C20.5572 11.9653 20.6289 11.6557 22.0819 11.7985C23.5349 11.9413 26.0602 13.1087 27.8234 12.9659C29.586 12.8226 29.6024 11.5557 29.6024 11.5557C29.6024 11.5557 30.3736 10.908 30.9227 9.95503C31.5357 8.89147 31.8723 7.44805 30.5515 6.10176C29.2687 4.79346 28.0758 5.04204 26.9064 5.7349C25.8453 6.36381 24.8033 7.35958 23.7306 7.88992C23.5734 7.96782 23.4046 8.03465 23.2263 8.09283C20.8428 8.87656 16.702 8.15197 14.9658 10.9253C14.8009 11.1893 14.6663 11.4518 14.559 11.7134C13.456 14.406 15.2928 16.9379 17.1136 18.6713Z" fill="#6D1249" stroke="black" stroke-width="0.427393" stroke-linecap="round" stroke-linejoin="round"/>
<path d="M18.0737 32.0702C18.1122 31.9418 18.1497 31.7986 18.1858 31.6428C18.1858 31.6418 18.1858 31.6409 18.1867 31.6399" stroke="black" stroke-width="0.427393" stroke-linecap="round" stroke-linejoin="round"/>
<path d="M34.0127 47.0672C33.8198 47.4129 33.2467 48.0817 32.4687 48.9136C34.4122 49.2646 38.1323 49.8411 38.9934 49.2929C40.1729 48.5424 45.4614 40.3593 45.3542 40.1805C45.247 40.0016 44.4252 38.2149 43.353 37.1787C42.2885 36.1498 31.9658 33.349 31.824 33.3105C32.9765 34.4972 35.9359 38.5332 35.9359 38.5332L33.3515 40.757L36.3263 42.6798C36.3263 42.6798 34.8844 45.5046 34.0127 47.0672Z" fill="#4C70F5" stroke="black" stroke-width="0.427393" stroke-linecap="round" stroke-linejoin="round"/>
<path d="M34.0127 47.0672C33.8198 47.4129 33.2467 48.0817 32.4687 48.9136C34.4122 49.2646 38.1323 49.8411 38.9934 49.2929C40.171 48.5433 45.4465 40.3829 45.3547 40.1814C45.3547 40.1809 45.3542 40.1809 45.3542 40.1805C45.247 40.0016 44.4252 38.2149 43.353 37.1787C42.7212 36.5681 38.8285 35.3333 35.7383 34.4227C33.6217 33.7981 31.8817 33.3264 31.824 33.3105C32.9765 34.4972 35.9359 38.5332 35.9359 38.5332L33.3515 40.757L36.3263 42.6798C36.3263 42.6798 34.8844 45.5046 34.0127 47.0672Z" fill="#4C70F5" stroke="black" stroke-width="0.427393" stroke-linecap="round" stroke-linejoin="round"/>
<path d="M9.91492 42.6791C9.91492 42.6791 11.3569 45.5039 12.2286 47.0666C12.4214 47.4123 12.9946 48.0811 13.7725 48.9129C16.5093 51.8406 21.7743 56.7824 21.8445 56.7122C21.8978 56.6589 20.1597 49.5553 18.7144 43.3359C18.4951 42.3916 18.2821 41.4674 18.0835 40.5919C17.3878 37.5247 16.8642 35.0485 16.8262 34.3557C16.717 32.3636 17.9566 31.7405 18.1859 31.6424C18.1965 31.6381 18.2052 31.6347 18.2109 31.6323C18.2052 31.6342 18.197 31.6367 18.1869 31.6395C18.0124 31.6958 17.2152 31.955 16.4079 32.2608C15.7347 32.5161 15.0544 32.8036 14.7226 33.0334C14.6462 33.0863 14.5423 33.1815 14.4173 33.3099C13.2648 34.4966 10.3053 38.5325 10.3053 38.5325L12.8897 40.7563L9.91492 42.6791Z" fill="#4C70F5" stroke="black" stroke-width="0.427393" stroke-linecap="round" stroke-linejoin="round"/>
<path d="M31.8223 33.3098C31.8223 33.3098 31.8231 33.3098 31.8247 33.3106" stroke="black" stroke-width="0.427393" stroke-linecap="round" stroke-linejoin="round"/>
<path d="M20.8811 41.249C20.8811 41.249 21.7884 44.0093 22.2692 44.2762C22.75 44.5435 24.1742 44.5969 24.317 44.4724C24.4593 44.3473 25.8931 41.8096 25.8931 41.8096C25.5119 41.4153 25.1258 40.9999 24.7882 40.6191C24.7882 40.6191 23.3381 40.9696 21.6644 40.3796C21.4288 40.6513 21.1609 40.9489 20.8811 41.249Z" fill="#E86F3A" stroke="black" stroke-width="0.427393" stroke-linecap="round" stroke-linejoin="round"/>
<path d="M20.5415 51.0739C20.568 51.1845 23.1529 55.2556 23.387 55.2844C23.6212 55.3138 25.5012 51.91 25.5012 51.91L24.3169 44.4713C24.1741 44.5958 22.7499 44.5425 22.2691 44.2751C22.2691 44.2751 20.5156 50.9638 20.5415 51.0739Z" fill="#E86F3A" stroke="black" stroke-width="0.427393" stroke-linecap="round" stroke-linejoin="round"/>
<path d="M35.7389 34.4224C36.1332 34.7161 36.5582 34.9782 36.9159 35.2441C37.7819 35.8884 38.6483 36.5332 39.5143 37.1779C40.4567 37.879 41.3986 38.58 42.341 39.281C42.9838 39.7594 43.6705 40.2556 44.4681 40.3316C44.7653 40.36 45.0778 40.3037 45.3552 40.1811C45.3552 40.1806 45.3548 40.1806 45.3548 40.1802C45.2475 40.0013 44.4258 38.2146 43.3536 37.1784C42.7218 36.5678 38.8291 35.333 35.7389 34.4224Z" fill="#80A1FF"/>
<path d="M15.9129 35.8236C16.0749 37.5959 16.8548 39.3052 18.0838 40.5919C17.3881 37.5247 16.8644 35.0485 16.8265 34.3557C16.7173 32.3636 17.9569 31.7405 18.1862 31.6424C18.1968 31.6381 18.2054 31.6347 18.2112 31.6323C18.2054 31.6342 18.1973 31.6367 18.1872 31.6395C18.0126 31.6958 17.2154 31.955 16.4081 32.2608C15.9778 33.3912 15.8023 34.6192 15.9129 35.8236Z" fill="#80A1FF"/>
<path d="M26.9071 5.7349C26.9278 5.75509 26.9499 5.77337 26.973 5.79019C27.2052 5.96185 27.5043 6.00848 27.7707 6.121C28.377 6.37727 28.7808 6.96147 29.0544 7.5596C29.3285 8.15822 29.5083 8.80155 29.8449 9.367C30.0334 9.68289 30.3209 9.99783 30.6887 9.99783C30.771 9.99783 30.8488 9.98244 30.9234 9.95503C31.5364 8.89147 31.873 7.44805 30.5522 6.10176C29.2694 4.79346 28.0765 5.04204 26.9071 5.7349Z" fill="#932A6E"/>
<path d="M14.5588 11.7141C14.617 11.7804 14.6834 11.8396 14.7579 11.8891C15.1829 12.1708 15.7662 12.0756 16.2104 11.8246C16.6547 11.5737 17.0076 11.1914 17.4072 10.8741C18.0837 10.337 18.9054 9.98456 19.7608 9.86436C20.2743 9.79223 20.797 9.80233 21.311 9.73213C21.825 9.66241 22.3481 9.50086 22.7236 9.14313C23.0106 8.86955 23.1876 8.48778 23.2261 8.09351C20.8426 8.87724 16.7018 8.15265 14.9656 10.926C14.8007 11.19 14.6661 11.4525 14.5588 11.7141Z" fill="#932A6E"/>
<path d="M9.91492 42.6798C9.91492 42.6798 11.3569 45.5046 12.2286 47.0673C12.4214 47.413 12.9946 48.0818 13.7725 48.9136C16.5093 51.8413 21.7743 56.7831 21.8445 56.7129C21.8978 56.6596 20.1597 49.556 18.7144 43.3366C17.7263 39.0852 16.8752 35.2468 16.8262 34.3564C16.717 32.3643 17.9566 31.7412 18.1859 31.6431C18.2013 31.6369 18.2119 31.6325 18.2177 31.6306C18.2124 31.6325 18.2018 31.6359 18.1869 31.6402C17.8667 31.7436 15.4515 32.5293 14.7226 33.0341C14.6462 33.087 14.5423 33.1822 14.4173 33.3106C13.2648 34.4972 10.3053 38.5332 10.3053 38.5332L12.8897 40.757L9.91492 42.6798Z" stroke="black" stroke-width="0.427393" stroke-linecap="round" stroke-linejoin="round"/>
<path d="M34.0127 47.0672C33.8198 47.4129 33.2467 48.0817 32.4687 48.9136C34.4122 49.2646 38.1323 49.8411 38.9934 49.2929C40.1729 48.5424 45.4614 40.3593 45.3542 40.1805C45.247 40.0016 44.4252 38.2149 43.353 37.1787C42.2885 36.1498 31.9658 33.349 31.824 33.3105C32.9765 34.4972 35.9359 38.5332 35.9359 38.5332L33.3515 40.757L36.3263 42.6798C36.3263 42.6798 34.8844 45.5046 34.0127 47.0672Z" stroke="black" stroke-width="0.427393" stroke-linecap="round" stroke-linejoin="round"/>
<path d="M31.6649 21.7954C31.8086 23.4129 31.7961 25.0448 31.6206 26.6598C31.5663 27.1637 31.4961 27.6734 31.5086 28.1773C31.9505 28.0831 32.3717 27.9157 32.7606 27.6595C38.4352 23.9206 29.6041 11.5564 29.6041 11.5564C29.6041 11.5564 29.5954 12.2137 28.9319 12.6354C29.129 12.9219 29.3233 13.1993 29.4464 13.4657C30.658 16.0871 31.4086 18.9192 31.6649 21.7954Z" fill="#F9DFDC"/>
<path d="M19.0764 23.365C19.2226 23.2207 19.3183 23.0332 19.4111 22.8495C19.6505 22.375 19.8909 21.9014 20.1299 21.4268C20.2837 21.1215 20.44 20.7907 20.1852 20.4906C19.9578 20.2228 19.5991 20.1522 19.2385 20.2041C19.2192 20.6772 19.1663 21.8797 19.0764 23.365Z" fill="#F09E8B"/>
<path d="M22.9742 24.9861C22.9742 24.9861 23.2401 30.4958 28.0387 31.0473L28.144 27.833C28.144 27.833 24.0686 25.8934 22.9738 24.9861H22.9742Z" fill="#ED7D66"/>
<path d="M20.202 17.6748C20.1145 17.3079 19.8746 17.0204 19.5183 16.755C19.162 16.4896 18.5778 16.3612 18.1249 16.5328C17.8706 16.6295 17.6744 16.8406 17.7412 17.0439C17.7989 17.2209 18.0263 17.3363 18.2446 17.4228C18.8933 17.6801 19.3914 17.7253 20.1285 17.7604" fill="#ED7D66"/>
<path d="M36.0152 38.5806C36.0152 38.5806 34.8372 40.9044 34.1068 41.7035C33.3764 42.5022 36.2176 42.8637 36.3214 43.3022C36.4248 43.7407 34.9006 51.0761 33.2812 52.1555C31.6618 53.235 28.4615 50.6948 28.1687 50.2501C27.8759 49.8053 27.8831 42.5656 28.1687 42.2478C28.4543 41.9305 31.0584 37.9926 31.2806 37.9608C31.5027 37.9291 36.0152 38.5801 36.0152 38.5801V38.5806Z" fill="#2253DD"/>
<path d="M24.3972 56.7129C24.4674 56.7831 29.7323 51.8413 32.4692 48.9136C33.2471 48.0818 33.8203 47.413 34.0131 47.0673C34.8848 45.5046 36.3268 42.6798 36.3268 42.6798L33.3519 40.757L35.9363 38.5332C35.9363 38.5332 32.9769 34.4972 31.8244 33.3106C31.6994 33.1822 31.5955 33.087 31.5191 33.0341C31.4777 33.0053 31.4311 32.9759 31.3796 32.9456C30.5805 32.4764 28.6414 31.8311 28.1399 31.6681C28.0769 31.6474 28.037 31.6349 28.024 31.6306C28.0365 31.6354 28.075 31.6503 28.1317 31.6787C28.4798 31.8532 29.5155 32.5283 29.4155 34.3564C29.3698 35.1829 28.6337 38.5477 27.7384 42.4259C27.6687 42.7269 27.5985 43.0308 27.5273 43.3366C26.082 49.556 24.3438 56.6596 24.3972 56.7129Z" fill="#4C70F5" stroke="black" stroke-width="0.427393" stroke-linecap="round" stroke-linejoin="round"/>
<path d="M27.7374 42.4253C27.7398 42.4359 27.7418 42.4469 27.7442 42.4575C28.8573 40.9742 29.7958 39.4053 30.5468 37.7743C30.9632 36.8694 31.3238 35.94 31.4623 34.9693C31.5575 34.3048 31.5455 33.6196 31.3787 32.945C30.5795 32.4757 28.6404 31.8305 28.1389 31.6675C28.136 31.6708 28.1331 31.6742 28.1307 31.6781C28.4788 31.8526 29.5145 32.5277 29.4145 34.3557C29.3688 35.1823 28.6327 38.547 27.7374 42.4253Z" fill="#80A1FF"/>
<path d="M24.3972 56.7129C24.4674 56.7831 29.7323 51.8413 32.4692 48.9136C33.2471 48.0818 33.8203 47.413 34.0131 47.0673C34.8848 45.5046 36.3268 42.6798 36.3268 42.6798L33.3519 40.757L35.9363 38.5332C35.9363 38.5332 32.9769 34.4972 31.8244 33.3106C31.6994 33.1822 31.5955 33.087 31.5191 33.0341C30.756 32.5057 28.1461 31.6696 28.024 31.6306C28.1134 31.6643 29.5318 32.2316 29.4155 34.3564C29.3664 35.2468 28.5154 39.0852 27.5273 43.3366C26.082 49.556 24.3438 56.6596 24.3972 56.7129Z" stroke="black" stroke-width="0.427393" stroke-linecap="round" stroke-linejoin="round"/>
<path d="M28.1448 27.833C25.4767 26.9363 23.0659 24.9861 23.0659 24.9861" stroke="black" stroke-width="0.427393" stroke-linecap="round" stroke-linejoin="round"/>
<path d="M19.2437 20.0735C19.8538 20.3504 20.3197 20.4937 20.3197 20.4937" stroke="black" stroke-width="0.427393" stroke-linecap="round" stroke-linejoin="round"/>
<path d="M16.5326 17.8022C16.658 18.1186 16.8634 18.4085 17.1148 18.672C17.7106 19.2952 18.5669 19.7668 19.2444 20.0741C19.2083 20.9742 18.8852 28.6523 18.1875 31.6406C18.2024 31.6363 18.213 31.6329 18.2183 31.631H18.2188C18.2188 31.631 18.2207 31.63 18.2217 31.63C18.2221 31.63 18.2221 31.6296 18.2221 31.6296L18.2414 32.2118C18.2414 32.2118 22.6115 38.8019 22.5057 39.2601C22.4731 39.401 22.135 39.8376 21.6643 40.3804C23.338 40.9704 24.7882 40.6199 24.7882 40.6199C24.2107 39.9689 23.7737 39.4212 23.7366 39.2601C23.6309 38.8019 28.001 32.2118 28.001 32.2118L28.0202 31.6296L28.1448 27.833C29.7459 28.3711 31.4393 28.5297 32.7601 27.6595C38.4347 23.9206 29.6036 11.5564 29.6036 11.5564C29.6036 11.5564 29.5872 12.8234 27.8246 12.9666C26.0614 13.1094 23.5361 11.942 22.0831 11.7992C20.6301 11.6564 20.5584 11.9661 20.5584 11.9661C20.5584 11.9661 21.5831 15.325 21.4398 15.9679C21.297 16.6112 21.0114 17.2781 21.0114 17.2781C21.0114 17.2781 20.5108 14.6817 19.2958 14.6577C18.0808 14.6341 15.8416 16.0636 16.5326 17.8022Z" stroke="black" stroke-width="0.427393" stroke-linecap="round" stroke-linejoin="round"/>
<path d="M23.7353 39.1684C23.7723 39.3295 24.2094 39.8771 24.7868 40.5282C25.1244 40.909 25.5105 41.3244 25.8918 41.7187C26.5269 42.3745 27.1515 42.9707 27.5261 43.2453C27.677 42.5947 27.8251 41.9538 27.9675 41.3316C28.756 37.888 29.3729 35.0194 29.4142 34.265C29.5306 32.1403 28.1122 31.5729 28.0227 31.5393C28.0227 31.5393 28.0208 31.5383 28.0199 31.5383C28.0194 31.5383 28.0194 31.5378 28.0194 31.5378L28.016 31.6455L28.0001 32.1201C28.0001 32.1201 23.63 38.7102 23.7358 39.1684H23.7353Z" fill="#F5D256" stroke="black" stroke-width="0.427393" stroke-linecap="round" stroke-linejoin="round"/>
<path d="M16.8266 34.265C16.8684 35.0214 17.4882 37.9039 18.2796 41.36C18.42 41.9735 18.5657 42.6048 18.7148 43.2453C19.1946 42.8933 20.0842 42.0144 20.8809 41.158C21.1607 40.858 21.4285 40.5604 21.6641 40.2887C22.1348 39.7459 22.4729 39.3093 22.5055 39.1684C22.6113 38.7102 18.2412 32.1201 18.2412 32.1201L18.2239 31.5975L18.2219 31.5378C18.2219 31.5378 18.2219 31.5383 18.2215 31.5383C18.2205 31.5383 18.2195 31.5388 18.2186 31.5393H18.2181C18.2123 31.5412 18.2018 31.5455 18.1864 31.5518C17.957 31.6499 16.7175 32.273 16.8266 34.265Z" fill="#F5D256" stroke="black" stroke-width="0.427393" stroke-linecap="round" stroke-linejoin="round"/>
<path d="M32.366 6.21606C32.9333 6.77333 33.1079 7.65419 32.929 8.42927C32.7502 9.20435 32.2583 9.87893 31.6664 10.4098C31.0745 10.9406 30.3812 11.3445 29.6936 11.7445C30.3427 11.9301 31.2067 11.995 31.8328 11.7431C32.4588 11.4911 32.9968 11.0257 33.3363 10.4425" stroke="black" stroke-width="0.427393" stroke-linecap="round" stroke-linejoin="round"/>
<path d="M17.1137 18.6713C16.8622 18.4078 16.6569 18.1178 16.5314 17.8015C15.8405 16.0628 18.0796 14.6334 19.2947 14.6569C20.5097 14.681 21.0102 17.2774 21.0102 17.2774C21.0102 17.2774 21.2958 16.6105 21.4386 15.9671C21.5819 15.3243 20.5573 11.9653 20.5573 11.9653C20.5573 11.9653 20.6289 11.6557 22.082 11.7985C23.535 11.9413 26.0602 13.1087 27.8234 12.9659C29.5861 12.8226 29.6024 11.5556 29.6024 11.5556C29.6024 11.5556 33.0557 8.65487 30.5516 6.10173C28.1042 3.60628 25.9848 6.77487 23.7307 7.88989C21.4766 9.0049 16.8324 7.94422 14.9659 10.9253C13.0993 13.9068 15.1164 16.7696 17.1137 18.6713Z" stroke="black" stroke-width="0.427393" stroke-linecap="round" stroke-linejoin="round"/>
<path d="M16.8266 34.265C16.8684 35.0214 17.4882 37.9039 18.2796 41.36C18.4354 41.2715 18.5604 41.1253 18.6417 40.9638C18.7547 40.7383 18.7941 40.483 18.822 40.2315C18.9576 38.9944 18.8398 37.7303 18.4782 36.5393C18.2138 35.6695 17.82 34.8338 17.6805 33.9357C17.5536 33.1188 17.682 32.2028 18.2239 31.5975L18.2219 31.5378C18.2219 31.5378 18.2219 31.5383 18.2215 31.5383C18.2205 31.5383 18.2195 31.5388 18.2186 31.5393H18.2181C18.2123 31.5412 18.2018 31.5455 18.1864 31.5518C17.957 31.6499 16.7175 32.273 16.8266 34.265Z" fill="#CEA625"/>
<path d="M27.9685 41.3316C28.757 37.888 29.3739 35.0194 29.4152 34.265C29.5316 32.1403 28.1132 31.5729 28.0237 31.5393C28.0237 31.5393 28.0218 31.5383 28.0209 31.5383C28.0204 31.5383 28.0204 31.5378 28.0204 31.5378L28.017 31.6455C28.4007 31.759 28.6926 32.123 28.7998 32.5163C28.92 32.9596 28.8484 33.4313 28.7406 33.8775C28.5291 34.7511 28.1829 35.5844 27.8843 36.4321C27.5862 37.2798 27.3328 38.1568 27.3179 39.0554C27.3044 39.8579 27.5001 40.6864 27.9689 41.3316H27.9685Z" fill="#CEA625"/>
<path d="M23.7353 39.2595C23.7723 39.4206 24.2094 39.9682 24.7868 40.6192C25.1244 41 25.5105 41.4155 25.8918 41.8097C26.5269 42.4656 27.1515 43.0618 27.5261 43.3363C28.5141 39.0849 29.3652 35.2466 29.4142 34.3561C29.5306 32.2314 28.1122 31.664 28.0227 31.6304C28.0227 31.6304 28.0208 31.6294 28.0199 31.6294C28.0194 31.6294 28.0194 31.6289 28.0194 31.6289L28.0001 32.2112C28.0001 32.2112 23.63 38.8013 23.7358 39.2595H23.7353Z" stroke="black" stroke-width="0.427393" stroke-linecap="round" stroke-linejoin="round"/>
<path d="M16.8266 34.3561C16.8757 35.2466 17.7267 39.0849 18.7148 43.3363C19.1946 42.9844 20.0842 42.1054 20.8809 41.2491C21.1607 40.9491 21.4285 40.6514 21.6641 40.3798C22.1348 39.8369 22.4729 39.4004 22.5055 39.2595C22.6113 38.8013 18.2412 32.2112 18.2412 32.2112L18.2219 31.6289C18.2219 31.6289 18.2219 31.6294 18.2215 31.6294C18.2205 31.6294 18.2195 31.6294 18.2186 31.6304H18.2181C18.2123 31.6323 18.2018 31.6366 18.1864 31.6429C17.957 31.7409 16.7175 32.3641 16.8266 34.3561Z" stroke="black" stroke-width="0.427393" stroke-linecap="round" stroke-linejoin="round"/>
<path d="M20.1177 17.6202C19.7374 16.8836 18.9017 16.4075 18.0737 16.4566" stroke="black" stroke-width="0.427393" stroke-linecap="round" stroke-linejoin="round"/>
<path d="M19.2472 16.9111C18.9607 17.0212 18.7116 17.227 18.5491 17.4876" stroke="black" stroke-width="0.427393" stroke-linecap="round" stroke-linejoin="round"/>
<path d="M28.9659 23.1787C28.8601 23.1701 27.9754 23.5543 26.982 22.6652C25.9886 21.7762 26.406 20.7747 26.406 20.7747" stroke="black" stroke-width="0.427393" stroke-linecap="round" stroke-linejoin="round"/>
<path d="M27.0555 20.7189C27.0555 20.7189 26.3723 20.4405 25.7958 21.1699" stroke="black" stroke-width="0.427393" stroke-linecap="round" stroke-linejoin="round"/>
<path d="M29.6751 18.2461C29.6751 18.2461 31.0872 20.4026 30.6838 20.7766C30.2804 21.1507 29.2919 20.4939 29.2919 20.4939" stroke="black" stroke-width="0.427393" stroke-linecap="round" stroke-linejoin="round"/>
</g>
<defs>
<clipPath id="clip0_1836_4491">
<rect width="48" height="48" rx="24" fill="white"/>
</clipPath>
</defs>
</svg>
