<svg width="48" height="48" viewBox="0 0 48 48" fill="none" xmlns="http://www.w3.org/2000/svg">
<g clip-path="url(#clip0_1836_11692)">
<rect y="0.000244141" width="48" height="48" rx="24" fill="#E2E4E9"/>
<path d="M34.9851 20.4228C33.3802 19.8564 32.2983 21.0719 32.2983 21.0719C32.0353 18.2091 31.18 13.9775 30.1592 11.3272C30.1592 11.3272 30.1972 10.4771 30.7265 10.4588C30.8689 10.4536 31.0463 10.5084 31.2684 10.656C31.8444 11.0387 32.4647 12.134 33.0426 13.5567C33.8538 15.555 34.5813 18.199 34.9847 20.4233L34.9851 20.4228Z" fill="#6D1249" stroke="black" stroke-width="0.427393" stroke-linecap="round" stroke-linejoin="round"/>
<path d="M35.08 24.6807C34.9059 24.9067 34.7016 24.9519 34.4804 24.8692C33.7794 24.6081 32.9163 23.0613 32.3605 21.9189C32.3465 21.654 32.3259 21.3703 32.2985 21.0717C32.2985 21.0717 33.3803 19.8557 34.9853 20.4226C35.3603 22.4896 35.456 24.1936 35.0805 24.6807H35.08Z" fill="#F5D256" stroke="black" stroke-width="0.427393" stroke-linecap="round" stroke-linejoin="round"/>
<path d="M33.0432 13.5567C32.9668 13.5654 32.8845 13.5543 32.8129 13.5293C32.4254 13.3962 32.1917 13.0062 32.0335 12.6278C31.8758 12.2499 31.7513 11.8393 31.4604 11.5508C31.3262 11.4176 31.1627 11.3176 31.0185 11.1955C30.78 10.9935 30.6752 10.7608 30.7271 10.4588C30.8694 10.4536 31.0469 10.5084 31.269 10.656C31.845 11.0387 32.4653 12.134 33.0432 13.5567Z" fill="#961E6C"/>
<path d="M34.9851 20.4224C33.3802 19.856 32.2983 21.0715 32.2983 21.0715C32.0353 18.2087 31.18 13.977 30.1592 11.3267C30.1592 11.3267 30.2198 9.95882 31.2684 10.655C32.6537 11.5748 34.2937 16.6133 34.9847 20.4219L34.9851 20.4224Z" stroke="black" stroke-width="0.427393" stroke-linecap="round" stroke-linejoin="round"/>
<path d="M31.9079 14.5997C32.3839 15.4608 33.0037 16.2599 33.2806 17.2042C33.445 17.7639 33.4604 18.4279 33.0791 18.8693C33.0296 18.927 32.957 18.9842 32.8844 18.9607C32.7815 18.9275 32.7887 18.7823 32.8017 18.6746C32.8445 18.3289 32.7267 17.9808 32.556 17.6769C32.3853 17.373 32.1627 17.1028 31.9694 16.8129C31.3208 15.8397 31.0236 14.6814 30.7376 13.5476C30.6284 13.1159 30.5193 12.6836 30.4356 12.2461C30.3991 12.0542 30.1663 11.4061 30.4803 11.3796C30.7775 11.3546 30.8395 11.9888 30.9049 12.1893C31.0323 12.5802 31.1684 12.9682 31.3213 13.3495C31.4924 13.777 31.6848 14.1963 31.9079 14.5992V14.5997Z" fill="#450832"/>
<path d="M48.9015 48.6171H3.36811C3.36811 48.6171 2.90028 40.4975 5.68373 37.5621C6.05252 37.1731 6.87904 36.7957 7.96809 36.4351C8.29601 36.3259 8.64701 36.2192 9.01675 36.1139C11.9997 35.2638 16.18 34.5238 18.7475 33.981L20.3188 33.9353L21.3646 33.9045L33.2711 33.5564L33.7832 33.5415C37.2604 34.4267 44.0361 35.8518 46.157 37.2202C46.334 37.3352 46.4796 37.4496 46.5873 37.5631C49.3708 40.4985 48.9025 48.618 48.9025 48.618L48.9015 48.6171Z" fill="#E86F3A" stroke="black" stroke-width="0.427393" stroke-linecap="round" stroke-linejoin="round"/>
<path d="M32.3604 23.2456C32.3273 23.6481 32.2552 23.927 32.1388 24.0472C31.4104 24.7963 30.3795 22.3037 29.8722 20.8925C29.8222 20.7516 29.7765 20.6218 29.7376 20.5074C29.6294 20.1915 29.5669 19.9891 29.5669 19.9891L29.0923 18.1249L28.4971 15.7896L28.4904 15.7622L28.4091 15.4434C28.3206 13.1845 28.0408 10.8757 27.5379 9.56446C27.5354 9.55629 27.5326 9.54908 27.5292 9.5409C27.5201 9.51831 27.5114 9.49619 27.5023 9.47407C27.4758 9.4082 27.4484 9.34521 27.4205 9.28511C27.5181 9.07355 27.771 8.6913 28.3028 8.80958C28.4264 8.83699 28.5644 8.89132 28.7192 8.98075C29.177 9.24472 29.64 10.0294 30.0751 11.1117C30.1035 11.1824 30.1319 11.2541 30.1597 11.3267C30.5944 12.4547 30.9988 13.8702 31.3406 15.3439C31.6666 16.7498 31.9349 18.2091 32.1176 19.5251C32.2407 20.4074 32.3239 21.2253 32.3609 21.9181C32.3883 22.4393 32.3893 22.8903 32.36 23.2452L32.3604 23.2456Z" fill="#6D1249" stroke="black" stroke-width="0.427393" stroke-linecap="round" stroke-linejoin="round"/>
<path d="M30.0748 11.1124C30.044 11.2447 30.008 11.3755 29.9666 11.5048C29.7753 11.5534 29.569 11.4711 29.4219 11.3389C29.2747 11.2072 29.1752 11.0322 29.0776 10.8605C28.88 10.5114 28.6828 10.1619 28.4852 9.81328C28.3934 9.65028 28.2996 9.4844 28.2559 9.30169C28.2169 9.13821 28.2227 8.95646 28.302 8.80981C28.4256 8.83722 28.5636 8.89155 28.7184 8.98099C29.1762 9.24495 29.6392 10.0296 30.0743 11.112L30.0748 11.1124Z" fill="#961E6C"/>
<path d="M32.3608 23.246C32.3276 23.6485 32.2555 23.9273 32.1392 24.0475C31.4107 24.7967 30.3799 22.3041 29.8726 20.8929C29.8226 20.752 29.7769 20.6222 29.738 20.5078C29.6298 20.1919 29.5673 19.9894 29.5673 19.9894L29.0927 18.1253L28.4975 15.79L28.4095 15.4438C28.3143 13.0147 27.9979 10.5274 27.4214 9.28596C27.5411 9.02536 27.8979 8.5056 28.7201 8.98161C29.2076 9.26337 29.7009 10.1346 30.1606 11.3275C30.5953 12.4555 30.9996 13.871 31.3415 15.3447C31.6675 16.7507 31.9358 18.2099 32.1185 19.5259C32.2416 20.4082 32.3248 21.2261 32.3618 21.919C32.3892 22.4402 32.3902 22.8912 32.3608 23.246Z" stroke="black" stroke-width="0.427393" stroke-linecap="round" stroke-linejoin="round"/>
<path d="M28.866 15.5624C28.8054 15.7009 28.666 15.8489 28.5285 15.7869C28.5141 15.7807 28.5011 15.7725 28.4895 15.7624L28.4083 15.4436C28.3198 13.1847 28.04 10.8759 27.537 9.56466L27.3702 9.57957L27.3125 9.58438C27.3644 9.52908 27.4298 9.49302 27.5015 9.47427C27.6414 9.43869 27.8034 9.46898 27.9289 9.54687C28.1179 9.66467 28.2386 9.86565 28.3376 10.0657C28.9867 11.3725 29.0136 12.8895 29.0271 14.3488C29.0309 14.7604 29.0319 15.1859 28.8655 15.5619L28.866 15.5624Z" fill="#450832"/>
<path d="M32.1185 19.5257C31.4954 20.0233 30.6011 20.3474 29.7375 20.5075C29.777 20.6219 29.8222 20.7518 29.8722 20.8926C29.9154 21.4816 30.0049 22.6606 30.128 24.0848C30.128 24.0848 30.128 24.0857 30.1284 24.0882C30.465 27.9972 31.0521 32.438 31.6204 32.8847C31.6204 32.8847 29.9371 39.784 25.4083 39.784C20.8794 39.784 20.8987 33.3535 20.8987 33.3535C21.3295 33.0145 21.4131 32.7621 21.3886 31.2773C21.3704 30.1825 21.2929 29.13 21.2526 28.641C21.2376 28.4597 21.2276 28.3559 21.2276 28.3559C20.2101 28.678 19.1326 28.8362 18.1229 28.6372C17.1209 28.4391 16.1857 27.89 15.4404 26.8004C14.7856 25.8436 14.5625 24.6709 14.6254 23.4049C14.7019 21.8576 15.2058 20.1719 15.8712 18.5732C16.592 16.8393 17.5036 15.2079 18.2662 13.9669C18.2696 13.9617 18.5869 13.8208 19.1047 13.6568C19.875 13.413 21.0891 13.1193 22.3719 13.1457C22.2777 15.4849 22.3738 18.8194 23.6889 18.817C23.9557 18.8165 24.1572 18.2097 24.3009 17.3682C24.4149 16.7009 24.4923 15.8854 24.538 15.1084C24.4947 15.8859 24.4187 16.7023 24.3062 17.3702C24.3062 17.3702 24.8005 21.0744 25.7694 20.6219C25.9309 20.5465 26.0506 20.2772 26.1348 19.8757C26.4362 20.8503 26.9425 21.8663 27.734 21.7644C28.2528 21.697 28.5081 18.9016 28.4235 15.8902C28.4475 15.8561 28.472 15.8224 28.4965 15.7892C28.6091 15.6392 28.7307 15.4974 28.8615 15.3709C29.4832 14.7714 30.3097 14.5204 31.3406 15.344C31.5021 15.4729 31.669 15.6286 31.8406 15.8133C32.0257 16.0123 32.1844 16.2047 32.3186 16.3907C33.3355 17.7909 32.9922 18.8285 32.1176 19.5252L32.1185 19.5257Z" fill="#94624B" stroke="black" stroke-width="0.427393" stroke-linecap="round" stroke-linejoin="round"/>
<path d="M25.8455 26.0667C25.8493 28.2395 24.5747 30.3671 22.6567 31.3879C22.4321 31.5071 22.1836 31.6153 21.9321 31.5797C21.7215 31.5499 21.5455 31.4263 21.3892 31.2768C21.371 30.182 21.2936 29.1295 21.2532 28.6405C21.4258 28.477 21.6147 28.3284 21.8027 28.1822L25.8455 26.0667Z" fill="#663421"/>
<path d="M19.1196 14.1464C18.9499 14.671 18.6662 15.1725 18.4773 15.6947C17.7032 17.83 17.3416 20.1129 17.4099 22.3833C17.4478 23.6594 17.6224 24.9317 17.9359 26.1693C18.083 26.752 18.2619 27.3377 18.2484 27.9387C18.2431 28.1729 18.2022 28.4133 18.1229 28.6368C17.1209 28.4388 16.1857 27.8897 15.4404 26.8001C14.7856 25.8433 14.5625 24.6706 14.6254 23.4046C14.7019 21.8573 15.2058 20.1716 15.8712 18.5729C16.592 16.839 17.5036 15.2076 18.2662 13.9666C18.2696 13.9613 18.5869 13.8205 19.1047 13.6565C19.1721 13.7878 19.1807 13.956 19.1196 14.1464Z" fill="#AD8679"/>
<path d="M21.8323 14.6254C21.778 15.8842 21.7246 17.1565 21.9583 18.3946C22.0328 18.7893 22.1694 19.2225 22.5237 19.411C22.7887 19.5524 23.1128 19.5192 23.3974 19.6154C23.8936 19.7832 24.1725 20.2962 24.4004 20.7679C24.6283 21.2396 24.8961 21.755 25.3865 21.9387C25.5563 22.0021 25.7395 22.0194 25.9154 22.0622C26.3304 22.1632 26.7073 22.4127 26.9627 22.7551C27.0636 22.8902 27.1463 23.0402 27.267 23.1585C27.3877 23.2768 27.5598 23.36 27.7238 23.3196C27.8839 23.2801 27.9974 23.1296 28.0406 22.971C28.0839 22.8123 28.0685 22.6435 28.0512 22.4796C27.8353 20.4404 27.3411 18.4422 26.816 16.4597C26.5088 15.2995 26.1573 14.0845 25.3 13.245C24.7841 12.7397 24.0725 12.3992 23.3527 12.4565C22.9204 12.4911 22.1583 12.7123 21.9275 13.1243C21.8434 13.2738 21.8775 13.4628 21.8746 13.6268C21.8689 13.9595 21.8468 14.2927 21.8323 14.6254Z" fill="#7C412E"/>
<path d="M20.31 38.3218C20.1941 39.2233 20.0215 40.1547 19.4907 40.8927C18.9594 41.6308 17.9723 42.1154 17.1198 41.7995C15.8836 41.3423 15.5677 39.5686 14.3464 39.0733C12.839 38.4617 11.1317 40.2143 9.61613 39.6248C8.94443 39.3637 8.51506 38.6964 8.27128 38.0189C8.08809 37.5107 7.98712 36.9741 7.96741 36.4346C8.29532 36.3254 8.64632 36.2187 9.01607 36.1134C11.9991 35.2633 16.1793 34.5233 18.7469 33.9805L20.3182 33.9348C20.5744 35.3792 20.497 36.8659 20.3095 38.3218H20.31Z" fill="#49A2A6" stroke="black" stroke-width="0.427393" stroke-linecap="round" stroke-linejoin="round"/>
<path d="M46.0463 37.2185C45.6612 38.4605 44.8741 39.5726 43.7726 40.2621C42.7922 40.8756 41.405 41.1055 40.5415 40.3362C39.8683 39.7366 39.7366 38.7509 39.3221 37.9503C38.6293 36.6122 37.019 35.8169 35.5357 36.0804C35.0698 36.1631 34.6212 36.3382 34.1509 36.3862C33.6797 36.4343 33.1527 36.3252 32.8647 35.9497C32.5118 35.489 32.646 34.8284 32.8508 34.2855C32.9378 34.0543 33.0422 33.8081 33.1614 33.5547L33.674 33.5398C37.1507 34.425 43.9269 35.8501 46.0468 37.2185H46.0463Z" fill="#49A2A6" stroke="black" stroke-width="0.427393" stroke-linecap="round" stroke-linejoin="round"/>
<path d="M43.3738 48.6165H28.8564C28.6713 47.9198 28.666 47.1755 28.8689 46.4826C29.2969 45.0219 30.6282 43.8689 32.1351 43.655C33.7016 43.4323 35.2503 44.1464 36.8322 44.192C37.779 44.2194 38.7276 44.006 39.6686 44.1093C41.1211 44.2685 42.4612 45.2393 43.0516 46.575C43.3334 47.2125 43.4377 47.9222 43.3733 48.616L43.3738 48.6165Z" fill="#49A2A6" stroke="black" stroke-width="0.427393" stroke-linecap="round" stroke-linejoin="round"/>
<path d="M19.3381 48.6166H5.63867C5.92091 46.8809 8.08026 45.5106 9.61359 45.1812C11.647 44.7446 13.7654 45.2802 15.707 46.0279C16.5773 46.363 17.4403 46.7477 18.1765 47.3204C18.6356 47.6781 19.0443 48.1161 19.3381 48.6166Z" fill="#49A2A6" stroke="black" stroke-width="0.427393" stroke-linecap="round" stroke-linejoin="round"/>
<path d="M29.6166 18.7411C29.9296 18.6031 30.2719 18.5324 30.6138 18.5349C30.7883 18.5363 30.9696 18.5555 31.1326 18.493C31.2725 18.4392 31.3836 18.331 31.4831 18.219C31.5783 18.1117 31.6687 17.9959 31.7129 17.8598C31.7572 17.7237 31.7476 17.5626 31.6572 17.4516C31.5798 17.3568 31.4547 17.3112 31.3331 17.304C31.2114 17.2967 31.0898 17.3227 30.9706 17.3487C30.547 17.441 30.121 17.5338 29.719 17.6963C29.3502 17.8449 28.7756 18.1117 28.6679 18.5421C28.6237 18.7195 28.7136 18.858 28.8862 18.9123C29.142 18.9926 29.3911 18.8406 29.6166 18.7411Z" fill="#663421"/>
<path d="M32.3188 16.3908C32.1875 16.6202 31.9702 16.8115 31.7163 16.7798C31.5422 16.7577 31.398 16.6336 31.2903 16.4947C31.1836 16.3557 31.1023 16.1975 30.9879 16.0644C30.7354 15.7706 30.3219 15.6244 29.9406 15.6951C29.6786 15.7437 29.4074 15.885 29.1612 15.7836C28.9954 15.7153 28.8939 15.5504 28.8612 15.3705C29.4829 14.771 30.3094 14.52 31.3403 15.3436C31.5019 15.4725 31.6687 15.6283 31.8404 15.8129C32.0255 16.0119 32.1841 16.2043 32.3183 16.3904L32.3188 16.3908Z" fill="#AD8679"/>
<path d="M22.5179 11.0322C22.4881 11.3318 22.413 12.1477 22.3727 13.1449C20.2273 13.1002 18.2751 13.9518 18.2665 13.9657C18.3559 13.82 18.4434 13.6796 18.528 13.5455C18.529 13.5445 18.5295 13.5435 18.53 13.5426C19.2252 12.4401 19.7469 11.7299 19.7926 11.6688C19.794 11.6669 19.795 11.6655 19.795 11.665H19.7955V11.664C19.7955 11.664 20.4258 11.3481 21.3798 11.162C21.7221 11.0952 22.1063 11.0452 22.5174 11.0327L22.5179 11.0322Z" fill="#4C70F5" stroke="black" stroke-width="0.427393" stroke-linecap="round" stroke-linejoin="round"/>
<path d="M18.5284 13.5452C18.4437 13.6793 18.3562 13.8197 18.2668 13.9654C17.7047 14.8804 17.0619 16.0065 16.4743 17.2297C15.8997 16.1651 14.7953 16.7474 14.7953 16.7474C14.954 16.355 15.0838 16.0882 15.0838 16.0882C15.5781 16.5714 16.6243 15.3122 17.2903 14.3808C17.3023 14.4044 17.3162 14.425 17.3316 14.4438C17.5355 14.689 18.0331 14.1861 18.5279 13.5442L18.5284 13.5452Z" fill="#6D1249" stroke="black" stroke-width="0.427393" stroke-linecap="round" stroke-linejoin="round"/>
<path d="M15.8727 18.5715C15.2077 20.1703 14.7038 21.856 14.6269 23.4028C13.9759 24.3808 13.3186 25.0967 13.0022 24.6298C12.2579 23.5331 14.2245 18.9879 14.2245 18.9879C14.224 19.161 14.2437 19.3197 14.2903 19.4562C14.4774 20.0068 15.2236 19.3221 15.8727 18.572V18.5715Z" fill="#6D1249" stroke="black" stroke-width="0.427393" stroke-linecap="round" stroke-linejoin="round"/>
<path d="M21.228 28.355C23.6643 27.5833 25.7568 25.8691 25.7568 25.8691" stroke="black" stroke-width="0.427393" stroke-linecap="round" stroke-linejoin="round"/>
<path d="M29.7381 20.5068C29.3818 20.5737 29.0313 20.6117 28.7063 20.6227" stroke="black" stroke-width="0.427393" stroke-linecap="round" stroke-linejoin="round"/>
<path d="M27.4574 17.9658C27.4574 17.9658 27.78 16.8023 28.4238 15.8906" stroke="black" stroke-width="0.427393" stroke-linecap="round" stroke-linejoin="round"/>
<path d="M28.7196 18.4871C28.7196 18.4871 30.3424 16.6062 31.7901 17.7212" stroke="black" stroke-width="0.427393" stroke-linecap="round" stroke-linejoin="round"/>
<path d="M30.4169 18.8162C30.4169 18.8162 30.4097 18.0378 30.1602 17.5637" stroke="black" stroke-width="0.427393" stroke-linecap="round" stroke-linejoin="round"/>
<path d="M33.6732 33.5399C33.6732 33.5399 31.6201 42.0402 25.2301 42.0402C19.3184 42.0402 18.6381 33.9793 18.6381 33.9793C19.8449 33.724 20.6955 33.5125 20.8989 33.3523C20.8989 33.3523 20.8796 39.7828 25.4085 39.7828C29.9373 39.7828 31.6206 32.8835 31.6206 32.8835C31.8153 33.036 32.5818 33.2605 33.6737 33.5394L33.6732 33.5399Z" fill="#F5D256" stroke="black" stroke-width="0.427393" stroke-linecap="round" stroke-linejoin="round"/>
<path d="M24.5385 15.1084C24.4928 15.8854 24.4149 16.7009 24.3014 17.3683C24.1577 18.2092 23.9562 18.8165 23.6893 18.817C22.7441 18.8184 22.4286 17.0961 22.3613 15.2589C22.3613 15.2589 23.1773 14.3574 24.5385 15.1089V15.1084Z" fill="#F5D256" stroke="black" stroke-width="0.427393" stroke-linecap="round" stroke-linejoin="round"/>
<path d="M24.5878 13.583C24.5873 13.9537 24.5758 14.3841 24.5537 14.8356C24.5522 14.8654 24.5508 14.8957 24.5493 14.926C24.5493 14.9284 24.5489 14.9308 24.5489 14.9336C24.5489 14.9404 24.5484 14.9471 24.5479 14.9534C24.5455 15.0048 24.5426 15.0563 24.5392 15.1082C23.1776 14.3571 22.3621 15.2582 22.3621 15.2582C22.3356 14.5394 22.3472 13.8028 22.3736 13.145C22.414 12.1478 22.489 11.3318 22.5188 11.0323C22.1073 11.0448 21.7236 11.0948 21.3812 11.1616C21.3812 11.1616 21.4707 10.5842 21.8712 10.188C21.9236 10.1356 21.9813 10.087 22.0448 10.0433C22.0573 10.0336 22.0702 10.0255 22.0832 10.0173C22.0842 10.0168 22.0847 10.0163 22.0856 10.0158C22.1015 10.0053 22.1174 9.99613 22.1342 9.987C22.1452 9.98123 22.1563 9.97498 22.1669 9.96921C22.1775 9.96392 22.188 9.95815 22.1991 9.95286C22.3914 9.85718 22.6285 9.80573 22.9174 9.82785C23.7401 9.89276 24.1382 10.4808 24.3459 11.2482H24.3464C24.4705 11.7054 24.5272 12.2262 24.5652 12.7373C24.5811 12.9488 24.5892 13.2407 24.5878 13.583Z" fill="#6D1249" stroke="black" stroke-width="0.427393" stroke-linecap="round" stroke-linejoin="round"/>
<path d="M22.5304 10.9084C22.5304 10.9084 22.5261 10.9517 22.5179 11.0315" stroke="black" stroke-width="0.427393" stroke-linecap="round" stroke-linejoin="round"/>
<path d="M26.1349 19.8757C26.0502 20.2772 25.931 20.5465 25.7694 20.622C24.8011 21.0739 24.3063 17.3702 24.3063 17.3702C24.4188 16.7023 24.4948 15.8859 24.5381 15.1084C24.5409 15.0565 24.5438 15.005 24.5467 14.9536C24.5472 14.9473 24.5477 14.9406 24.5477 14.9339C24.5477 14.9315 24.5482 14.9291 24.5482 14.9262C24.5496 14.8959 24.551 14.8656 24.5525 14.8358C24.5732 14.3853 24.5837 13.9554 24.5837 13.5847C24.5842 13.3948 24.5818 13.2202 24.576 13.0659C24.5722 12.9428 24.5664 12.8332 24.5592 12.739C24.5198 12.2278 24.4621 11.7071 24.3376 11.2503H24.3371C24.127 10.4839 23.7284 9.89588 22.9047 9.83289C22.7013 9.81702 22.5239 9.83866 22.3696 9.88626C22.309 9.90453 22.2518 9.92713 22.1979 9.95309C22.1869 9.95838 22.1758 9.96415 22.1657 9.96944C22.1547 9.97521 22.1436 9.98146 22.133 9.98723C22.1162 9.99637 22.1003 10.0055 22.0845 10.0161C22.0835 10.0166 22.083 10.017 22.082 10.0175C22.0691 10.0257 22.0561 10.0339 22.0436 10.0435C21.9801 10.0863 21.9219 10.1344 21.869 10.1858C21.8657 10.1892 21.8628 10.1921 21.8594 10.1954C21.8594 10.1925 21.858 10.1786 21.8565 10.156C21.8503 10.0324 21.8445 9.64393 21.9989 9.24918C22.1484 8.86741 22.4465 8.48227 23.036 8.32505C23.2086 8.27889 23.4067 8.25244 23.6332 8.25148C23.9928 8.25004 24.3049 8.34764 24.5732 8.51449C25.2179 8.91501 25.6161 9.71701 25.8343 10.5195V10.5205C25.9247 10.8513 25.9839 11.1825 26.018 11.4855C26.143 12.6043 26.5589 17.8799 26.1353 19.8752L26.1349 19.8757Z" fill="#6D1249" stroke="black" stroke-width="0.427393" stroke-linecap="round" stroke-linejoin="round"/>
<path d="M18.5293 13.5429C19.1399 12.7501 19.7462 11.7452 19.7919 11.6692" stroke="black" stroke-width="0.427393" stroke-linecap="round" stroke-linejoin="round"/>
<path d="M21.8574 10.1558C21.8637 10.1707 21.8685 10.1808 21.8699 10.1856" stroke="black" stroke-width="0.427393" stroke-linecap="round" stroke-linejoin="round"/>
<path d="M22.3728 13.1449C22.4132 12.1477 22.4882 11.3318 22.518 11.0322C22.1064 11.0447 21.7227 11.0947 21.3804 11.1616" stroke="black" stroke-width="0.427393" stroke-linecap="round" stroke-linejoin="round"/>
<path d="M27.734 21.7645C26.9425 21.8665 26.4362 20.85 26.1348 19.8759C26.3122 19.0393 26.342 17.6261 26.3079 16.1842C26.3079 16.1842 27.1445 14.8711 28.4191 15.7356C28.4206 15.7875 28.422 15.8389 28.4235 15.8909C28.5081 18.9017 28.2528 21.6977 27.734 21.765V21.7645Z" fill="#F5D256" stroke="black" stroke-width="0.427393" stroke-linecap="round" stroke-linejoin="round"/>
<path d="M28.4194 15.7352C27.8867 15.3736 27.4299 15.3929 27.0799 15.5381C26.5913 15.7391 26.3081 16.1838 26.3081 16.1838C26.261 14.187 26.0903 12.1349 26.0177 11.4853C25.9326 10.7227 25.6845 9.78078 25.1965 9.111C25.1936 9.10619 25.1902 9.10138 25.1864 9.09705C25.1595 9.06003 25.1316 9.02493 25.1032 8.99031C24.9489 8.80087 24.7729 8.63787 24.5729 8.5143C24.5729 8.5143 25.0407 7.96425 25.7321 7.97627C25.7884 7.97675 25.8466 7.98108 25.9062 7.99069C26.2673 8.04502 26.6789 8.26043 27.1106 8.77298C27.2217 8.90473 27.3251 9.07782 27.4212 9.28553C27.4866 9.42593 27.5482 9.58172 27.6064 9.75145C28.0665 11.0876 28.3252 13.2883 28.4093 15.4434C28.4132 15.541 28.417 15.6386 28.4199 15.7352H28.4194Z" fill="#6D1249" stroke="black" stroke-width="0.427393" stroke-linecap="round" stroke-linejoin="round"/>
<path d="M21.8701 10.1878C21.4696 10.5845 21.3802 11.1619 21.3802 11.1619C20.4263 11.348 19.7959 11.6639 19.7959 11.6639C19.7959 11.6639 19.7959 11.6644 19.7954 11.6649C19.7954 11.6654 19.7945 11.6668 19.793 11.6687C19.7618 11.711 19.5055 12.0596 19.1223 12.6313C18.6458 11.4336 17.838 11.8822 17.8145 11.8957C18.0337 11.3999 18.2986 10.8989 18.5823 10.459C19.0271 9.76901 19.519 9.22761 19.9541 9.08721C20.5061 8.90835 20.9297 9.06414 21.2355 9.31079C21.6062 9.60842 21.8057 10.0363 21.8562 10.1566C21.8576 10.1792 21.8591 10.1931 21.8591 10.196C21.862 10.1931 21.8649 10.1902 21.8687 10.1868C21.8692 10.1873 21.8697 10.1878 21.8697 10.1883L21.8701 10.1878Z" fill="#6D1249" stroke="black" stroke-width="0.427393" stroke-linecap="round" stroke-linejoin="round"/>
<path d="M21.9993 9.24921C21.845 9.64396 21.8508 10.0325 21.857 10.156C21.7647 9.93678 21.1767 8.6905 19.9549 9.08717C18.6514 9.50933 16.8411 13.516 17.2912 14.3819C16.6253 15.3133 15.579 16.5721 15.0847 16.0893C14.5717 15.5893 15.454 12.6481 16.7902 10.4787C17.4268 9.4449 18.1663 8.58664 18.9072 8.25151C19.6347 7.92264 20.2102 7.89907 20.6579 8.02216C21.6113 8.28373 21.984 9.20834 21.9998 9.24873L21.9993 9.24921Z" fill="#6D1249" stroke="black" stroke-width="0.427393" stroke-linecap="round" stroke-linejoin="round"/>
<path d="M25.9057 7.99021C25.1195 7.87097 24.5723 8.51382 24.5723 8.51382C24.3036 8.3465 23.992 8.24937 23.6323 8.25082C22.6337 8.25514 22.1918 8.75567 21.998 9.24803C21.998 9.21774 22.0038 7.47381 23.3366 7.1685C24.9671 6.79586 25.9057 7.98973 25.9057 7.98973V7.99021Z" fill="#6D1249" stroke="black" stroke-width="0.427393" stroke-linecap="round" stroke-linejoin="round"/>
<path d="M21.998 9.24927L21.9988 9.25167" stroke="black" stroke-width="0.427393" stroke-linecap="round" stroke-linejoin="round"/>
<path d="M32.6618 27.1805C32.6272 28.1657 32.4478 28.9508 31.9675 28.959C30.6885 28.9797 30.1457 24.2359 30.1293 24.0874C30.1288 24.085 30.1288 24.084 30.1288 24.084C30.0058 22.6598 29.9163 21.4808 29.873 20.8918C30.3798 22.303 31.4112 24.7956 32.1396 24.0465C32.256 23.9268 32.3281 23.6474 32.3613 23.245C32.3613 23.245 32.7204 25.5034 32.6618 27.1805Z" fill="#6D1249" stroke="black" stroke-width="0.427393" stroke-linecap="round" stroke-linejoin="round"/>
<path d="M34.4115 30.0258C33.1604 29.9786 32.6614 27.1808 32.6614 27.1808C32.72 25.5037 32.3608 23.2453 32.3608 23.2453C32.3902 22.8899 32.3892 22.4394 32.3618 21.9182C32.9181 23.0606 33.7812 24.6079 34.4817 24.869C34.4966 24.9349 35.6544 30.0719 34.411 30.0258H34.4115Z" fill="#6D1249" stroke="black" stroke-width="0.427393" stroke-linecap="round" stroke-linejoin="round"/>
<path d="M18.9574 18.6201C18.9574 18.6201 17.4982 20.8703 18.0896 21.2396C18.6805 21.6089 19.3272 20.9997 19.3272 20.9997" stroke="black" stroke-width="0.427393" stroke-linecap="round" stroke-linejoin="round"/>
<path d="M19.438 23.2161C19.438 23.2161 21.4416 23.8994 22.5177 22.4036C22.5177 22.4036 23.1254 24.6384 21.4882 24.9255C19.124 25.3399 19.438 23.2161 19.438 23.2161Z" fill="white" stroke="black" stroke-width="0.427393" stroke-linecap="round" stroke-linejoin="round"/>
<path d="M19.4108 37.2492C19.8252 36.9698 20.2392 36.691 20.6537 36.4116" stroke="black" stroke-width="0.427393" stroke-linecap="round" stroke-linejoin="round"/>
<path d="M21.5243 40.6125C21.7637 40.3659 22.0032 40.1192 22.2422 39.873" stroke="black" stroke-width="0.427393" stroke-linecap="round" stroke-linejoin="round"/>
<path d="M25.5623 41.7802L25.757 40.5979" stroke="black" stroke-width="0.427393" stroke-linecap="round" stroke-linejoin="round"/>
<path d="M29.4259 40.4144C29.2388 40.1601 29.0523 39.9062 28.8652 39.6519" stroke="black" stroke-width="0.427393" stroke-linecap="round" stroke-linejoin="round"/>
<path d="M31.7844 37.5113C31.4777 37.355 31.1709 37.1987 30.8641 37.042" stroke="black" stroke-width="0.427393" stroke-linecap="round" stroke-linejoin="round"/>
<path d="M33.283 34.3149C32.8637 34.2784 32.4444 34.2419 32.0251 34.2053" stroke="black" stroke-width="0.427393" stroke-linecap="round" stroke-linejoin="round"/>
<path d="M24.4172 18.0398C24.4172 18.0398 25.0423 16.7348 26.3165 17.9268" stroke="black" stroke-width="0.427393" stroke-linecap="round" stroke-linejoin="round"/>
<path d="M24.5679 18.7544C24.8179 18.449 25.3829 18.0293 26.2695 18.8221" stroke="#F5D256" stroke-width="0.427393" stroke-linecap="round" stroke-linejoin="round"/>
<path d="M28.4973 15.7899C28.4714 15.7707 28.4454 15.7524 28.4199 15.7356" stroke="black" stroke-width="0.427393" stroke-linecap="round" stroke-linejoin="round"/>
<path d="M16.4742 17.2297C16.2641 17.6663 16.0612 18.1159 15.8718 18.5717C15.2227 19.3218 14.4764 20.0069 14.2894 19.4559C14.2432 19.3199 14.223 19.1612 14.2235 18.9876C14.224 18.2933 14.5452 17.3644 14.7952 16.747C14.7952 16.747 15.8996 16.1643 16.4742 17.2293V17.2297Z" fill="#F5D256" stroke="black" stroke-width="0.427393" stroke-linecap="round" stroke-linejoin="round"/>
<path d="M19.1226 12.6312C19.1226 12.6312 19.1226 12.6316 19.1222 12.6316C18.9481 12.8918 18.7481 13.198 18.5307 13.5423C18.5303 13.5433 18.5298 13.5442 18.5288 13.5452C18.0341 14.1871 17.5364 14.69 17.3326 14.4448C17.3172 14.4261 17.3032 14.4049 17.2912 14.3818C17.0873 13.9895 17.3479 12.9523 17.8143 11.8955H17.8148C17.8384 11.882 18.6461 11.4334 19.1226 12.6312Z" fill="#F5D256" stroke="black" stroke-width="0.427393" stroke-linecap="round" stroke-linejoin="round"/>
<path d="M19.1219 12.6311L19.1211 12.6319C19.1211 12.6319 19.1214 12.6316 19.1219 12.6311Z" fill="#F5D256" stroke="black" stroke-width="0.427393" stroke-linecap="round" stroke-linejoin="round"/>
<path d="M15.2808 13.8094C15.2808 13.8094 16.3597 13.1304 17.0934 14.6503" stroke="black" stroke-width="0.427393" stroke-linecap="round" stroke-linejoin="round"/>
<path d="M13.2493 21.6751C13.2493 21.6751 14.3667 21.0876 14.7595 22.2214" stroke="#F5D256" stroke-width="0.427393" stroke-linecap="round" stroke-linejoin="round"/>
<path d="M30.5176 26.35C30.5166 26.3461 31.2489 25.2066 32.6611 26.1663L30.5176 26.35Z" fill="#6D1249"/>
<path d="M30.5176 26.35C30.5166 26.3461 31.2489 25.2066 32.6611 26.1663" stroke="black" stroke-width="0.427393" stroke-linecap="round" stroke-linejoin="round"/>
<path d="M30.429 25.4367C30.428 25.4328 31.1603 24.2933 32.5724 25.253L30.429 25.4367Z" fill="#6D1249"/>
<path d="M30.429 25.4367C30.428 25.4328 31.1603 24.2933 32.5724 25.253" stroke="black" stroke-width="0.427393" stroke-linecap="round" stroke-linejoin="round"/>
<path d="M25.254 8.91528L25.1867 9.09703C25.1598 9.06001 25.1319 9.02491 25.1035 8.99029C25.1502 8.96 25.2006 8.93452 25.2535 8.91576L25.254 8.91528Z" fill="#450832"/>
<path d="M27.0806 15.5378C26.5921 15.7388 26.3089 16.1836 26.3089 16.1836C26.2618 14.1867 26.0911 12.1346 26.0185 11.485C25.9334 10.7225 25.6853 9.78053 25.1973 9.11075C25.3319 8.97757 25.5704 8.98382 25.7339 9.08623C25.9084 9.19586 26.0161 9.38482 26.1055 9.57042C26.6633 10.7239 26.808 12.0274 26.9446 13.302C27.0244 14.0449 27.1037 14.7935 27.0801 15.5378H27.0806Z" fill="#450832"/>
<path d="M32.1181 19.5257C31.4949 20.0234 30.6006 20.3474 29.7371 20.5075C29.7765 20.622 29.8217 20.7518 29.8717 20.8927C29.915 21.4817 30.0044 22.6606 30.1275 24.0848C30.1275 24.0848 30.1275 24.0858 30.128 24.0882C30.4645 27.9972 31.0516 32.4381 31.6199 32.8847C31.6199 32.8847 29.9366 39.784 25.4078 39.784C20.879 39.784 20.8982 33.3535 20.8982 33.3535C21.7646 32.6727 21.2271 28.3554 21.2271 28.3554C19.2009 28.9978 16.9372 28.9877 15.4404 26.8C14.7856 25.8432 14.5625 24.6705 14.6254 23.4045C14.7019 21.8572 15.2058 20.1715 15.8712 18.5727C16.592 16.8389 17.5036 15.2075 18.2662 13.9665C18.2749 13.9526 20.2265 13.101 22.3724 13.1457C22.2781 15.4849 22.3743 18.8194 23.6893 18.817C23.9562 18.8165 24.1577 18.2097 24.3014 17.3683C24.4154 16.7009 24.4928 15.8854 24.5385 15.1084C24.4952 15.8859 24.4192 16.7024 24.3067 17.3702C24.3067 17.3702 24.801 21.0744 25.7698 20.622C25.9314 20.5465 26.0511 20.2772 26.1353 19.8757C26.4367 20.8504 26.943 21.8663 27.7345 21.7644C28.2533 21.6971 28.5086 18.9016 28.4239 15.8903C28.448 15.8561 28.4725 15.8225 28.497 15.7893C29.1447 14.9248 30.0933 14.3468 31.3415 15.344C31.5031 15.4729 31.6699 15.6287 31.8416 15.8133C33.4182 17.5096 33.1095 18.7357 32.1185 19.5252L32.1181 19.5257Z" stroke="black" stroke-width="0.427393" stroke-linecap="round" stroke-linejoin="round"/>
<path d="M26.3041 7.56312L26.2319 7.56504C26.256 7.56312 26.2795 7.56216 26.3041 7.56312Z" fill="#961E6C"/>
<path d="M27.6062 9.75173C27.5855 9.90752 27.5567 10.0619 27.5211 10.2148C27.4874 10.3585 27.4206 10.5268 27.2754 10.5513C27.1701 10.5691 27.0672 10.497 27.0114 10.4061C26.9556 10.3153 26.9364 10.2075 26.9114 10.1037C26.7975 9.63009 26.5426 9.19158 26.1883 8.85741C26.02 8.69922 25.8224 8.55306 25.743 8.33621C25.7007 8.22129 25.6983 8.09339 25.7324 7.97607C25.7887 7.97656 25.8469 7.98088 25.9065 7.9905C26.2676 8.04483 26.6792 8.26024 27.111 8.77279C27.222 8.90453 27.3254 9.07763 27.4216 9.28534C27.487 9.42574 27.5485 9.58152 27.6067 9.75125L27.6062 9.75173Z" fill="#961E6C"/>
<path d="M26.1347 19.8755C26.0501 20.277 25.9309 20.5462 25.7693 20.6217C24.8009 21.0737 24.3062 17.3699 24.3062 17.3699C24.4187 16.7021 24.4947 15.8856 24.5379 15.1082C24.5408 15.0562 24.5437 15.0048 24.5466 14.9533C24.5471 14.9471 24.5476 14.9404 24.5476 14.9336C24.5476 14.9312 24.548 14.9288 24.548 14.9259C24.5495 14.8956 24.5509 14.8654 24.5524 14.8355C24.573 14.385 24.5836 13.9552 24.5836 13.5845C24.5846 13.2421 24.5754 12.9503 24.5591 12.7387C24.5197 12.2276 24.462 11.7069 24.3374 11.2501H24.337C24.1268 10.4837 23.7282 9.89563 22.9046 9.83264C22.6209 9.81052 22.3882 9.86101 22.1978 9.95236C22.1867 9.95765 22.1757 9.96342 22.1656 9.96871C22.1545 9.97448 22.1435 9.98073 22.1329 9.9865C22.1161 9.99564 22.1002 10.0048 22.0843 10.0153C22.0834 10.0158 22.0829 10.0163 22.0819 10.0168C22.0689 10.025 22.056 10.0331 22.0435 10.0428C21.98 10.0855 21.9218 10.1336 21.8689 10.1851C21.8656 10.1884 21.8627 10.1913 21.8593 10.1947C21.8593 10.1918 21.8579 10.1779 21.8564 10.1553C21.8502 10.0317 21.8444 9.6432 21.9987 9.24844C22.192 8.75561 22.6339 8.25459 23.633 8.25075C23.9927 8.24931 24.3047 8.34691 24.573 8.51376C25.4842 9.0792 25.9015 10.4481 26.0174 11.4852C26.1424 12.6041 26.5583 17.8796 26.1347 19.875V19.8755Z" stroke="black" stroke-width="0.427393" stroke-linecap="round" stroke-linejoin="round"/>
<path d="M15.8727 18.5715C15.2077 20.1703 14.7038 21.856 14.6269 23.4028C13.9759 24.3808 13.3186 25.0967 13.0022 24.6298C12.2579 23.5331 14.2245 18.9879 14.2245 18.9879C14.224 19.161 14.2437 19.3197 14.2903 19.4562C14.4774 20.0068 15.2236 19.3221 15.8727 18.572V18.5715Z" stroke="black" stroke-width="0.427393" stroke-linecap="round" stroke-linejoin="round"/>
<path d="M32.6614 27.1806C32.6614 27.1806 33.7499 25.9814 34.8438 26.8829" stroke="#F5D256" stroke-width="0.427393" stroke-linecap="round" stroke-linejoin="round"/>
<path d="M25.8333 10.5195V10.5205C25.8333 10.6344 25.8228 10.7493 25.8021 10.8623C25.792 10.9152 25.7756 10.9739 25.728 10.9989C25.6708 11.0292 25.6011 10.9941 25.5492 10.9551C25.2227 10.7152 25.0323 10.3392 24.8236 9.99252C24.614 9.64585 24.3481 9.29582 23.961 9.17705C23.8081 9.13042 23.6461 9.12272 23.4894 9.09147C23.3326 9.06022 23.1725 8.99771 23.0754 8.87125C22.9686 8.73086 22.9595 8.5318 23.0191 8.36591C23.0239 8.35197 23.0297 8.33851 23.0355 8.32505C23.2081 8.27889 23.4062 8.25244 23.6326 8.25148C23.9923 8.25004 24.3043 8.34764 24.5726 8.51449C25.2174 8.91501 25.6155 9.71701 25.8338 10.5195H25.8333Z" fill="#961E6C"/>
<path d="M20.656 8.02216C20.6421 8.03899 20.6272 8.05486 20.6118 8.06977C20.4781 8.19766 20.2997 8.26594 20.1295 8.33998C19.1487 8.76791 18.3019 9.49972 17.7365 10.408C17.6389 10.5647 17.5317 10.7407 17.3528 10.7869C17.1148 10.8489 16.9249 10.6763 16.7883 10.4787C17.4249 9.4449 18.1644 8.58664 18.9054 8.25151C19.6328 7.92264 20.2084 7.89907 20.656 8.02216Z" fill="#961E6C"/>
<path d="M21.2357 9.30934C21.1467 9.56225 20.8702 9.7339 20.6039 9.82141C20.2942 9.92382 19.9519 9.9719 19.7038 10.1839C19.4961 10.3618 19.3552 10.6537 19.0859 10.7047C18.8893 10.7427 18.6979 10.6258 18.582 10.458C19.0268 9.76804 19.5187 9.22664 19.9538 9.08624C20.5058 8.90737 20.9294 9.06316 21.2352 9.30982L21.2357 9.30934Z" fill="#961E6C"/>
<path d="M34.4115 30.0258C33.1604 29.9786 32.6614 27.1808 32.6614 27.1808C32.72 25.5037 32.3608 23.2453 32.3608 23.2453C32.3902 22.8899 32.3892 22.4394 32.3618 21.9182C32.9181 23.0606 33.7812 24.6079 34.4817 24.869C34.4966 24.9349 35.6544 30.0719 34.411 30.0258H34.4115Z" stroke="black" stroke-width="0.427393" stroke-linecap="round" stroke-linejoin="round"/>
<path d="M29.6102 19.8815C29.8685 19.8815 30.078 19.672 30.078 19.4136C30.078 19.1553 29.8685 18.9458 29.6102 18.9458C29.3518 18.9458 29.1423 19.1553 29.1423 19.4136C29.1423 19.672 29.3518 19.8815 29.6102 19.8815Z" fill="#4C70F5" stroke="black" stroke-width="0.427393" stroke-linecap="round" stroke-linejoin="round"/>
<path d="M30.4675 22.4402C30.9728 22.3131 31.245 21.6639 31.0755 20.9903C30.9061 20.3166 30.3591 19.8735 29.8538 20.0006C29.3486 20.1277 29.0763 20.7768 29.2458 21.4505C29.4153 22.1242 29.9623 22.5673 30.4675 22.4402Z" fill="#4C70F5" stroke="black" stroke-width="0.427393" stroke-linecap="round" stroke-linejoin="round"/>
<path d="M25.082 12.8304C25.0652 12.9261 25.0436 13.0232 24.9864 13.1016C24.9291 13.179 24.8267 13.2314 24.7344 13.202C24.6666 13.1809 24.6195 13.1218 24.5762 13.0665C24.5724 12.9434 24.5666 12.8337 24.5594 12.7395C24.52 12.2284 24.4623 11.7077 24.3377 11.2509H24.3373C24.1271 10.4845 23.7285 9.89643 22.9049 9.83344C22.7015 9.81757 22.5241 9.83921 22.3698 9.88681C22.3861 9.80411 22.4222 9.72477 22.4736 9.65794L22.4241 9.66371C22.7236 9.36993 23.1847 9.27136 23.5934 9.36608C24.0016 9.46177 24.3565 9.73391 24.6012 10.0743C24.846 10.4152 24.9888 10.8206 25.0691 11.2326C25.171 11.7586 25.1753 12.3029 25.082 12.8299V12.8304Z" fill="#450832"/>
<path d="M20.7135 8.76631C20.4101 8.65284 20.0677 8.67111 19.76 8.7716C19.4518 8.87209 19.1744 9.04951 18.92 9.25001C18.0993 9.89767 17.4905 10.8088 17.2059 11.8147C17.1737 11.9282 17.1496 12.0628 17.2247 12.1542C17.3059 12.2532 17.4689 12.2431 17.5732 12.1681C17.6771 12.0931 17.7367 11.9734 17.7944 11.8589C18.1411 11.169 18.5508 10.5112 19.0162 9.89527C19.1994 9.65342 19.3936 9.41541 19.6345 9.23078C19.8701 9.05095 20.16 8.92065 20.461 8.92402C20.6255 8.92546 20.7596 8.97739 20.9082 9.03845C20.9784 9.0673 21.0774 9.11971 21.1476 9.08125C21.0789 8.93315 20.8611 8.82112 20.7135 8.76631Z" fill="#450832"/>
<path d="M21.8701 10.187C21.4696 10.5837 21.3802 11.1612 21.3802 11.1612C20.4263 11.3472 19.7959 11.6631 19.7959 11.6631C19.7959 11.6631 19.7959 11.6636 19.7954 11.6641C19.7954 11.6646 19.7945 11.666 19.793 11.6679C19.7618 11.7103 19.5055 12.0588 19.1223 12.6305C18.6458 11.4328 17.838 11.8814 17.8145 11.8949C18.3775 10.6198 19.2415 9.31722 19.9546 9.08643C21.1763 8.68975 21.7644 9.93603 21.8567 10.1553C21.8581 10.1779 21.8596 10.1918 21.8596 10.1947C21.8625 10.1918 21.8653 10.1889 21.8692 10.1856C21.8697 10.1861 21.8701 10.1865 21.8701 10.187Z" stroke="black" stroke-width="0.427393" stroke-linecap="round" stroke-linejoin="round"/>
<path d="M21.9993 9.24922C21.845 9.64397 21.8507 10.0325 21.857 10.156C21.7647 9.93679 21.1766 8.69051 19.9549 9.08719C18.6514 9.50935 16.8411 13.516 17.2911 14.382C16.6252 15.3133 15.5789 16.5721 15.0847 16.0893C14.3274 15.3513 16.6113 9.29009 18.9072 8.25153C21.1834 7.22114 21.9762 9.1896 21.9998 9.24874L21.9993 9.24922Z" stroke="black" stroke-width="0.427393" stroke-linecap="round" stroke-linejoin="round"/>
<path d="M26.1347 19.8755C26.0501 20.277 25.9309 20.5462 25.7693 20.6217C24.8009 21.0737 24.3062 17.3699 24.3062 17.3699C24.4187 16.7021 24.4947 15.8856 24.5379 15.1082C24.5408 15.0562 24.5437 15.0048 24.5466 14.9533C24.5471 14.9471 24.5476 14.9404 24.5476 14.9336C24.5476 14.9312 24.548 14.9288 24.548 14.9259C24.5495 14.8956 24.5509 14.8654 24.5524 14.8355C24.573 14.385 24.5836 13.9552 24.5836 13.5845C24.5846 13.2421 24.5754 12.9503 24.5591 12.7387C24.5197 12.2276 24.462 11.7069 24.3374 11.2501H24.337C24.1268 10.4837 23.7282 9.89563 22.9046 9.83264C22.6209 9.81052 22.3882 9.86101 22.1978 9.95236C22.1867 9.95765 22.1757 9.96342 22.1656 9.96871C22.1545 9.97448 22.1435 9.98073 22.1329 9.9865C22.1161 9.99564 22.1002 10.0048 22.0843 10.0153C22.0834 10.0158 22.0829 10.0163 22.0819 10.0168C22.0689 10.025 22.056 10.0331 22.0435 10.0428C21.98 10.0855 21.9218 10.1336 21.8689 10.1851C21.8656 10.1884 21.8627 10.1913 21.8593 10.1947C21.8593 10.1918 21.8579 10.1779 21.8564 10.1553C21.8502 10.0317 21.8444 9.6432 21.9987 9.24844C22.192 8.75561 22.6339 8.25459 23.633 8.25075C23.9927 8.24931 24.3047 8.34691 24.573 8.51376C25.4842 9.0792 25.9015 10.4481 26.0174 11.4852C26.1424 12.6041 26.5583 17.8796 26.1347 19.875V19.8755Z" stroke="black" stroke-width="0.427393" stroke-linecap="round" stroke-linejoin="round"/>
<path d="M28.4189 15.7353C27.1443 14.8708 26.3077 16.1839 26.3077 16.1839C26.2605 14.1871 26.0899 12.1349 26.0173 11.4854C25.9014 10.4482 25.484 9.07983 24.5729 8.51391C24.5729 8.51391 25.12 7.87009 25.9062 7.9903C26.2673 8.04463 26.6789 8.26004 27.1106 8.77259C27.2217 8.90433 27.3251 9.07743 27.4212 9.28514C27.9977 10.5266 28.3141 13.0139 28.4093 15.443C28.4132 15.5406 28.417 15.6382 28.4199 15.7348L28.4189 15.7353Z" stroke="black" stroke-width="0.427393" stroke-linecap="round" stroke-linejoin="round"/>
</g>
<defs>
<clipPath id="clip0_1836_11692">
<rect y="0.000244141" width="48" height="48" rx="24" fill="white"/>
</clipPath>
</defs>
</svg>
