<svg width="48" height="48" viewBox="0 0 48 48" fill="none" xmlns="http://www.w3.org/2000/svg">
<g clip-path="url(#clip0_1836_21872)">
<rect width="48" height="48" rx="24" fill="#FBDFB1"/>
<path d="M29.9217 31.3173C29.9217 31.3173 28.6586 33.1266 26.6416 34.9907C24.9645 36.5395 23.7427 37.0491 23.8476 37.3838L23.5778 37.2006C23.2538 36.7005 20.3087 32.1496 20.2087 32.0823C20.378 30.5158 20.34 27.3236 20.34 27.3236C18.6278 27.9285 16.8507 28.0761 15.527 27.0188C10.9443 23.3588 16.7166 14.0362 18.4129 11.511C18.4249 11.5519 19.0101 13.5093 19.763 13.8857C20.5232 14.2656 21.8368 14.1276 22.5623 14.6459C23.2884 15.1642 23.3917 16.5812 23.8759 16.9962C24.3596 17.4111 26.33 17.7568 26.5719 18.3785C26.8137 19.0007 26.3642 20.1758 27.021 20.7292C27.6778 21.2822 28.4379 20.9018 28.7836 21.8005C29.1293 22.6991 28.0263 23.9262 28.7173 24.6863C29.4087 25.4465 29.9112 25.7004 29.8424 26.863C29.7732 28.0261 28.7485 29.3109 29.3707 30.3826C29.5462 30.685 29.7357 30.9976 29.9217 31.3173Z" fill="#CC927A" stroke="black" stroke-width="0.427393" stroke-linecap="round" stroke-linejoin="round"/>
<path d="M47.9817 38.1709C47.9446 38.5425 42.7032 47.4266 42.3686 47.6867C42.2147 47.8064 38.487 49.6033 34.4818 51.5155C33.1028 52.1737 31.6911 52.8459 30.3809 53.4681C33.0186 49.5032 36.2661 44.321 36.2661 43.9474C36.2661 43.3348 33.4177 42.3237 33.3259 41.9871C33.2335 41.6501 36.5416 39.7205 36.4497 39.2306C36.4247 39.0984 36.1473 38.5238 35.7122 37.7655C35.4165 37.2487 35.0472 36.6472 34.6361 36.0413C35.3943 36.0807 36.3228 36.6625 37.2513 36.6625C37.395 36.6625 37.558 36.6558 37.7321 36.6452C38.6855 36.588 39.9712 36.4125 40.2924 36.5587C40.6728 36.7318 41.9517 38.1487 42.9196 37.6304C43.887 37.1116 44.44 36.7318 44.5438 36.3861C44.5635 36.3197 44.5506 36.1764 44.5183 35.9822C45.0213 36.111 45.3218 36.1904 45.3425 36.2009C45.3992 36.2293 45.805 36.4702 46.2815 36.7775C47.0503 37.2727 48.0047 37.9415 47.9817 38.1709Z" fill="#F5D256" stroke="black" stroke-width="0.427393" stroke-linecap="round" stroke-linejoin="round"/>
<path d="M36.2659 43.9469C36.2659 44.2412 34.2504 47.5199 32.1054 50.8366C31.5275 51.7299 30.9404 52.6262 30.3807 53.4676C29.497 53.8873 28.6589 54.284 27.9093 54.6379C26.9342 55.099 26.1072 55.4885 25.5192 55.763C25.2326 55.249 25.0254 54.8504 25.0254 54.8504C25.0254 54.8504 28.7229 43.8104 30.2562 38.0242C30.6312 36.6082 30.8769 35.5067 30.9067 34.959C30.9265 34.596 30.9375 34.2887 30.9409 34.0291C30.9664 33.9526 30.9846 33.8853 30.9952 33.8276C31.2025 35.0028 30.6495 36.351 31.5828 36.8693C32.204 37.214 33.0084 36.7173 33.7013 36.3567C34.0499 36.1755 34.3701 36.0283 34.6244 36.0399C34.6283 36.0399 34.6321 36.0404 34.636 36.0408C35.0471 36.6467 35.4163 37.2482 35.712 37.7651C36.1472 38.5233 36.4246 39.0979 36.4496 39.2301C36.5415 39.7201 33.2334 41.6496 33.3257 41.9866C33.3416 42.0438 33.4359 42.1198 33.5825 42.2102C34.3008 42.6545 36.2659 43.4382 36.2659 43.9469Z" fill="#F5D256" stroke="black" stroke-width="0.427393" stroke-linecap="round" stroke-linejoin="round"/>
<path d="M19.9812 13.16C20.0379 14.0346 20.4764 14.8775 21.1602 15.4256C21.6117 15.7876 22.154 16.0199 22.6233 16.3593C23.3546 16.8882 23.8902 17.6811 24.1085 18.5567C24.1811 18.849 24.2249 19.1606 24.4028 19.4039C24.7052 19.8169 25.2947 19.902 25.6693 20.2511C26.4871 21.0122 25.8895 22.5172 26.5703 23.4033C26.7439 23.6293 26.9886 23.7942 27.1507 24.0289C27.431 24.4356 27.4142 24.9698 27.392 25.4631C27.2598 28.4067 27.4074 31.5801 29.1773 33.9361C29.4759 34.3333 29.8928 34.7319 30.388 34.6886C30.953 34.6391 31.2953 34.0549 31.5107 33.5303C32.2695 31.6825 32.6527 29.7011 32.8815 27.7167C33.0782 26.0132 33.1614 24.2673 32.7565 22.6008C32.3738 21.0257 31.5727 19.5904 30.8395 18.1451C30.2207 16.9253 29.6163 15.6458 28.5797 14.7534C27.6868 13.9851 26.5506 13.572 25.4418 13.1749C24.6235 12.8816 23.8056 12.5888 22.9873 12.2955C22.0579 11.9627 20.9327 11.6569 20.1596 12.27" fill="#BA735A"/>
<path d="M12.7654 16.8843C12.3967 18.5989 12.1058 20.3414 12.1187 22.0954C12.1317 23.8494 12.4611 25.6241 13.2746 27.1781C13.6631 27.92 14.3281 28.6884 15.1609 28.5961C15.8667 28.5182 16.3648 27.8142 16.4725 27.1127C16.5798 26.4107 16.3942 25.702 16.2543 25.0063C16.0893 24.186 15.9869 23.3508 15.9989 22.5147C16.0461 19.186 17.8563 16.1842 19.2589 13.1647C19.5147 12.6137 19.7618 12.0439 19.8085 11.4386C19.8214 11.2732 19.8142 11.0929 19.7113 10.9626C19.6046 10.8274 19.4214 10.7803 19.2497 10.7635C18.7011 10.7082 18.1525 10.8722 17.6477 11.0938C16.3023 11.6847 15.1686 12.6921 14.2714 13.8556C13.3746 15.0197 12.701 16.3395 12.1086 17.6844" fill="#FFC7B3"/>
<path d="M23.5878 28.4992C22.7844 29.4897 21.6376 30.197 20.3914 30.4696C20.3866 29.5691 20.3918 28.668 20.4077 27.7674C20.4101 27.6227 20.4154 27.4703 20.4899 27.3462C20.5731 27.2087 20.726 27.1318 20.8712 27.0635C21.4934 26.7707 22.1242 26.4966 22.7392 26.1884C23.0556 26.0298 23.3681 25.8629 23.671 25.6797C23.8855 25.5499 24.3321 25.0931 24.5634 25.0681C25.1264 25.0071 24.6702 26.3861 24.5725 26.6832C24.3571 27.341 24.0239 27.9607 23.5878 28.4983V28.4992Z" fill="#B27059"/>
<path d="M30.9408 34.0301C30.9388 34.159 30.9355 34.2994 30.9297 34.4523C30.9244 34.6081 30.9167 34.7768 30.9066 34.96C30.7537 37.7473 25.0253 54.8515 25.0253 54.8515H24.3867C24.3867 54.8515 18.7352 38.7378 18.2866 35.2942C18.2736 35.1976 18.2655 35.111 18.2611 35.035C18.2169 34.2292 18.239 33.6931 18.2933 33.3382C18.3655 33.3248 18.4357 33.3113 18.5039 33.2979C18.4799 33.4623 18.7299 34.3066 19.0963 35.3841C19.8935 37.7305 21.2422 41.1837 21.511 41.1424C21.6057 41.128 21.8076 40.939 22.0519 40.6496C22.8159 39.7418 23.9925 37.8416 23.577 37.2011L23.8468 37.3843C23.8468 37.3843 25.0041 41.2251 25.7426 41.2746C26.3071 41.3121 28.9415 37.7084 30.2556 35.4211C30.3936 35.1812 30.5167 34.9557 30.6215 34.7504C30.7667 34.4667 30.8763 34.2215 30.9408 34.0301Z" fill="#C9C4FE" stroke="black" stroke-width="0.427393" stroke-linecap="round" stroke-linejoin="round"/>
<path d="M30.9302 34.4521C30.9249 34.6079 30.9172 34.7767 30.9071 34.9599C30.7542 37.7472 25.0258 54.8513 25.0258 54.8513H24.3872C24.3872 54.8513 18.7357 38.7377 18.2871 35.2941C18.3914 35.0873 18.5049 34.8854 18.627 34.6887C18.7838 34.92 18.9405 35.1517 19.0968 35.384C19.968 36.6793 20.8167 37.9924 21.4975 39.3959C21.6975 39.8075 21.8822 40.2258 22.0524 40.6494C23.077 43.1958 23.5891 45.9408 23.7978 48.6839C23.8506 49.3791 23.993 50.2283 24.6512 50.4586C27.6063 45.9793 27.9578 40.2686 30.2561 35.421C30.2878 35.3537 30.32 35.2864 30.3527 35.2191C30.4316 35.0565 30.5143 34.894 30.622 34.7503C30.6547 34.7065 30.6893 34.6642 30.7273 34.6248C30.7898 34.5594 30.8581 34.5022 30.9302 34.4521Z" fill="#A2A0F2"/>
<path d="M24.6963 7.38838C25.9344 6.72389 27.5687 6.89026 28.6472 7.79083C28.8429 7.95431 29.0246 8.14182 29.2535 8.2553C29.9199 8.58706 30.7527 8.20193 31.4551 8.44859C32.0081 8.64284 32.3798 9.25588 32.2966 9.83574C32.249 10.1661 32.073 10.4916 32.1485 10.8166C32.2725 11.3503 32.9606 11.5075 33.5068 11.4619C34.053 11.4167 34.6646 11.2936 35.1007 11.6253C35.5738 11.985 35.5815 12.6981 35.4233 13.2712C35.2647 13.8438 34.9839 14.4069 35.0353 14.9988C35.8854 15.4445 37.1129 14.7867 37.8111 15.4459C38.3246 15.9311 38.1558 16.7701 37.9563 17.4476C37.7567 18.125 37.6125 18.9766 38.1496 19.4353C38.7342 19.9348 39.7324 19.5901 40.3233 20.082C40.9643 20.6157 40.6522 21.6302 40.4012 22.4255C40.1142 23.3366 39.982 24.2963 40.0132 25.2512C40.0214 25.5017 40.0464 25.7686 40.1998 25.9672C40.4272 26.2629 40.8594 26.3076 41.2273 26.2432C41.5946 26.1787 41.9509 26.0311 42.324 26.0345C43.2092 26.0427 43.8751 26.9086 44.0535 27.7755C44.2319 28.6429 44.0684 29.5396 44.0761 30.4248C44.0795 30.8379 44.2372 31.3696 44.6497 31.3817C44.7868 32.2327 43.8588 33.0809 44.2122 33.867C44.3098 34.0843 44.493 34.2497 44.6267 34.4469C44.9459 34.9195 44.945 35.5869 44.6238 36.0581C44.3026 36.5293 43.6814 36.7745 43.1251 36.6495" stroke="black" stroke-width="0.427393" stroke-linecap="round" stroke-linejoin="round"/>
<path d="M23.8625 6.81661C25.1007 6.15212 26.735 6.31848 27.8134 7.21905C28.0091 7.38253 28.1909 7.57005 28.4197 7.68352C29.0862 8.01528 29.9189 7.63015 30.6214 7.87681C31.1743 8.07106 31.546 8.6841 31.4628 9.26397C31.4152 9.59429 31.2392 9.9198 31.3147 10.2448C31.4388 10.7785 32.1268 10.9358 32.673 10.8901C33.2193 10.8449 33.8309 10.7218 34.267 11.0536C34.7401 11.4132 34.7478 12.1263 34.5896 12.6994C34.4309 13.2721 34.1501 13.8351 34.2016 14.427C35.0517 14.8727 36.2792 14.2149 36.9773 14.8741C37.4908 15.3593 37.3221 16.1983 37.1225 16.8758C36.923 17.5533 36.7787 18.4048 37.3158 18.8635C37.9005 19.3631 38.8987 19.0183 39.4896 19.5102C40.1305 20.0439 39.8185 21.0584 39.5675 21.8537C39.2804 22.7648 39.1482 23.7246 39.1795 24.6795C39.1876 24.93 39.2126 25.1968 39.366 25.3954C39.5935 25.6911 40.0257 25.7358 40.3935 25.6714C40.7609 25.607 41.1172 25.4593 41.4903 25.4627C42.3755 25.4709 43.0414 26.3368 43.2198 27.2037C43.3982 28.0711 43.2347 28.9679 43.2424 29.8531C43.2457 30.2661 43.4034 30.7979 43.816 30.8099C43.953 31.6609 43.025 32.5091 43.3784 33.2952C43.4761 33.5126 43.6592 33.678 43.7929 33.8751C44.1122 34.3477 44.1112 35.0151 43.79 35.4863C43.4688 35.9575 42.8476 36.2027 42.2913 36.0777" stroke="black" stroke-width="0.427393" stroke-linecap="round" stroke-linejoin="round"/>
<path d="M14.4688 9.68147C13.9731 9.38865 13.3043 9.57425 12.884 9.96804C12.4638 10.3618 12.2388 10.9167 12.0469 11.4595C11.8551 12.0024 11.6767 12.5654 11.3199 13.0174C10.7891 13.6891 9.91497 14.0473 9.45963 14.7728C8.81342 15.8023 9.2298 17.1692 8.8966 18.3381C8.65667 19.1795 8.03545 19.883 7.85563 20.7388C7.50078 22.426 8.9341 24.2382 8.22826 25.8115C7.96958 26.3889 7.4604 26.8125 7.11565 27.3429C6.64878 28.0607 6.50405 28.98 6.72763 29.807C6.83245 30.1946 7.01516 30.5725 6.99977 30.9735C6.98727 31.3086 6.83678 31.6217 6.68916 31.9226C6.36942 32.5761 6.04968 33.23 5.72993 33.8834C5.5953 34.158 5.45827 34.4455 5.45923 34.7513C5.46116 35.2941 5.8862 35.7298 6.28239 36.1014C6.41894 36.2298 6.56367 36.3625 6.74542 36.4096C6.9714 36.4683 7.20652 36.3827 7.42385 36.2986C8.23115 35.9865 9.03844 35.674 9.84573 35.3619" stroke="black" stroke-width="0.427393" stroke-linecap="round" stroke-linejoin="round"/>
<path d="M15.5635 8.22078C15.0678 7.92796 14.399 8.11355 13.9787 8.50734C13.5585 8.90113 13.3335 9.456 13.1416 9.99884C12.9498 10.5417 12.7714 11.1047 12.4146 11.5567C11.8838 12.2284 11.0097 12.5866 10.5544 13.3122C9.90814 14.3416 10.3245 15.7085 9.99132 16.8774C9.7514 17.7188 9.13018 18.4223 8.95035 19.2781C8.59551 20.9653 10.0288 22.7775 9.32299 24.3508C9.06431 24.9282 8.55512 25.3518 8.21038 25.8822C7.7435 26.6 7.59878 27.5194 7.82236 28.3464C7.92717 28.7339 8.10988 29.1118 8.0945 29.5128C8.082 29.848 7.9315 30.161 7.78389 30.462C7.46415 31.1154 7.1444 31.7693 6.82466 32.4227C6.69003 32.6973 6.553 32.9848 6.55396 33.2906C6.55588 33.8334 6.98093 34.2691 7.37712 34.6407C7.51367 34.7691 7.6584 34.9018 7.84015 34.9489C8.06613 35.0076 8.30125 34.922 8.51858 34.8379C9.32587 34.5258 10.1332 34.2133 10.9405 33.9012" stroke="black" stroke-width="0.427393" stroke-linecap="round" stroke-linejoin="round"/>
<path d="M18.855 10.8716C18.855 10.8716 18.6871 11.1019 18.4126 11.5106" stroke="black" stroke-width="0.427393" stroke-linecap="round" stroke-linejoin="round"/>
<path d="M24.8018 24.8621C23.7392 25.6333 22.0732 26.7122 20.3403 27.3234" stroke="black" stroke-width="0.427393" stroke-linecap="round" stroke-linejoin="round"/>
<path d="M44.5189 35.9824C44.4973 35.8525 44.4675 35.6996 44.4329 35.5314C44.2497 34.6385 43.9415 33.3215 44.1299 32.757C44.4064 31.9276 44.6483 30.8905 43.715 30.4068C42.7817 29.9231 42.6091 29.5428 42.6437 28.471C42.6702 27.6349 42.2552 26.7987 41.71 25.9458C41.5566 25.7058 41.3931 25.465 41.2263 25.2221C41.1772 25.151 41.1349 25.0827 41.0969 25.0164C40.5541 24.0514 41.1561 23.5614 40.6387 22.5262C40.5262 22.3012 40.3796 22.1238 40.2166 21.9742C39.578 21.3886 38.6895 21.2371 38.6342 20.3837C38.6299 20.3178 38.627 20.2495 38.6255 20.1798C38.5986 19.1153 38.8208 17.6449 37.9774 16.9963C37.8827 16.9232 37.7913 16.8521 37.7043 16.7809C36.9768 16.1929 36.5085 15.664 36.2287 14.7937C36.2239 14.7793 36.2191 14.7648 36.2147 14.7499C35.9051 13.7518 35.8695 12.9594 34.7429 12.4747C34.7381 12.4728 34.7333 12.4704 34.7285 12.4685C34.3117 12.2915 34.0934 11.9674 33.9472 11.5996C33.6928 10.9611 33.6558 10.1928 33.1731 9.84175C32.9274 9.66289 32.6346 9.61817 32.322 9.60615C31.6672 9.58115 30.9238 9.70232 30.3391 9.04696C30.1329 8.81617 29.9704 8.58345 29.829 8.36228C29.3765 7.65644 29.1405 7.06888 28.4039 7.04243C28.062 7.03041 27.6509 7.10446 27.2307 7.18812C26.5907 7.3165 25.9291 7.46796 25.454 7.3742C25.3574 7.35496 25.2684 7.32612 25.1891 7.28429C24.4636 6.90396 24.5669 6.14379 23.6341 6.42026C23.0081 6.60585 22.584 6.82222 22.2268 7.02849C22.0513 7.12946 21.8921 7.22803 21.733 7.3189C21.733 7.3189 20.266 5.75048 19.2986 6.36112C18.3307 6.97127 17.2806 8.02138 16.8868 8.10889C16.771 8.13485 16.5753 8.13774 16.3445 8.14254C15.792 8.15408 15.0391 8.1762 14.6996 8.54643C14.2183 9.07148 13.912 10.5284 13.3437 10.8717C12.7749 11.215 11.1997 12.3088 10.981 12.8776C10.7622 13.446 10.981 14.1898 10.6747 14.9774C10.3684 15.7649 9.40628 17.1208 9.14375 17.8647C8.88122 18.6085 9.84382 19.5273 9.58129 20.3582C9.31877 21.1895 8.53119 22.5022 8.48743 23.1147C8.47878 23.2388 8.48743 23.3628 8.50667 23.4941C8.58023 24.0076 8.80189 24.6235 8.66245 25.7395C8.63024 25.9982 8.56484 26.2343 8.47926 26.4526C8.10182 27.4171 7.32578 28.0364 7.21856 28.7143C7.16567 29.0499 7.31905 29.4567 7.50128 29.8769C7.77053 30.4982 8.10134 31.1497 7.91863 31.6454C7.91863 31.6454 7.90661 31.6521 7.88449 31.6656C7.68591 31.7843 6.68052 32.4108 6.56272 33.0018C6.49733 33.3278 6.78197 33.8446 7.03633 34.3634C7.24548 34.7899 7.43444 35.2174 7.39213 35.5395C10.0693 34.7702 13.9942 34.1067 16.7594 33.6167C17.0046 33.3864 17.2498 33.1874 17.4898 33.0321C17.8855 32.7758 18.2677 32.6373 18.6173 32.6681C18.6937 32.6489 18.7514 32.6883 18.7514 32.6883C19.0611 32.1767 19.6174 31.6853 20.2088 32.0824C20.378 30.5159 20.3401 27.3238 20.3401 27.3238C18.6279 27.9287 16.8508 28.0763 15.5271 27.019C13.7101 25.5679 13.5211 23.2268 14.0601 20.7722C14.8804 17.0353 17.3893 13.0353 18.4129 11.5112C18.425 11.552 19.0101 13.5094 19.7631 13.8859C20.5233 14.2658 21.8368 14.1278 22.5624 14.6461C23.2884 15.1644 23.3918 16.5814 23.876 16.9963C24.3597 17.4113 26.3301 17.757 26.5719 18.3787C26.8138 19.0008 26.3642 20.176 27.021 20.7294C27.6778 21.2823 28.438 20.902 28.7837 21.8006C29.1294 22.6993 28.0264 23.9263 28.7173 24.6865C29.4088 25.4467 29.9112 25.7006 29.8425 26.8632C29.7732 28.0263 28.7486 29.311 29.3708 30.3828C29.5463 30.6852 29.7357 30.9977 29.9218 31.3175C29.9391 31.3468 29.9564 31.3766 29.9732 31.4069C30.1766 31.7579 30.3738 32.1166 30.5425 32.4786C30.7099 32.8373 30.8493 33.1989 30.9387 33.5595C30.9613 33.6494 30.9801 33.7389 30.9959 33.8283C31.2032 35.0034 30.6502 36.3516 31.5835 36.8699C32.5168 37.3883 33.8645 36.0059 34.6251 36.0405C34.629 36.0405 34.6328 36.041 34.6367 36.0415C35.3949 36.0809 36.3234 36.6627 37.2519 36.6627C38.1803 36.6627 39.9132 36.3862 40.293 36.5589C40.6733 36.732 41.9523 38.1489 42.9202 37.6306C43.8876 37.1118 44.4406 36.732 44.5444 36.3862C44.5641 36.3199 44.5511 36.1766 44.5189 35.9824ZM30.6618 32.6883C30.6618 32.6883 30.7161 32.6181 30.7767 32.6695C30.7377 32.6739 30.6998 32.6796 30.6618 32.6883Z" fill="#3D0027" stroke="black" stroke-width="0.427393" stroke-linecap="round" stroke-linejoin="round"/>
<path d="M44.5189 35.9824C44.4973 35.8525 44.4675 35.6996 44.4329 35.5314C44.2497 34.6385 43.9415 33.3215 44.1299 32.757C44.4064 31.9276 44.6483 30.8905 43.715 30.4068C42.7817 29.9231 42.6091 29.5428 42.6437 28.471C42.6702 27.6349 42.2552 26.7987 41.71 25.9458C41.5566 25.7058 41.3931 25.465 41.2263 25.2221C41.1772 25.151 41.1349 25.0827 41.0969 25.0164C40.5541 24.0514 41.1561 23.5614 40.6387 22.5262C40.5262 22.3012 40.3796 22.1238 40.2166 21.9742C39.578 21.3886 38.6895 21.2371 38.6342 20.3837C38.6299 20.3178 38.627 20.2495 38.6255 20.1798C38.5986 19.1153 38.8208 17.6449 37.9774 16.9963C37.8827 16.9232 37.7913 16.8521 37.7043 16.7809C36.9768 16.1929 36.5085 15.664 36.2287 14.7937C36.2239 14.7793 36.2191 14.7648 36.2147 14.7499C35.9051 13.7518 35.8695 12.9594 34.7429 12.4747C34.7381 12.4728 34.7333 12.4704 34.7285 12.4685C34.3117 12.2915 34.0934 11.9674 33.9472 11.5996C33.6928 10.9611 33.6558 10.1928 33.1731 9.84175C32.9274 9.66289 32.6346 9.61817 32.322 9.60615C31.6672 9.58115 30.9238 9.70232 30.3391 9.04696C30.1329 8.81617 29.9704 8.58345 29.829 8.36228C29.3765 7.65644 29.1405 7.06888 28.4039 7.04243C28.062 7.03041 27.6509 7.10446 27.2307 7.18812C26.5907 7.3165 25.9291 7.46796 25.454 7.3742C25.3574 7.35496 25.2684 7.32612 25.1891 7.28429C24.4636 6.90396 24.5669 6.14379 23.6341 6.42026C23.0081 6.60585 22.584 6.82222 22.2268 7.02849C22.0513 7.12946 21.8921 7.22803 21.733 7.3189C21.733 7.3189 20.266 5.75048 19.2986 6.36112C18.3307 6.97127 17.2806 8.02138 16.8868 8.10889C16.771 8.13485 16.5753 8.13774 16.3445 8.14254C15.792 8.15408 15.0391 8.1762 14.6996 8.54643C14.2183 9.07148 13.912 10.5284 13.3437 10.8717C12.7749 11.215 11.1997 12.3088 10.981 12.8776C10.7622 13.446 10.981 14.1898 10.6747 14.9774C10.3684 15.7649 9.40628 17.1208 9.14375 17.8647C8.88122 18.6085 9.84382 19.5273 9.58129 20.3582C9.31877 21.1895 8.53119 22.5022 8.48743 23.1147C8.47878 23.2388 8.48743 23.3628 8.50667 23.4941C8.58023 24.0076 8.80189 24.6235 8.66245 25.7395C8.63024 25.9982 8.56484 26.2343 8.47926 26.4526C8.10182 27.4171 7.32578 28.0364 7.21856 28.7143C7.16567 29.0499 7.31905 29.4567 7.50128 29.8769C7.77053 30.4982 8.10134 31.1497 7.91863 31.6454C7.91863 31.6454 7.90661 31.6521 7.88449 31.6656C7.68591 31.7843 6.68052 32.4108 6.56272 33.0018C6.49733 33.3278 6.78197 33.8446 7.03633 34.3634C7.24548 34.7899 7.43444 35.2174 7.39213 35.5395C10.0693 34.7702 13.9942 34.1067 16.7594 33.6167C17.0046 33.3864 17.2498 33.1874 17.4898 33.0321C17.8855 32.7758 18.2677 32.6373 18.6173 32.6681C18.6937 32.6489 18.7514 32.6883 18.7514 32.6883C19.0611 32.1767 19.6174 31.6853 20.2088 32.0824C20.378 30.5159 20.3401 27.3238 20.3401 27.3238C18.6279 27.9287 16.8508 28.0763 15.5271 27.019C13.7101 25.5679 13.5211 23.2268 14.0601 20.7722C14.8804 17.0353 17.3893 13.0353 18.4129 11.5112C18.4192 11.5318 18.575 12.0535 18.8264 12.6089C19.0669 13.1397 19.3948 13.7022 19.7631 13.8859C20.1982 14.1032 20.8146 14.1508 21.3979 14.2494C21.834 14.3225 22.2518 14.4244 22.5624 14.6461C22.9557 14.9269 23.1663 15.4716 23.3538 15.9779C23.5125 16.4059 23.6543 16.8059 23.876 16.9963C24.2885 17.3502 25.7839 17.6541 26.3637 18.1214C26.4638 18.2022 26.5364 18.2873 26.5719 18.3787C26.6219 18.507 26.6426 18.659 26.6493 18.8244C26.6753 19.4595 26.4998 20.2904 27.021 20.7294C27.6778 21.2823 28.438 20.902 28.7837 21.8006C29.1294 22.6993 28.0264 23.9263 28.7173 24.6865C29.4088 25.4467 29.9112 25.7006 29.8425 26.8632C29.7732 28.0263 28.7486 29.311 29.3708 30.3828C29.5463 30.6852 29.7357 30.9977 29.9218 31.3175C29.9391 31.3468 29.9564 31.3766 29.9732 31.4069C30.1766 31.7579 30.3738 32.1166 30.5425 32.4786C30.7099 32.8373 30.8493 33.1989 30.9387 33.5595C30.958 33.6369 30.9748 33.7139 30.9892 33.7908C30.9916 33.8033 30.9935 33.8158 30.9959 33.8283C31.2032 35.0034 30.6502 36.3516 31.5835 36.8699C32.5168 37.3883 33.8645 36.0059 34.6251 36.0405C34.629 36.0405 34.6328 36.041 34.6367 36.0415C35.3949 36.0809 36.3234 36.6627 37.2519 36.6627C38.1803 36.6627 39.9132 36.3862 40.293 36.5589C40.6733 36.732 41.9523 38.1489 42.9202 37.6306C43.8876 37.1118 44.4406 36.732 44.5444 36.3862C44.5641 36.3199 44.5511 36.1766 44.5189 35.9824ZM30.6618 32.6883C30.6618 32.6883 30.7161 32.6181 30.7767 32.6695C30.7377 32.6739 30.6998 32.6796 30.6618 32.6883Z" fill="#3D0027" stroke="black" stroke-width="0.427393" stroke-linecap="round" stroke-linejoin="round"/>
<path d="M24.387 54.8515C24.387 54.8515 24.1149 55.3751 23.7629 55.9959C22.9465 55.7699 21.5795 55.3776 20.0078 54.9208C17.2796 50.9112 13.1465 44.3697 13.1465 43.948C13.1465 43.3355 15.9948 42.3243 16.0867 41.9877C16.1785 41.6507 12.871 39.7212 12.9628 39.2312C13.0292 38.8764 14.9106 35.3505 16.7589 33.6172C17.0233 33.3691 17.2873 33.1575 17.545 32.9974C17.9205 32.7637 18.2835 32.6392 18.6167 32.6685C18.5114 32.695 18.3701 32.833 18.2936 33.3383C18.2393 33.6932 18.2172 34.2293 18.2614 35.0351C18.3533 36.7098 20.5463 43.5264 22.282 48.7009C23.4355 52.1388 24.387 54.8515 24.387 54.8515Z" fill="#F5D256" stroke="black" stroke-width="0.427393" stroke-linecap="round" stroke-linejoin="round"/>
<path d="M18.751 32.6881C18.6158 32.9112 18.5279 33.1386 18.5043 33.2973C18.436 33.3107 18.3658 33.3242 18.2937 33.3377C18.3702 32.8323 18.5115 32.6943 18.6168 32.6679C18.6933 32.6487 18.751 32.6881 18.751 32.6881Z" stroke="black" stroke-width="0.427393" stroke-linecap="round" stroke-linejoin="round"/>
<path d="M30.776 32.6697C30.7371 32.6741 30.6991 32.6798 30.6611 32.6885C30.6611 32.6885 30.7155 32.6183 30.776 32.6697Z" stroke="black" stroke-width="0.427393" stroke-linecap="round" stroke-linejoin="round"/>
<path d="M20.0079 54.9195C18.7621 54.558 17.3879 54.1565 16.056 53.7661C12.6624 52.7713 9.54575 51.8495 9.54575 51.8495L2.52053 39.1737C2.52053 39.1737 2.446 38.3934 4.78758 36.6091C5.27802 36.2355 6.21417 35.8768 7.39169 35.5388C9.62461 34.8973 12.7254 34.329 15.2973 33.8737C15.8094 33.7833 16.3003 33.6972 16.759 33.616C14.9107 35.3493 13.0293 38.8751 12.9629 39.23C12.8711 39.7199 16.1786 41.6495 16.0868 41.9865C15.995 42.3231 13.1466 43.3343 13.1466 43.9468C13.1466 44.3685 17.2797 50.91 20.0079 54.9195Z" fill="#F5D256" stroke="black" stroke-width="0.427393" stroke-linecap="round" stroke-linejoin="round"/>
<path d="M7.88449 31.6648C8.00085 32.1321 8.08066 32.6067 8.00758 33.0784C7.92151 33.6357 7.55272 34.1876 7.03633 34.3627C6.78197 33.8439 6.49733 33.327 6.56272 33.001C6.68052 32.4101 7.68591 31.7836 7.88449 31.6648Z" fill="#6D1151"/>
<path d="M8.47905 26.4524C8.4877 26.739 8.46751 27.0226 8.39202 27.2991C8.20979 27.966 7.71887 28.5194 7.55828 29.1921C7.50443 29.4176 7.48952 29.6469 7.50106 29.8768C7.31883 29.4565 7.16545 29.0498 7.21834 28.7142C7.32557 28.0362 8.10161 27.4169 8.47905 26.4524Z" fill="#6D1151"/>
<path d="M16.344 8.14258C15.5155 9.06334 14.6664 9.97449 13.6634 10.6986C13.0869 11.1145 12.4441 11.4847 12.0637 12.0848C11.5122 12.9556 11.6425 14.0975 11.2483 15.05C10.8343 16.0506 9.85245 16.8261 9.76927 17.9056C9.69234 18.8989 10.4217 19.8462 10.2563 20.8285C10.0775 21.8877 8.95236 22.5238 8.50616 23.4941C8.48741 23.3629 8.47827 23.2388 8.48693 23.1148C8.53068 22.5022 9.31826 21.1896 9.58079 20.3582C9.84332 19.5274 8.88072 18.6085 9.14325 17.8647C9.40577 17.1209 10.3679 15.765 10.6742 14.9774C10.9804 14.1898 10.7617 13.446 10.9804 12.8777C11.1992 12.3089 12.7744 11.215 13.3432 10.8717C13.9115 10.5284 14.2178 9.07152 14.6991 8.54646C15.0385 8.17624 15.7915 8.15412 16.344 8.14258Z" fill="#6D1151"/>
<path d="M22.2815 48.7007C22.1757 48.8459 21.9944 48.944 21.8237 48.8954C21.6761 48.8536 21.5776 48.718 21.4915 48.5911C19.0052 44.9104 17.5223 40.5595 17.244 36.1268C17.1781 35.1642 17.1771 34.1641 17.4656 33.2342C17.4901 33.1549 17.5166 33.076 17.5445 32.9972C17.92 32.7635 18.283 32.639 18.6162 32.6683C18.5109 32.6947 18.3696 32.8327 18.2931 33.3381C18.2388 33.6929 18.2166 34.229 18.2609 35.0349C18.3527 36.7096 20.5457 43.5261 22.2815 48.7007Z" fill="#FFE8A9"/>
<path d="M21.5116 41.1418C21.1192 41.2019 18.4276 33.8204 18.5045 33.2973C18.5281 33.1386 18.6161 32.9112 18.7512 32.6881C19.0479 32.1981 19.571 31.7265 20.1345 32.0371C20.159 32.0505 20.184 32.0654 20.2086 32.0823C20.3004 32.1443 22.7982 35.9976 23.4517 37.0058C23.5084 37.0938 23.5517 37.1602 23.5777 37.2006C24.1253 38.0454 21.9044 41.0812 21.5116 41.1418Z" fill="#49A2A6" stroke="black" stroke-width="0.427393" stroke-linecap="round" stroke-linejoin="round"/>
<path d="M30.9411 34.0299C30.3876 35.6796 26.4488 41.322 25.743 41.2749C25.3458 41.2484 24.827 40.1243 24.4332 39.0915C24.0942 38.2044 23.8471 37.3846 23.8471 37.3846C23.7423 37.0499 24.964 36.5403 26.6411 34.9916C27.2306 34.4468 27.7557 33.9064 28.2038 33.415C29.2885 32.2245 29.9213 31.3181 29.9213 31.3181C29.9386 31.3474 29.9559 31.3773 29.9727 31.4075C30.3987 32.1619 30.7987 33.2621 30.9406 33.6693C30.9425 33.7785 30.9425 33.8977 30.9411 34.0299Z" fill="#49A2A6" stroke="black" stroke-width="0.427393" stroke-linecap="round" stroke-linejoin="round"/>
<path d="M30.9412 34.0288C30.9426 33.8966 30.9426 33.7774 30.9407 33.6687C30.9763 33.7697 30.9955 33.8279 30.9955 33.8279C30.9849 33.8855 30.9666 33.9529 30.9412 34.0288Z" stroke="black" stroke-width="0.427393" stroke-linecap="round" stroke-linejoin="round"/>
<path d="M18.7508 32.6881C18.7066 32.6785 18.6619 32.6717 18.6167 32.6679C18.6931 32.6487 18.7508 32.6881 18.7508 32.6881Z" stroke="black" stroke-width="0.427393" stroke-linecap="round" stroke-linejoin="round"/>
<path d="M30.776 32.6697C30.7371 32.6741 30.6991 32.6798 30.6611 32.6885C30.6611 32.6885 30.7155 32.6183 30.776 32.6697Z" stroke="black" stroke-width="0.427393" stroke-linecap="round" stroke-linejoin="round"/>
<path d="M30.9411 34.0296C30.9426 33.8973 30.9426 33.7781 30.9406 33.6694C30.9406 33.631 30.9392 33.5949 30.9382 33.5598C30.9608 33.6497 30.9796 33.7392 30.9954 33.8286C30.9849 33.8863 30.9666 33.9536 30.9411 34.0296Z" stroke="black" stroke-width="0.427393" stroke-linecap="round" stroke-linejoin="round"/>
<path d="M17.8479 18.1355C17.8479 18.1355 16.6203 20.5103 17.0444 20.8449C17.4685 21.1796 18.5398 19.9746 18.5398 19.9746" stroke="black" stroke-width="0.427393" stroke-linecap="round" stroke-linejoin="round"/>
<path d="M20.1897 23.8607C19.2387 24.455 18.2415 23.4333 18.2415 23.4333C18.2415 23.4333 19.0689 23.4376 19.8334 22.9376C20.5979 22.4375 20.8475 21.8884 20.8475 21.8884C20.8475 21.8884 21.1403 23.2669 20.1897 23.8607Z" fill="#E938B5" stroke="black" stroke-width="0.427393" stroke-linecap="round" stroke-linejoin="round"/>
<path d="M20.8475 21.8874C20.8475 21.8874 20.5979 22.4365 19.8334 22.9366C19.0689 23.4366 18.2415 23.4323 18.2415 23.4323C18.2415 23.4323 18.6828 22.3798 18.9372 22.4307C19.192 22.4817 19.3276 22.6308 19.4296 22.4288C19.5315 22.2273 19.4127 22.0235 19.6671 21.8874C19.9219 21.7518 20.8475 21.8874 20.8475 21.8874Z" fill="#E938B5" stroke="black" stroke-width="0.427393" stroke-linecap="round" stroke-linejoin="round"/>
<path d="M21.0986 21.1592L20.8472 21.8886" stroke="black" stroke-width="0.427393" stroke-linecap="round" stroke-linejoin="round"/>
<path d="M20.6121 21.0311C20.7448 20.9884 20.8924 21.0153 21.0184 21.0759C21.1443 21.1364 21.252 21.2283 21.3573 21.3196C21.4189 21.373 21.4843 21.4341 21.4968 21.5144" stroke="black" stroke-width="0.427393" stroke-linecap="round" stroke-linejoin="round"/>
<path d="M46.2813 36.7779C45.5072 37.8156 44.4027 38.6099 43.1713 39.02C41.8246 39.4686 40.3432 39.4648 38.9805 39.0638C38.6579 38.969 38.342 38.8522 38.0362 38.7137C37.2722 38.368 36.526 37.8838 35.7119 37.766C35.5792 37.7468 35.4446 37.7372 35.3081 37.7396C34.408 37.7555 33.6084 38.2882 32.879 38.8161C32.4871 39.0998 32.0294 39.4013 31.5673 39.3845C31.4831 39.3811 31.3995 39.3676 31.3153 39.3412C30.8788 39.2046 30.6129 38.7709 30.4119 38.3598C30.358 38.2497 30.3061 38.1382 30.2561 38.0252C30.6311 36.6092 30.8768 35.5076 30.9066 34.96C30.9264 34.597 30.9374 34.2897 30.9408 34.0301C30.9663 33.9536 30.9845 33.8863 30.9951 33.8286C31.2024 35.0037 30.6494 36.3519 31.5827 36.8703C32.2039 37.215 33.0083 36.7183 33.7012 36.3577C34.0498 36.1764 34.37 36.0293 34.6243 36.0409C34.6282 36.0409 34.632 36.0413 34.6359 36.0418C35.3941 36.0812 36.3226 36.663 37.251 36.663C37.3948 36.663 37.5578 36.6563 37.7319 36.6457C38.6853 36.5885 39.971 36.413 40.2922 36.5592C40.6725 36.7323 41.9515 38.1492 42.9194 37.6309C43.8868 37.1121 44.4397 36.7323 44.5436 36.3866C44.5633 36.3202 44.5503 36.1769 44.5181 35.9827C45.021 36.1115 45.3216 36.1909 45.3422 36.2014C45.399 36.2298 45.8048 36.4707 46.2813 36.7779Z" fill="#E0B836"/>
<path d="M39.049 40.1032C38.9591 40.309 38.7567 40.4393 38.5653 40.5576C37.6787 41.1033 36.7926 41.6495 35.9064 42.1953C36.5675 42.6333 37.5849 42.6063 37.948 43.3117C38.1263 43.6579 38.0735 44.0743 37.9951 44.4561C37.4595 47.0539 35.9901 49.3008 34.4818 51.5159C33.1028 52.1741 31.6911 52.8463 30.3809 53.4685C33.0186 49.5037 36.2661 44.3214 36.2661 43.9478C36.2661 43.3353 33.4177 42.3241 33.3259 41.9875C33.2335 41.6505 36.5416 39.721 36.4497 39.231C36.4247 39.0988 36.1473 38.5242 35.7122 37.766C35.4165 37.2491 35.0472 36.6476 34.6361 36.0417C35.3943 36.0812 36.3228 36.663 37.2513 36.663C37.395 36.663 37.558 36.6562 37.7321 36.6457C38.2687 37.3977 38.75 38.191 38.9808 39.0637C39.0245 39.2296 39.0591 39.3979 39.0837 39.5695C39.1091 39.7484 39.1212 39.9373 39.049 40.1032Z" fill="#E0B836"/>
<path d="M36.2667 43.9474C36.2667 44.2417 34.2511 47.5204 32.1062 50.837C31.7797 50.9279 31.4355 50.9443 31.1157 50.8394C31.3619 49.7956 31.9735 48.8753 32.6486 48.042C33.3236 47.2088 34.0752 46.4342 34.6728 45.5437C34.8699 45.2504 35.0565 44.8994 34.9599 44.56C34.8368 44.1277 34.3372 43.9484 33.9122 43.8027C33.4866 43.6575 33.0005 43.3868 32.9948 42.9377C32.9904 42.6035 33.2664 42.3487 33.5833 42.2107C34.3016 42.655 36.2667 43.4387 36.2667 43.9474Z" fill="#FFE8A9"/>
<path d="M20.0077 54.9195C18.7619 54.558 17.3878 54.1565 16.0559 53.7661C15.4558 52.9117 14.8856 52.0351 14.3168 51.16C13.5614 49.9989 12.8065 48.8377 12.0512 47.6765C11.7723 47.2481 11.4901 46.8115 11.3415 46.3221C11.1035 45.5393 11.2343 44.6748 11.5853 43.9358C11.9363 43.1967 12.4945 42.5726 13.1123 42.0365C13.2167 41.9466 13.3292 41.8476 13.3556 41.7125C13.41 41.4369 13.0974 41.247 12.845 41.123C11.8988 40.658 11.1078 39.8834 10.6236 38.9473C10.5356 38.7771 10.4558 38.591 10.4751 38.4006C10.4981 38.1741 10.6558 37.9871 10.8092 37.8183C11.5348 37.0187 12.3195 36.2734 13.1542 35.5888C13.8619 35.0084 14.5885 34.4536 15.2972 33.8737C15.8092 33.7833 16.3002 33.6972 16.7589 33.616C14.9106 35.3493 13.0292 38.8751 12.9628 39.23C12.871 39.7199 16.1785 41.6495 16.0867 41.9865C15.9948 42.3231 13.1465 43.3343 13.1465 43.9468C13.1465 44.3685 17.2796 50.91 20.0077 54.9195Z" fill="#E0B836"/>
<path d="M23.4515 37.0059C23.4144 37.3136 23.3553 37.6194 23.2418 37.9069C23.1861 38.0478 23.113 38.1892 22.9908 38.2791C22.7096 38.4863 22.286 38.3257 22.0763 38.0464C21.8667 37.7665 21.8061 37.4074 21.7148 37.0703C21.4917 36.2443 21.0589 35.4937 20.6882 34.7225C20.3564 34.0325 19.8737 33.0348 20.0564 32.2448C20.0742 32.1684 20.1002 32.0991 20.1343 32.0371C20.1588 32.0506 20.1838 32.0655 20.2084 32.0823C20.3002 32.1443 22.798 35.9976 23.4515 37.0059Z" fill="#63BABA"/>
<path d="M47.9817 38.1709C47.9446 38.5425 42.7032 47.4266 42.3686 47.6867C42.1618 47.8478 35.4963 51.0395 30.3809 53.4681C33.0186 49.5032 36.2661 44.321 36.2661 43.9474C36.2661 43.3348 33.4177 42.3237 33.3259 41.9871C33.2335 41.6501 36.5416 39.7205 36.4497 39.2306C36.4079 39.008 35.6511 37.5357 34.6361 36.0413C35.3943 36.0807 36.3228 36.6625 37.2513 36.6625C38.1797 36.6625 39.9126 36.3861 40.2924 36.5587C40.6728 36.7318 41.9517 38.1487 42.9196 37.6304C43.887 37.1116 44.44 36.7318 44.5438 36.3861C44.5635 36.3197 44.5505 36.1764 44.5183 35.9822C45.0213 36.111 45.3218 36.1904 45.3425 36.2009C45.491 36.275 48.0187 37.7992 47.9817 38.1709Z" stroke="black" stroke-width="0.427393" stroke-linecap="round" stroke-linejoin="round"/>
<path d="M36.2659 43.9469C36.2659 44.3205 33.0185 49.5028 30.3807 53.4676C28.3478 54.4326 26.5597 55.2769 25.5192 55.763C25.2326 55.249 25.0254 54.8504 25.0254 54.8504C25.0254 54.8504 30.7539 37.7463 30.9067 34.959C30.9265 34.596 30.9375 34.2887 30.9409 34.0291C30.9664 33.9526 30.9846 33.8853 30.9952 33.8276C31.2025 35.0028 30.6495 36.351 31.5828 36.8693C32.516 37.3876 33.8638 36.0053 34.6244 36.0399C34.6283 36.0399 34.6321 36.0404 34.636 36.0408C35.651 37.5352 36.4078 39.0075 36.4496 39.2301C36.5415 39.7201 33.2334 41.6496 33.3257 41.9866C33.4176 42.3232 36.2659 43.3344 36.2659 43.9469Z" stroke="black" stroke-width="0.427393" stroke-linecap="round" stroke-linejoin="round"/>
<path d="M24.387 54.8516C24.387 54.8516 24.1149 55.3752 23.7629 55.9959C22.9465 55.7699 21.5795 55.3776 20.0078 54.9208C17.2796 50.9112 13.1465 44.3697 13.1465 43.9481C13.1465 43.3355 15.9948 42.3243 16.0867 41.9878C16.1785 41.6507 12.871 39.7212 12.9628 39.2312C13.0292 38.8764 14.9106 35.3505 16.7589 33.6172C17.4089 33.007 18.0552 32.619 18.6167 32.6686C18.5114 32.695 18.3701 32.833 18.2936 33.3383C18.2393 33.6932 18.2172 34.2293 18.2614 35.0351C18.4143 37.8224 24.387 54.8516 24.387 54.8516Z" stroke="black" stroke-width="0.427393" stroke-linecap="round" stroke-linejoin="round"/>
<path d="M20.0079 54.9196C15.5877 53.6362 9.54575 51.8495 9.54575 51.8495L2.52053 39.1737C2.52053 39.1737 2.446 38.3934 4.78758 36.6091C5.27802 36.2355 6.21417 35.8768 7.39169 35.5388C10.0689 34.7695 13.9938 34.1059 16.759 33.616C14.9107 35.3493 13.0293 38.8751 12.9629 39.23C12.8711 39.7199 16.1786 41.6495 16.0868 41.9865C15.995 42.3231 13.1466 43.3343 13.1466 43.9468C13.1466 44.3685 17.2797 50.91 20.0079 54.9196Z" stroke="black" stroke-width="0.427393" stroke-linecap="round" stroke-linejoin="round"/>
<path d="M28.4004 33.8247C28.3374 34.4704 28.2581 35.1566 27.8504 35.6614C27.4022 36.2153 26.6536 36.4293 26.1233 36.9053C25.4506 37.5102 25.2141 38.4449 24.8828 39.2868C24.8674 39.3257 24.8491 39.3676 24.8116 39.3868C24.7467 39.4195 24.6731 39.3642 24.6231 39.3118C24.5587 39.244 24.4952 39.1704 24.4332 39.0916C24.0942 38.2045 23.8471 37.3847 23.8471 37.3847C23.7423 37.05 24.964 36.5404 26.6411 34.9916C27.2306 34.4469 27.7557 33.9064 28.2038 33.415C28.2764 33.4482 28.3422 33.4944 28.3769 33.5641C28.4168 33.6434 28.4091 33.7367 28.4004 33.8247Z" fill="#63BABA"/>
<path d="M25.1894 7.28458C25.2687 7.32641 25.3577 7.35526 25.4543 7.3745C25.4206 7.38411 25.3875 7.39469 25.3543 7.40479C24.4253 7.69376 22.7872 8.17938 22.2271 7.02879C22.5843 6.82252 23.0084 6.60615 23.6344 6.42055C24.5672 6.14408 24.4638 6.90426 25.1894 7.28458Z" fill="#6D1151"/>
<path d="M29.8283 8.36215C29.3211 8.27079 28.8301 8.14145 28.4041 7.86306C28.1541 7.69958 27.9353 7.48946 27.6719 7.34906C27.53 7.27358 27.3819 7.22165 27.23 7.18799C27.6502 7.10433 28.0613 7.03028 28.4032 7.0423C29.1398 7.06875 29.3759 7.65631 29.8283 8.36215Z" fill="#6D1151"/>
<path d="M33.9469 11.5994C33.5782 11.4369 33.1589 11.309 32.8646 11.0503C32.4641 10.6979 32.3482 10.1555 32.3218 9.60596C32.6343 9.61798 32.9271 9.66269 33.1728 9.84156C33.6556 10.1926 33.6926 10.9609 33.9469 11.5994Z" fill="#6D1151"/>
<path d="M36.2145 14.7506C36.2188 14.7655 36.2236 14.7799 36.2284 14.7943C36.1515 14.7482 36.0755 14.7015 36.0005 14.6534C35.3985 14.2669 34.821 13.7086 34.759 12.9961C34.7441 12.8235 34.7605 12.6465 34.7427 12.4753C35.8692 12.96 35.9048 13.7524 36.2145 14.7506Z" fill="#6D1151"/>
<path d="M38.6251 20.1799C37.4764 19.5697 36.9701 17.8854 37.7039 16.781C37.7909 16.8522 37.8823 16.9233 37.977 16.9964C38.8203 17.645 38.5982 19.1154 38.6251 20.1799Z" fill="#6D1151"/>
<path d="M41.0962 25.0163C40.676 24.848 40.1538 24.7403 39.8687 24.4047C39.4398 23.9003 39.7249 23.1367 40.0043 22.5367C40.0855 22.3621 40.1615 22.1698 40.2158 21.9741C40.3788 22.1237 40.5255 22.3011 40.638 22.5261C41.1554 23.5613 40.5534 24.0513 41.0962 25.0163Z" fill="#6D1151"/>
<path d="M44.4324 35.5316C44.2064 35.3835 44.0103 35.1845 43.866 34.958C43.5131 34.4055 43.4246 33.7218 43.4559 33.067C43.4857 32.4318 43.6184 31.7822 43.4496 31.1692C43.202 30.2715 42.376 29.6671 41.9024 28.8656C41.4466 28.0948 41.3369 27.1284 41.6081 26.2749C41.6427 26.1663 41.6836 26.0566 41.7096 25.946C42.2548 26.799 42.6698 27.6352 42.6433 28.4713C42.6087 29.543 42.7813 29.9234 43.7146 30.4071C44.6478 30.8908 44.406 31.9279 44.1295 32.7573C43.941 33.3218 44.2492 34.6387 44.4324 35.5316Z" fill="#6D1151"/>
<path d="M21.5108 41.142C21.1185 41.2021 18.4269 33.8205 18.5038 33.2974C18.5274 33.1387 18.6154 32.9113 18.7505 32.6882C19.0601 32.1766 19.6164 31.6852 20.2078 32.0824C20.3078 32.1497 23.2528 36.7006 23.5769 37.2007C24.1246 38.0455 21.9037 41.0814 21.5108 41.142Z" stroke="black" stroke-width="0.427393" stroke-linecap="round" stroke-linejoin="round"/>
<path d="M30.9411 34.0299C30.3876 35.6796 26.4488 41.322 25.743 41.2749C25.0044 41.2254 23.8471 37.3846 23.8471 37.3846C23.7423 37.0499 24.964 36.5403 26.6411 34.9916C28.6581 33.1274 29.9213 31.3181 29.9213 31.3181C29.9386 31.3474 29.9559 31.3773 29.9727 31.4075C30.3987 32.1619 30.7987 33.2621 30.9406 33.6693C30.9425 33.7785 30.9425 33.8977 30.9411 34.0299Z" stroke="black" stroke-width="0.427393" stroke-linecap="round" stroke-linejoin="round"/>
<path d="M18.5398 11.5996C18.2061 11.9482 18.371 12.9223 18.4677 13.395C18.5162 13.632 18.5706 13.8806 18.7283 14.0643C18.9096 14.2758 19.1932 14.3638 19.4635 14.4307C20.0779 14.5826 20.7069 14.6778 21.3391 14.7139C21.5334 14.7249 21.7324 14.7317 21.9118 14.8062C22.282 14.9605 22.4791 15.3625 22.6027 15.7438C22.7263 16.1251 22.8181 16.5376 23.0903 16.8319C23.6937 17.4843 24.9082 17.2819 25.4352 17.9974C25.7223 18.3873 25.6968 18.9157 25.6833 19.3999C25.6698 19.8841 25.7074 20.4289 26.0684 20.7515C26.4113 21.0583 26.9209 21.0544 27.3806 21.051C27.8403 21.0477 28.361 21.089 28.6533 21.4439C28.9413 21.7929 28.8899 22.306 28.773 22.743C28.6562 23.1801 28.487 23.6316 28.5908 24.072C28.612 24.1619 28.6966 24.2701 28.774 24.2196" stroke="black" stroke-width="0.427393" stroke-linecap="round" stroke-linejoin="round"/>
<path d="M18.4051 11.7554C17.7526 12.4415 17.5747 13.5373 17.9762 14.3951C18.3781 15.2528 19.3335 15.8173 20.2783 15.7553C20.8135 15.7202 21.4236 15.5245 21.8367 15.8668C22.155 16.1308 22.1934 16.5977 22.3814 16.966C22.6305 17.454 23.1498 17.7593 23.684 17.881C24.2181 18.0026 24.7744 17.9671 25.3211 17.9305" stroke="black" stroke-width="0.427393" stroke-linecap="round" stroke-linejoin="round"/>
<path d="M20.2083 32.0825C19.6169 31.6853 19.0606 32.1767 18.7509 32.6883C18.7509 32.6883 18.6932 32.6489 18.6168 32.6681C18.2672 32.6374 17.885 32.7758 17.4892 33.0321C17.4743 32.8499 17.4652 32.6672 17.459 32.4859C17.4421 32.007 17.4397 31.5185 17.2878 31.0636C17.1358 30.6093 16.8012 30.1852 16.3367 30.0659C15.88 29.9486 15.4068 30.1419 14.9361 30.1736C13.8898 30.2434 12.921 29.4683 12.4969 28.5095C12.0728 27.5508 12.1007 26.4516 12.2714 25.4169C12.5392 23.7884 13.1561 22.281 14.0014 20.8703C14.0206 20.8381 14.0403 20.8054 14.0596 20.7722C13.5206 23.2268 13.7095 25.5679 15.5266 27.019C16.8502 28.0763 18.6273 27.9287 20.3395 27.3238C20.3395 27.3238 20.3775 30.516 20.2083 32.0825Z" fill="#210017"/>
<path d="M20.7225 12.8842C21.0759 13.2535 21.223 13.7598 21.3976 14.2492C20.8144 14.1507 20.1979 14.1031 19.7628 13.8857C19.3945 13.7021 19.0666 13.1395 18.8262 12.6087C19.4286 12.2995 20.2465 12.3861 20.7225 12.8842Z" fill="#6D1151"/>
<path d="M26.3637 18.1218C25.7838 17.6544 24.2885 17.3505 23.8759 16.9966C23.6543 16.8062 23.5124 16.4062 23.3538 15.9783C23.6673 16.0663 23.9865 16.1456 24.2851 16.2576C25.1775 16.5918 25.9218 17.2794 26.3637 18.1218Z" fill="#6D1151"/>
<path d="M30.9882 33.7906C30.9738 33.7137 30.9569 33.6368 30.9377 33.5594C30.8483 33.1987 30.7088 32.8372 30.5415 32.4785C30.3727 32.1164 30.1756 31.7577 29.9722 31.4067C29.9554 31.3764 29.9381 31.3466 29.9208 31.3173C29.7347 30.9976 29.5452 30.685 29.3697 30.3826C28.7476 29.3109 29.7722 28.0261 29.8414 26.863C29.9102 25.7004 29.4077 25.4465 28.7163 24.6863C28.0254 23.9262 29.1284 22.6991 28.7827 21.8005C28.437 20.9018 27.6768 21.2822 27.02 20.7292C26.4988 20.2902 26.6743 19.4594 26.6483 18.8242C26.707 19.0223 26.7493 19.2252 26.7738 19.431C26.7921 19.5858 26.8022 19.7459 26.8733 19.8844C27.0767 20.2806 27.6201 20.2931 28.0542 20.3917C29.1529 20.6422 29.9092 21.8952 29.6198 22.9838C29.4832 23.4968 29.1529 23.9642 29.1457 24.495C29.1442 24.608 29.1596 24.7258 29.2202 24.821C29.3366 25.0022 29.5741 25.0494 29.7746 25.1292C30.6155 25.4638 30.9228 26.5303 30.8064 27.428C30.6896 28.3257 30.2708 29.1589 30.1131 30.0503C30.0756 30.2619 30.0535 30.4812 30.1006 30.6908C30.1684 30.9908 30.3689 31.2394 30.5251 31.5039C30.9324 32.1943 31.0319 32.9829 30.9882 33.7906Z" fill="#6D1151"/>
<path d="M44.5189 35.9824C44.3833 35.1606 43.9058 33.4278 44.1299 32.757C44.4064 31.9276 44.6482 30.8905 43.7149 30.4068C42.7817 29.9231 42.6091 29.5428 42.6437 28.471C42.6778 27.3998 41.9869 26.3285 41.2262 25.2221C40.4661 24.1163 41.1916 23.6326 40.6387 22.5262C40.0857 21.4203 38.7034 21.4549 38.6342 20.3837C38.5649 19.3119 38.876 17.6877 37.9774 16.9963C37.0787 16.3049 36.5258 15.752 36.2147 14.7499C35.9036 13.7474 35.869 12.9526 34.7285 12.4685C33.588 11.9848 33.9337 10.3947 33.173 9.84175C32.4129 9.28881 31.2031 10.0148 30.3391 9.04696C29.4751 8.07908 29.3712 7.07705 28.4038 7.04243C27.4359 7.00782 25.9151 7.66461 25.1891 7.28429C24.4635 6.90396 24.5669 6.14379 23.6341 6.42026C22.7008 6.69673 22.2166 7.04243 21.7329 7.3189C21.7329 7.3189 20.266 5.75048 19.2986 6.36112C18.3307 6.97127 17.2806 8.02138 16.8868 8.10889C16.4935 8.1964 15.1808 8.02138 14.6995 8.54643C14.2182 9.07148 13.912 10.5284 13.3436 10.8717C12.7748 11.215 11.1997 12.3088 10.9809 12.8776C10.7621 13.446 10.9809 14.1898 10.6746 14.9774C10.3683 15.7649 9.40622 17.1208 9.14369 17.8647C8.88117 18.6085 9.84376 19.5273 9.58124 20.3582C9.31871 21.1895 8.53113 22.5022 8.48738 23.1147C8.44362 23.7268 8.83741 24.3394 8.6624 25.7395C8.48738 27.1392 7.34976 27.883 7.2185 28.7143C7.08724 29.5457 8.22485 30.814 7.91857 31.6454C7.91857 31.6454 6.69345 32.3455 6.56267 33.0018C6.4439 33.5956 7.48632 34.8255 7.39208 35.5395C10.0693 34.7702 13.9942 34.1067 16.7594 33.6167C17.4094 33.0066 18.0556 32.6186 18.6172 32.6681C18.6937 32.6489 18.7514 32.6883 18.7514 32.6883C19.061 32.1767 19.6173 31.6853 20.2087 32.0824C20.378 30.5159 20.34 27.3238 20.34 27.3238C18.6278 27.9287 16.8507 28.0763 15.527 27.019C10.9444 23.359 16.7166 14.0364 18.4129 11.5112C18.4249 11.552 19.0101 13.5094 19.763 13.8859C20.5232 14.2658 21.8368 14.1278 22.5623 14.6461C23.2884 15.1644 23.3918 16.5814 23.8759 16.9963C24.3596 17.4113 26.33 17.757 26.5719 18.3787C26.8137 19.0008 26.3642 20.176 27.021 20.7294C27.6778 21.2823 28.4379 20.902 28.7836 21.8006C29.1294 22.6993 28.0264 23.9263 28.7173 24.6865C29.4087 25.4467 29.9112 25.7006 29.8424 26.8632C29.7732 28.0263 28.7485 29.311 29.3707 30.3828C29.5462 30.6852 29.7357 30.9977 29.9217 31.3175C29.939 31.3468 29.9564 31.3766 29.9732 31.4069C30.1766 31.7579 30.3737 32.1166 30.5425 32.4786C30.7098 32.8373 30.8492 33.1989 30.9387 33.5595C30.9613 33.6494 30.98 33.7389 30.9959 33.8283C31.2031 35.0034 30.6502 36.3516 31.5834 36.8699C32.5167 37.3883 33.8644 36.0059 34.6251 36.0405C34.6289 36.0405 34.6328 36.041 34.6366 36.0415C35.3949 36.0809 36.3233 36.6627 37.2518 36.6627C38.1803 36.6627 39.9131 36.3862 40.293 36.5589C40.6733 36.732 41.9523 38.1489 42.9202 37.6306C43.8876 37.1118 44.4405 36.732 44.5444 36.3862C44.5641 36.3199 44.5511 36.1766 44.5189 35.9824ZM30.6617 32.6883C30.6617 32.6883 30.716 32.6181 30.7766 32.6695C30.7377 32.6739 30.6997 32.6796 30.6617 32.6883Z" stroke="black" stroke-width="0.427393" stroke-linecap="round" stroke-linejoin="round"/>
<path d="M18.634 16.6316H23.0648V17.4682C23.0648 18.6679 22.0911 19.6415 20.8915 19.6415H20.8078C19.6082 19.6415 18.6345 18.6679 18.6345 17.4682V16.6316H18.634Z" fill="#E86F3A" stroke="black" stroke-width="0.427393" stroke-linecap="round" stroke-linejoin="round"/>
<path d="M12.7043 16.6316H17.1351V17.4682C17.1351 18.6679 16.1614 19.6415 14.9618 19.6415H14.8781C13.6785 19.6415 12.7048 18.6679 12.7048 17.4682V16.6316H12.7043Z" fill="#E86F3A" stroke="black" stroke-width="0.427393" stroke-linecap="round" stroke-linejoin="round"/>
<path d="M17.1357 17.4683C17.1357 17.4683 17.6257 16.6932 18.6349 17.4683" stroke="black" stroke-width="0.427393" stroke-linecap="round" stroke-linejoin="round"/>
</g>
<defs>
<clipPath id="clip0_1836_21872">
<rect width="48" height="48" rx="24" fill="white"/>
</clipPath>
</defs>
</svg>
