<svg width="48" height="48" viewBox="0 0 48 48" fill="none" xmlns="http://www.w3.org/2000/svg">
<g clip-path="url(#clip0_1836_9546)">
<rect y="0.000488281" width="48" height="48" rx="24" fill="#E2E4E9"/>
<path d="M31.1983 17.1417C30.4972 17.9701 29.2899 18.7361 28.5288 19.1722C28.5288 19.1722 28.5321 19.228 28.5379 19.3318C28.5759 19.9718 28.7273 22.4379 28.9538 24.9103C29.0586 26.058 29.1798 27.2066 29.313 28.1745C29.3288 28.2894 29.3447 28.402 29.3611 28.5116C29.4067 28.8198 29.4534 29.1049 29.5015 29.3607C29.5558 29.6521 29.612 29.906 29.6693 30.1117C29.7481 30.3935 29.7895 30.7435 29.7967 31.1436C28.8519 32.6995 26.8118 35.0339 24.4144 34.9973C23.2431 34.98 22.257 34.4723 21.4622 33.7972C20.7107 33.1596 20.1298 32.3725 19.724 31.709V27.111C19.0725 27.3091 18.4027 27.4153 17.746 27.3711C17.3046 27.3413 16.8685 27.2437 16.4482 27.0614C13.2417 25.669 15.4794 16.7902 16.0809 14.8592H16.0814C16.0953 14.8559 16.6795 14.7155 17.6051 14.5251C19.862 14.0611 24.15 13.3 27.143 13.5057C27.6085 13.5375 28.0427 13.5928 28.4331 13.6764H28.4336C28.7158 13.563 28.9942 13.5134 29.2351 13.5832C29.4962 13.6586 29.8505 13.8712 30.2006 14.1664C30.2275 14.189 30.2549 14.2126 30.2818 14.2361C31.1516 15.0011 31.9517 16.2512 31.1983 17.1417Z" fill="#CC927A" stroke="black" stroke-width="0.427393" stroke-linecap="round" stroke-linejoin="round"/>
<mask id="mask0_1836_9546" style="mask-type:luminance" maskUnits="userSpaceOnUse" x="1" y="31" width="47" height="22">
<path d="M47.5786 39.2148C47.5786 39.2148 38.521 53.0296 24.6869 52.0031C10.8528 50.9765 1.41248 39.2148 1.41248 39.2148C1.41248 39.2148 4.60078 36.6064 6.10766 35.5053C6.95678 34.885 9.16566 34.4302 11.0634 34.0133C12.5357 33.6902 13.82 33.3902 14.1363 33.0531C14.8609 32.2828 16.5842 31.1116 16.5842 31.1116C17.2506 31.8145 18.1435 35.4144 21.138 37.0848C22.0463 37.592 23.1483 37.9209 24.4956 37.9377C26.189 37.9166 27.4944 37.4021 28.5157 36.6616C30.9852 34.8711 31.7924 31.7597 32.4069 31.1116C32.4069 31.1116 34.1302 32.2828 34.8548 33.0531C35.1711 33.3902 36.4554 33.6902 37.9277 34.0133C39.8255 34.4302 42.0343 34.885 42.8835 35.5053C44.3903 36.6064 47.5786 39.2148 47.5786 39.2148Z" fill="white"/>
</mask>
<g mask="url(#mask0_1836_9546)">
<path d="M47.5786 39.2138C47.5786 39.2138 38.521 53.0287 24.6869 52.0021C10.8528 50.9756 1.41248 39.2138 1.41248 39.2138C1.41248 39.2138 4.60078 36.6054 6.10766 35.5043C6.95678 34.884 9.16566 34.4292 11.0634 34.0123C12.5357 33.6892 13.82 33.3892 14.1363 33.0521C14.8609 32.2819 16.5842 31.1106 16.5842 31.1106C17.2506 31.8136 18.1435 35.4134 21.138 37.0838C22.0463 37.5911 23.1483 37.9199 24.4956 37.9368C26.189 37.9156 27.4944 37.4011 28.5157 36.6607C30.9852 34.8701 31.7924 31.7587 32.4069 31.1106C32.4069 31.1106 34.1302 32.2819 34.8548 33.0521C35.1711 33.3892 36.4554 33.6892 37.9277 34.0123C39.8255 34.4292 42.0343 34.884 42.8835 35.5043C44.3903 36.6054 47.5786 39.2138 47.5786 39.2138Z" fill="#BF9EF9" stroke="black" stroke-width="0.427393" stroke-linecap="round" stroke-linejoin="round"/>
<path d="M32.8987 38.2288L30.673 42.0133L35.8937 42.9778L37.7395 37.9807C37.7395 37.9807 35.3393 36.2262 35.2278 36.256C35.1162 36.2858 32.8987 38.2283 32.8987 38.2283V38.2288Z" fill="#F5D256" stroke="black" stroke-width="0.427393" stroke-linecap="round" stroke-linejoin="round"/>
<path d="M14.6217 40.4919L18.8077 44.1086L21.5089 39.1182L14.6217 40.4919Z" fill="#E938B5" stroke="black" stroke-width="0.427393" stroke-linecap="round" stroke-linejoin="round"/>
<path d="M40.3661 45.8969L45.8537 45.1925L43.939 39.8506L40.3661 45.8969Z" fill="#4C70F5" stroke="black" stroke-width="0.427393" stroke-linecap="round" stroke-linejoin="round"/>
<path d="M23.3655 40.5917L28.853 39.8873L26.9384 34.5454L23.3655 40.5917Z" fill="#4C70F5" stroke="black" stroke-width="0.427393" stroke-linecap="round" stroke-linejoin="round"/>
<path d="M3.92664 34.6149L10.3763 37.5686L11.9149 30.4573L3.92664 34.6149Z" fill="#4C70F5" stroke="black" stroke-width="0.427393" stroke-linecap="round" stroke-linejoin="round"/>
<path d="M22.6549 45.8335L24.4435 50.5522C24.4435 50.5522 29.2686 47.589 29.3998 47.4793C29.5311 47.3697 26.7996 43.6636 26.7996 43.6636L22.6554 45.833L22.6549 45.8335Z" fill="#49A2A6" stroke="black" stroke-width="0.427393" stroke-linecap="round" stroke-linejoin="round"/>
<path d="M6.0686 41.2874L7.85724 46.0061C7.85724 46.0061 12.6822 43.0428 12.8135 42.9332C12.9448 42.8236 10.2132 39.1174 10.2132 39.1174L6.06908 41.2869L6.0686 41.2874Z" fill="#49A2A6" stroke="black" stroke-width="0.427393" stroke-linecap="round" stroke-linejoin="round"/>
<path d="M41.637 34.2869C41.4986 34.4374 39.9744 38.2243 39.9744 38.2243C39.9744 38.2243 48.1026 37.2852 48.1718 37.316C48.2411 37.3468 41.637 34.2869 41.637 34.2869Z" fill="#49A2A6" stroke="black" stroke-width="0.427393" stroke-linecap="round" stroke-linejoin="round"/>
<path d="M29.275 52.0567L32.4056 45.896C32.4056 45.896 37.0758 46.5884 37.1455 46.5783C37.2152 46.5682 38.5856 49.6449 38.5856 49.6449L30.5665 53.641L29.275 52.0567Z" fill="#E938B5" stroke="black" stroke-width="0.427393" stroke-linecap="round" stroke-linejoin="round"/>
<path d="M14.0139 36.9616L16.1824 32.6938C16.1824 32.6938 19.4173 33.1737 19.4659 33.1665C19.5145 33.1593 20.4636 35.2907 20.4636 35.2907L14.9087 38.0588L14.0139 36.9611V36.9616Z" fill="#F5D256" stroke="black" stroke-width="0.427393" stroke-linecap="round" stroke-linejoin="round"/>
<path d="M10.6323 51.6524L13.7629 45.4917C13.7629 45.4917 18.4331 46.1841 18.5028 46.174C18.5725 46.1639 19.9429 49.2406 19.9429 49.2406L11.9238 53.2367L10.6323 51.6524Z" fill="#4C70F5" stroke="black" stroke-width="0.427393" stroke-linecap="round" stroke-linejoin="round"/>
<path opacity="0.7" d="M3.56846 38.6968C3.92186 38.8069 4.3118 38.6857 4.62001 38.4804C4.92821 38.2751 5.17487 37.9929 5.44124 37.7361C6.35816 36.8524 7.54867 36.2571 8.806 36.0528C9.59503 35.9244 10.4615 35.9258 11.0913 35.4335C11.5154 35.1022 11.7702 34.5565 11.7255 34.0199C11.6803 33.4838 11.325 32.9784 10.825 32.7789C10.2773 32.5606 9.65849 32.7101 9.09546 32.8852C7.56021 33.3621 6.08073 34.0146 4.69165 34.8233C3.80502 35.3397 2.96503 35.7816 2.83858 36.8851C2.76405 37.539 2.80829 38.4598 3.56894 38.6968H3.56846Z" fill="#E7DCFF"/>
<path opacity="0.7" d="M40.9682 33.1844C40.4441 33.1325 39.9061 33.0815 39.3979 33.2195C38.8896 33.357 38.4088 33.7263 38.2954 34.2408C38.1742 34.7908 38.4978 35.3524 38.9233 35.7217C40.1705 36.803 42.1082 36.6333 43.4867 37.5421C43.9608 37.8546 44.4176 38.3085 44.9845 38.2763C45.5706 38.2431 46.0096 37.6498 46.0384 37.0632C46.0673 36.4766 45.7783 35.9193 45.423 35.4519C44.2243 33.8758 42.1395 33.0248 40.1806 33.3118" fill="#E7DCFF"/>
<path opacity="0.7" d="M13.5062 32.8332C14.1669 32.361 15.0766 32.2619 15.8228 32.5817C16.6522 32.9365 17.2047 33.7212 17.6927 34.48C18.1807 35.2387 18.6832 36.0426 19.4722 36.4802C19.8251 36.6759 20.318 36.7658 20.5944 36.472C20.7781 36.2773 20.7973 35.9796 20.7661 35.7137C20.6935 35.0949 20.4088 34.5232 20.1136 33.9746C19.6751 33.1601 19.1842 32.3422 18.4461 31.7845C17.799 31.2955 16.9816 31.0368 16.1709 31.0642C15.3603 31.0916 14.5621 31.4061 13.95 31.9379" fill="#835ED3"/>
<path opacity="0.7" d="M28.2924 36.1542C28.091 36.372 28.0405 36.7158 28.1698 36.9826C28.2992 37.2495 28.6016 37.4216 28.8968 37.3981C29.18 37.3755 29.4224 37.1956 29.6479 37.023C30.821 36.1234 31.9942 35.2243 33.1679 34.3247C33.5978 33.9948 34.0319 33.6612 34.3743 33.2409C34.6008 32.9625 34.7844 32.649 35.0287 32.386C35.1489 32.2567 35.2912 32.1245 35.3104 31.949C35.3427 31.6561 35.0258 31.4537 34.746 31.3619C33.3218 30.8945 31.7106 31.3388 30.5085 32.235C29.307 33.1308 28.4622 34.4261 27.7938 35.7681" fill="#835ED3"/>
</g>
<path d="M47.5797 39.2145C47.5797 39.2145 38.5221 53.0294 24.688 52.0029C10.8539 50.9763 1.41357 39.2145 1.41357 39.2145C1.41357 39.2145 4.60187 36.6061 6.10876 35.505C6.95788 34.8848 9.16675 34.4299 11.0645 34.0131C12.5368 33.69 13.8211 33.3899 14.1374 33.0529C14.862 32.2826 16.5853 31.1113 16.5853 31.1113C17.2517 31.8143 18.1446 35.4142 21.1391 37.0845C22.0474 37.5918 23.1494 37.9207 24.4967 37.9375C26.1901 37.9163 27.4955 37.4019 28.5168 36.6614C30.9862 34.8708 31.7935 31.7595 32.408 31.1113C32.408 31.1113 34.1313 32.2826 34.8559 33.0529C35.1722 33.3899 36.4565 33.69 37.9288 34.0131C39.8266 34.4299 42.0354 34.8848 42.8846 35.505C44.3914 36.6061 47.5797 39.2145 47.5797 39.2145Z" stroke="black" stroke-width="0.427393" stroke-linecap="round" stroke-linejoin="round"/>
<path d="M19.7241 27.1119V27.1111" stroke="black" stroke-width="0.427393" stroke-linecap="round" stroke-linejoin="round"/>
<path d="M29.5025 29.3601H29.5017" stroke="black" stroke-width="0.427393" stroke-linecap="round" stroke-linejoin="round"/>
<path d="M16.5855 31.1107C16.5855 31.1107 14.8623 32.282 14.1377 33.0522C13.8213 33.3893 12.537 33.6893 11.0648 34.0124C11.0128 31.1896 13.4631 29.776 13.903 29.5452C13.891 29.5519 13.8795 29.5581 13.8679 29.5649C13.8502 29.575 13.8328 29.5851 13.8165 29.5952C13.8069 29.6005 13.7977 29.6062 13.7886 29.612C13.766 29.6264 13.7449 29.6404 13.7242 29.6543C13.6872 29.6803 13.653 29.7062 13.6227 29.7327C13.6165 29.738 13.6107 29.7433 13.6049 29.7486C13.5559 29.7928 13.5179 29.838 13.491 29.8832C13.4891 29.8865 13.4871 29.8894 13.4857 29.8928C13.4799 29.9029 13.4746 29.9135 13.4703 29.9236C13.4679 29.9289 13.466 29.9341 13.4641 29.9394C13.4583 29.9543 13.454 29.9697 13.4511 29.9851C13.4501 29.989 13.4496 29.9923 13.4492 29.9962C13.4453 30.0217 13.4453 30.0476 13.4496 30.0736C13.6184 31.1107 15.7172 30.1943 16.5855 31.1107Z" fill="#835ED3" stroke="black" stroke-width="0.427393" stroke-linecap="round" stroke-linejoin="round"/>
<path d="M19.7236 29.9748V31.7086C19.3158 31.0417 19.0846 30.4994 19.0346 30.357C18.8817 29.9233 19.7236 29.9748 19.7236 29.9748Z" fill="black" stroke="black" stroke-width="0.427393" stroke-linecap="round" stroke-linejoin="round"/>
<path d="M29.7969 31.1441C29.7897 30.7441 29.7484 30.394 29.6695 30.1123C29.6123 29.9065 29.556 29.6526 29.5017 29.3613C29.5262 29.3598 30.2301 29.3218 30.3552 29.8344C30.3927 29.9873 30.1888 30.4989 29.7969 31.1441Z" fill="black" stroke="black" stroke-width="0.427393" stroke-linecap="round" stroke-linejoin="round"/>
<path d="M35.5441 30.0737C35.5081 30.2934 35.3859 30.4257 35.2071 30.5055C35.2071 30.5055 35.2071 30.5059 35.2066 30.5055C34.5407 30.805 33.0924 30.3886 32.4082 31.1108C31.7937 31.759 30.9865 34.8703 28.517 36.6609C27.4957 37.4014 26.1903 37.9158 24.4969 37.937C23.1496 37.9202 22.0476 37.5913 21.1393 37.084C18.1448 35.4137 17.2519 31.8138 16.5855 31.1108C15.9321 30.4213 14.5829 30.7694 13.8823 30.542C13.6515 30.468 13.4914 30.3309 13.4496 30.0737C13.4453 30.0477 13.4453 30.0218 13.4491 29.9963C13.4496 29.9924 13.4501 29.9891 13.451 29.9852C13.4539 29.9698 13.4583 29.9544 13.464 29.9395C13.4659 29.9343 13.4679 29.929 13.4703 29.9237C13.4746 29.9136 13.4799 29.903 13.4857 29.8929C13.4871 29.8895 13.489 29.8867 13.4909 29.8833C13.5179 29.8381 13.5559 29.7929 13.6049 29.7487C13.6107 29.7434 13.6164 29.7381 13.6227 29.7328C13.653 29.7063 13.6871 29.6804 13.7241 29.6544C13.7448 29.6405 13.766 29.6265 13.7886 29.6121C13.7977 29.6063 13.8068 29.6006 13.8165 29.5953C13.8328 29.5852 13.8501 29.5751 13.8679 29.565C13.8794 29.5583 13.891 29.552 13.903 29.5453C13.9093 29.5424 13.9155 29.5385 13.9222 29.5352C13.9323 29.5304 13.942 29.5251 13.9521 29.5198C13.9549 29.5183 13.9578 29.5169 13.9607 29.5155C13.9626 29.5145 13.9641 29.5135 13.9655 29.5131C13.9689 29.5116 13.9703 29.5107 13.9703 29.5107C15.2729 28.8457 18.6165 28.3283 19.5045 28.1995C19.6449 28.1788 19.7243 28.1682 19.7243 28.1682V29.9751C19.7243 29.9751 18.8824 29.9237 19.0353 30.3574C19.0853 30.4997 19.3165 31.0421 19.7243 31.709C20.5594 33.075 22.136 34.9631 24.4146 34.9973C26.812 35.0338 28.8521 32.6994 29.7969 31.1435C30.1888 30.4983 30.3926 29.9867 30.3551 29.8338C30.2301 29.3212 29.5262 29.3592 29.5017 29.3606C29.4368 29.0135 29.3738 28.6125 29.3132 28.1745C29.456 28.1942 29.9378 28.2625 30.5744 28.3702C31.9515 28.6019 34.0531 29.0154 35.0234 29.5107C35.0234 29.5107 35.0248 29.5116 35.0282 29.5131C35.0292 29.5135 35.0306 29.514 35.0316 29.515C35.0321 29.515 35.0325 29.515 35.033 29.5155C35.0359 29.5169 35.0388 29.5183 35.0417 29.5198C35.0518 29.5251 35.0614 29.5304 35.0715 29.5352C35.0782 29.5385 35.0845 29.5424 35.0907 29.5453C35.3994 29.714 35.5739 29.8915 35.5441 30.0737Z" fill="#BF9EF9" stroke="black" stroke-width="0.427393" stroke-linecap="round" stroke-linejoin="round"/>
<path d="M37.9296 34.0124C36.4573 33.6893 35.173 33.3893 34.8567 33.0522C34.1321 32.282 32.4088 31.1107 32.4088 31.1107C33.2772 30.1943 35.3759 31.1107 35.5447 30.0736C35.5745 29.8914 35.4 29.7139 35.0913 29.5452C35.5312 29.776 37.9815 31.1896 37.9296 34.0124Z" fill="#835ED3" stroke="black" stroke-width="0.427393" stroke-linecap="round" stroke-linejoin="round"/>
<path d="M19.5044 28.1992L19.2828 28.4468C18.3303 28.8815 17.3773 29.3162 16.4243 29.7508C15.6136 30.1206 14.7578 30.498 13.8822 30.5418C13.6514 30.4677 13.4913 30.3307 13.4495 30.0734C13.4451 30.0475 13.4451 30.0215 13.449 29.996C13.4495 29.9922 13.45 29.9888 13.4509 29.985C13.4538 29.9696 13.4581 29.9542 13.4639 29.9393C13.4658 29.934 13.4677 29.9287 13.4702 29.9234C13.4745 29.9133 13.4798 29.9028 13.4855 29.8927C13.487 29.8893 13.4889 29.8864 13.4908 29.883C13.5178 29.8378 13.5557 29.7926 13.6048 29.7484C13.6105 29.7431 13.6163 29.7378 13.6226 29.7325C13.6529 29.7061 13.687 29.6801 13.724 29.6542C13.7447 29.6402 13.7659 29.6263 13.7885 29.6119C13.7976 29.6061 13.8067 29.6003 13.8163 29.595C13.8327 29.5849 13.85 29.5748 13.8678 29.5647C13.8793 29.558 13.8909 29.5518 13.9029 29.545C13.9091 29.5421 13.9154 29.5383 13.9221 29.5349C13.9322 29.5301 13.9418 29.5248 13.9519 29.5195C13.9548 29.5181 13.9577 29.5167 13.9606 29.5152C13.9625 29.5143 13.9639 29.5133 13.9654 29.5128C13.9688 29.5114 13.9702 29.5104 13.9702 29.5104C15.2727 28.8454 18.6163 28.3281 19.5044 28.1992Z" fill="#E7DCFF"/>
<path d="M35.5446 30.0744C35.5085 30.2941 35.3864 30.4263 35.2075 30.5062C35.2075 30.5062 35.2075 30.5066 35.207 30.5062C35.1421 30.4932 35.0786 30.473 35.0181 30.4475C34.7978 30.3542 34.6108 30.1984 34.419 30.0561C33.6073 29.4537 32.6476 29.0526 31.649 28.8988C31.2739 28.8411 30.7272 28.7526 30.5748 28.3708C31.9519 28.6026 34.0535 29.0161 35.0238 29.5113C35.0238 29.5113 35.0253 29.5123 35.0286 29.5138C35.0296 29.5142 35.031 29.5147 35.032 29.5157C35.0325 29.5157 35.033 29.5157 35.0334 29.5162C35.0363 29.5176 35.0392 29.519 35.0421 29.5205C35.0522 29.5258 35.0618 29.5311 35.0719 29.5359C35.0786 29.5392 35.0849 29.5431 35.0911 29.546C35.3998 29.7147 35.5744 29.8922 35.5446 30.0744Z" fill="#E7DCFF"/>
<path d="M35.5441 30.0737C35.3754 31.1108 33.2766 30.1944 32.4082 31.1108C31.7937 31.759 30.9865 34.8703 28.517 36.6609C27.4957 37.4014 26.1903 37.9158 24.4969 37.937C23.1496 37.9202 22.0476 37.5913 21.1393 37.084C18.1448 35.4137 17.2519 31.8138 16.5855 31.1108C15.7171 30.1944 13.6184 31.1108 13.4496 30.0737C13.4453 30.0477 13.4453 30.0218 13.4491 29.9963C13.4496 29.9924 13.4501 29.9891 13.451 29.9852C13.4539 29.9698 13.4583 29.9544 13.464 29.9395C13.4659 29.9343 13.4679 29.929 13.4703 29.9237C13.4746 29.9136 13.4799 29.903 13.4857 29.8929C13.4871 29.8895 13.489 29.8867 13.4909 29.8833C13.5179 29.8381 13.5559 29.7929 13.6049 29.7487C13.6107 29.7434 13.6164 29.7381 13.6227 29.7328C13.653 29.7063 13.6871 29.6804 13.7241 29.6544C13.7448 29.6405 13.766 29.6265 13.7886 29.6121C13.7977 29.6063 13.8068 29.6006 13.8165 29.5953C13.8328 29.5852 13.8501 29.5751 13.8679 29.565C13.8794 29.5583 13.891 29.552 13.903 29.5453C13.9093 29.5424 13.9155 29.5385 13.9222 29.5352C13.9323 29.5304 13.942 29.5251 13.9521 29.5198C13.9549 29.5183 13.9578 29.5169 13.9607 29.5155C13.9626 29.5145 13.9641 29.5135 13.9655 29.5131C13.9689 29.5116 13.9703 29.5107 13.9703 29.5107C15.4786 28.7404 19.7243 28.1682 19.7243 28.1682V29.9751C19.7243 29.9751 18.8824 29.9237 19.0353 30.3574C19.0853 30.4997 19.3165 31.0421 19.7243 31.709C20.5594 33.075 22.136 34.9631 24.4146 34.9973C26.812 35.0338 28.8521 32.6994 29.7969 31.1435C30.1888 30.4983 30.3926 29.9867 30.3551 29.8338C30.2301 29.3212 29.5262 29.3592 29.5017 29.3606C29.4368 29.0135 29.3738 28.6125 29.3132 28.1745C29.7647 28.237 33.6045 28.7861 35.0234 29.5107C35.0234 29.5107 35.0248 29.5116 35.0282 29.5131C35.0292 29.5135 35.0306 29.514 35.0316 29.515C35.0321 29.515 35.0325 29.515 35.033 29.5155C35.0359 29.5169 35.0388 29.5183 35.0417 29.5198C35.0518 29.5251 35.0614 29.5304 35.0715 29.5352C35.0782 29.5385 35.0845 29.5424 35.0907 29.5453C35.3994 29.714 35.5739 29.8915 35.5441 30.0737Z" stroke="black" stroke-width="0.427393" stroke-linecap="round" stroke-linejoin="round"/>
<path d="M24.8097 24.0005C24.8097 24.0005 24.2323 28.3625 19.9333 29.3597L19.7241 29.3606C19.7241 29.3606 19.7241 27.4532 19.7241 27.4052C19.7241 27.3571 24.4885 24.8631 24.8097 24.0005Z" fill="#B27059"/>
<path d="M29.7969 31.1435C28.8521 32.6994 26.812 35.0338 24.4146 34.9972C23.2434 34.9799 22.2572 34.4722 21.4624 33.7971C21.4514 33.7726 21.4413 33.7485 21.4307 33.724L21.322 33.4995C22.7222 33.6976 24.1838 33.4331 25.4258 32.7566C26.6677 32.0801 27.6828 30.9954 28.2761 29.7116C28.3948 29.4539 28.4992 29.1856 28.6665 28.9562C28.8338 28.7274 29.079 28.537 29.3613 28.5115C29.407 28.8197 29.4536 29.1048 29.5017 29.3606C29.556 29.652 29.6123 29.9058 29.6695 30.1116C29.7483 30.3934 29.7897 30.7434 29.7969 31.1435Z" fill="#B27059"/>
<path d="M22.2393 36.6626C22.5946 36.6626 22.8826 36.3746 22.8826 36.0193C22.8826 35.664 22.5946 35.376 22.2393 35.376C21.884 35.376 21.5959 35.664 21.5959 36.0193C21.5959 36.3746 21.884 36.6626 22.2393 36.6626Z" fill="black" stroke="black" stroke-width="0.427393" stroke-linecap="round" stroke-linejoin="round"/>
<path d="M22.3606 36.0349C21.9894 36.3191 21.798 36.7941 21.7764 37.261C21.7548 37.7279 21.8855 38.1895 22.0606 38.6232C22.2356 39.0569 22.4548 39.4713 22.6236 39.9074C23.2515 41.5287 23.1232 43.426 22.2817 44.9478" stroke="black" stroke-width="0.427393" stroke-linecap="round" stroke-linejoin="round"/>
<path d="M21.5231 45.5034C21.5005 45.6678 21.5092 45.8409 21.5813 45.9904C21.6534 46.14 21.7977 46.2607 21.9631 46.2741C22.0972 46.2852 22.2299 46.226 22.3323 46.139C22.4348 46.052 22.5122 45.939 22.5843 45.8255C22.7709 45.5317 23.3098 44.4667 22.6232 44.4033C22.0592 44.3513 21.5909 45.0158 21.5231 45.5038V45.5034Z" fill="#F5D256" stroke="black" stroke-width="0.427393" stroke-linecap="round" stroke-linejoin="round"/>
<path d="M26.755 36.6626C27.1103 36.6626 27.3984 36.3746 27.3984 36.0193C27.3984 35.664 27.1103 35.376 26.755 35.376C26.3997 35.376 26.1117 35.664 26.1117 36.0193C26.1117 36.3746 26.3997 36.6626 26.755 36.6626Z" fill="black" stroke="black" stroke-width="0.427393" stroke-linecap="round" stroke-linejoin="round"/>
<path d="M26.6333 36.0349C27.0044 36.3191 27.1958 36.7941 27.2174 37.261C27.2391 37.7279 27.1083 38.1895 26.9333 38.6232C26.7583 39.0569 26.539 39.4713 26.3702 39.9074C25.7423 41.5287 25.8707 43.426 26.7121 44.9478" stroke="black" stroke-width="0.427393" stroke-linecap="round" stroke-linejoin="round"/>
<path d="M27.4709 45.5034C27.4935 45.6678 27.4849 45.8409 27.4128 45.9904C27.3406 46.14 27.1964 46.2607 27.031 46.2741C26.8969 46.2852 26.7641 46.226 26.6617 46.139C26.5593 46.052 26.4819 45.939 26.4098 45.8255C26.2232 45.5317 25.6842 44.4667 26.3708 44.4033C26.9348 44.3513 27.4032 45.0158 27.4709 45.5038V45.5034Z" fill="#F5D256" stroke="black" stroke-width="0.427393" stroke-linecap="round" stroke-linejoin="round"/>
<path d="M28.0402 16.704C28.0287 16.3621 28.145 16.0174 28.3614 15.7529C28.5782 15.4885 28.8932 15.3063 29.2302 15.2505C29.3807 15.2255 29.5399 15.226 29.6803 15.2856C29.8207 15.3452 29.9385 15.4721 29.9567 15.6236" stroke="black" stroke-width="0.427393" stroke-linecap="round" stroke-linejoin="round"/>
<path d="M28.6195 15.6602C28.8594 15.7707 29.1056 15.8852 29.2883 16.0761C29.471 16.2669 29.5783 16.5545 29.484 16.8011" stroke="black" stroke-width="0.427393" stroke-linecap="round" stroke-linejoin="round"/>
<path d="M18.7429 16.231C18.7256 16.4093 17.901 19.6356 18.2693 19.8111C18.6376 19.9866 19.3564 18.8644 19.3564 18.8644" stroke="black" stroke-width="0.427393" stroke-linecap="round" stroke-linejoin="round"/>
<path d="M20.0627 20.8523C20.0276 20.9047 18.765 22.5707 18.765 22.5707" stroke="black" stroke-width="0.427393" stroke-linecap="round" stroke-linejoin="round"/>
<path d="M21.4486 19.6871L23.4829 18.6558" stroke="black" stroke-width="0.427393" stroke-linecap="round" stroke-linejoin="round"/>
<path d="M20.7998 22.5706C20.7998 22.5706 22.8866 22.5879 22.7986 20.1685" stroke="black" stroke-width="0.427393" stroke-linecap="round" stroke-linejoin="round"/>
<path d="M17.746 27.3711C17.3046 27.3413 16.8685 27.2437 16.4482 27.0615C13.2417 25.6691 15.4794 16.7903 16.0809 14.8593H16.0814C16.0953 14.8559 16.6795 14.7156 17.6051 14.5251C16.9247 18.5972 16.9468 22.7856 17.67 26.8504C17.7003 27.0192 17.7296 27.1957 17.746 27.3711Z" fill="#FFC7B3"/>
<path d="M30.282 14.2358C29.7468 14.2488 29.2155 14.4123 28.7683 14.7061C28.4635 14.9066 28.1817 15.1715 27.824 15.2412C27.5004 15.3042 27.1475 15.1831 26.9307 14.9345C26.8912 14.8893 26.8571 14.8436 26.8282 14.7979C27.1018 14.5465 27.7779 13.9397 28.4332 13.6762H28.4337C28.7159 13.5627 28.9943 13.5132 29.2352 13.5829C29.4963 13.6584 29.8507 13.8709 30.2007 14.1661C30.2276 14.1887 30.255 14.2123 30.282 14.2358Z" fill="#FFC7B3"/>
<path d="M29.1704 13.5679C28.9449 13.5232 28.691 13.5736 28.4338 13.677H28.4333C28.1674 13.7838 27.8977 13.9472 27.6529 14.1208C24.9594 14.0367 18.4183 14.5444 18.4183 14.5444L18.6337 14.3228L19.8166 13.1068C19.8166 13.1068 28.1308 12.0999 28.2645 12.0802C28.3491 12.0672 29.1959 12.9543 29.1704 13.5679Z" fill="#B27059"/>
<path d="M28.9537 24.91C28.4276 23.4488 27.9978 21.953 27.6679 20.4355C27.6016 20.1311 27.5001 19.7556 27.8261 19.5883C28.0334 19.4825 28.2877 19.369 28.5377 19.3315C28.5757 19.9715 28.7272 22.4376 28.9537 24.91Z" fill="#B27059"/>
<path d="M28.4338 13.6763C28.1679 13.783 27.8981 13.9465 27.6534 14.1201C27.2957 14.3739 26.9913 14.6485 26.8288 14.798C26.7639 14.8576 26.7216 14.8975 26.7076 14.9081" stroke="black" stroke-width="0.427393" stroke-linecap="round" stroke-linejoin="round"/>
<path d="M30.2003 14.1663C29.8502 13.8711 29.4959 13.6586 29.2348 13.5831C29.2136 13.5769 29.192 13.5716 29.1699 13.5672C28.9444 13.5225 28.6905 13.573 28.4333 13.6764H28.4328C27.6034 13.499 26.5768 13.449 25.4719 13.4797C25.4253 13.4812 25.3782 13.4826 25.331 13.4841C24.9079 13.4985 24.4742 13.5245 24.0367 13.5596C23.9674 13.5648 23.8977 13.5706 23.828 13.5769C23.7583 13.5826 23.6886 13.5889 23.6188 13.5951C23.5491 13.6019 23.4794 13.6081 23.4097 13.6153C23.2005 13.6355 22.9909 13.6576 22.7813 13.6817C22.7115 13.6894 22.6418 13.6976 22.5726 13.7057C22.5168 13.7125 22.461 13.7192 22.4057 13.7259C22.1144 13.7615 21.8244 13.7995 21.5388 13.8399C21.4706 13.849 21.4028 13.8586 21.3354 13.8687C21.2676 13.8783 21.2003 13.888 21.1335 13.8981C21.0748 13.9067 21.0162 13.9154 20.958 13.924C20.6171 13.9759 20.2834 14.0293 19.9617 14.0836C19.8988 14.0942 19.8363 14.1048 19.7747 14.1159C19.6507 14.137 19.5285 14.1582 19.4083 14.1798C19.3516 14.1894 19.2958 14.1995 19.24 14.2096C19.0304 14.2476 18.828 14.2851 18.6332 14.3221C18.6328 14.3221 18.6318 14.3221 18.6313 14.3226C18.5765 14.3327 18.5222 14.3428 18.4688 14.3534C18.3077 14.3842 18.1529 14.4149 18.0048 14.4443C17.9553 14.4544 17.9067 14.464 17.8587 14.4736C17.7832 14.489 17.7096 14.5039 17.638 14.5183C17.573 14.5318 17.5101 14.5448 17.4485 14.5577C17.4447 14.5582 17.4403 14.5592 17.436 14.5601C17.4144 14.5645 17.3927 14.5693 17.3716 14.5736C17.2437 14.6005 17.1235 14.626 17.0119 14.65C16.9807 14.6568 16.9499 14.6635 16.9196 14.6702C16.8965 14.6751 16.8739 14.6799 16.8513 14.6847C16.8345 14.6885 16.8177 14.6924 16.8009 14.6957C16.7898 14.6981 16.7792 14.7005 16.7686 14.7029C16.7206 14.7135 16.6749 14.7236 16.6316 14.7332C16.5879 14.7428 16.5465 14.752 16.5076 14.7611C16.4888 14.765 16.471 14.7693 16.4532 14.7731C16.4167 14.7813 16.3821 14.789 16.3503 14.7967C16.3239 14.8025 16.2994 14.8082 16.2768 14.8135C16.2681 14.8155 16.2595 14.8174 16.2508 14.8198C16.234 14.8231 16.2186 14.827 16.2042 14.8304C16.1969 14.8323 16.1902 14.8337 16.1835 14.8352C16.1306 14.8472 16.0974 14.8554 16.0859 14.8582C16.083 14.8587 16.0816 14.8592 16.0811 14.8592H16.0806C16.0806 14.8592 15.4224 15.3684 15.1396 14.8592C14.9343 14.4895 15.3945 12.7686 15.6618 11.8531C15.769 11.4868 16.0469 11.1949 16.408 11.0708C16.4782 11.0468 16.5547 11.0208 16.6359 10.9939C16.6922 10.9752 16.7513 10.9559 16.8124 10.9357C16.8441 10.9256 16.8768 10.9151 16.91 10.9045C17.0047 10.8742 17.1047 10.8429 17.2091 10.8107C17.2201 10.8074 17.2307 10.804 17.2418 10.8006C17.2783 10.7896 17.3153 10.778 17.3533 10.767C17.4759 10.7299 17.6043 10.692 17.7375 10.654C17.762 10.6468 17.7865 10.64 17.8115 10.6328C18.0481 10.566 18.3 10.4982 18.564 10.4314C18.59 10.4251 18.6159 10.4184 18.6419 10.4121C18.8501 10.3602 19.0655 10.3092 19.2862 10.2607C19.3136 10.2544 19.3415 10.2486 19.3694 10.2424C19.3973 10.2361 19.4252 10.2304 19.453 10.2246C19.5002 10.2145 19.5473 10.2044 19.5949 10.1948C19.6459 10.1842 19.6973 10.1736 19.7487 10.1635C19.8161 10.1501 19.8834 10.1371 19.9507 10.1241C20.0132 10.1121 20.0757 10.1006 20.1387 10.089C20.1469 10.0876 20.1546 10.0861 20.1627 10.0847C20.2286 10.0731 20.2945 10.0616 20.3608 10.0505C20.4248 10.0395 20.4882 10.0294 20.5522 10.0193C20.5613 10.0174 20.5705 10.0159 20.5791 10.015C20.7147 9.99333 20.8513 9.97314 20.9883 9.95487C21.0585 9.94525 21.1292 9.93611 21.1999 9.92746C21.2023 9.92698 21.2047 9.92698 21.2071 9.9265C21.2753 9.91832 21.3436 9.91015 21.4119 9.90294C21.4792 9.89525 21.546 9.88851 21.6134 9.88178C21.6263 9.88082 21.6388 9.87938 21.6518 9.87842C21.7105 9.87265 21.7691 9.86736 21.8278 9.86303C21.8336 9.86207 21.8389 9.86159 21.8446 9.86159C21.9129 9.85582 21.9812 9.85053 22.0495 9.8462H22.0509C22.1014 9.84236 22.1519 9.83947 22.2024 9.83707C22.2307 9.83514 22.2596 9.83322 22.2884 9.83226C22.3509 9.82889 22.4134 9.82649 22.4755 9.82408C22.6457 9.81783 22.8168 9.81543 22.9875 9.81543C23.0553 9.81543 23.1231 9.81591 23.1904 9.81687C23.2068 9.81687 23.2236 9.81687 23.2395 9.81735C23.3174 9.8188 23.3953 9.82072 23.4732 9.82312C23.5539 9.82553 23.6342 9.82841 23.715 9.83226C23.7924 9.83562 23.8698 9.83947 23.9468 9.84428C23.9496 9.84428 23.953 9.84428 23.9559 9.84476C24.0655 9.85101 24.1742 9.8587 24.2829 9.86688C24.3213 9.86976 24.3603 9.87313 24.3987 9.87601C24.4146 9.87697 24.43 9.87842 24.4454 9.87986C24.5531 9.88948 24.6603 9.89957 24.767 9.91015C24.8738 9.92121 24.98 9.93275 25.0849 9.94525H25.0853C25.1377 9.9515 25.1902 9.95775 25.2421 9.96448C25.2858 9.97025 25.3296 9.97554 25.3729 9.98131C25.381 9.98227 25.3897 9.98323 25.3979 9.98468C25.4493 9.99189 25.5008 9.99862 25.5517 10.0058C25.6032 10.0126 25.6541 10.0203 25.7046 10.028C25.7503 10.0352 25.7955 10.0419 25.8407 10.0486C25.846 10.0491 25.8508 10.0501 25.8556 10.051C25.9056 10.0592 25.9556 10.0669 26.0051 10.0751C26.0114 10.0756 26.0176 10.077 26.0239 10.078C26.0667 10.0852 26.11 10.0924 26.1523 10.0996C26.2499 10.1159 26.3465 10.1332 26.4412 10.151C26.4908 10.1597 26.5398 10.1688 26.5889 10.1784C26.6331 10.1876 26.6773 10.1962 26.7216 10.2049C26.7821 10.2164 26.8418 10.2289 26.9009 10.2414C26.9528 10.2525 27.0043 10.2631 27.0552 10.2741C27.1658 10.2977 27.2735 10.3222 27.3788 10.3472C27.4202 10.3568 27.4615 10.3664 27.5019 10.3765C27.5082 10.3775 27.5144 10.3794 27.5202 10.3809C27.5548 10.389 27.5885 10.3977 27.6221 10.4059C27.6616 10.4155 27.7005 10.4256 27.7385 10.4352C27.762 10.441 27.7856 10.4472 27.8087 10.4535C27.8318 10.4592 27.8548 10.4655 27.8779 10.4717C27.9073 10.4794 27.9361 10.4871 27.9645 10.4948C28.001 10.5049 28.0371 10.5145 28.0722 10.5246C28.1207 10.5381 28.1688 10.552 28.215 10.565C28.253 10.5766 28.29 10.5876 28.326 10.5982C28.3419 10.603 28.3578 10.6078 28.3736 10.6126C28.416 10.6256 28.4573 10.6386 28.4977 10.6516C28.9756 10.8045 29.2891 10.9429 29.3718 11.0309C29.6733 11.3516 30.2498 14.0014 30.2003 14.1663Z" fill="#E86F3A" stroke="black" stroke-width="0.427393" stroke-linecap="round" stroke-linejoin="round"/>
<path d="M28.4978 10.6509C28.4574 10.6379 28.416 10.6249 28.3737 10.6119C27.3601 10.3018 25.7066 9.94649 23.9559 9.84408C23.466 9.81475 22.9688 9.80609 22.4755 9.8234C20.2137 9.90322 17.8385 10.5937 16.636 10.9932C16.636 10.9932 16.8052 10.3278 17.3173 9.52482C18.0957 8.3045 19.668 6.76685 22.6457 6.76685C22.9323 6.76685 23.2054 6.77983 23.465 6.80483C26.0451 7.04909 27.351 8.43144 27.9765 9.46952C28.303 10.0104 28.4444 10.4581 28.4848 10.6023C28.4929 10.6312 28.4968 10.6475 28.4978 10.6509Z" fill="#E86F3A" stroke="black" stroke-width="0.427393" stroke-linecap="round" stroke-linejoin="round"/>
<path d="M23.466 6.80483C23.4583 6.8231 23.4496 6.84137 23.4395 6.85916C23.315 7.07793 23.0433 7.15487 22.8 7.21881C21.1653 7.64818 19.6064 8.36556 18.2174 9.32816C17.9784 9.49404 17.6904 9.67531 17.4173 9.57578C17.3812 9.5628 17.348 9.54549 17.3182 9.52482C18.0967 8.3045 19.669 6.76685 22.6467 6.76685C22.9332 6.76685 23.2063 6.77983 23.466 6.80483Z" fill="#FF8E66"/>
<path d="M28.4842 10.6028C28.4472 10.6072 28.4102 10.6105 28.3732 10.6125C27.8299 10.6447 27.2918 10.4673 26.7639 10.3216C25.847 10.0691 24.9046 9.9095 23.9554 9.84459C23.1866 9.79122 22.4139 9.80036 21.6465 9.872C21.6663 9.8619 21.686 9.8518 21.7057 9.84219L20.7301 9.97633C22.1269 9.59745 23.5597 9.35031 25.0026 9.23876C25.9989 9.16183 27.0379 9.1575 27.976 9.47003C28.3025 10.011 28.4439 10.4586 28.4842 10.6028Z" fill="#C14216"/>
<path d="M17.2418 10.8005C16.7417 12.0127 16.3744 13.2796 16.1489 14.5711C16.132 14.6673 16.1157 14.7654 16.0859 14.8582C16.083 14.8586 16.0816 14.8591 16.0811 14.8591H16.0806C16.0806 14.8591 15.4224 15.3683 15.1396 14.8591C14.9343 14.4894 15.3945 12.7685 15.6618 11.853C15.769 11.4867 16.0469 11.1948 16.408 11.0708C16.4782 11.0467 16.5547 11.0208 16.6359 10.9938C16.8134 10.9347 17.0167 10.8693 17.2418 10.8005Z" fill="#FF8E66"/>
<path d="M30.2003 14.1663C29.8502 13.8711 29.4959 13.6586 29.2348 13.5831C29.2136 13.5769 29.192 13.5716 29.1699 13.5672C28.9444 13.5225 28.6905 13.573 28.4333 13.6764H28.4328C27.6034 13.499 26.5768 13.449 25.4719 13.4797C25.4248 13.4812 25.3782 13.4826 25.331 13.4841C24.9079 13.4985 24.4742 13.5245 24.0367 13.5596C23.9674 13.5648 23.8977 13.5706 23.828 13.5769C23.7583 13.5826 23.6886 13.5889 23.6188 13.5951C23.5491 13.6014 23.4794 13.6081 23.4097 13.6153C23.2005 13.6355 22.9909 13.6576 22.7813 13.6817C22.7115 13.6894 22.6423 13.6971 22.5726 13.7057C22.5168 13.712 22.461 13.7187 22.4057 13.7259C22.1144 13.7615 21.8244 13.7995 21.5388 13.8399C21.4706 13.849 21.4028 13.8586 21.3354 13.8687C21.2676 13.8783 21.2003 13.888 21.1335 13.8981C21.0748 13.9067 21.0162 13.9154 20.958 13.924C20.6171 13.9759 20.2834 14.0293 19.9617 14.0836C19.8988 14.0942 19.8363 14.1048 19.7747 14.1159C19.6507 14.137 19.5285 14.1582 19.4083 14.1798C19.3516 14.1894 19.2958 14.1995 19.24 14.2096C19.0304 14.2476 18.828 14.2851 18.6332 14.3221C18.6328 14.3221 18.6318 14.3221 18.6313 14.3226C18.5765 14.3327 18.5222 14.3428 18.4688 14.3534C18.3077 14.3842 18.1529 14.4149 18.0048 14.4443C17.9553 14.4539 17.9067 14.464 17.8587 14.4736C17.7832 14.489 17.7096 14.5039 17.638 14.5183C17.573 14.5318 17.5101 14.5448 17.4485 14.5577C17.4447 14.5582 17.4403 14.5592 17.436 14.5601C17.4144 14.5645 17.3927 14.5693 17.3716 14.5736C17.2437 14.6005 17.1235 14.626 17.0119 14.65C16.9807 14.6568 16.9499 14.6635 16.9196 14.6702C16.8965 14.6751 16.8739 14.6799 16.8513 14.6847C16.8345 14.6885 16.8177 14.6924 16.8009 14.6957C16.7898 14.6981 16.7792 14.7005 16.7686 14.7029C16.7206 14.7135 16.6749 14.7236 16.6316 14.7332C16.5879 14.7428 16.5465 14.752 16.5076 14.7611C16.4888 14.765 16.471 14.7693 16.4532 14.7731C16.4167 14.7813 16.3821 14.789 16.3503 14.7967C16.3239 14.8025 16.2994 14.8082 16.2768 14.8135C16.2676 14.8155 16.259 14.8174 16.2508 14.8198C16.234 14.8231 16.2186 14.827 16.2042 14.8304C16.1969 14.8318 16.1902 14.8337 16.1835 14.8352C16.1306 14.8472 16.0974 14.8554 16.0859 14.8582C16.083 14.8587 16.0816 14.8592 16.0811 14.8592H16.0806C16.0806 14.8592 15.4224 15.3684 15.1396 14.8592C14.9343 14.4895 15.3945 12.7686 15.6618 11.8531C15.769 11.4868 16.0469 11.1949 16.408 11.0708C16.4782 11.0468 16.5547 11.0208 16.6359 10.9939C16.6922 10.9752 16.7513 10.9559 16.8124 10.9357C16.8441 10.9256 16.8768 10.9151 16.91 10.9045C17.0047 10.8742 17.1047 10.8429 17.2091 10.8107C17.2201 10.8074 17.2307 10.804 17.2418 10.8011C17.2783 10.7896 17.3153 10.778 17.3533 10.767C17.4759 10.7299 17.6043 10.692 17.7375 10.654C17.762 10.6468 17.7865 10.64 17.8115 10.6328C18.0481 10.566 18.3 10.4982 18.564 10.4314C18.59 10.4251 18.6159 10.4184 18.6419 10.4121C18.8501 10.3602 19.0655 10.3092 19.2862 10.2607C19.3136 10.2544 19.3415 10.2486 19.3694 10.2424C19.3973 10.2361 19.4252 10.2304 19.453 10.2246C19.5002 10.2145 19.5473 10.2044 19.5949 10.1948C19.6459 10.1842 19.6973 10.1736 19.7487 10.1635C19.8161 10.1501 19.8834 10.1371 19.9507 10.1241C20.0132 10.1121 20.0757 10.1006 20.1387 10.089C20.1469 10.0876 20.1546 10.0861 20.1627 10.0847C20.2286 10.0731 20.2945 10.0616 20.3608 10.0505C20.4248 10.0395 20.4882 10.0294 20.5522 10.0193C20.5613 10.0174 20.5705 10.0159 20.5791 10.015C20.7147 9.99333 20.8513 9.97314 20.9883 9.95487C21.0585 9.94525 21.1292 9.93611 21.1999 9.92746C21.2023 9.92698 21.2047 9.92698 21.2071 9.9265C21.2753 9.91832 21.3436 9.91015 21.4119 9.90294C21.4792 9.89525 21.546 9.88851 21.6134 9.88178C21.6263 9.88082 21.6388 9.87938 21.6518 9.87842C21.7105 9.87265 21.7691 9.86736 21.8278 9.86303C21.8336 9.86207 21.8389 9.86159 21.8446 9.86159C21.9129 9.85582 21.9812 9.85053 22.0495 9.8462H22.0509C22.1014 9.84236 22.1519 9.83947 22.2024 9.83707C22.2307 9.83514 22.2596 9.83322 22.2884 9.83226C22.3509 9.82889 22.4134 9.82649 22.4755 9.82408C22.6457 9.81783 22.8168 9.81543 22.9875 9.81543C23.0553 9.81543 23.1231 9.81591 23.1904 9.81687C23.2068 9.81687 23.2236 9.81687 23.2395 9.81735C23.3174 9.8188 23.3953 9.82072 23.4732 9.82312C23.5539 9.82553 23.6342 9.82841 23.715 9.83226C23.7924 9.83562 23.8698 9.83947 23.9468 9.84428C23.9496 9.84428 23.953 9.84428 23.9559 9.84476C24.0655 9.85101 24.1742 9.8587 24.2829 9.86688C24.3213 9.86976 24.3603 9.87313 24.3987 9.87601C24.4146 9.87697 24.43 9.87842 24.4454 9.87986C24.5531 9.88948 24.6603 9.89957 24.767 9.91015C24.8738 9.92121 24.98 9.93275 25.0849 9.94525H25.0853C25.1377 9.9515 25.1902 9.95775 25.2421 9.96448C25.2858 9.97025 25.3296 9.97554 25.3729 9.98131C25.381 9.98227 25.3897 9.98323 25.3979 9.98468C25.4493 9.99189 25.5008 9.99862 25.5517 10.0058C25.6032 10.0126 25.6541 10.0203 25.7046 10.028C25.7503 10.0352 25.7955 10.0419 25.8407 10.0486C25.846 10.0491 25.8508 10.0501 25.8556 10.051C25.9056 10.0592 25.9556 10.0669 26.0051 10.0751C26.0114 10.0756 26.0176 10.077 26.0239 10.078C26.0667 10.0852 26.11 10.0924 26.1523 10.0996C26.2499 10.1159 26.3465 10.1332 26.4412 10.151C26.4908 10.1597 26.5398 10.1688 26.5889 10.1784C26.6331 10.1876 26.6773 10.1962 26.7216 10.2049C26.7821 10.2164 26.8418 10.2289 26.9009 10.2414C26.9528 10.2525 27.0043 10.2631 27.0552 10.2741C27.1658 10.2977 27.2735 10.3222 27.3788 10.3472C27.4202 10.3568 27.4615 10.3664 27.5019 10.3765C27.5082 10.3775 27.5144 10.3794 27.5202 10.3809C27.5548 10.389 27.5885 10.3977 27.6221 10.4059C27.6616 10.4155 27.7005 10.4256 27.7385 10.4352C27.762 10.441 27.7856 10.4472 27.8087 10.4535C27.8318 10.4592 27.8548 10.4655 27.8779 10.4717C27.9073 10.4794 27.9361 10.4871 27.9645 10.4948C28.001 10.5049 28.0371 10.5145 28.0722 10.5246C28.1207 10.5381 28.1688 10.552 28.215 10.565C28.253 10.5766 28.29 10.5876 28.326 10.5982C28.3419 10.603 28.3578 10.6078 28.3737 10.6126C28.416 10.6256 28.4573 10.6386 28.4977 10.6516C28.9756 10.8045 29.2891 10.9429 29.3718 11.0309C29.6733 11.3516 30.2498 14.0014 30.2003 14.1663Z" stroke="black" stroke-width="0.427393" stroke-linecap="round" stroke-linejoin="round"/>
<path d="M28.4978 10.6509C27.2298 10.246 24.8046 9.74118 22.4755 9.8234C20.2137 9.90322 17.8385 10.5937 16.636 10.9932C16.636 10.9932 17.7087 6.76685 22.6457 6.76685C27.5828 6.76685 28.4853 10.5985 28.4978 10.6509Z" stroke="black" stroke-width="0.427393" stroke-linecap="round" stroke-linejoin="round"/>
<path d="M28.529 19.1721C28.1175 19.4077 27.8362 19.5467 27.8362 19.5467" stroke="black" stroke-width="0.427393" stroke-linecap="round" stroke-linejoin="round"/>
<path d="M31.1983 17.1416C30.4972 17.9701 29.2899 18.736 28.5288 19.1721C28.5288 19.1721 28.8461 24.7818 29.313 28.1745C29.3736 28.6125 29.4365 29.0135 29.5015 29.3607C29.5558 29.652 29.612 29.9059 29.6693 30.1117C29.7481 30.3935 29.7895 30.7435 29.7967 31.1435C28.8519 32.6995 26.8118 35.0338 24.4144 34.9973C22.1358 34.9631 20.5592 33.075 19.724 31.709V27.1109C18.6355 27.4422 17.4954 27.5158 16.4482 27.0614C13.2417 25.6689 15.4794 16.7902 16.0809 14.8592H16.0814C16.1299 14.8477 22.9229 13.2158 27.143 13.5057C27.6085 13.5374 28.0427 13.5927 28.4331 13.6764H28.4336C28.7158 13.5629 28.9942 13.5134 29.2351 13.5831C29.4962 13.6586 29.8505 13.8711 30.2006 14.1663C30.2275 14.1889 30.2549 14.2125 30.2818 14.2361C31.1516 15.001 31.9517 16.2512 31.1983 17.1416Z" stroke="black" stroke-width="0.427393" stroke-linecap="round" stroke-linejoin="round"/>
<path d="M19.7241 27.1109C22.3556 26.3094 24.6881 24.0005 24.6881 24.0005" stroke="black" stroke-width="0.427393" stroke-linecap="round" stroke-linejoin="round"/>
<path d="M30.2496 18.5642C30.3227 18.6863 30.3852 18.821 30.4328 18.9662C30.69 19.7465 30.4357 20.5312 29.8645 20.7197C29.2933 20.9082 28.622 20.4283 28.3648 19.648C28.1725 19.0643 28.2662 18.4772 28.5653 18.1401" stroke="#49A2A6" stroke-width="0.427393" stroke-linecap="round" stroke-linejoin="round"/>
</g>
<defs>
<clipPath id="clip0_1836_9546">
<rect y="0.000488281" width="48" height="48" rx="24" fill="white"/>
</clipPath>
</defs>
</svg>
