<svg width="48" height="48" viewBox="0 0 48 48" fill="none" xmlns="http://www.w3.org/2000/svg">
<g clip-path="url(#clip0_1836_6721)">
<rect width="48" height="48" rx="24" fill="#CAC2FF"/>
<path d="M30.677 16.5212C30.6582 16.5943 30.638 16.6665 30.6179 16.7371C30.3279 17.7243 29.8485 18.458 28.8749 18.9152C28.5946 19.047 28.2729 19.1556 27.9032 19.2412C27.9032 19.2412 27.9459 20.3942 28.0469 21.9737C28.2503 25.1577 28.6912 30.0741 29.4985 30.7703C29.4985 30.7703 28.1782 38.8293 24.2167 38.6355C20.2553 38.4422 19.6985 31.3593 19.6985 31.3593C19.8341 30.7703 19.8379 26.2068 19.8379 26.2068C18.6215 26.6083 17.3208 26.803 16.1789 26.4708C15.9548 26.4059 15.7375 26.3208 15.5274 26.2126C10.1836 23.4628 16.8968 13.0844 16.8968 13.0844C16.8968 13.0844 17.4939 12.9954 18.4551 12.9699C20.074 12.9262 22.7257 13.0613 25.2962 14.1013C25.6515 14.2451 26.0049 14.4056 26.354 14.586C26.7997 14.0681 27.4728 13.5046 28.1556 13.7532C28.5398 13.8931 28.9735 14.1104 29.373 14.3811C29.5769 14.5191 29.7721 14.6711 29.9471 14.8331C30.4823 15.3288 30.8313 15.9226 30.677 16.5212Z" fill="#94624B" stroke="black" stroke-width="0.427393" stroke-linecap="round" stroke-linejoin="round"/>
<path d="M24.2175 24.002C24.2175 24.002 24.2117 27.8528 19.8387 29.1871L19.8252 26.356C19.8252 26.356 22.9923 25.0838 24.2175 24.0024V24.002Z" fill="#663421"/>
<path d="M29.9472 14.8326C29.7919 14.7913 29.6356 14.7307 29.488 14.6821C29.0442 14.536 28.5625 14.5091 28.1052 14.6047C27.7191 14.685 27.3561 14.85 26.9762 14.9543C26.668 15.0389 26.3339 15.0812 26.0271 15.0062C26.1132 14.8841 26.2238 14.737 26.3541 14.5855C26.7998 14.0677 27.4729 13.5041 28.1557 13.7527C28.5399 13.8926 28.9735 14.11 29.3731 14.3807C29.577 14.5187 29.7722 14.6706 29.9472 14.8326Z" fill="#AD8679"/>
<path d="M18.4551 12.9695C17.3031 14.7908 16.7693 16.9526 16.5357 19.0999C16.2909 21.3482 16.3525 23.6181 16.2347 25.8765C16.2246 26.0698 16.2082 26.2713 16.1789 26.4704C15.9548 26.4054 15.7375 26.3203 15.5274 26.2122C10.1836 23.4624 16.8968 13.0839 16.8968 13.0839C16.8968 13.0839 17.4939 12.995 18.4551 12.9695Z" fill="#AD8679"/>
<path d="M27.9036 19.2402C27.9036 19.2402 27.9464 20.3932 28.0474 21.9727C28.0031 21.8645 27.9416 21.752 27.9113 21.6703C27.8454 21.4948 27.78 21.3193 27.7142 21.1433C27.5829 20.7923 27.4516 20.4408 27.3204 20.0894C27.2333 19.8566 26.9848 19.5018 27.2439 19.3205C27.4887 19.1494 27.9036 19.0979 28.1863 19.0085C28.4094 18.9378 28.6508 18.8676 28.8753 18.9142C28.595 19.046 28.2733 19.1546 27.9036 19.2402Z" fill="#663421"/>
<path d="M30.677 16.5215C30.6582 16.5946 30.638 16.6667 30.6179 16.7374C30.2443 18.0087 29.5572 18.8597 27.9032 19.2415C27.9032 19.2415 28.2907 29.7291 29.4985 30.7705C29.4985 30.7705 28.1782 38.8295 24.2167 38.6357C20.2553 38.4424 19.6985 31.3595 19.6985 31.3595C19.8341 30.7705 19.8379 26.2071 19.8379 26.2071C18.383 26.6869 16.8083 26.8721 15.5274 26.2129C10.1836 23.4631 16.8968 13.0846 16.8968 13.0846C16.8968 13.0846 21.978 12.3283 26.354 14.5862C26.7997 14.0684 27.4728 13.5048 28.1556 13.7534C28.5398 13.8933 28.9735 14.1107 29.373 14.3814C30.2 14.9411 30.8818 15.7272 30.677 16.5215Z" stroke="black" stroke-width="0.427393" stroke-linecap="round" stroke-linejoin="round"/>
<mask id="mask0_1836_6721" style="mask-type:luminance" maskUnits="userSpaceOnUse" x="3" y="31" width="43" height="22">
<path d="M45.7927 37.0663C45.7927 37.0663 30.345 52.8309 30.2542 52.514C30.1638 52.1967 13.0851 51.1999 12.8135 51.0187C12.5413 50.8379 3.14808 41.4605 3.33704 41.1883C3.52648 40.9167 3.48129 36.3864 5.33868 35.118C6.81431 34.1102 14.9243 32.7024 18.2631 31.8706C18.2631 31.8706 18.5674 39.8603 24.2175 40.4599C29.8676 41.06 31.4543 31.5229 31.4543 31.5229C34.8513 32.4572 41.3375 33.5227 42.3948 34.1218C43.7541 34.8916 45.7927 37.0663 45.7927 37.0663Z" fill="white"/>
</mask>
<g mask="url(#mask0_1836_6721)">
<path d="M45.794 37.066C45.794 37.066 30.3463 52.8306 30.2554 52.5138C30.165 52.1964 13.0864 51.1997 12.8147 51.0184C12.5426 50.8376 3.1493 41.4602 3.33826 41.1881C3.5277 40.9164 3.48251 36.3862 5.3399 35.1178C6.81553 34.11 14.9255 32.7021 18.2643 31.8703C18.2643 31.8703 18.5686 39.8601 24.2187 40.4597C29.8688 41.0597 31.4555 31.5227 31.4555 31.5227C34.8525 32.4569 41.3387 33.5224 42.396 34.1215C43.7553 34.8913 45.794 37.066 45.794 37.066Z" fill="#49A2A6" stroke="black" stroke-width="0.427393" stroke-linecap="round" stroke-linejoin="round"/>
<path d="M8.72437 35.6184C9.7231 35.6184 10.5327 34.8088 10.5327 33.8101C10.5327 32.8113 9.7231 32.0017 8.72437 32.0017C7.72564 32.0017 6.91602 32.8113 6.91602 33.8101C6.91602 34.8088 7.72564 35.6184 8.72437 35.6184Z" fill="#F5D256" stroke="black" stroke-width="0.427393" stroke-linecap="round" stroke-linejoin="round"/>
<path d="M17.2639 35.6184C18.2626 35.6184 19.0723 34.8088 19.0723 33.8101C19.0723 32.8113 18.2626 32.0017 17.2639 32.0017C16.2652 32.0017 15.4556 32.8113 15.4556 33.8101C15.4556 34.8088 16.2652 35.6184 17.2639 35.6184Z" fill="#F5D256" stroke="black" stroke-width="0.427393" stroke-linecap="round" stroke-linejoin="round"/>
<path d="M25.8037 35.6184C26.8024 35.6184 27.6121 34.8088 27.6121 33.8101C27.6121 32.8113 26.8024 32.0017 25.8037 32.0017C24.805 32.0017 23.9954 32.8113 23.9954 33.8101C23.9954 34.8088 24.805 35.6184 25.8037 35.6184Z" fill="#F5D256" stroke="black" stroke-width="0.427393" stroke-linecap="round" stroke-linejoin="round"/>
<path d="M34.3433 35.6184C35.342 35.6184 36.1516 34.8088 36.1516 33.8101C36.1516 32.8113 35.342 32.0017 34.3433 32.0017C33.3445 32.0017 32.5349 32.8113 32.5349 33.8101C32.5349 34.8088 33.3445 35.6184 34.3433 35.6184Z" fill="#F5D256" stroke="black" stroke-width="0.427393" stroke-linecap="round" stroke-linejoin="round"/>
<path d="M42.8821 35.6184C43.8808 35.6184 44.6904 34.8088 44.6904 33.8101C44.6904 32.8113 43.8808 32.0017 42.8821 32.0017C41.8834 32.0017 41.0737 32.8113 41.0737 33.8101C41.0737 34.8088 41.8834 35.6184 42.8821 35.6184Z" fill="#F5D256" stroke="black" stroke-width="0.427393" stroke-linecap="round" stroke-linejoin="round"/>
<path d="M4.36915 42.627C5.36787 42.627 6.1775 41.8173 6.1775 40.8186C6.1775 39.8199 5.36787 39.0103 4.36915 39.0103C3.37042 39.0103 2.56079 39.8199 2.56079 40.8186C2.56079 41.8173 3.37042 42.627 4.36915 42.627Z" fill="#F5D256" stroke="black" stroke-width="0.427393" stroke-linecap="round" stroke-linejoin="round"/>
<path d="M12.9087 42.627C13.9074 42.627 14.7171 41.8173 14.7171 40.8186C14.7171 39.8199 13.9074 39.0103 12.9087 39.0103C11.91 39.0103 11.1003 39.8199 11.1003 40.8186C11.1003 41.8173 11.91 42.627 12.9087 42.627Z" fill="#F5D256" stroke="black" stroke-width="0.427393" stroke-linecap="round" stroke-linejoin="round"/>
<path d="M21.4485 42.627C22.4472 42.627 23.2568 41.8173 23.2568 40.8186C23.2568 39.8199 22.4472 39.0103 21.4485 39.0103C20.4498 39.0103 19.6401 39.8199 19.6401 40.8186C19.6401 41.8173 20.4498 42.627 21.4485 42.627Z" fill="#F5D256" stroke="black" stroke-width="0.427393" stroke-linecap="round" stroke-linejoin="round"/>
<path d="M29.988 42.627C30.9868 42.627 31.7964 41.8173 31.7964 40.8186C31.7964 39.8199 30.9868 39.0103 29.988 39.0103C28.9893 39.0103 28.1797 39.8199 28.1797 40.8186C28.1797 41.8173 28.9893 42.627 29.988 42.627Z" fill="#F5D256" stroke="black" stroke-width="0.427393" stroke-linecap="round" stroke-linejoin="round"/>
<path d="M38.5269 42.627C39.5256 42.627 40.3352 41.8173 40.3352 40.8186C40.3352 39.8199 39.5256 39.0103 38.5269 39.0103C37.5281 39.0103 36.7185 39.8199 36.7185 40.8186C36.7185 41.8173 37.5281 42.627 38.5269 42.627Z" fill="#F5D256" stroke="black" stroke-width="0.427393" stroke-linecap="round" stroke-linejoin="round"/>
<path d="M8.72461 49.6345C9.72334 49.6345 10.533 48.8249 10.533 47.8262C10.533 46.8275 9.72334 46.0178 8.72461 46.0178C7.72589 46.0178 6.91626 46.8275 6.91626 47.8262C6.91626 48.8249 7.72589 49.6345 8.72461 49.6345Z" fill="#F5D256" stroke="black" stroke-width="0.427393" stroke-linecap="round" stroke-linejoin="round"/>
<path d="M17.2644 49.6348C18.2631 49.6348 19.0728 48.8252 19.0728 47.8264C19.0728 46.8277 18.2631 46.0181 17.2644 46.0181C16.2657 46.0181 15.4561 46.8277 15.4561 47.8264C15.4561 48.8252 16.2657 49.6348 17.2644 49.6348Z" fill="#F5D256" stroke="black" stroke-width="0.427393" stroke-linecap="round" stroke-linejoin="round"/>
<path d="M25.804 49.6345C26.8027 49.6345 27.6123 48.8249 27.6123 47.8262C27.6123 46.8275 26.8027 46.0178 25.804 46.0178C24.8052 46.0178 23.9956 46.8275 23.9956 47.8262C23.9956 48.8249 24.8052 49.6345 25.804 49.6345Z" fill="#F5D256" stroke="black" stroke-width="0.427393" stroke-linecap="round" stroke-linejoin="round"/>
<path d="M34.3435 49.6348C35.3422 49.6348 36.1519 48.8252 36.1519 47.8264C36.1519 46.8277 35.3422 46.0181 34.3435 46.0181C33.3448 46.0181 32.5352 46.8277 32.5352 47.8264C32.5352 48.8252 33.3448 49.6348 34.3435 49.6348Z" fill="#F5D256" stroke="black" stroke-width="0.427393" stroke-linecap="round" stroke-linejoin="round"/>
<path d="M42.8816 49.6348C43.8803 49.6348 44.69 48.8252 44.69 47.8264C44.69 46.8277 43.8803 46.0181 42.8816 46.0181C41.8829 46.0181 41.0732 46.8277 41.0732 47.8264C41.0732 48.8252 41.8829 49.6348 42.8816 49.6348Z" fill="#F5D256" stroke="black" stroke-width="0.427393" stroke-linecap="round" stroke-linejoin="round"/>
</g>
<path d="M45.792 37.0678C45.792 37.0678 30.3443 52.8323 30.2534 52.5155C30.163 52.1981 13.0844 51.2014 12.8127 51.0201C12.5406 50.8393 3.14735 41.462 3.33631 41.1898C3.52575 40.9181 3.48055 36.3879 5.33795 35.1195C6.81358 34.1117 14.9235 32.7039 18.2623 31.872C18.2623 31.872 18.5667 39.8618 24.2168 40.4614C29.8669 41.0614 31.4535 31.5244 31.4535 31.5244C34.8505 32.4586 41.3368 33.5241 42.3941 34.1232C43.7533 34.893 45.792 37.0678 45.792 37.0678Z" stroke="black" stroke-width="0.427393" stroke-linecap="round" stroke-linejoin="round"/>
<path d="M29.3725 14.3811C28.9729 14.1104 28.5392 13.8931 28.1551 13.7532C27.4723 13.5046 26.7992 14.0681 26.3534 14.586C22.8916 12.7997 18.9883 12.8997 17.5088 13.0199C17.3665 13.0315 17.2468 13.043 17.152 13.0531C16.9862 13.0709 16.8962 13.0844 16.8962 13.0844C16.8962 13.0844 16.9078 13.0531 16.9313 12.9959C17.1963 12.3569 19.0094 8.47236 23.846 8.67382C24.973 8.72094 25.8765 9.05078 26.6001 9.54026C28.0906 10.5481 28.8205 12.2324 29.1744 13.5195C29.2609 13.8364 29.3254 14.1287 29.3725 14.3811Z" fill="#F5D256" stroke="black" stroke-width="0.427393" stroke-linecap="round" stroke-linejoin="round"/>
<path d="M26.6002 9.54026C26.5752 9.59795 26.5458 9.65421 26.5122 9.70806C26.2689 10.0946 25.828 10.3206 25.3813 10.4144C24.9341 10.5077 24.4721 10.486 24.0153 10.4817C23.0402 10.4721 22.0574 10.5452 21.1174 10.8043C20.1774 11.064 19.2783 11.5174 18.5806 12.1987C18.3315 12.441 18.1051 12.7151 17.807 12.893C17.7151 12.9478 17.6137 12.9916 17.5089 13.0199C17.3911 13.0521 17.2694 13.0651 17.1521 13.0531C17.0756 13.0449 17.0011 13.0267 16.9314 12.9959C17.1963 12.3569 19.0095 8.47236 23.846 8.67382C24.9731 8.72094 25.8765 9.05078 26.6002 9.54026Z" fill="#FFE8A9"/>
<path d="M29.3725 14.3811C28.9729 14.1104 28.5392 13.8931 28.1551 13.7532C27.4723 13.5046 26.7992 14.0681 26.3534 14.586C21.9775 12.3281 16.8962 13.0844 16.8962 13.0844C16.8962 13.0844 18.5767 8.45411 23.846 8.67384C27.2925 8.8176 28.6489 11.6073 29.1744 13.5195C29.2609 13.8364 29.3254 14.1287 29.3725 14.3811Z" stroke="black" stroke-width="0.427393" stroke-linecap="round" stroke-linejoin="round"/>
<path d="M19.8376 26.2061C22.1816 25.4339 24.2165 23.8982 24.2165 23.8982" stroke="black" stroke-width="0.427393" stroke-linecap="round" stroke-linejoin="round"/>
<path d="M27.9029 19.2407C27.6769 19.2931 27.4327 19.3364 27.1687 19.371" stroke="black" stroke-width="0.427393" stroke-linecap="round" stroke-linejoin="round"/>
<path d="M25.8259 15.3153C25.8259 15.3153 25.899 15.1889 26.0269 15.0067C26.113 14.8845 26.2236 14.7374 26.3539 14.5859" stroke="black" stroke-width="0.427393" stroke-linecap="round" stroke-linejoin="round"/>
<path d="M31.4537 31.5242C31.4537 31.5242 29.867 41.0612 24.2169 40.4611C18.5668 39.8616 18.2625 31.8718 18.2625 31.8718C19.1265 31.6569 19.6708 31.4804 19.6987 31.3593C19.6987 31.3593 20.2554 38.4422 24.2169 38.6355C28.1783 38.8292 29.4987 30.7703 29.4987 30.7703C29.767 31.0015 30.4843 31.2573 31.4537 31.5242Z" fill="#E938B5" stroke="black" stroke-width="0.427393" stroke-linecap="round" stroke-linejoin="round"/>
<path d="M26.3541 14.5859H26.3533" stroke="black" stroke-width="0.427393" stroke-linecap="round" stroke-linejoin="round"/>
<path d="M36.5513 18.0181C36.1113 18.9581 30.6882 16.7651 30.618 16.7372C30.6382 16.6665 30.6584 16.5944 30.6771 16.5213C30.882 15.727 30.2002 14.9408 29.3731 14.3812C29.326 14.1287 29.2616 13.8364 29.175 13.5195C29.2577 13.557 36.9922 17.0766 36.5513 18.0181Z" fill="#E86F3A" stroke="black" stroke-width="0.427393" stroke-linecap="round" stroke-linejoin="round"/>
<path d="M30.619 16.7363H30.6182" stroke="black" stroke-width="0.427393" stroke-linecap="round" stroke-linejoin="round"/>
<path d="M19.029 11.5267C19.2141 11.4219 19.4219 11.3633 19.6344 11.3464C20.2066 11.3012 21.6572 11.2608 22.1313 11.5921C22.4722 11.8306 22.2048 12.2499 21.7389 12.3331C21.2725 12.4162 19.481 12.223 19.1488 12.2162C18.8555 12.2105 18.4506 11.8551 19.029 11.5272V11.5267Z" fill="black" stroke="black" stroke-width="0.427393" stroke-linecap="round" stroke-linejoin="round"/>
<path d="M23.772 15.7822H20.2712C20.025 15.7822 19.8254 15.9818 19.8254 16.2279V18.2248C19.8254 18.4709 20.025 18.6705 20.2712 18.6705H23.772C24.0182 18.6705 24.2177 18.4709 24.2177 18.2248V16.2279C24.2177 15.9818 24.0182 15.7822 23.772 15.7822Z" fill="#9153D5" stroke="black" stroke-width="0.427393" stroke-linecap="round" stroke-linejoin="round"/>
<path d="M17.3701 15.7822H13.8693C13.6231 15.7822 13.4236 15.9818 13.4236 16.2279V18.2248C13.4236 18.4709 13.6231 18.6705 13.8693 18.6705H17.3701C17.6163 18.6705 17.8159 18.4709 17.8159 18.2248V16.2279C17.8159 15.9818 17.6163 15.7822 17.3701 15.7822Z" fill="#9153D5" stroke="black" stroke-width="0.427393" stroke-linecap="round" stroke-linejoin="round"/>
<path d="M17.8157 16.6605C17.8157 16.6605 18.5523 15.9292 19.8255 16.6605" stroke="black" stroke-width="0.427393" stroke-linecap="round" stroke-linejoin="round"/>
<path d="M26.9761 16.2521C27.4925 15.7795 28.1882 15.5078 28.8883 15.5059C29.1984 15.5049 29.5408 15.5732 29.7268 15.8208" stroke="black" stroke-width="0.427393" stroke-linecap="round" stroke-linejoin="round"/>
<path d="M27.8801 15.6807C28.1427 15.6994 28.4114 15.7191 28.6538 15.8225C28.8961 15.9259 29.1115 16.1297 29.1562 16.3894" stroke="black" stroke-width="0.427393" stroke-linecap="round" stroke-linejoin="round"/>
<path d="M28.0838 18.5474C28.5434 18.5474 28.9161 18.1748 28.9161 17.7151C28.9161 17.2554 28.5434 16.8828 28.0838 16.8828C27.6241 16.8828 27.2515 17.2554 27.2515 17.7151C27.2515 18.1748 27.6241 18.5474 28.0838 18.5474Z" fill="#E86F3A" stroke="black" stroke-width="0.427393" stroke-linecap="round" stroke-linejoin="round"/>
<path d="M18.6751 18.0654C18.6751 18.0654 17.8245 19.5045 18.326 19.8752C18.8275 20.2459 19.4814 19.33 19.4814 19.33" stroke="black" stroke-width="0.427393" stroke-linecap="round" stroke-linejoin="round"/>
<path d="M21.4935 20.3298L19.0476 22.5002C19.0476 22.5002 20.19 24.3442 21.7575 23.0599C23.3851 21.7261 21.4935 20.3298 21.4935 20.3298Z" fill="white" stroke="black" stroke-width="0.427393" stroke-linecap="round" stroke-linejoin="round"/>
<path d="M50.9908 29.8935C50.9908 29.8935 48.5016 34.9368 46.4995 38.9267C45.2142 41.4875 44.1295 43.6137 44.0309 43.6954C43.7785 43.905 37.551 36.2918 37.551 36.2918L36.8033 35.3893L36.4946 35.0166L35.3983 33.692L34.8858 33.0727C34.1299 33.3973 30.6257 33.4583 29.2237 33.1381C29.1602 33.1424 24.0361 33.3194 23.8472 32.3544C23.6919 31.5615 28.5049 31.31 28.5049 31.31C27.8375 30.8066 28.3553 29.8012 28.3553 29.8012C27.7909 29.2464 28.3375 28.2972 28.3375 28.2972C27.7048 27.7563 27.9288 27.2914 28.2125 26.9543C28.4967 26.6177 31.623 26.2446 31.623 26.2446C31.5095 25.9797 31.4172 25.7013 31.3446 25.419C31.3239 25.3402 31.3056 25.2609 31.2878 25.181C30.9541 23.654 31.1724 22.1 31.6999 22.0846C32.3524 22.0649 33.1472 24.8041 34.8892 25.7753C36.1951 26.5033 36.6182 28.7151 36.6182 28.7151C36.6182 28.7151 37.2336 28.7872 38.2145 28.9006C38.7405 28.9612 39.3718 29.0343 40.0695 29.1151C40.4234 29.156 40.7946 29.1988 41.1778 29.243L47.6116 29.6695L50.9908 29.8935Z" fill="#94624B" stroke="black" stroke-width="0.427393" stroke-linecap="round" stroke-linejoin="round"/>
<path d="M47.6114 29.6687C46.5806 29.7596 45.4958 29.5129 44.4481 29.5976C43.2249 29.6966 42.0902 30.2433 40.9257 30.6299C39.7606 31.0169 38.4418 31.2352 37.3383 30.6991C36.4704 30.2774 35.8785 29.4596 35.1977 28.7759C33.923 27.4964 32.3585 26.6179 31.2872 25.1793C30.9535 23.6523 31.1718 22.0983 31.6993 22.0829C32.3517 22.0632 33.1465 24.8024 34.8885 25.7736C36.1944 26.5016 36.6175 28.7133 36.6175 28.7133C36.6175 28.7133 37.233 28.7855 38.2138 28.8989C38.7399 28.9595 39.3712 29.0326 40.0688 29.1134C40.4227 29.1543 40.7939 29.197 41.1771 29.2413L47.6109 29.6678L47.6114 29.6687Z" fill="#AD8679"/>
<path d="M46.4987 38.9259C45.2135 41.4867 44.1288 43.6129 44.0302 43.6946C43.7778 43.9043 37.5503 36.291 37.5503 36.291L36.8026 35.3885L36.4939 35.0159C36.7458 34.976 36.9867 35.1241 37.1988 35.2659C38.4412 36.0996 39.7769 37.0089 41.2718 36.9531C41.7968 36.9339 42.3185 36.7925 42.8412 36.844C43.4691 36.905 44.035 37.2368 44.5707 37.5705C45.2304 37.9825 45.8929 38.4273 46.4992 38.9269L46.4987 38.9259Z" fill="#663421"/>
<path d="M41.177 29.243C40.7938 29.1992 40.4226 29.156 40.0688 29.1151C39.3711 29.0343 38.7398 28.9612 38.2138 28.9006C37.2334 28.7867 36.6174 28.715 36.6174 28.715C36.6174 28.715 36.1938 26.5028 34.8884 25.7753C33.1464 24.8041 32.3516 22.0653 31.6992 22.0846C31.1448 22.1009 30.9318 23.8194 31.3438 25.4186C31.4164 25.7008 31.5083 25.9797 31.6222 26.2441C31.6222 26.2441 28.496 26.6172 28.2118 26.9538C27.9281 27.2909 27.7041 27.7553 28.3368 28.2967C28.3368 28.2967 27.7901 29.2463 28.3546 29.8007C28.3546 29.8007 27.8368 30.8061 28.5041 31.3095C28.5041 31.3095 23.6911 31.5615 23.8465 32.3539C24.0354 33.3189 29.1595 33.1419 29.223 33.1376C30.6245 33.4578 34.1292 33.3968 34.8851 33.0722L35.3976 33.6915L36.8026 35.3888L37.5502 36.2913C37.5502 36.2913 43.7783 43.905 44.0302 43.6954C44.2822 43.4858 50.9905 29.893 50.9905 29.893L41.1775 29.243H41.177Z" stroke="black" stroke-width="0.427393" stroke-linecap="round" stroke-linejoin="round"/>
<path d="M19.8345 32.76C19.4129 32.9105 19.0369 33.1875 18.7686 33.5457" stroke="black" stroke-width="0.427393" stroke-linecap="round" stroke-linejoin="round"/>
<path d="M20.2384 34.5347C19.6937 34.6534 19.2076 35.0198 18.9436 35.5112" stroke="black" stroke-width="0.427393" stroke-linecap="round" stroke-linejoin="round"/>
<path d="M20.9341 36.3081C20.3912 36.5014 19.9715 37.0053 19.8792 37.5741" stroke="black" stroke-width="0.427393" stroke-linecap="round" stroke-linejoin="round"/>
<path d="M22.0261 37.6384C21.5876 37.9197 21.2737 38.3871 21.1785 38.8991" stroke="black" stroke-width="0.427393" stroke-linecap="round" stroke-linejoin="round"/>
<path d="M23.3394 38.627C23.2182 39.1943 23.0966 39.7689 23.1158 40.3488" stroke="black" stroke-width="0.427393" stroke-linecap="round" stroke-linejoin="round"/>
<path d="M25.0122 38.7241C25.1598 39.1891 25.2084 39.6848 25.154 40.1695" stroke="black" stroke-width="0.427393" stroke-linecap="round" stroke-linejoin="round"/>
<path d="M26.282 37.9597C26.571 38.0487 26.821 38.2434 27.0037 38.4848C27.1859 38.7261 27.3037 39.0117 27.3754 39.305" stroke="black" stroke-width="0.427393" stroke-linecap="round" stroke-linejoin="round"/>
<path d="M27.3694 36.7036C27.7805 36.6945 28.1421 36.9565 28.4671 37.208C28.6522 37.3508 28.8469 37.5099 28.9109 37.735" stroke="black" stroke-width="0.427393" stroke-linecap="round" stroke-linejoin="round"/>
<path d="M28.4192 35.1805C28.9207 35.0776 29.4611 35.18 29.89 35.4594C29.9415 35.493 29.9958 35.5349 30.0073 35.5954" stroke="black" stroke-width="0.427393" stroke-linecap="round" stroke-linejoin="round"/>
<path d="M28.9731 33.6892C29.5011 33.5849 30.0502 33.5878 30.5772 33.6974C30.6656 33.7157 30.7656 33.7469 30.8012 33.8301" stroke="black" stroke-width="0.427393" stroke-linecap="round" stroke-linejoin="round"/>
</g>
<defs>
<clipPath id="clip0_1836_6721">
<rect width="48" height="48" rx="24" fill="white"/>
</clipPath>
</defs>
</svg>
