<svg width="48" height="48" viewBox="0 0 48 48" fill="none" xmlns="http://www.w3.org/2000/svg">
<g clip-path="url(#clip0_1836_3352)">
<rect y="-0.000488281" width="48" height="48" rx="24" fill="#F8C9D2"/>
<path d="M2.46094 37.9153L7.32873 43.0745L12.273 48.3144L14.8141 51.008C14.8141 51.008 29.3838 51.3628 32.0019 51.4047C32.2711 51.4085 32.4139 51.4095 32.4014 51.4066C32.2687 51.3734 45.7605 41.5373 45.7605 41.5373C45.7605 41.5373 43.9949 37.3071 42.3044 36.2536C42.1861 36.1801 41.9683 36.0925 41.6697 35.9949C40.7225 35.6838 38.9651 35.2651 37.0264 34.8309C34.9469 34.365 32.6577 33.8817 30.934 33.4952C30.344 33.3625 29.8204 33.2418 29.3939 33.1365C29.3939 33.1365 29.6786 39.8698 24.2213 39.9299C24.1261 39.9309 24.0323 39.929 23.9395 39.9237C23.915 39.9227 23.891 39.9213 23.8664 39.9194C23.7313 39.9093 23.5991 39.8934 23.4688 39.8718C23.4361 39.866 23.4039 39.8602 23.3717 39.854C23.3395 39.8477 23.3073 39.8415 23.275 39.8343C23.1832 39.8145 23.0923 39.7915 23.0029 39.766C22.9822 39.7602 22.9611 39.754 22.9404 39.7472C22.8889 39.7318 22.8385 39.7155 22.788 39.6982C22.763 39.69 22.7385 39.6814 22.7139 39.6722C22.6529 39.6501 22.5928 39.627 22.5331 39.6025C22.5033 39.5905 22.474 39.578 22.4442 39.565C22.4144 39.552 22.385 39.539 22.3562 39.5256C22.3283 39.5131 22.3009 39.5001 22.2735 39.4871C22.2499 39.4751 22.2264 39.4636 22.2028 39.452C22.1817 39.4414 22.1605 39.4309 22.1394 39.4198C22.1216 39.4102 22.1038 39.401 22.0865 39.3919C22.0619 39.3789 22.0379 39.3655 22.0134 39.352C21.9922 39.34 21.9715 39.3284 21.9509 39.3164C21.9326 39.3063 21.9148 39.2957 21.8965 39.2847C21.8792 39.2746 21.8619 39.2645 21.8446 39.2539C21.8105 39.2332 21.7773 39.2126 21.7436 39.1914C21.7225 39.1779 21.7018 39.1645 21.6811 39.151C21.6542 39.1332 21.6273 39.1154 21.6004 39.0972C21.5744 39.0799 21.5484 39.0621 21.5229 39.0443C21.521 39.0424 21.5191 39.0409 21.5172 39.04C21.4917 39.0222 21.4667 39.0039 21.4417 38.9856C21.4162 38.9673 21.3907 38.9486 21.3657 38.9298C21.3224 38.8971 21.2801 38.8645 21.2383 38.8313C21.2138 38.812 21.1897 38.7928 21.1657 38.7731C20.9782 38.6207 20.7988 38.4572 20.6267 38.2855C20.6036 38.2625 20.5805 38.2394 20.5579 38.2158C20.5349 38.1928 20.5123 38.1692 20.4897 38.1451C20.4781 38.1331 20.4671 38.1216 20.456 38.1096C20.4353 38.0879 20.4147 38.0663 20.3949 38.0442C20.381 38.0298 20.368 38.0153 20.3555 38.0014C20.3334 37.9773 20.3113 37.9533 20.2896 37.9288C20.2796 37.9172 20.2695 37.9062 20.2594 37.8946C20.2377 37.8701 20.2166 37.8461 20.1954 37.8216C19.9627 37.5518 19.7458 37.2701 19.5453 36.984C19.5271 36.958 19.5088 36.932 19.491 36.9056C19.4723 36.8787 19.4535 36.8518 19.4352 36.8243C19.4179 36.7993 19.4011 36.7743 19.3848 36.7489C19.3626 36.7157 19.3405 36.683 19.3189 36.6498C19.3064 36.6306 19.2939 36.6113 19.2814 36.5921C19.2641 36.5647 19.2468 36.5378 19.2299 36.5109C19.1785 36.4306 19.129 36.3503 19.0799 36.2695C19.0708 36.2541 19.0616 36.2392 19.053 36.2243C19.0458 36.2123 19.0386 36.2007 19.0318 36.1892C19.0155 36.1623 19.0001 36.1358 18.9847 36.1094C18.9688 36.0824 18.953 36.056 18.9381 36.0296C18.8765 35.9233 18.8169 35.8175 18.7597 35.7127C18.7515 35.6983 18.7438 35.6834 18.7361 35.6689C18.7294 35.6574 18.7236 35.6463 18.7174 35.6348C18.6539 35.517 18.5933 35.4006 18.5351 35.2862C18.5222 35.2612 18.5097 35.2367 18.4976 35.2117C18.312 34.8415 18.1567 34.4967 18.0312 34.1981C18.0173 34.1649 18.0038 34.1322 17.9904 34.1005C17.8928 33.864 17.8149 33.6601 17.7572 33.5019C17.75 33.4822 17.7432 33.4634 17.737 33.4456C17.7331 33.4365 17.7303 33.4269 17.7269 33.4182C17.7216 33.4033 17.7163 33.3894 17.712 33.3759C17.7067 33.361 17.7014 33.3466 17.6966 33.3326C17.6903 33.3144 17.6846 33.2975 17.6788 33.2817C17.6639 33.2384 17.6528 33.2043 17.6447 33.1797C17.6432 33.1749 17.6418 33.1706 17.6403 33.1668C17.6341 33.1471 17.6307 33.1365 17.6307 33.1365C17.4124 33.2033 17.1691 33.2692 16.9061 33.3351C15.5098 33.6832 13.5491 34.0164 11.7321 34.3097C11.6066 34.3299 11.482 34.3501 11.3585 34.3698C10.8815 34.4462 10.4185 34.5203 9.98188 34.5905C9.29768 34.7006 8.67983 34.8025 8.17978 34.8943C7.78839 34.9665 7.46961 35.0319 7.24603 35.0905C5.35209 35.5891 2.46094 37.9153 2.46094 37.9153Z" fill="#BF9EF9" stroke="black" stroke-width="0.427393" stroke-linecap="round" stroke-linejoin="round"/>
<path d="M32.6836 43.6949C33.2871 43.9887 34.0698 44.1642 34.5838 43.7329C34.9887 43.3935 35.0642 42.8141 35.1844 42.2996C35.5743 40.6345 36.7571 39.1729 38.3044 38.4444C38.9953 38.1194 39.7488 37.9343 40.4205 37.5717C41.2008 37.1501 41.5807 36.5909 41.6696 35.9951C40.7224 35.684 38.965 35.2653 37.0264 34.8311C34.9469 34.3652 32.6577 33.8819 30.9339 33.4954C29.8584 34.6109 29.1674 36.1052 29.0963 37.6559C28.9823 40.1326 30.4546 42.6107 32.6836 43.6949Z" fill="#49A2A6" stroke="black" stroke-width="0.427393" stroke-linecap="round" stroke-linejoin="round"/>
<path d="M12.2728 48.3154L14.8139 51.009C14.8139 51.009 29.3837 51.3638 32.0017 51.4057C31.8594 50.269 31.3911 49.1727 30.6266 48.3178C29.1721 46.6912 26.7286 46.0296 24.6519 46.7009C23.5119 47.0692 22.4065 47.8087 21.2237 47.6183C20.0428 47.4283 19.2134 46.3734 18.1489 45.8291C16.4204 44.9454 14.1312 45.6036 12.9397 47.1365C12.6594 47.4971 12.4377 47.8947 12.2728 48.3154Z" fill="#49A2A6" stroke="black" stroke-width="0.427393" stroke-linecap="round" stroke-linejoin="round"/>
<path d="M2.46094 37.9157L7.32873 43.0748C7.35854 42.4733 7.34652 41.8675 7.42778 41.2703C7.7081 39.2105 9.17892 37.3565 11.1209 36.6151C11.62 36.4247 12.2408 36.1953 12.3028 35.665C12.3509 35.2519 12.0129 34.9043 11.6926 34.6389C11.5825 34.5475 11.4715 34.4576 11.3585 34.3701C10.8815 34.4466 10.4185 34.5206 9.98188 34.5908C9.29768 34.7009 8.67983 34.8029 8.17978 34.8947C7.78839 34.9668 7.46961 35.0322 7.24603 35.0909C5.35209 35.5895 2.46094 37.9157 2.46094 37.9157Z" fill="#49A2A6" stroke="black" stroke-width="0.427393" stroke-linecap="round" stroke-linejoin="round"/>
<path opacity="0.57" d="M8.17969 34.894C8.23739 35.2508 8.3398 35.6037 8.46289 35.9417C9.04035 37.5289 10.0948 38.9694 11.5358 39.8508C12.9763 40.7321 14.814 41.0081 16.3993 40.4244C17.3974 40.0565 18.2648 39.332 18.8091 38.4179C19.2515 37.6755 19.4433 36.9899 19.0529 36.2239C19.0389 36.1961 19.024 36.1677 19.0082 36.1398C18.9202 35.9826 18.8293 35.8254 18.736 35.6686C18.3461 35.0137 17.9061 34.3699 17.3941 33.8179C17.2388 33.6501 17.0758 33.4891 16.906 33.3347C15.5097 33.6828 13.549 34.016 11.732 34.3093C11.1233 34.4074 10.5314 34.5017 9.98179 34.5901C9.29759 34.7002 8.67974 34.8022 8.17969 34.894Z" fill="#835ED3"/>
<path d="M2.46094 37.9153L14.8141 51.008C14.8141 51.008 32.5346 51.4398 32.4014 51.4066C32.2687 51.3734 45.7605 41.5373 45.7605 41.5373C45.7605 41.5373 43.9949 37.3071 42.3044 36.2536C41.811 35.9464 39.5757 35.4016 37.0264 34.8309C34.2353 34.2058 31.0672 33.549 29.3939 33.1365C29.3939 33.1365 29.6786 39.8698 24.2213 39.9299C24.1261 39.9309 24.0323 39.929 23.9395 39.9237C23.915 39.9227 23.891 39.9213 23.8664 39.9194C23.7313 39.9093 23.5991 39.8934 23.4688 39.8718C23.4361 39.866 23.4039 39.8602 23.3717 39.854C23.3395 39.8477 23.3073 39.8415 23.275 39.8343C23.1832 39.8145 23.0923 39.7915 23.0029 39.766C22.9822 39.7602 22.9611 39.754 22.9404 39.7472C22.8889 39.7318 22.8385 39.7155 22.788 39.6982C22.763 39.69 22.7385 39.6814 22.7139 39.6722C22.6529 39.6501 22.5928 39.627 22.5331 39.6025C22.5033 39.5905 22.474 39.578 22.4442 39.565C22.4144 39.552 22.3851 39.539 22.3562 39.5256C22.3283 39.5131 22.3009 39.5001 22.2735 39.4871C22.2499 39.4751 22.2264 39.4636 22.2028 39.452C22.1817 39.4414 22.1605 39.4309 22.1394 39.4198C22.1216 39.4102 22.1038 39.401 22.0865 39.3919C22.0619 39.3789 22.0379 39.3655 22.0134 39.352C21.9922 39.34 21.9715 39.3284 21.9509 39.3164C21.9326 39.3063 21.9148 39.2957 21.8965 39.2847C21.8792 39.2746 21.8619 39.2645 21.8446 39.2539C21.8105 39.2332 21.7773 39.2126 21.7436 39.1914C21.7225 39.1779 21.7018 39.1645 21.6811 39.151C21.6542 39.1332 21.6273 39.1154 21.6004 39.0972C21.5744 39.0799 21.5484 39.0621 21.5229 39.0443C21.521 39.0424 21.5191 39.0409 21.5172 39.04C21.4917 39.0222 21.4667 39.0039 21.4417 38.9856C21.4162 38.9673 21.3907 38.9486 21.3657 38.9298C21.3224 38.8971 21.2801 38.8645 21.2383 38.8313C21.2138 38.812 21.1897 38.7928 21.1657 38.7731C20.9782 38.6207 20.7988 38.4572 20.6267 38.2855C20.6036 38.2625 20.5805 38.2394 20.5579 38.2158C20.5349 38.1928 20.5123 38.1692 20.4897 38.1452C20.4781 38.1331 20.4671 38.1216 20.456 38.1096C20.4353 38.0879 20.4147 38.0663 20.3949 38.0442C20.381 38.0298 20.368 38.0153 20.3555 38.0014C20.3334 37.9773 20.3113 37.9533 20.2896 37.9288C20.2796 37.9172 20.2695 37.9062 20.2594 37.8946C20.2377 37.8701 20.2166 37.8461 20.1954 37.8216C19.9627 37.5518 19.7458 37.2701 19.5453 36.984C19.5271 36.958 19.5088 36.932 19.491 36.9056C19.4723 36.8787 19.4535 36.8518 19.4352 36.8243C19.4179 36.7993 19.4011 36.7743 19.3848 36.7489C19.3626 36.7157 19.3405 36.683 19.3189 36.6498C19.3064 36.6306 19.2939 36.6113 19.2814 36.5921C19.2641 36.5647 19.2468 36.5378 19.2299 36.5109C19.1785 36.4306 19.129 36.3503 19.0799 36.2695C19.0708 36.2541 19.0616 36.2392 19.053 36.2243C19.0458 36.2123 19.0386 36.2007 19.0318 36.1892C19.0155 36.1623 19.0001 36.1358 18.9847 36.1094C18.9688 36.0824 18.953 36.056 18.9381 36.0296C18.8765 35.9233 18.8169 35.8175 18.7597 35.7127C18.7515 35.6983 18.7438 35.6834 18.7361 35.6689C18.7294 35.6574 18.7236 35.6463 18.7174 35.6348C18.6539 35.517 18.5933 35.4006 18.5351 35.2862C18.5222 35.2612 18.5097 35.2367 18.4976 35.2117C18.312 34.8415 18.1567 34.4967 18.0312 34.1981C18.0173 34.1649 18.0038 34.1322 17.9904 34.1005C17.8928 33.864 17.8149 33.6601 17.7572 33.5019C17.75 33.4822 17.7432 33.4634 17.737 33.4456C17.7331 33.4365 17.7303 33.4269 17.7269 33.4182C17.7216 33.4033 17.7163 33.3894 17.712 33.3759C17.7067 33.361 17.7014 33.3466 17.6966 33.3326C17.6903 33.3144 17.6846 33.2975 17.6788 33.2817C17.6639 33.2384 17.6528 33.2043 17.6447 33.1797C17.6432 33.1749 17.6418 33.1706 17.6403 33.1668C17.6341 33.1471 17.6307 33.1365 17.6307 33.1365C17.4124 33.2033 17.1691 33.2692 16.9061 33.3351C15.5098 33.6832 13.5491 34.0164 11.7321 34.3097C11.1233 34.4078 10.5315 34.502 9.98188 34.5905C9.29768 34.7006 8.67983 34.8025 8.17978 34.8943C7.78839 34.9665 7.46961 35.0319 7.24603 35.0905C5.35209 35.5891 2.46094 37.9153 2.46094 37.9153Z" stroke="black" stroke-width="0.427393" stroke-linecap="round" stroke-linejoin="round"/>
<path d="M18.7533 32.6051C18.7533 32.6051 20.9328 37.8528 24.3048 37.7874C27.6773 37.722 28.2148 32.7643 28.2148 32.7643C28.0489 32.3988 28.249 27.6811 28.249 27.6811C29.651 28.1566 31.1617 28.3441 32.4239 27.7383C32.6407 27.6344 32.8499 27.507 33.0499 27.3536C35.7353 25.2977 33.6755 19.273 32.0243 15.5217C32.0239 15.5212 32.0239 15.5207 32.0239 15.5207C31.7142 14.8158 31.418 14.1912 31.1709 13.6883C30.8656 13.0676 30.5978 12.5709 30.4876 12.3704C30.1617 12.3675 29.7717 12.3766 29.3351 12.3983C28.0018 12.4642 26.2339 12.6449 24.5322 12.9358H24.5318C24.5226 13.308 24.387 16.6396 22.3839 18.7556C21.73 19.4466 20.9126 20.0188 20.1015 20.6049L20.101 20.6054C20.101 20.6054 20.1005 20.6179 20.0991 20.6429C20.0818 20.9857 19.9457 23.6335 19.7197 26.3588C19.4841 29.1961 19.1509 32.1176 18.7533 32.6051Z" fill="#FFD9D4" stroke="black" stroke-width="0.427393" stroke-linecap="round" stroke-linejoin="round"/>
<path d="M18.7533 32.6051C18.7533 32.6051 20.9328 37.8528 24.3048 37.7874C27.6773 37.722 28.2148 32.7643 28.2148 32.7643C28.0489 32.3988 28.249 27.6811 28.249 27.6811C29.651 28.1566 31.1617 28.3441 32.4239 27.7383C32.6407 27.6344 32.8499 27.507 33.0499 27.3536C35.7353 25.2977 33.6755 19.273 32.0243 15.5217C32.0239 15.5212 32.0239 15.5207 32.0239 15.5207C31.7142 14.8158 31.418 14.1912 31.1709 13.6883C30.8656 13.0676 30.5978 12.5709 30.4876 12.3704C30.1617 12.3675 29.7717 12.3766 29.3351 12.3983C28.0018 12.4642 26.2339 12.6449 24.5322 12.9358H24.5318C24.5226 13.308 24.387 16.6396 22.3839 18.7556C21.73 19.4466 20.9126 20.0188 20.1015 20.6049L20.101 20.6054C20.101 20.6054 20.1005 20.6179 20.0991 20.6429C20.0818 20.9857 19.9457 23.6335 19.7197 26.3588C19.4841 29.1961 19.1509 32.1176 18.7533 32.6051Z" fill="#FFD9D4" stroke="black" stroke-width="0.427393" stroke-linecap="round" stroke-linejoin="round"/>
<path d="M17.6309 33.137C17.6309 33.137 17.6342 33.1476 17.6405 33.1673C17.6419 33.1712 17.6434 33.1755 17.6448 33.1803C17.653 33.2048 17.664 33.2389 17.6789 33.2822C17.6847 33.2981 17.6905 33.3149 17.6967 33.3332C17.7015 33.3471 17.7068 33.3616 17.7121 33.3765C17.7169 33.3899 17.7217 33.4039 17.727 33.4188C17.7304 33.4274 17.7333 33.437 17.7371 33.4462C17.7434 33.464 17.7501 33.4827 17.7573 33.5024C17.815 33.6606 17.8929 33.8645 17.9905 34.1011C18.004 34.1328 18.0174 34.1655 18.0314 34.1987C18.1569 34.4972 18.3122 34.842 18.4978 35.2122C18.5098 35.2372 18.5223 35.2617 18.5353 35.2867C18.5935 35.4012 18.654 35.5175 18.7175 35.6353C18.7315 35.6613 18.7459 35.6873 18.7598 35.7132C18.817 35.8181 18.8767 35.9238 18.9382 36.0301C18.9536 36.0565 18.969 36.083 18.9848 36.1099C19.0002 36.1364 19.0161 36.1633 19.032 36.1897C19.0478 36.2167 19.0642 36.2436 19.08 36.27C19.1291 36.3508 19.1786 36.4311 19.2301 36.5114C19.2469 36.5383 19.2642 36.5652 19.2815 36.5922C19.294 36.6119 19.3065 36.6311 19.319 36.6504C19.3406 36.6835 19.3628 36.7162 19.3849 36.7494C19.4012 36.7749 19.4185 36.7999 19.4354 36.8249C19.4536 36.8523 19.4724 36.8792 19.4911 36.9061C19.5089 36.9326 19.5272 36.9586 19.5455 36.9845C19.746 37.2706 19.9628 37.5524 20.1955 37.8221C20.2167 37.8466 20.2379 37.8707 20.2595 37.8952C20.2696 37.9067 20.2797 37.9178 20.2898 37.9293C20.3114 37.9538 20.3335 37.9779 20.3557 38.0019C20.3682 38.0159 20.3811 38.0303 20.3951 38.0447C20.4148 38.0668 20.4355 38.0885 20.4561 38.1101C20.4672 38.1221 20.4783 38.1337 20.4898 38.1457C20.5124 38.1697 20.535 38.1933 20.5581 38.2164C20.5807 38.2399 20.6038 38.263 20.6268 38.2861C20.799 38.4577 20.9783 38.6212 21.1658 38.7736C21.1899 38.7934 21.2139 38.8126 21.2384 38.8318C21.2803 38.865 21.3226 38.8977 21.3658 38.9304C21.3909 38.9491 21.4163 38.9679 21.4418 38.9862C21.4668 39.0044 21.4918 39.0227 21.5173 39.0405C21.5192 39.0415 21.5212 39.0429 21.5231 39.0448C21.5486 39.0626 21.5745 39.0804 21.6005 39.0977C21.6274 39.116 21.6543 39.1338 21.6813 39.1516C21.7019 39.165 21.7226 39.1785 21.7438 39.192C21.7774 39.2131 21.8106 39.2338 21.8447 39.2545C21.8621 39.265 21.8794 39.2751 21.8967 39.2852C21.9145 39.2963 21.9327 39.3069 21.951 39.317C21.9717 39.329 21.9924 39.3405 22.0135 39.3525C22.038 39.366 22.0621 39.3795 22.0866 39.3925C22.1039 39.4016 22.1217 39.4107 22.1395 39.4203C22.1606 39.4314 22.1818 39.442 22.203 39.4526C22.2265 39.4641 22.2501 39.4756 22.2736 39.4877C22.301 39.5006 22.3284 39.5136 22.3563 39.5261C22.3852 39.5396 22.4145 39.5526 22.4443 39.5655C22.4741 39.5785 22.5035 39.591 22.5333 39.603C22.5929 39.6276 22.653 39.6507 22.7141 39.6728C22.7386 39.6819 22.7631 39.6906 22.7881 39.6987C22.8386 39.716 22.8891 39.7324 22.9405 39.7478C22.9612 39.7545 22.9824 39.7608 23.003 39.7665C23.0925 39.792 23.1833 39.8151 23.2752 39.8348C23.3074 39.842 23.3396 39.8483 23.3718 39.8545C23.404 39.8608 23.4362 39.8665 23.4689 39.8723C23.5992 39.8939 23.7315 39.9098 23.8666 39.9199C23.8911 39.9218 23.9151 39.9233 23.9397 39.9242C24.0325 39.9295 24.1262 39.9314 24.2214 39.9305C29.6787 39.8704 29.3941 33.137 29.3941 33.137C28.6853 32.962 28.2444 32.8312 28.2146 32.7649C28.2146 32.7649 27.6771 37.7226 24.3046 37.788C20.9326 37.8534 18.7531 32.6057 18.7531 32.6057H18.7526C18.6079 32.7841 18.205 32.9615 17.6309 33.137Z" fill="#F5D256" stroke="black" stroke-width="0.427393" stroke-linecap="round" stroke-linejoin="round"/>
<path d="M30.4344 12.2754C30.4344 12.2754 30.4532 12.309 30.4873 12.3716" stroke="black" stroke-width="0.427393" stroke-linecap="round" stroke-linejoin="round"/>
<path d="M18.3088 17.3927C18.8536 17.3028 19.2099 17.2273 19.2099 17.2273" stroke="black" stroke-width="0.427393" stroke-linecap="round" stroke-linejoin="round"/>
<path d="M14.5974 14.8065C14.6681 14.7676 14.7407 14.7287 14.8147 14.6902" stroke="black" stroke-width="0.427393" stroke-linecap="round" stroke-linejoin="round"/>
<path d="M14.8141 14.6902C18.6601 12.691 27.1163 10.9543 31.899 11.1307C31.899 11.1307 30.2897 10.1773 29.4867 9.07285C29.4266 8.99015 29.3641 8.90264 29.2987 8.8108C27.0581 8.73291 21.9076 8.89254 17.071 11.476C16.3724 12.8804 15.5425 14.2171 14.8141 14.6902Z" fill="#E938B5" stroke="black" stroke-width="0.427393" stroke-linecap="round" stroke-linejoin="round"/>
<path d="M17.0717 11.476C21.9082 8.89259 27.0587 8.73296 29.2993 8.81086C29.1844 8.64978 29.0618 8.47572 28.931 8.29446C28.141 7.19819 27.063 5.84277 25.7475 5.48408C24.0911 5.03211 21.3716 5.88556 21.2961 5.88556C21.2677 5.88556 20.935 5.95961 20.4994 6.15193C19.7849 6.46687 18.7939 7.10107 18.4194 8.25118C18.1578 9.05463 17.6616 10.2898 17.0717 11.476Z" fill="#F5D256" stroke="black" stroke-width="0.427393" stroke-linecap="round" stroke-linejoin="round"/>
<path d="M30.4879 12.3708C30.598 12.5714 30.8658 13.068 31.1712 13.6888C31.1712 13.6888 32.1914 12.9752 31.502 12.4901C31.3962 12.4156 31.0312 12.3761 30.4879 12.3708Z" fill="black" stroke="black" stroke-width="0.427393" stroke-linecap="round" stroke-linejoin="round"/>
<path d="M12.8159 16.7517C12.8871 17.346 13.6208 17.597 14.568 17.6676C15.3392 17.7253 16.2518 17.6628 17.0625 17.5691C17.5265 17.5152 17.9573 17.4513 18.3097 17.3931C18.5665 16.7272 18.7213 16.13 18.8045 15.7506C18.8636 15.4838 18.8877 15.3246 18.8877 15.3246C18.8963 15.2467 18.9175 15.1707 18.9507 15.0957C19.3122 14.2836 21.0821 13.647 23.1857 13.1951C23.6232 13.1008 24.0752 13.0148 24.532 12.9364H24.5325C26.7913 12.5498 29.1666 12.3584 30.4879 12.3709C31.0312 12.3762 31.3961 12.4157 31.5019 12.4902C32.1914 12.9753 31.1711 13.6889 31.1711 13.6889C31.4183 14.1918 31.7144 14.8164 32.0241 15.5213C32.0241 15.5213 32.6953 15.2039 33.4391 14.7332C34.7253 13.9192 36.2274 12.6455 34.8551 11.755C34.2709 11.3761 33.2266 11.18 31.8996 11.1309C31.2404 11.1064 30.5114 11.1184 29.734 11.1627C24.8734 11.4382 18.1304 12.9667 14.8147 14.6904C14.7411 14.7385 14.6685 14.7774 14.5973 14.8068C13.4241 15.4491 12.7399 16.116 12.8159 16.7517Z" fill="#F5D256" stroke="black" stroke-width="0.427393" stroke-linecap="round" stroke-linejoin="round"/>
<path d="M8.9151 29.6249C9.24446 31.8814 9.85847 34.1451 9.98252 34.5908C10.5321 34.5024 11.124 34.4081 11.7327 34.31C12.1986 35.3779 14.5075 40.1558 17.8963 38.5508C18.7257 38.158 19.1411 37.4632 19.282 36.5925C19.4638 35.4654 19.1873 34.0456 18.7531 32.606C17.9838 30.0495 16.7197 27.4319 16.6543 26.2895C16.4841 23.3147 18.2766 21.9242 20.1013 20.6058H20.1018C18.7334 20.2389 17.9598 19.5922 17.5357 18.9575C17.1419 19.585 16.6414 20.1754 16.0105 20.6159C16.0004 20.6231 15.9899 20.6303 15.9798 20.637C13.6444 22.2487 9.18629 23.3334 8.77182 26.1102C8.63094 27.0535 8.72662 28.3378 8.9151 29.6249Z" fill="#E86F3A" stroke="black" stroke-width="0.427393" stroke-linecap="round" stroke-linejoin="round"/>
<path d="M17.5354 18.9576C17.8614 18.4393 18.1153 17.8965 18.3095 17.3931" stroke="black" stroke-width="0.427393" stroke-linecap="round" stroke-linejoin="round"/>
<path d="M22.2062 16.9202C22.2336 16.9557 22.2514 16.9812 22.2591 16.9937" stroke="black" stroke-width="0.427393" stroke-linecap="round" stroke-linejoin="round"/>
<path d="M16.6544 26.2902C16.6886 26.8835 17.0458 27.875 17.4891 29.0491C17.8998 30.1348 18.3835 31.3777 18.7532 32.6067H18.7537C19.5605 31.6167 20.1014 20.6064 20.1014 20.6064C19.961 20.7079 19.8211 20.8094 19.6821 20.9122C18.0127 22.1479 16.4972 23.5442 16.6544 26.2902Z" fill="#E86F3A" stroke="black" stroke-width="0.427393" stroke-linecap="round" stroke-linejoin="round"/>
<path d="M20.101 20.6056C20.9121 20.0194 21.7295 19.4473 22.3834 18.7563C24.3865 16.6403 24.5221 13.3087 24.5312 12.9365C24.0744 13.0149 23.6225 13.101 23.1849 13.1952C23.1849 13.1952 22.8988 14.9915 22.2065 16.9201C21.7199 18.2765 21.0323 19.6983 20.101 20.6056Z" fill="#E86F3A" stroke="black" stroke-width="0.427393" stroke-linecap="round" stroke-linejoin="round"/>
<path d="M18.8044 15.7499C19.2362 15.5585 19.6882 15.4556 20.0815 15.5205C21.1436 15.6955 21.986 16.6336 22.2072 16.9192C22.7164 15.5013 23.0058 14.1545 23.1231 13.541C23.1655 13.3203 23.1857 13.1943 23.1857 13.1943C20.9162 13.6824 19.0352 14.3844 18.8924 15.2902C18.8905 15.3013 18.8891 15.3128 18.8876 15.3239C18.8876 15.3239 18.8636 15.483 18.8044 15.7499Z" fill="#E86F3A" stroke="black" stroke-width="0.427393" stroke-linecap="round" stroke-linejoin="round"/>
<path d="M28.1643 32.3732C28.1749 32.5737 28.1907 32.7122 28.2143 32.7641C28.2441 32.8304 28.685 32.9612 29.3937 33.1362C31.067 33.5488 34.2351 34.2056 37.0262 34.8306C37.8369 34.0142 38.4692 33.2016 38.9514 32.403C42.0969 27.2015 38.8952 22.5905 37.2912 21.2336C37.0897 21.0634 36.87 20.8624 36.6377 20.6393C34.7544 18.8305 32.0709 15.5782 32.0238 15.5215C32.9552 17.6371 34.0163 20.4758 34.2827 22.9179C34.489 24.8061 34.2202 26.4572 33.0494 27.3534C31.6829 28.3997 29.8909 28.2381 28.2484 27.6809C28.2484 27.6809 28.1008 31.1582 28.1643 32.3732Z" fill="#E86F3A" stroke="black" stroke-width="0.427393" stroke-linecap="round" stroke-linejoin="round"/>
<path d="M34.4686 34.2694C34.5195 34.0992 38.7522 31.134 34.3459 24.04" stroke="black" stroke-width="0.427393" stroke-linecap="round" stroke-linejoin="round"/>
<path d="M8.9151 29.6246C9.20792 29.679 9.50891 29.6689 9.78538 29.5631C10.3686 29.341 10.7287 28.7447 10.8985 28.1442C11.0682 27.5441 11.0913 26.9114 11.2418 26.306C11.5909 24.9006 12.6655 23.6957 14.0223 23.1889C14.4157 23.0418 14.8292 22.9504 15.2124 22.7802C15.5961 22.6095 15.96 22.3427 16.1269 21.9575C16.311 21.5339 16.2178 21.0411 15.9798 20.6367C13.6444 22.2484 9.18629 23.3331 8.77182 26.1099C8.63094 27.0532 8.72662 28.3375 8.9151 29.6246Z" fill="#FF8E66"/>
<path d="M37.0788 23.6508C37.4447 24.6951 37.9429 25.689 38.3068 26.7338C38.904 28.4474 39.131 30.2894 38.9675 32.0968C38.9583 32.1949 38.9516 32.2997 38.9516 32.4036C42.0971 27.2021 38.8954 22.591 37.2913 21.2342C37.0899 21.064 36.8702 20.863 36.6379 20.6399C36.5158 21.6515 36.7403 22.6853 37.0788 23.6508Z" fill="#FF8E66"/>
<path d="M18.8923 15.2902C19.0212 15.3364 19.1736 15.3441 19.3111 15.3325C20.3098 15.2469 21.1555 14.6027 22.022 14.0988C22.3773 13.8915 22.7456 13.7054 23.123 13.541C23.1654 13.3203 23.1856 13.1943 23.1856 13.1943C20.9161 13.6824 19.0351 14.3844 18.8923 15.2902Z" fill="#C14216"/>
<path d="M16.6544 26.2901C16.6886 26.8834 17.0458 27.8748 17.4891 29.049C17.5492 29.0221 17.6065 28.987 17.6593 28.9432C17.88 28.7595 17.9829 28.4648 18.0017 28.1782C18.0204 27.8917 17.9656 27.6061 17.9233 27.3224C17.7882 26.4189 17.7839 25.4606 18.1743 24.6351C18.3887 24.1817 18.7119 23.7903 19.0162 23.3917C19.3408 22.9662 19.6639 22.5065 19.7831 21.9757C19.875 21.5699 19.8552 21.1968 19.6821 20.9121C18.0127 22.1478 16.4972 23.5441 16.6544 26.2901Z" fill="#C14216"/>
<path d="M28.1643 32.3737C28.2345 32.3122 28.2965 32.2405 28.348 32.1598C28.5913 31.7785 28.5682 31.2837 28.7528 30.8702C29.0254 30.261 29.7168 29.9293 30.3828 29.8807C31.0482 29.8321 31.7065 30.0144 32.3561 30.1687C33.0052 30.3235 33.686 30.4529 34.3356 30.3C35.3189 30.0692 36.0747 29.1936 36.3262 28.2156C36.5781 27.2376 36.3795 26.1842 35.9492 25.2706C35.5381 24.3984 34.9284 23.6363 34.2827 22.9185C34.489 24.8066 34.2202 26.4578 33.0494 27.354C31.6829 28.4003 29.8909 28.2387 28.2484 27.6814C28.2484 27.6814 28.1008 31.1587 28.1643 32.3737Z" fill="#C14216"/>
<path d="M20.4994 6.15193C20.5013 6.15434 20.5037 6.15626 20.5056 6.15867C20.7326 6.39427 21.1023 6.39378 21.4293 6.39042C23.6896 6.36734 25.9523 6.99817 27.8746 8.18675C28.0987 8.32475 28.342 8.47669 28.6031 8.4464C28.7271 8.43245 28.8387 8.3762 28.931 8.29446C28.141 7.19819 27.063 5.84277 25.7475 5.48408C24.0911 5.03211 21.3716 5.88556 21.2961 5.88556C21.2677 5.88556 20.935 5.95961 20.4994 6.15193Z" fill="#FFE8A9"/>
<path d="M29.7338 11.1627C29.8429 11.3285 30.0247 11.4502 30.2127 11.5252C30.467 11.6257 30.742 11.6603 31.0036 11.7396C31.8508 11.9969 32.5196 12.7657 32.6571 13.6403C32.7043 13.9399 32.7038 14.2735 32.9052 14.501C33.0399 14.6534 33.2332 14.7197 33.4389 14.7332C34.7251 13.9192 36.2272 12.6455 34.8549 11.755C34.2708 11.3761 33.2264 11.18 31.8994 11.1309C31.2402 11.1064 30.5112 11.1184 29.7338 11.1627Z" fill="#FFE8A9"/>
<path d="M14.5681 17.6683C15.3393 17.726 16.2519 17.6635 17.0626 17.5698C17.5266 17.5159 17.9574 17.452 18.3098 17.3938C18.5666 16.7278 18.7214 16.1307 18.8046 15.7513C18.8637 15.4845 18.8878 15.3253 18.8878 15.3253C18.8964 15.2474 18.9176 15.1714 18.9508 15.0964C18.8897 15.0652 18.8253 15.0416 18.757 15.0286C17.9795 14.8796 17.0703 15.1094 16.3765 15.4556C15.9567 15.6652 15.5711 15.9436 15.2456 16.2821C14.8806 16.662 14.5787 17.1438 14.5681 17.6683Z" fill="#E0B836"/>
<path d="M23.8041 25.3643C23.8041 25.3643 25.0244 30.007 28.1478 30.8018L28.2478 27.6823C28.2478 27.6823 25.449 26.6553 23.8041 25.3643Z" fill="#FFA8A1"/>
<path d="M19.7201 26.3587C19.8542 26.365 19.9894 26.2861 20.0745 26.1779C20.1745 26.05 20.2192 25.889 20.2605 25.7322C20.437 25.0653 20.5923 24.3931 20.7264 23.7162C20.8712 22.9844 21.364 21.6126 20.8135 20.9452C20.6058 20.6933 20.3528 20.6125 20.0995 20.6428C20.0821 20.9856 19.9461 23.6335 19.7201 26.3587Z" fill="#FFA8A1"/>
<path d="M29.3353 12.3983C29.3651 12.6469 29.6147 13.0075 29.7041 13.232C29.8262 13.5383 29.9388 13.8484 30.0431 14.1614C30.4595 15.4087 30.7427 16.6958 30.9605 17.9911C31.0845 18.7302 31.187 19.473 31.2802 20.2169C31.5957 22.7349 31.812 25.2794 32.4241 27.7383C32.6409 27.6344 32.8501 27.507 33.0501 27.3536C35.7355 25.2977 33.6757 19.273 32.0245 15.5217C32.0241 15.5212 32.0241 15.5207 32.0241 15.5207C31.7144 14.8158 31.4182 14.1912 31.1711 13.6883C30.8658 13.0676 30.598 12.5709 30.4878 12.3704C30.1619 12.3675 29.7719 12.3766 29.3353 12.3983Z" fill="#FFF1F0"/>
<path d="M20.101 20.6064C20.3947 20.6853 20.7159 20.7512 21.0669 20.8012" stroke="black" stroke-width="0.427393" stroke-linecap="round" stroke-linejoin="round"/>
<path d="M18.7533 32.6051C18.7533 32.6051 20.9328 37.8528 24.3048 37.7874C27.6773 37.722 28.2148 32.7643 28.2148 32.7643C28.0489 32.3988 28.249 27.6811 28.249 27.6811C29.651 28.1566 31.1617 28.3441 32.4239 27.7383C32.6407 27.6344 32.8499 27.507 33.0499 27.3536C35.7353 25.2977 33.6755 19.273 32.0243 15.5217C32.0239 15.5212 32.0239 15.5207 32.0239 15.5207C31.7142 14.8158 31.418 14.1912 31.1709 13.6883C30.8656 13.0676 30.5978 12.5709 30.4876 12.3704C30.1617 12.3675 29.7717 12.3766 29.3351 12.3983C28.0018 12.4642 26.2339 12.6449 24.5322 12.9358H24.5318C24.5226 13.308 24.387 16.6396 22.3839 18.7556C21.73 19.4466 20.9126 20.0188 20.1015 20.6049L20.101 20.6054C20.101 20.6054 20.1005 20.6179 20.0991 20.6429C20.0818 20.9857 19.9457 23.6335 19.7197 26.3588C19.4841 29.1961 19.1509 32.1176 18.7533 32.6051Z" stroke="black" stroke-width="0.427393" stroke-linecap="round" stroke-linejoin="round"/>
<path d="M17.0717 11.476C21.9082 8.89259 27.0587 8.73296 29.2993 8.81086C28.4906 7.67372 27.2804 5.90191 25.7475 5.48408C24.0911 5.03211 21.3716 5.88556 21.2961 5.88556C21.2206 5.88556 19.0219 6.40004 18.4194 8.25118C18.1578 9.05463 17.6616 10.2898 17.0717 11.476Z" stroke="black" stroke-width="0.427393" stroke-linecap="round" stroke-linejoin="round"/>
<path d="M12.8159 16.7515C12.9448 17.83 15.2556 17.7781 17.0625 17.5689C17.5265 17.5151 17.9573 17.4511 18.3097 17.3929C18.5665 16.727 18.7213 16.1298 18.8045 15.7505C18.8636 15.4836 18.8877 15.3245 18.8877 15.3245C18.9891 14.4023 20.8884 13.6887 23.1857 13.1949C23.6232 13.1007 24.0752 13.0146 24.532 12.9363H24.5325C26.7913 12.5497 29.1666 12.3583 30.4879 12.3708C31.0312 12.3761 31.3961 12.4155 31.5019 12.4901C32.1914 12.9752 31.1711 13.6887 31.1711 13.6887C31.4183 14.1917 31.7144 14.8162 32.0241 15.5211C32.0241 15.5211 37.0217 13.1603 34.8551 11.7549C34.2709 11.376 33.2266 11.1798 31.8996 11.1308C27.1169 10.9543 18.6607 12.691 14.8147 14.6903C14.7411 14.7384 14.6685 14.7773 14.5973 14.8066C13.4241 15.449 12.7399 16.1159 12.8159 16.7515Z" stroke="black" stroke-width="0.427393" stroke-linecap="round" stroke-linejoin="round"/>
<path d="M9.98249 34.5908C10.5321 34.5024 11.124 34.4081 11.7327 34.31C12.1986 35.3779 14.5075 40.1558 17.8963 38.5508C18.7257 38.158 19.1411 37.4632 19.282 36.5925C19.4637 35.4654 19.1873 34.0456 18.7531 32.606C17.9838 30.0495 16.7197 27.4319 16.6543 26.2895C16.4841 23.3147 18.2766 21.9242 20.1013 20.6058H20.1018C18.7334 20.2389 17.9597 19.5922 17.5357 18.9575C17.1419 19.585 16.6413 20.1754 16.0105 20.6159C13.6838 22.2391 9.18818 23.3214 8.77179 26.1102C8.38425 28.7075 9.78776 33.8908 9.98249 34.5908Z" stroke="black" stroke-width="0.427393" stroke-linecap="round" stroke-linejoin="round"/>
<path d="M16.6544 26.2902C16.7198 27.4326 17.9839 30.0502 18.7532 32.6067H18.7537C19.5605 31.6167 20.1014 20.6064 20.1014 20.6064C18.2767 21.9248 16.4842 23.3154 16.6544 26.2902Z" stroke="black" stroke-width="0.427393" stroke-linecap="round" stroke-linejoin="round"/>
<path d="M18.8044 15.7499C19.2362 15.5585 19.6882 15.4556 20.0815 15.5205C21.1436 15.6955 21.986 16.6336 22.2072 16.9192C22.8996 14.9907 23.1857 13.1943 23.1857 13.1943C20.8883 13.6881 18.9891 14.4017 18.8876 15.3239C18.8876 15.3239 18.8636 15.483 18.8044 15.7499Z" stroke="black" stroke-width="0.427393" stroke-linecap="round" stroke-linejoin="round"/>
<path d="M28.2142 32.7641C28.2441 32.8304 28.685 32.9612 29.3937 33.1362C31.0669 33.5488 34.235 34.2056 37.0262 34.8306C43.1177 28.6935 39.1413 22.7987 37.2911 21.2336C35.4554 19.6801 32.0767 15.585 32.0238 15.5215C33.6749 19.2728 35.7347 25.2975 33.0493 27.3534C31.6829 28.3997 29.8909 28.2381 28.2484 27.6809C28.2484 27.6809 28.0484 32.3987 28.2142 32.7641Z" stroke="black" stroke-width="0.427393" stroke-linecap="round" stroke-linejoin="round"/>
<path d="M28.2478 27.6822C25.8687 26.8745 23.8041 25.2363 23.8041 25.2363" stroke="black" stroke-width="0.427393" stroke-linecap="round" stroke-linejoin="round"/>
<path d="M23.4509 15.2082V16.3285H23.9957L24.6544 17.8503C25.0347 18.7287 25.8603 19.2908 26.7695 19.2908C27.2691 19.2908 27.7398 19.1215 28.1269 18.8263C28.5135 18.5316 28.8149 18.1109 28.9746 17.6079C29.0356 17.4171 29.1496 17.2574 29.2962 17.1459C29.4434 17.0338 29.6217 16.9694 29.8107 16.9694H30.2906C30.4795 16.9694 30.6589 17.0334 30.805 17.1459C30.9517 17.2574 31.0656 17.4171 31.1267 17.6079C31.2868 18.1109 31.5888 18.5316 31.9749 18.8263C32.3619 19.1211 32.8331 19.2908 33.3322 19.2908C34.241 19.2908 35.067 18.7282 35.4468 17.8503L36.106 16.3285H36.6508V15.2082C36.6508 15.2082 34.0236 15.1067 33.0149 15.2082C31.8537 15.3241 31.0825 15.7284 30.8416 15.9352C30.7469 16.0164 30.3483 16.0544 30.0511 16.0712C29.7544 16.0544 29.3558 16.0169 29.2606 15.9352C29.0202 15.7289 28.2485 15.3241 27.0878 15.2082C26.0786 15.1067 23.4519 15.2082 23.4519 15.2082H23.4509Z" fill="#4C70F5" stroke="black" stroke-width="0.427393" stroke-linecap="round" stroke-linejoin="round"/>
<path d="M29.9385 18.4009C29.9385 18.4009 30.9246 20.7828 30.4409 20.9877C29.9572 21.1925 29.224 20.2616 29.224 20.2616" stroke="black" stroke-width="0.427393" stroke-linecap="round" stroke-linejoin="round"/>
<path d="M28.7851 24.0403C28.6548 24.0033 26.496 23.9845 26.0868 21.9189" stroke="black" stroke-width="0.427393" stroke-linecap="round" stroke-linejoin="round"/>
<path d="M26.7577 21.7926C26.5634 21.783 26.3673 21.7753 26.1754 21.8066C25.9836 21.8378 25.7936 21.9119 25.6532 22.0465C25.5128 22.1811 25.4287 22.3826 25.4648 22.5735" stroke="black" stroke-width="0.427393" stroke-linecap="round" stroke-linejoin="round"/>
<path d="M17.0617 17.5694C17.0728 17.9147 17.1844 18.4325 17.5349 18.958C17.9589 19.5927 18.7326 20.2394 20.101 20.6058C21.0323 19.6985 21.7199 18.2767 22.2065 16.9203C21.9853 16.6347 21.1429 15.6967 20.0808 15.5216C19.6875 15.4567 19.2355 15.5596 18.8037 15.751C17.9253 16.1395 17.1291 16.892 17.0709 17.3382C17.0627 17.4016 17.0589 17.4795 17.0617 17.5694Z" fill="#FFD9D4" stroke="black" stroke-width="0.427393" stroke-linecap="round" stroke-linejoin="round"/>
<path d="M20.9519 18.1498C20.6259 17.7983 20.1811 17.5588 19.708 17.4814C19.2349 17.404 18.7367 17.4881 18.3156 17.7175" stroke="black" stroke-width="0.427393" stroke-linecap="round" stroke-linejoin="round"/>
<path d="M39.2607 31.2593C39.226 31.7301 39.252 32.0594 39.3559 32.0974C40.1348 32.3792 40.832 30.9257 40.8488 30.8891C40.906 29.8179 41.3498 28.4595 41.7801 28.0177C42.4417 27.3378 43.0904 27.7773 43.3639 28.1398C43.6371 28.5019 44.1159 32.8456 44.077 33.3052C43.9981 34.2366 42.6148 35.6035 42.6148 35.6035L47.7423 45.1098C46.4691 49.9492 40.1083 48.2144 40.1083 48.2144C40.1083 48.2144 38.0519 37.2648 37.9302 36.9652C37.8086 36.6661 35.9387 35.7569 35.6021 35.2958C35.2651 34.8347 34.2904 32.3157 35.0073 31.0776C35.0472 31.0088 35.2463 30.905 35.5382 30.7944C36.6272 30.3804 39.0145 29.8606 39.3304 30.63" fill="#FFD9D4"/>
<path d="M39.2607 31.2593C39.226 31.7301 39.252 32.0594 39.3559 32.0974C40.1348 32.3792 40.832 30.9257 40.8488 30.8891C40.906 29.8179 41.3498 28.4595 41.7801 28.0177C42.4417 27.3378 43.0904 27.7773 43.3639 28.1398C43.6371 28.5019 44.1159 32.8456 44.077 33.3052C43.9981 34.2366 42.6148 35.6035 42.6148 35.6035L47.7423 45.1098C46.4691 49.9492 40.1083 48.2144 40.1083 48.2144C40.1083 48.2144 38.0519 37.2648 37.9302 36.9652C37.8086 36.6661 35.9387 35.7569 35.6021 35.2958C35.2651 34.8347 34.2904 32.3157 35.0073 31.0776C35.0472 31.0088 35.2463 30.905 35.5382 30.7944C36.6272 30.3804 39.0145 29.8606 39.3304 30.63" stroke="black" stroke-width="0.427393" stroke-linecap="round" stroke-linejoin="round"/>
<path d="M40.8496 30.8892C40.8149 31.534 40.9193 32.0744 41.2511 32.248C42.1329 32.7096 42.8349 29.3962 42.8349 29.3962" fill="#FFD9D4"/>
<path d="M40.8496 30.8892C40.8149 31.534 40.9193 32.0744 41.2511 32.248C42.1329 32.7096 42.8349 29.3962 42.8349 29.3962" stroke="black" stroke-width="0.427393" stroke-linecap="round" stroke-linejoin="round"/>
<path d="M39.2609 31.2595C38.7926 32.2183 36.9116 32.5212 36.9116 32.5212" stroke="black" stroke-width="0.427393" stroke-linecap="round" stroke-linejoin="round"/>
<path d="M35.5393 30.7943C36.6283 30.3803 39.0151 29.861 39.331 30.6299C39.4392 29.8682 39.644 28.9571 39.9027 28.2738C39.9032 28.2724 39.9041 28.2705 39.9046 28.2681C39.931 28.1988 39.9575 28.132 39.9844 28.0681C40.1599 26.9833 40.621 23.4137 39.6546 23.1791C38.2357 22.8344 37.6337 29.0547 37.5457 28.9119C37.4577 28.7691 36.2119 23.5402 35.1128 23.6373C33.8574 23.7484 35.5393 30.7943 35.5393 30.7943Z" fill="#FFD9D4" stroke="black" stroke-width="0.427393" stroke-linecap="round" stroke-linejoin="round"/>
<path d="M42.1416 33.4965C42.0661 33.6609 41.9829 33.8254 41.8579 33.9566C41.7329 34.0879 41.5603 34.1836 41.379 34.1768C41.1256 34.1677 40.9189 33.9653 40.7905 33.747C40.6621 33.5287 40.5832 33.2811 40.4352 33.0753C40.2871 32.8695 40.0342 32.7065 39.7885 32.768C39.6038 32.8142 39.4721 32.9719 39.3206 33.0868C38.8744 33.4248 38.2542 33.3907 37.7027 33.2921C37.4892 33.2542 37.2695 33.2051 37.0959 33.0758C36.8492 32.8916 36.9449 32.8272 36.9117 32.5209C36.8579 32.0233 36.7723 31.2607 37.0161 30.8231C37.2598 30.3856 38.9158 30.9092 39.3312 30.6299C39.9899 30.1861 39.4913 29.0677 40.2851 29.06C40.7785 29.0557 41.2694 29.136 41.7391 29.284C42.0257 29.374 42.3829 29.4523 42.6157 29.6538C42.8715 29.875 42.8652 30.2207 42.8522 30.5318C42.8325 31.0087 42.769 31.4833 42.6642 31.9492C42.544 32.481 42.369 33.0008 42.1411 33.4965H42.1416Z" fill="#FFA8A1"/>
<path d="M39.3561 32.097C40.1351 32.3787 40.8322 30.9252 40.8491 30.8887C40.9063 29.8174 41.3501 28.4591 41.7804 28.0172C41.7804 28.0172 41.4092 27.3826 40.7115 27.2585C40.4538 27.2128 40.2028 27.5509 39.9841 28.0673C39.9567 28.1307 39.9302 28.198 39.9043 28.2673C39.9038 28.2702 39.9028 28.2716 39.9023 28.2735C39.6441 28.9568 39.4388 29.8674 39.3311 30.6295C39.3552 30.6867 39.3667 30.7517 39.3657 30.8247C39.3638 30.9824 39.3258 31.1272 39.2614 31.2589C39.2268 31.7296 39.2527 32.059 39.3566 32.097H39.3561Z" fill="#FFD9D4" stroke="black" stroke-width="0.427393" stroke-linecap="round" stroke-linejoin="round"/>
<path d="M42.8341 29.3961C42.8341 29.3961 42.2605 32.5296 41.3715 32.3666C40.4824 32.2036 40.7998 30.0317 41.4075 28.6152" fill="#FFD9D4"/>
<path d="M42.8341 29.3961C42.8341 29.3961 42.2605 32.5296 41.3715 32.3666C40.4824 32.2036 40.7998 30.0317 41.4075 28.6152" stroke="black" stroke-width="0.427393" stroke-linecap="round" stroke-linejoin="round"/>
<path d="M35.7112 30.7318C35.7112 30.7318 39.237 29.562 39.3856 30.8876C39.5342 32.2137 36.9118 32.5209 36.9118 32.5209" fill="#FFD9D4"/>
<path d="M35.7112 30.7318C35.7112 30.7318 39.237 29.562 39.3856 30.8876C39.5342 32.2137 36.9118 32.5209 36.9118 32.5209" stroke="black" stroke-width="0.427393" stroke-linecap="round" stroke-linejoin="round"/>
<path d="M18.9916 23.8317L16.9789 24.2106L17.9021 22.3825L16.9193 20.5857L18.9436 20.8987L20.349 19.4087L20.6769 21.4305L22.528 22.3066L20.7062 23.2432L20.4451 25.2747L18.9916 23.8317Z" fill="#F5D256" stroke="black" stroke-width="0.427393" stroke-linecap="round" stroke-linejoin="round"/>
</g>
<defs>
<clipPath id="clip0_1836_3352">
<rect y="-0.000488281" width="48" height="48" rx="24" fill="white"/>
</clipPath>
</defs>
</svg>
